M48
; DRILL file {KiCad 9.0.2+dfsg-1} date 2026-04-29T17:38:37-0400
; FORMAT={-:-/ absolute / metric / decimal}
; #@! TF.CreationDate,2026-04-29T17:38:37-04:00
; #@! TF.GenerationSoftware,Kicad,Pcbnew,9.0.2+dfsg-1
; #@! TF.FileFunction,Plated,1,4,PTH
FMAT,2
METRIC
; #@! TA.AperFunction,Plated,PTH,ViaDrill
T1C0.300
; #@! TA.AperFunction,Plated,PTH,ComponentDrill
T2C0.500
; #@! TA.AperFunction,Plated,PTH,ComponentDrill
T3C0.650
; #@! TA.AperFunction,Plated,PTH,ComponentDrill
T4C1.000
; #@! TA.AperFunction,Plated,PTH,ComponentDrill
T5C1.900
; #@! TA.AperFunction,Plated,PTH,ComponentDrill
T6C2.150
; #@! TA.AperFunction,Plated,PTH,ComponentDrill
T7C3.200
%
G90
G05
T1
X124.2Y-109.8
X124.3Y-96.5
X124.3Y-100.3
X124.3Y-103.9
X124.3Y-105.1
X124.3Y-106.9
X124.3Y-111.6
X124.3Y-113.4
X124.321Y-88.025
X124.4Y-99.3
X124.4Y-108.7
X124.6Y-114.6
X124.8Y-109.8
X124.9Y-96.5
X124.9Y-100.3
X124.9Y-103.9
X124.9Y-105.1
X124.9Y-106.9
X124.9Y-111.6
X124.9Y-113.4
X125.0Y-99.3
X125.0Y-108.7
X125.2Y-114.6
X125.4Y-109.8
X125.5Y-82.9
X125.5Y-86.6
X125.5Y-96.5
X125.5Y-100.3
X125.5Y-103.9
X125.5Y-105.1
X125.5Y-106.9
X125.5Y-111.6
X125.5Y-113.4
X125.6Y-87.3
X125.6Y-99.3
X125.6Y-108.7
X125.8Y-114.6
X125.9Y-87.9
X126.0Y-109.8
X126.1Y-96.5
X126.1Y-100.3
X126.1Y-103.9
X126.1Y-105.1
X126.1Y-106.9
X126.1Y-111.6
X126.1Y-113.4
X126.2Y-82.9
X126.2Y-99.3
X126.2Y-108.7
X126.4Y-114.6
X126.5Y-98.1
X126.5Y-98.7
X126.5Y-101.0
X126.5Y-101.6
X126.5Y-102.7
X126.5Y-103.3
X126.5Y-105.7
X126.5Y-106.3
X126.5Y-107.5
X126.5Y-108.1
X126.5Y-110.4
X126.5Y-111.0
X126.5Y-112.2
X126.5Y-112.8
X126.5Y-115.2
X126.5Y-115.8
X126.5Y-133.75
X126.5Y-134.25
X126.5Y-134.75
X126.5Y-135.25
X126.5Y-135.75
X126.5Y-136.25
X126.5Y-136.75
X126.5Y-137.25
X126.6Y-109.8
X126.7Y-100.3
X126.7Y-105.1
X126.7Y-106.9
X126.7Y-111.6
X126.7Y-113.4
X126.8Y-99.3
X126.8Y-103.9
X126.8Y-108.7
X126.9Y-82.9
X127.0Y-114.6
X127.0Y-134.0
X127.0Y-134.5
X127.0Y-135.0
X127.0Y-135.5
X127.0Y-136.0
X127.0Y-136.5
X127.0Y-137.0
X127.0Y-137.5
X127.1Y-86.5
X127.1Y-87.2
X127.1Y-87.9
X127.1Y-96.5
X127.2Y-109.8
X127.25Y-132.0
X127.25Y-133.0
X127.3Y-85.8
X127.3Y-100.3
X127.3Y-105.1
X127.3Y-106.9
X127.3Y-111.6
X127.3Y-113.4
X127.4Y-99.3
X127.4Y-103.9
X127.4Y-108.7
X127.5Y-132.5
X127.5Y-133.75
X127.5Y-134.25
X127.5Y-134.75
X127.5Y-135.25
X127.5Y-135.75
X127.5Y-136.25
X127.5Y-136.75
X127.5Y-137.25
X127.6Y-82.9
X127.6Y-114.6
X127.7Y-96.5
X127.75Y-132.0
X127.75Y-133.0
X127.8Y-109.8
X127.9Y-100.3
X127.9Y-105.1
X127.9Y-106.9
X127.9Y-111.6
X127.9Y-113.4
X128.0Y-99.3
X128.0Y-103.9
X128.0Y-108.7
X128.0Y-132.5
X128.2Y-114.6
X128.25Y-132.0
X128.25Y-133.0
X128.3Y-82.9
X128.3Y-96.5
X128.4Y-109.8
X128.5Y-100.3
X128.5Y-105.1
X128.5Y-106.9
X128.5Y-111.6
X128.5Y-113.4
X128.5Y-132.5
X128.6Y-99.3
X128.6Y-108.7
X128.75Y-132.0
X128.75Y-133.0
X128.8Y-114.6
X128.9Y-96.5
X129.0Y-82.9
X129.0Y-98.1
X129.0Y-98.7
X129.0Y-101.0
X129.0Y-101.6
X129.0Y-115.2
X129.0Y-115.8
X129.0Y-132.5
X129.1Y-100.3
X129.1Y-106.1
X129.1Y-106.7
X129.1Y-107.3
X129.1Y-107.9
X129.1Y-108.5
X129.1Y-109.1
X129.2Y-99.3
X129.25Y-132.0
X129.25Y-133.0
X129.5Y-132.5
X129.6Y-107.0
X129.6Y-107.6
X129.6Y-108.2
X129.6Y-108.8
X129.6Y-109.4
X129.694Y-82.896
X129.7Y-100.3
X129.75Y-132.0
X129.75Y-133.0
X129.8Y-99.3
X130.0Y-132.5
X130.2Y-103.6
X130.2Y-104.2
X130.2Y-104.8
X130.2Y-105.4
X130.2Y-106.0
X130.25Y-132.0
X130.25Y-133.0
X130.3Y-100.3
X130.4Y-82.9
X130.4Y-99.3
X130.4Y-107.8
X130.5Y-132.5
X130.5Y-133.75
X130.5Y-134.25
X130.5Y-134.75
X130.5Y-135.25
X130.5Y-135.75
X130.5Y-136.25
X130.5Y-136.75
X130.5Y-137.25
X130.7Y-107.3
X130.75Y-132.0
X130.75Y-133.0
X130.8Y-103.6
X131.0Y-107.8
X131.0Y-132.5
X131.0Y-134.0
X131.0Y-134.5
X131.0Y-135.0
X131.0Y-135.5
X131.0Y-136.0
X131.0Y-136.5
X131.0Y-137.0
X131.0Y-137.5
X131.1Y-82.9
X131.25Y-93.25
X131.3Y-107.3
X131.4Y-103.6
X131.5Y-133.75
X131.5Y-134.25
X131.5Y-134.75
X131.5Y-135.25
X131.5Y-135.75
X131.5Y-136.25
X131.5Y-136.75
X131.5Y-137.25
X131.6Y-107.8
X131.7Y-104.1
X131.75Y-91.0
X131.75Y-91.5
X131.75Y-93.25
X131.9Y-106.3
X131.9Y-107.3
X132.0Y-103.6
X132.0Y-104.6
X132.1Y-105.5
X132.2Y-106.8
X132.2Y-107.8
X132.25Y-93.25
X132.3Y-104.1
X132.5Y-106.3
X132.5Y-107.3
X132.6Y-103.6
X132.6Y-104.6
X132.8Y-106.8
X132.8Y-107.8
X133.161Y-84.717
X133.2Y-83.7
X133.3Y-83.0
X133.75Y-96.0
X133.75Y-96.7
X133.896Y-85.396
X134.0Y-97.9
X134.5Y-96.0
X134.5Y-96.7
X134.7Y-97.9
X135.2Y-86.5
X135.2Y-101.1
X135.4Y-97.9
X136.1Y-97.9
X136.5Y-89.0
X136.5Y-89.75
X136.5Y-90.5
X136.5Y-91.25
X136.5Y-92.0
X137.25Y-89.0
X137.25Y-89.75
X137.25Y-90.5
X137.25Y-91.25
X137.25Y-92.0
X137.75Y-86.75
X137.942Y-103.665
X138.0Y-80.7
X138.0Y-89.0
X138.0Y-89.75
X138.0Y-90.5
X138.0Y-91.25
X138.0Y-92.0
X138.75Y-89.0
X138.75Y-89.75
X138.75Y-90.5
X138.75Y-91.25
X138.75Y-92.0
X139.0Y-80.725
X139.251Y-106.417
X139.5Y-89.0
X139.5Y-89.75
X139.5Y-90.5
X139.5Y-91.25
X139.5Y-92.0
X139.712Y-85.675
X139.8Y-80.7
X140.7Y-102.3
X140.8Y-85.675
X141.054Y-106.671
X142.1Y-79.225
X142.5Y-99.092
X143.0Y-99.6
X143.9Y-105.4
X144.0Y-85.25
X144.209Y-84.169
X144.5Y-82.8
X144.5Y-83.587
X144.5Y-84.75
X145.694Y-87.008
X146.046Y-87.654
X146.1Y-86.5
X146.25Y-84.15
X146.3Y-83.0
X146.5Y-84.75
X146.6Y-86.0
X146.709Y-83.669
X146.8Y-103.5
X146.8Y-104.5
X147.1Y-101.0
X147.1Y-104.0
X147.1Y-105.0
X147.1Y-126.6
X147.23Y-84.943
X147.251Y-89.0
X147.4Y-103.5
X147.4Y-104.5
X147.5Y-105.5
X147.7Y-104.0
X147.7Y-105.0
X148.0Y-103.5
X148.4Y-85.7
X148.5Y-128.2
X148.6Y-103.5
X149.2Y-77.6
X149.2Y-103.5
X149.4Y-104.1
X149.4Y-104.7
X149.4Y-105.3
X149.75Y-108.25
X149.9Y-89.539
X149.9Y-90.5
X149.9Y-101.0
X149.9Y-105.0
X149.9Y-105.6
X149.9Y-128.2
X150.0Y-107.75
X150.25Y-108.25
X150.4Y-104.7
X150.4Y-105.3
X150.5Y-107.75
X150.75Y-108.25
X150.9Y-105.0
X150.9Y-105.6
X151.0Y-107.75
X151.2Y-81.4
X151.25Y-108.25
X151.4Y-104.7
X151.4Y-105.3
X151.5Y-107.75
X151.75Y-108.25
X151.9Y-105.0
X151.9Y-105.6
X152.0Y-106.75
X152.0Y-107.25
X152.0Y-107.75
X152.25Y-108.25
X152.4Y-104.7
X152.4Y-105.3
X152.5Y-107.75
X152.75Y-108.25
X152.75Y-133.0
X152.9Y-105.0
X152.9Y-105.6
X153.0Y-80.0
X153.0Y-107.75
X153.2Y-83.4
X153.25Y-108.25
X153.25Y-132.499
X153.4Y-104.7
X153.4Y-105.3
X153.5Y-107.75
X153.5Y-127.5
X153.5Y-131.75
X153.75Y-108.25
X153.893Y-92.393
X153.9Y-80.0
X153.9Y-93.2
X154.2Y-85.125
X154.325Y-127.953
X154.5Y-96.0
X154.5Y-133.5
X154.5Y-134.0
X154.5Y-134.5
X154.5Y-135.0
X154.5Y-135.5
X154.5Y-136.0
X154.5Y-136.5
X154.5Y-137.0
X154.8Y-78.0
X155.0Y-84.7
X155.0Y-133.75
X155.0Y-134.25
X155.0Y-134.75
X155.0Y-135.25
X155.0Y-135.75
X155.0Y-136.25
X155.0Y-136.75
X155.0Y-137.25
X155.3Y-104.9
X155.3Y-105.5
X155.5Y-96.0
X155.5Y-133.5
X155.5Y-134.0
X155.5Y-134.5
X155.5Y-135.0
X155.5Y-135.5
X155.5Y-136.0
X155.5Y-136.5
X155.5Y-137.0
X155.75Y-107.75
X155.798Y-84.325
X155.8Y-105.2
X155.8Y-105.8
X156.0Y-108.25
X156.25Y-107.75
X156.3Y-104.9
X156.3Y-105.5
X156.5Y-96.0
X156.5Y-108.25
X156.75Y-107.75
X156.8Y-105.2
X156.8Y-105.8
X157.0Y-108.25
X157.25Y-106.75
X157.25Y-107.25
X157.25Y-107.75
X157.3Y-104.9
X157.3Y-105.5
X157.5Y-96.0
X157.5Y-108.25
X157.75Y-107.75
X157.8Y-105.2
X157.8Y-105.8
X158.0Y-108.25
X158.25Y-107.75
X158.3Y-104.9
X158.3Y-105.5
X158.327Y-79.634
X158.5Y-108.25
X158.5Y-133.5
X158.5Y-134.0
X158.5Y-134.5
X158.5Y-135.0
X158.5Y-135.5
X158.5Y-136.0
X158.5Y-136.5
X158.5Y-137.0
X158.75Y-107.75
X158.8Y-105.2
X158.8Y-105.8
X159.0Y-108.25
X159.0Y-133.75
X159.0Y-134.25
X159.0Y-134.75
X159.0Y-135.25
X159.0Y-135.75
X159.0Y-136.25
X159.0Y-136.75
X159.0Y-137.25
X159.25Y-107.75
X159.3Y-104.9
X159.3Y-105.5
X159.3Y-130.3
X159.5Y-81.8
X159.5Y-93.9
X159.5Y-133.5
X159.5Y-134.0
X159.5Y-134.5
X159.5Y-135.0
X159.5Y-135.5
X159.5Y-136.0
X159.5Y-136.5
X159.5Y-137.0
X159.8Y-104.0
X159.8Y-104.6
X159.8Y-105.2
X159.8Y-105.8
X160.3Y-103.5
X160.5Y-93.9
X160.817Y-79.586
X160.9Y-103.5
X161.8Y-105.7
X162.5Y-90.4
X163.25Y-85.25
X164.455Y-99.248
X164.904Y-100.4
X165.143Y-80.457
X165.5Y-81.5
X165.5Y-133.5
X165.5Y-134.0
X165.5Y-134.5
X165.5Y-135.0
X165.5Y-135.5
X165.5Y-136.0
X165.5Y-136.5
X165.5Y-137.0
X165.6Y-105.5
X166.0Y-133.75
X166.0Y-134.25
X166.0Y-134.75
X166.0Y-135.25
X166.0Y-135.75
X166.0Y-136.25
X166.0Y-136.75
X166.0Y-137.25
X166.1Y-100.2
X166.25Y-131.75
X166.25Y-132.75
X166.429Y-85.364
X166.5Y-132.25
X166.5Y-133.5
X166.5Y-134.0
X166.5Y-134.5
X166.5Y-135.0
X166.5Y-135.5
X166.5Y-136.0
X166.5Y-136.5
X166.5Y-137.0
X166.7Y-90.4
X166.75Y-131.75
X166.75Y-132.75
X167.0Y-132.25
X167.1Y-99.4
X167.25Y-131.75
X167.25Y-132.75
X167.5Y-82.6
X167.5Y-83.5
X167.5Y-132.25
X167.75Y-131.75
X167.75Y-132.75
X168.0Y-99.5
X168.0Y-132.25
X168.25Y-131.75
X168.25Y-132.75
X168.5Y-132.25
X168.7Y-103.2
X168.7Y-113.2
X168.7Y-114.2
X168.75Y-131.75
X168.75Y-132.75
X168.8Y-104.3
X168.8Y-108.2
X168.8Y-109.3
X169.0Y-132.25
X169.2Y-103.2
X169.2Y-113.2
X169.2Y-114.2
X169.25Y-131.75
X169.25Y-132.75
X169.3Y-104.3
X169.3Y-108.2
X169.3Y-109.3
X169.5Y-132.25
X169.5Y-133.5
X169.5Y-134.0
X169.5Y-134.5
X169.5Y-135.0
X169.5Y-135.5
X169.5Y-136.0
X169.5Y-136.5
X169.5Y-137.0
X169.6Y-94.3
X169.7Y-103.2
X169.7Y-113.2
X169.7Y-114.2
X169.75Y-131.75
X169.75Y-132.75
X169.8Y-84.5
X169.8Y-104.3
X169.8Y-108.2
X169.8Y-109.3
X169.875Y-99.559
X170.0Y-132.25
X170.0Y-133.75
X170.0Y-134.25
X170.0Y-134.75
X170.0Y-135.25
X170.0Y-135.75
X170.0Y-136.25
X170.0Y-136.75
X170.0Y-137.25
X170.2Y-103.2
X170.2Y-113.2
X170.2Y-114.2
X170.3Y-104.3
X170.3Y-108.2
X170.3Y-109.3
X170.5Y-133.5
X170.5Y-134.0
X170.5Y-134.5
X170.5Y-135.0
X170.5Y-135.5
X170.5Y-136.0
X170.5Y-136.5
X170.5Y-137.0
X170.642Y-99.242
X170.9Y-89.425
X170.9Y-94.3
X171.675Y-100.0
X171.7Y-86.1
X171.975Y-84.5
X172.225Y-99.25
T2
X125.1Y-78.5
X125.1Y-120.5
X125.803Y-76.803
X125.803Y-80.197
X125.803Y-118.803
X125.803Y-122.197
X127.5Y-76.1
X127.5Y-80.9
X127.5Y-118.1
X127.5Y-122.9
X129.197Y-76.803
X129.197Y-80.197
X129.197Y-118.803
X129.197Y-122.197
X129.9Y-78.5
X129.9Y-120.5
X134.3Y-82.9
X135.6Y-82.9
X136.9Y-82.9
X138.2Y-82.9
X139.5Y-82.9
X140.8Y-82.9
X142.1Y-82.9
X157.7Y-77.8
X158.95Y-77.8
X160.2Y-77.8
X162.0Y-81.25
X162.0Y-82.45
X162.7Y-92.3
X167.1Y-78.5
X167.1Y-120.5
X167.803Y-76.803
X167.803Y-80.197
X167.803Y-118.803
X167.803Y-122.197
X169.5Y-76.1
X169.5Y-80.9
X169.5Y-118.1
X169.5Y-122.9
X171.197Y-76.803
X171.197Y-80.197
X171.197Y-118.803
X171.197Y-122.197
X171.9Y-78.5
X171.9Y-120.5
T3
X164.23Y-76.0
X165.5Y-76.0
T4
X132.92Y-76.25
X135.46Y-76.25
X136.0Y-134.325
X138.0Y-76.25
X140.54Y-76.25
X143.08Y-76.25
X147.0Y-134.325
T5
X139.0Y-124.325
X144.0Y-124.325
T6
X137.5Y-118.5
X148.5Y-118.5
X159.0Y-118.5
T7
X127.5Y-78.5
X127.5Y-120.5
X169.5Y-78.5
X169.5Y-120.5
M30
