%TF.GenerationSoftware,KiCad,Pcbnew,9.0.2+dfsg-1*%
%TF.CreationDate,2026-04-29T17:38:33-04:00*%
%TF.ProjectId,spinor-r2a,7370696e-6f72-42d7-9232-612e6b696361,rev?*%
%TF.SameCoordinates,Original*%
%TF.FileFunction,Copper,L1,Top*%
%TF.FilePolarity,Positive*%
%FSLAX46Y46*%
G04 Gerber Fmt 4.6, Leading zero omitted, Abs format (unit mm)*
G04 Created by KiCad (PCBNEW 9.0.2+dfsg-1) date 2026-04-29 17:38:33*
%MOMM*%
%LPD*%
G01*
G04 APERTURE LIST*
G04 Aperture macros list*
%AMRoundRect*
0 Rectangle with rounded corners*
0 $1 Rounding radius*
0 $2 $3 $4 $5 $6 $7 $8 $9 X,Y pos of 4 corners*
0 Add a 4 corners polygon primitive as box body*
4,1,4,$2,$3,$4,$5,$6,$7,$8,$9,$2,$3,0*
0 Add four circle primitives for the rounded corners*
1,1,$1+$1,$2,$3*
1,1,$1+$1,$4,$5*
1,1,$1+$1,$6,$7*
1,1,$1+$1,$8,$9*
0 Add four rect primitives between the rounded corners*
20,1,$1+$1,$2,$3,$4,$5,0*
20,1,$1+$1,$4,$5,$6,$7,0*
20,1,$1+$1,$6,$7,$8,$9,0*
20,1,$1+$1,$8,$9,$2,$3,0*%
%AMFreePoly0*
4,1,5,2.438400,-2.222500,-2.438400,-2.222500,-2.438400,2.222500,2.438400,2.222500,2.438400,-2.222500,2.438400,-2.222500,$1*%
G04 Aperture macros list end*
%TA.AperFunction,SMDPad,CuDef*%
%ADD10RoundRect,0.250000X-0.475000X0.250000X-0.475000X-0.250000X0.475000X-0.250000X0.475000X0.250000X0*%
%TD*%
%TA.AperFunction,SMDPad,CuDef*%
%ADD11RoundRect,0.140000X-0.140000X-0.170000X0.140000X-0.170000X0.140000X0.170000X-0.140000X0.170000X0*%
%TD*%
%TA.AperFunction,ComponentPad*%
%ADD12R,0.850000X0.850000*%
%TD*%
%TA.AperFunction,SMDPad,CuDef*%
%ADD13RoundRect,0.140000X0.170000X-0.140000X0.170000X0.140000X-0.170000X0.140000X-0.170000X-0.140000X0*%
%TD*%
%TA.AperFunction,SMDPad,CuDef*%
%ADD14RoundRect,0.250000X0.650000X-0.325000X0.650000X0.325000X-0.650000X0.325000X-0.650000X-0.325000X0*%
%TD*%
%TA.AperFunction,SMDPad,CuDef*%
%ADD15RoundRect,0.140000X-0.170000X0.140000X-0.170000X-0.140000X0.170000X-0.140000X0.170000X0.140000X0*%
%TD*%
%TA.AperFunction,ComponentPad*%
%ADD16RoundRect,0.250002X-1.699998X-1.699998X1.699998X-1.699998X1.699998X1.699998X-1.699998X1.699998X0*%
%TD*%
%TA.AperFunction,SMDPad,CuDef*%
%ADD17RoundRect,0.135000X0.135000X0.185000X-0.135000X0.185000X-0.135000X-0.185000X0.135000X-0.185000X0*%
%TD*%
%TA.AperFunction,SMDPad,CuDef*%
%ADD18RoundRect,0.150000X-0.200000X0.150000X-0.200000X-0.150000X0.200000X-0.150000X0.200000X0.150000X0*%
%TD*%
%TA.AperFunction,SMDPad,CuDef*%
%ADD19RoundRect,0.075000X0.662500X0.075000X-0.662500X0.075000X-0.662500X-0.075000X0.662500X-0.075000X0*%
%TD*%
%TA.AperFunction,SMDPad,CuDef*%
%ADD20RoundRect,0.075000X0.075000X0.662500X-0.075000X0.662500X-0.075000X-0.662500X0.075000X-0.662500X0*%
%TD*%
%TA.AperFunction,SMDPad,CuDef*%
%ADD21RoundRect,0.135000X-0.135000X-0.185000X0.135000X-0.185000X0.135000X0.185000X-0.135000X0.185000X0*%
%TD*%
%TA.AperFunction,SMDPad,CuDef*%
%ADD22R,0.457200X1.016000*%
%TD*%
%TA.AperFunction,SMDPad,CuDef*%
%ADD23FreePoly0,270.000000*%
%TD*%
%TA.AperFunction,ComponentPad*%
%ADD24R,1.000000X1.000000*%
%TD*%
%TA.AperFunction,ComponentPad*%
%ADD25C,1.000000*%
%TD*%
%TA.AperFunction,SMDPad,CuDef*%
%ADD26FreePoly0,90.000000*%
%TD*%
%TA.AperFunction,SMDPad,CuDef*%
%ADD27R,3.606800X1.498600*%
%TD*%
%TA.AperFunction,ComponentPad*%
%ADD28C,0.800000*%
%TD*%
%TA.AperFunction,ComponentPad*%
%ADD29C,6.400000*%
%TD*%
%TA.AperFunction,SMDPad,CuDef*%
%ADD30R,0.228600X0.812800*%
%TD*%
%TA.AperFunction,SMDPad,CuDef*%
%ADD31R,0.812800X0.228600*%
%TD*%
%TA.AperFunction,SMDPad,CuDef*%
%ADD32R,4.241800X4.241800*%
%TD*%
%TA.AperFunction,SMDPad,CuDef*%
%ADD33RoundRect,0.250000X-0.650000X0.325000X-0.650000X-0.325000X0.650000X-0.325000X0.650000X0.325000X0*%
%TD*%
%TA.AperFunction,SMDPad,CuDef*%
%ADD34RoundRect,0.135000X0.185000X-0.135000X0.185000X0.135000X-0.185000X0.135000X-0.185000X-0.135000X0*%
%TD*%
%TA.AperFunction,SMDPad,CuDef*%
%ADD35RoundRect,0.225000X0.225000X0.250000X-0.225000X0.250000X-0.225000X-0.250000X0.225000X-0.250000X0*%
%TD*%
%TA.AperFunction,SMDPad,CuDef*%
%ADD36RoundRect,0.225000X-0.250000X0.225000X-0.250000X-0.225000X0.250000X-0.225000X0.250000X0.225000X0*%
%TD*%
%TA.AperFunction,SMDPad,CuDef*%
%ADD37RoundRect,0.250000X0.325000X0.250000X-0.325000X0.250000X-0.325000X-0.250000X0.325000X-0.250000X0*%
%TD*%
%TA.AperFunction,SMDPad,CuDef*%
%ADD38RoundRect,0.250000X-0.362500X-1.425000X0.362500X-1.425000X0.362500X1.425000X-0.362500X1.425000X0*%
%TD*%
%TA.AperFunction,SMDPad,CuDef*%
%ADD39RoundRect,0.250000X0.450000X-0.262500X0.450000X0.262500X-0.450000X0.262500X-0.450000X-0.262500X0*%
%TD*%
%TA.AperFunction,SMDPad,CuDef*%
%ADD40R,2.120000X4.010000*%
%TD*%
%TA.AperFunction,SMDPad,CuDef*%
%ADD41RoundRect,0.150000X0.200000X-0.150000X0.200000X0.150000X-0.200000X0.150000X-0.200000X-0.150000X0*%
%TD*%
%TA.AperFunction,ComponentPad*%
%ADD42C,1.400000*%
%TD*%
%TA.AperFunction,ComponentPad*%
%ADD43RoundRect,0.770000X0.980000X0.980000X-0.980000X0.980000X-0.980000X-0.980000X0.980000X-0.980000X0*%
%TD*%
%TA.AperFunction,ComponentPad*%
%ADD44C,3.500000*%
%TD*%
%TA.AperFunction,SMDPad,CuDef*%
%ADD45RoundRect,0.140000X0.140000X0.170000X-0.140000X0.170000X-0.140000X-0.170000X0.140000X-0.170000X0*%
%TD*%
%TA.AperFunction,ComponentPad*%
%ADD46R,1.700000X1.700000*%
%TD*%
%TA.AperFunction,ComponentPad*%
%ADD47C,1.700000*%
%TD*%
%TA.AperFunction,SMDPad,CuDef*%
%ADD48RoundRect,0.250000X0.362500X1.425000X-0.362500X1.425000X-0.362500X-1.425000X0.362500X-1.425000X0*%
%TD*%
%TA.AperFunction,SMDPad,CuDef*%
%ADD49RoundRect,0.225000X0.250000X-0.225000X0.250000X0.225000X-0.250000X0.225000X-0.250000X-0.225000X0*%
%TD*%
%TA.AperFunction,SMDPad,CuDef*%
%ADD50RoundRect,0.135000X-0.185000X0.135000X-0.185000X-0.135000X0.185000X-0.135000X0.185000X0.135000X0*%
%TD*%
%TA.AperFunction,SMDPad,CuDef*%
%ADD51RoundRect,0.250000X0.325000X0.650000X-0.325000X0.650000X-0.325000X-0.650000X0.325000X-0.650000X0*%
%TD*%
%TA.AperFunction,SMDPad,CuDef*%
%ADD52RoundRect,0.250000X-0.250000X-0.475000X0.250000X-0.475000X0.250000X0.475000X-0.250000X0.475000X0*%
%TD*%
%TA.AperFunction,SMDPad,CuDef*%
%ADD53RoundRect,0.150000X0.150000X-0.512500X0.150000X0.512500X-0.150000X0.512500X-0.150000X-0.512500X0*%
%TD*%
%TA.AperFunction,SMDPad,CuDef*%
%ADD54R,1.200000X0.600000*%
%TD*%
%TA.AperFunction,SMDPad,CuDef*%
%ADD55RoundRect,0.250000X0.475000X-0.250000X0.475000X0.250000X-0.475000X0.250000X-0.475000X-0.250000X0*%
%TD*%
%TA.AperFunction,SMDPad,CuDef*%
%ADD56RoundRect,0.225000X-0.225000X-0.250000X0.225000X-0.250000X0.225000X0.250000X-0.225000X0.250000X0*%
%TD*%
%TA.AperFunction,SMDPad,CuDef*%
%ADD57RoundRect,0.150000X-0.150000X0.825000X-0.150000X-0.825000X0.150000X-0.825000X0.150000X0.825000X0*%
%TD*%
%TA.AperFunction,ViaPad*%
%ADD58C,0.600000*%
%TD*%
%TA.AperFunction,ViaPad*%
%ADD59C,0.450000*%
%TD*%
%TA.AperFunction,Conductor*%
%ADD60C,0.250000*%
%TD*%
%TA.AperFunction,Conductor*%
%ADD61C,0.150000*%
%TD*%
%TA.AperFunction,Conductor*%
%ADD62C,0.400000*%
%TD*%
%TA.AperFunction,Conductor*%
%ADD63C,0.200000*%
%TD*%
G04 APERTURE END LIST*
D10*
%TO.P,C34,1*%
%TO.N,VDD*%
X126200000Y-83850000D03*
%TO.P,C34,2*%
%TO.N,GND*%
X126200000Y-85750000D03*
%TD*%
D11*
%TO.P,C10,1*%
%TO.N,VDD*%
X153020000Y-80750000D03*
%TO.P,C10,2*%
%TO.N,GND*%
X153980000Y-80750000D03*
%TD*%
%TO.P,C12,1*%
%TO.N,VDDA*%
X155270000Y-79750000D03*
%TO.P,C12,2*%
%TO.N,GND*%
X156230000Y-79750000D03*
%TD*%
D12*
%TO.P,TP5,1,1*%
%TO.N,/Microcontroller/TIM1_CH3*%
X134300000Y-82900000D03*
%TD*%
%TO.P,TP13,1,1*%
%TO.N,/Microcontroller/USART1_TX*%
X162700000Y-92300000D03*
%TD*%
D13*
%TO.P,C21,1*%
%TO.N,/Microcontroller/ADC1_IN12*%
X160250000Y-80230000D03*
%TO.P,C21,2*%
%TO.N,GND*%
X160250000Y-79270000D03*
%TD*%
D14*
%TO.P,C46,1*%
%TO.N,VBUS*%
X169500000Y-105225000D03*
%TO.P,C46,2*%
%TO.N,GND*%
X169500000Y-102275000D03*
%TD*%
D11*
%TO.P,C25,1*%
%TO.N,/FET_Half_Bridge_A/SHUNT_P*%
X140220000Y-95000000D03*
%TO.P,C25,2*%
%TO.N,GND*%
X141180000Y-95000000D03*
%TD*%
D15*
%TO.P,C18,1*%
%TO.N,VDD*%
X138900000Y-85420000D03*
%TO.P,C18,2*%
%TO.N,GND*%
X138900000Y-86380000D03*
%TD*%
D16*
%TO.P,J5,1,Pin_1*%
%TO.N,/FET_Half_Bridge_A/PHASE*%
X137500000Y-118500000D03*
%TD*%
D14*
%TO.P,C55,1*%
%TO.N,VBUS*%
X125250000Y-101225000D03*
%TO.P,C55,2*%
%TO.N,GND*%
X125250000Y-98275000D03*
%TD*%
D17*
%TO.P,R34,1*%
%TO.N,/Thermistors/NTC_MOTOR_CONN*%
X166510000Y-82500000D03*
%TO.P,R34,2*%
%TO.N,/Microcontroller/ADC12_IN1*%
X165490000Y-82500000D03*
%TD*%
D15*
%TO.P,C27,1*%
%TO.N,/FET_Half_Bridge_B/SHUNT_P*%
X142400000Y-92820000D03*
%TO.P,C27,2*%
%TO.N,GND*%
X142400000Y-93780000D03*
%TD*%
D18*
%TO.P,D12,1,K*%
%TO.N,/FET_Half_Bridge_C/GATE_L_RAW*%
X165750000Y-102450000D03*
%TO.P,D12,2,A*%
%TO.N,GND*%
X165750000Y-101050000D03*
%TD*%
D19*
%TO.P,U2,1,VBAT*%
%TO.N,VDD*%
X161162500Y-90000000D03*
%TO.P,U2,2,PC13*%
%TO.N,unconnected-(U2-PC13-Pad2)*%
X161162500Y-89500000D03*
%TO.P,U2,3,PC14*%
%TO.N,unconnected-(U2-PC14-Pad3)*%
X161162500Y-89000000D03*
%TO.P,U2,4,PC15*%
%TO.N,unconnected-(U2-PC15-Pad4)*%
X161162500Y-88500000D03*
%TO.P,U2,5,PF0*%
%TO.N,/Microcontroller/OSC_IN*%
X161162500Y-88000000D03*
%TO.P,U2,6,PF1*%
%TO.N,/Microcontroller/OSC_OUT*%
X161162500Y-87500000D03*
%TO.P,U2,7,PG10*%
%TO.N,/Microcontroller/NRST*%
X161162500Y-87000000D03*
%TO.P,U2,8,PA0*%
%TO.N,/Microcontroller/ADC12_IN1*%
X161162500Y-86500000D03*
%TO.P,U2,9,PA1*%
%TO.N,/Microcontroller/ADC12_IN2*%
X161162500Y-86000000D03*
%TO.P,U2,10,PA2*%
%TO.N,/Microcontroller/ADC1_IN3*%
X161162500Y-85500000D03*
%TO.P,U2,11,PA3*%
%TO.N,unconnected-(U2-PA3-Pad11)*%
X161162500Y-85000000D03*
%TO.P,U2,12,PA4*%
%TO.N,/Microcontroller/DAC1_OUT1*%
X161162500Y-84500000D03*
D20*
%TO.P,U2,13,PA5*%
%TO.N,/Microcontroller/DAC1_OUT2*%
X159750000Y-83087500D03*
%TO.P,U2,14,PA6*%
%TO.N,unconnected-(U2-PA6-Pad14)*%
X159250000Y-83087500D03*
%TO.P,U2,15,PA7*%
%TO.N,/Microcontroller/PA7*%
X158750000Y-83087500D03*
%TO.P,U2,16,PB0*%
%TO.N,/Microcontroller/ADC1_IN12*%
X158250000Y-83087500D03*
%TO.P,U2,17,PB1*%
%TO.N,/Microcontroller/ADC2_IN12*%
X157750000Y-83087500D03*
%TO.P,U2,18,PB2*%
%TO.N,/Microcontroller/ADC3_IN12*%
X157250000Y-83087500D03*
%TO.P,U2,19,VSSA*%
%TO.N,GND*%
X156750000Y-83087500D03*
%TO.P,U2,20,VREF+*%
%TO.N,VDDA*%
X156250000Y-83087500D03*
%TO.P,U2,21,VDDA*%
X155750000Y-83087500D03*
%TO.P,U2,22,PB10*%
%TO.N,/Microcontroller/TIM2_CH3*%
X155250000Y-83087500D03*
%TO.P,U2,23,VSS*%
%TO.N,GND*%
X154750000Y-83087500D03*
%TO.P,U2,24,VDD*%
%TO.N,VDD*%
X154250000Y-83087500D03*
D19*
%TO.P,U2,25,PB11*%
%TO.N,/Microcontroller/TIM2_CH4*%
X152837500Y-84500000D03*
%TO.P,U2,26,PB12*%
%TO.N,/Microcontroller/SPI1_NSS*%
X152837500Y-85000000D03*
%TO.P,U2,27,PB13*%
%TO.N,/Microcontroller/SPI1_SCK*%
X152837500Y-85500000D03*
%TO.P,U2,28,PB14*%
%TO.N,/Microcontroller/SPI1_MISO*%
X152837500Y-86000000D03*
%TO.P,U2,29,PB15*%
%TO.N,/Microcontroller/SPI1_MOSI*%
X152837500Y-86500000D03*
%TO.P,U2,30,PA8*%
%TO.N,/Microcontroller/TIM1_CH1*%
X152837500Y-87000000D03*
%TO.P,U2,31,PA9*%
%TO.N,/Microcontroller/TIM1_CH2*%
X152837500Y-87500000D03*
%TO.P,U2,32,PA10*%
%TO.N,/Microcontroller/TIM1_CH3*%
X152837500Y-88000000D03*
%TO.P,U2,33,PA11*%
%TO.N,/Microcontroller/PA11*%
X152837500Y-88500000D03*
%TO.P,U2,34,PA12*%
%TO.N,/Microcontroller/PA12*%
X152837500Y-89000000D03*
%TO.P,U2,35,VSS*%
%TO.N,GND*%
X152837500Y-89500000D03*
%TO.P,U2,36,VDD*%
%TO.N,VDD*%
X152837500Y-90000000D03*
D20*
%TO.P,U2,37,PA13*%
%TO.N,/Microcontroller/SWDIO*%
X154250000Y-91412500D03*
%TO.P,U2,38,PA14*%
%TO.N,/Microcontroller/SWCLK*%
X154750000Y-91412500D03*
%TO.P,U2,39,PA15*%
%TO.N,/Microcontroller/SPI3_NSS*%
X155250000Y-91412500D03*
%TO.P,U2,40,PB3*%
%TO.N,/Microcontroller/SPI3_SCK*%
X155750000Y-91412500D03*
%TO.P,U2,41,PB4*%
%TO.N,/Microcontroller/SPI3_MISO*%
X156250000Y-91412500D03*
%TO.P,U2,42,PB5*%
%TO.N,/Microcontroller/SPI3_MOSI*%
X156750000Y-91412500D03*
%TO.P,U2,43,PB6*%
%TO.N,/Microcontroller/USART1_TX*%
X157250000Y-91412500D03*
%TO.P,U2,44,PB7*%
%TO.N,unconnected-(U2-PB7-Pad44)*%
X157750000Y-91412500D03*
%TO.P,U2,45,PB8*%
%TO.N,/Microcontroller/FDCAN1_RX*%
X158250000Y-91412500D03*
%TO.P,U2,46,PB9*%
%TO.N,/Microcontroller/FDCAN1_TX*%
X158750000Y-91412500D03*
%TO.P,U2,47,VSS*%
%TO.N,GND*%
X159250000Y-91412500D03*
%TO.P,U2,48,VDD*%
%TO.N,VDD*%
X159750000Y-91412500D03*
%TD*%
D15*
%TO.P,C5,1*%
%TO.N,Net-(C5-Pad1)*%
X167250000Y-88430000D03*
%TO.P,C5,2*%
%TO.N,GND*%
X167250000Y-89390000D03*
%TD*%
D21*
%TO.P,R31,1*%
%TO.N,/Microcontroller/ADC1_IN3*%
X163490000Y-81500000D03*
%TO.P,R31,2*%
%TO.N,GND*%
X164510000Y-81500000D03*
%TD*%
D16*
%TO.P,J7,1,Pin_1*%
%TO.N,/FET_Half_Bridge_C/PHASE*%
X159000000Y-118500000D03*
%TD*%
D22*
%TO.P,Q4,1,G*%
%TO.N,/FET_Half_Bridge_B/GATE_L_RAW*%
X143345000Y-109053600D03*
D23*
%TO.P,Q4,2,D*%
%TO.N,/FET_Half_Bridge_B/PHASE*%
X145250000Y-113016000D03*
D22*
%TO.P,Q4,3,S*%
%TO.N,/FET_Half_Bridge_B/SHUNT_P*%
X147155000Y-109053600D03*
X145885000Y-109053600D03*
X144615000Y-109053600D03*
%TD*%
D24*
%TO.P,J10,1,Pin_1*%
%TO.N,/Thermistors/NTC_MOTOR_CONN*%
X165500000Y-76000000D03*
D25*
%TO.P,J10,2,Pin_2*%
%TO.N,GND*%
X164230000Y-76000000D03*
%TD*%
D22*
%TO.P,Q2,1,G*%
%TO.N,/FET_Half_Bridge_A/GATE_L_RAW*%
X136845000Y-109053600D03*
D23*
%TO.P,Q2,2,D*%
%TO.N,/FET_Half_Bridge_A/PHASE*%
X138750000Y-113016000D03*
D22*
%TO.P,Q2,3,S*%
%TO.N,/FET_Half_Bridge_A/SHUNT_P*%
X140655000Y-109053600D03*
X139385000Y-109053600D03*
X138115000Y-109053600D03*
%TD*%
%TO.P,Q5,1,G*%
%TO.N,/FET_Half_Bridge_C/GATE_H_RAW*%
X160155000Y-114946400D03*
D26*
%TO.P,Q5,2,D*%
%TO.N,VBUS*%
X158250000Y-110984000D03*
D22*
%TO.P,Q5,3,S*%
%TO.N,/FET_Half_Bridge_C/PHASE*%
X156345000Y-114946400D03*
X157615000Y-114946400D03*
X158885000Y-114946400D03*
%TD*%
D11*
%TO.P,C51,1*%
%TO.N,/Microcontroller/ADC12_IN2*%
X163520000Y-84500000D03*
%TO.P,C51,2*%
%TO.N,GND*%
X164480000Y-84500000D03*
%TD*%
D14*
%TO.P,C39,1*%
%TO.N,VBUS*%
X158400000Y-106975000D03*
%TO.P,C39,2*%
%TO.N,GND*%
X158400000Y-104025000D03*
%TD*%
D27*
%TO.P,L3,1,1*%
%TO.N,/Power_Supply/3V3_BUCK_SW*%
X129750000Y-86999997D03*
%TO.P,L3,2,2*%
%TO.N,VDD*%
X129750000Y-84000003D03*
%TD*%
D14*
%TO.P,C47,1*%
%TO.N,VBUS*%
X127750000Y-105975000D03*
%TO.P,C47,2*%
%TO.N,GND*%
X127750000Y-103025000D03*
%TD*%
D28*
%TO.P,H2,1*%
%TO.N,N/C*%
X125100000Y-78500000D03*
X125802944Y-76802944D03*
X125802944Y-80197056D03*
X127500000Y-76100000D03*
D29*
X127500000Y-78500000D03*
D28*
X127500000Y-80900000D03*
X129197056Y-76802944D03*
X129197056Y-80197056D03*
X129900000Y-78500000D03*
%TD*%
D30*
%TO.P,U4,1,CPL*%
%TO.N,Net-(U4-CPL)*%
X135749433Y-93446400D03*
%TO.P,U4,2,CPH*%
%TO.N,Net-(U4-CPH)*%
X136249559Y-93446400D03*
%TO.P,U4,3,VM*%
%TO.N,VBUS*%
X136749685Y-93446400D03*
%TO.P,U4,4,VDRAIN*%
X137249811Y-93446400D03*
%TO.P,U4,5,VCP*%
%TO.N,/Integrated_FET_Driver/V_CHARGE_PUMP*%
X137749937Y-93446400D03*
%TO.P,U4,6,GHA*%
%TO.N,/FET_Half_Bridge_A/GATE_H*%
X138250063Y-93446400D03*
%TO.P,U4,7,SHA*%
%TO.N,/FET_Half_Bridge_A/PHASE*%
X138750189Y-93446400D03*
%TO.P,U4,8,GLA*%
%TO.N,/FET_Half_Bridge_A/GATE_L*%
X139250315Y-93446400D03*
%TO.P,U4,9,SPA*%
%TO.N,/FET_Half_Bridge_A/SHUNT_P*%
X139750441Y-93446400D03*
%TO.P,U4,10,SNA*%
%TO.N,GND*%
X140250567Y-93446400D03*
D31*
%TO.P,U4,11,SNB*%
X140946400Y-92750567D03*
%TO.P,U4,12,SPB*%
%TO.N,/FET_Half_Bridge_B/SHUNT_P*%
X140946400Y-92250441D03*
%TO.P,U4,13,GLB*%
%TO.N,/FET_Half_Bridge_B/GATE_L*%
X140946400Y-91750315D03*
%TO.P,U4,14,SHB*%
%TO.N,/FET_Half_Bridge_B/PHASE*%
X140946400Y-91250189D03*
%TO.P,U4,15,GHB*%
%TO.N,/FET_Half_Bridge_B/GATE_H*%
X140946400Y-90750063D03*
%TO.P,U4,16,GHC*%
%TO.N,/FET_Half_Bridge_C/GATE_H*%
X140946400Y-90249937D03*
%TO.P,U4,17,SHC*%
%TO.N,/FET_Half_Bridge_C/PHASE*%
X140946400Y-89749811D03*
%TO.P,U4,18,GLC*%
%TO.N,/FET_Half_Bridge_C/GATE_L*%
X140946400Y-89249685D03*
%TO.P,U4,19,SPC*%
%TO.N,/FET_Half_Bridge_C/SHUNT_P*%
X140946400Y-88749559D03*
%TO.P,U4,20,SNC*%
%TO.N,GND*%
X140946400Y-88249433D03*
D30*
%TO.P,U4,21,SOC*%
%TO.N,/Integrated_FET_Driver/SOC*%
X140250567Y-87553600D03*
%TO.P,U4,22,SOB*%
%TO.N,/Integrated_FET_Driver/SOB*%
X139750441Y-87553600D03*
%TO.P,U4,23,SOA*%
%TO.N,/Integrated_FET_Driver/SOA*%
X139250315Y-87553600D03*
%TO.P,U4,24,VREF*%
%TO.N,GND*%
X138750189Y-87553600D03*
%TO.P,U4,25,AGND*%
%TO.N,VDD*%
X138250063Y-87553600D03*
%TO.P,U4,26,NFAULT*%
%TO.N,/Microcontroller/PA12*%
X137749937Y-87553600D03*
%TO.P,U4,27,SDO*%
%TO.N,/Microcontroller/SPI1_MISO*%
X137249811Y-87553600D03*
%TO.P,U4,28,SDI*%
%TO.N,/Microcontroller/SPI1_MOSI*%
X136749685Y-87553600D03*
%TO.P,U4,29,SCLK*%
%TO.N,/Microcontroller/SPI1_SCK*%
X136249559Y-87553600D03*
%TO.P,U4,30,NSCS*%
%TO.N,/Microcontroller/SPI1_NSS*%
X135749433Y-87553600D03*
D31*
%TO.P,U4,31,ENABLE*%
%TO.N,/Microcontroller/PA7*%
X135053600Y-88249433D03*
%TO.P,U4,32,INHA*%
%TO.N,/Microcontroller/TIM1_CH1*%
X135053600Y-88749559D03*
%TO.P,U4,33,INLA*%
%TO.N,/Microcontroller/PA11*%
X135053600Y-89249685D03*
%TO.P,U4,34,INHB*%
%TO.N,/Microcontroller/TIM1_CH2*%
X135053600Y-89749811D03*
%TO.P,U4,35,INLB*%
%TO.N,/Microcontroller/PA11*%
X135053600Y-90249937D03*
%TO.P,U4,36,INHC*%
%TO.N,/Microcontroller/TIM1_CH3*%
X135053600Y-90750063D03*
%TO.P,U4,37,INLC*%
%TO.N,/Microcontroller/PA11*%
X135053600Y-91250189D03*
%TO.P,U4,38,DVDD*%
%TO.N,/Integrated_FET_Driver/DVDD*%
X135053600Y-91750315D03*
%TO.P,U4,39,GND*%
%TO.N,GND*%
X135053600Y-92250441D03*
%TO.P,U4,40,VGLS*%
%TO.N,/Integrated_FET_Driver/VGLS*%
X135053600Y-92750567D03*
D32*
%TO.P,U4,41,EPAD*%
%TO.N,GND*%
X138000000Y-90500000D03*
%TD*%
D14*
%TO.P,C42,1*%
%TO.N,VBUS*%
X156000000Y-106975000D03*
%TO.P,C42,2*%
%TO.N,GND*%
X156000000Y-104025000D03*
%TD*%
D33*
%TO.P,C44,1*%
%TO.N,VBUS*%
X125250000Y-107775000D03*
%TO.P,C44,2*%
%TO.N,GND*%
X125250000Y-110725000D03*
%TD*%
D34*
%TO.P,R19,1*%
%TO.N,/Integrated_FET_Driver/SOB*%
X146500000Y-79910000D03*
%TO.P,R19,2*%
%TO.N,/Microcontroller/ADC2_IN12*%
X146500000Y-78890000D03*
%TD*%
D12*
%TO.P,TP1,1,1*%
%TO.N,/Microcontroller/DAC1_OUT1*%
X162000000Y-82450000D03*
%TD*%
%TO.P,TP12,1,1*%
%TO.N,/Microcontroller/ADC3_IN12*%
X157700000Y-77800000D03*
%TD*%
D14*
%TO.P,C45,1*%
%TO.N,VBUS*%
X130250000Y-101225000D03*
%TO.P,C45,2*%
%TO.N,GND*%
X130250000Y-98275000D03*
%TD*%
D35*
%TO.P,C37,1*%
%TO.N,VBUS*%
X127175000Y-92800000D03*
%TO.P,C37,2*%
%TO.N,GND*%
X125625000Y-92800000D03*
%TD*%
D36*
%TO.P,C33,1*%
%TO.N,/Power_Supply/3V3_BUCK_SW*%
X124400000Y-85525000D03*
%TO.P,C33,2*%
%TO.N,/Power_Supply/3V3_BUCK_CP*%
X124400000Y-87075000D03*
%TD*%
D14*
%TO.P,C48,1*%
%TO.N,VBUS*%
X125250000Y-105975000D03*
%TO.P,C48,2*%
%TO.N,GND*%
X125250000Y-103025000D03*
%TD*%
D37*
%TO.P,Y1,1,1*%
%TO.N,Net-(C5-Pad1)*%
X165875000Y-88210000D03*
%TO.P,Y1,2,2*%
%TO.N,GND*%
X164125000Y-88210000D03*
%TO.P,Y1,3,3*%
%TO.N,/Microcontroller/OSC_IN*%
X164125000Y-89610000D03*
%TO.P,Y1,4,4*%
%TO.N,GND*%
X165875000Y-89610000D03*
%TD*%
D14*
%TO.P,C40,1*%
%TO.N,VBUS*%
X153200000Y-106975000D03*
%TO.P,C40,2*%
%TO.N,GND*%
X153200000Y-104025000D03*
%TD*%
D38*
%TO.P,R26,1*%
%TO.N,/FET_Half_Bridge_B/SHUNT_P*%
X142537500Y-105500000D03*
%TO.P,R26,2*%
%TO.N,GND*%
X148462500Y-105500000D03*
%TD*%
D39*
%TO.P,L1,1,1*%
%TO.N,VDD*%
X151250000Y-80412500D03*
%TO.P,L1,2,2*%
%TO.N,VDDA*%
X151250000Y-78587500D03*
%TD*%
D40*
%TO.P,C4,1*%
%TO.N,VBUS*%
X157000000Y-126700000D03*
%TO.P,C4,2*%
%TO.N,GND*%
X157000000Y-135300000D03*
%TD*%
D34*
%TO.P,R3,1*%
%TO.N,VDD*%
X141000000Y-79910000D03*
%TO.P,R3,2*%
%TO.N,/Microcontroller/DEBUG_VTGT*%
X141000000Y-78890000D03*
%TD*%
D14*
%TO.P,C53,1*%
%TO.N,VBUS*%
X169500000Y-115225000D03*
%TO.P,C53,2*%
%TO.N,GND*%
X169500000Y-112275000D03*
%TD*%
D41*
%TO.P,D10,1,K*%
%TO.N,/FET_Half_Bridge_C/GATE_H*%
X160900000Y-101050000D03*
%TO.P,D10,2,A*%
%TO.N,/FET_Half_Bridge_C/GATE_H_RAW*%
X160900000Y-102450000D03*
%TD*%
D11*
%TO.P,C32,1*%
%TO.N,/Microcontroller/ADC1_IN3*%
X163520000Y-82500000D03*
%TO.P,C32,2*%
%TO.N,GND*%
X164480000Y-82500000D03*
%TD*%
D42*
%TO.P,J8,*%
%TO.N,*%
X147000000Y-134325000D03*
X136000000Y-134325000D03*
D43*
%TO.P,J8,1,Pin_1*%
%TO.N,GND*%
X139000000Y-124325000D03*
D44*
%TO.P,J8,2,Pin_2*%
%TO.N,VBUS*%
X144000000Y-124325000D03*
%TD*%
D45*
%TO.P,C17,1*%
%TO.N,/Integrated_FET_Driver/DVDD*%
X133480000Y-91300000D03*
%TO.P,C17,2*%
%TO.N,GND*%
X132520000Y-91300000D03*
%TD*%
D34*
%TO.P,R9,1*%
%TO.N,/Microcontroller/ENC_MOSI*%
X157500000Y-95010000D03*
%TO.P,R9,2*%
%TO.N,/Microcontroller/SPI3_MOSI*%
X157500000Y-93990000D03*
%TD*%
D22*
%TO.P,Q3,1,G*%
%TO.N,/FET_Half_Bridge_B/GATE_H_RAW*%
X153655000Y-114946400D03*
D26*
%TO.P,Q3,2,D*%
%TO.N,VBUS*%
X151750000Y-110984000D03*
D22*
%TO.P,Q3,3,S*%
%TO.N,/FET_Half_Bridge_B/PHASE*%
X149845000Y-114946400D03*
X151115000Y-114946400D03*
X152385000Y-114946400D03*
%TD*%
D46*
%TO.P,J9,1,Pin_1*%
%TO.N,GND*%
X132920000Y-76250000D03*
D47*
%TO.P,J9,2,Pin_2*%
%TO.N,/Microcontroller/DEBUG_NRST*%
X135460000Y-76250000D03*
%TO.P,J9,3,Pin_3*%
%TO.N,/Microcontroller/DEBUG_SWCLK*%
X138000000Y-76250000D03*
%TO.P,J9,4,Pin_4*%
%TO.N,/Microcontroller/DEBUG_SWDIO*%
X140540000Y-76250000D03*
%TO.P,J9,5,Pin_5*%
%TO.N,/Microcontroller/DEBUG_VTGT*%
X143080000Y-76250000D03*
%TD*%
D17*
%TO.P,R1,1*%
%TO.N,/Microcontroller/CAN_TXVR_TX*%
X165760000Y-94000000D03*
%TO.P,R1,2*%
%TO.N,/Microcontroller/FDCAN1_TX*%
X164740000Y-94000000D03*
%TD*%
D48*
%TO.P,R23,1*%
%TO.N,/FET_Half_Bridge_A/SHUNT_P*%
X136962500Y-105500000D03*
%TO.P,R23,2*%
%TO.N,GND*%
X131037500Y-105500000D03*
%TD*%
D49*
%TO.P,C15,1*%
%TO.N,VBUS*%
X137250000Y-96775000D03*
%TO.P,C15,2*%
%TO.N,/Integrated_FET_Driver/V_CHARGE_PUMP*%
X137250000Y-95225000D03*
%TD*%
D34*
%TO.P,R4,1*%
%TO.N,/Microcontroller/SWDIO*%
X140000000Y-79910000D03*
%TO.P,R4,2*%
%TO.N,/Microcontroller/DEBUG_SWDIO*%
X140000000Y-78890000D03*
%TD*%
D11*
%TO.P,C6,1*%
%TO.N,/Microcontroller/OSC_IN*%
X164520000Y-90910000D03*
%TO.P,C6,2*%
%TO.N,GND*%
X165480000Y-90910000D03*
%TD*%
D34*
%TO.P,R10,1*%
%TO.N,/Microcontroller/ENC_MISO*%
X156500000Y-95010000D03*
%TO.P,R10,2*%
%TO.N,/Microcontroller/SPI3_MISO*%
X156500000Y-93990000D03*
%TD*%
D22*
%TO.P,Q1,1,G*%
%TO.N,/FET_Half_Bridge_A/GATE_H_RAW*%
X134155000Y-114946400D03*
D26*
%TO.P,Q1,2,D*%
%TO.N,VBUS*%
X132250000Y-110984000D03*
D22*
%TO.P,Q1,3,S*%
%TO.N,/FET_Half_Bridge_A/PHASE*%
X130345000Y-114946400D03*
X131615000Y-114946400D03*
X132885000Y-114946400D03*
%TD*%
D28*
%TO.P,H4,1*%
%TO.N,N/C*%
X125100000Y-120500000D03*
X125802944Y-118802944D03*
X125802944Y-122197056D03*
X127500000Y-118100000D03*
D29*
X127500000Y-120500000D03*
D28*
X127500000Y-122900000D03*
X129197056Y-118802944D03*
X129197056Y-122197056D03*
X129900000Y-120500000D03*
%TD*%
D34*
%TO.P,R11,1*%
%TO.N,/Microcontroller/ENC_CLK*%
X155500000Y-95010000D03*
%TO.P,R11,2*%
%TO.N,/Microcontroller/SPI3_SCK*%
X155500000Y-93990000D03*
%TD*%
D48*
%TO.P,R29,1*%
%TO.N,/FET_Half_Bridge_C/SHUNT_P*%
X166762500Y-105500000D03*
%TO.P,R29,2*%
%TO.N,GND*%
X160837500Y-105500000D03*
%TD*%
D41*
%TO.P,D7,1,K*%
%TO.N,/FET_Half_Bridge_B/GATE_H*%
X153500000Y-101095000D03*
%TO.P,D7,2,A*%
%TO.N,/FET_Half_Bridge_B/GATE_H_RAW*%
X153500000Y-102495000D03*
%TD*%
D40*
%TO.P,C31,1*%
%TO.N,VBUS*%
X168000000Y-126700000D03*
%TO.P,C31,2*%
%TO.N,GND*%
X168000000Y-135300000D03*
%TD*%
D34*
%TO.P,R6,1*%
%TO.N,/Microcontroller/NRST*%
X138000000Y-79910000D03*
%TO.P,R6,2*%
%TO.N,/Microcontroller/DEBUG_NRST*%
X138000000Y-78890000D03*
%TD*%
D36*
%TO.P,C28,1*%
%TO.N,VBUS*%
X167250000Y-100975000D03*
%TO.P,C28,2*%
%TO.N,/FET_Half_Bridge_C/SHUNT_P*%
X167250000Y-102525000D03*
%TD*%
D41*
%TO.P,D5,1,K*%
%TO.N,/FET_Half_Bridge_A/GATE_L*%
X137500000Y-100800000D03*
%TO.P,D5,2,A*%
%TO.N,/FET_Half_Bridge_A/GATE_L_RAW*%
X137500000Y-102200000D03*
%TD*%
D12*
%TO.P,TP7,1,1*%
%TO.N,/Microcontroller/SPI1_SCK*%
X139500000Y-82900000D03*
%TD*%
D17*
%TO.P,R30,1*%
%TO.N,VBUS*%
X164510000Y-80500000D03*
%TO.P,R30,2*%
%TO.N,/Microcontroller/ADC1_IN3*%
X163490000Y-80500000D03*
%TD*%
%TO.P,R13,1*%
%TO.N,Net-(C5-Pad1)*%
X165510000Y-86910000D03*
%TO.P,R13,2*%
%TO.N,/Microcontroller/OSC_OUT*%
X164490000Y-86910000D03*
%TD*%
D12*
%TO.P,TP9,1,1*%
%TO.N,/Microcontroller/SPI1_MISO*%
X142100000Y-82900000D03*
%TD*%
D17*
%TO.P,R32,1*%
%TO.N,VDD*%
X166510000Y-83500000D03*
%TO.P,R32,2*%
%TO.N,/Microcontroller/ADC12_IN1*%
X165490000Y-83500000D03*
%TD*%
D22*
%TO.P,Q6,1,G*%
%TO.N,/FET_Half_Bridge_C/GATE_L_RAW*%
X162845000Y-109053600D03*
D23*
%TO.P,Q6,2,D*%
%TO.N,/FET_Half_Bridge_C/PHASE*%
X164750000Y-113016000D03*
D22*
%TO.P,Q6,3,S*%
%TO.N,/FET_Half_Bridge_C/SHUNT_P*%
X166655000Y-109053600D03*
X165385000Y-109053600D03*
X164115000Y-109053600D03*
%TD*%
D11*
%TO.P,C11,1*%
%TO.N,VDDA*%
X155270000Y-80750000D03*
%TO.P,C11,2*%
%TO.N,GND*%
X156230000Y-80750000D03*
%TD*%
D12*
%TO.P,TP2,1,1*%
%TO.N,/Microcontroller/DAC1_OUT2*%
X162000000Y-81250000D03*
%TD*%
D14*
%TO.P,C38,1*%
%TO.N,VBUS*%
X127750000Y-115475000D03*
%TO.P,C38,2*%
%TO.N,GND*%
X127750000Y-112525000D03*
%TD*%
D41*
%TO.P,D11,1,K*%
%TO.N,/FET_Half_Bridge_C/GATE_L*%
X164250000Y-101050000D03*
%TO.P,D11,2,A*%
%TO.N,/FET_Half_Bridge_C/GATE_L_RAW*%
X164250000Y-102450000D03*
%TD*%
D12*
%TO.P,TP8,1,1*%
%TO.N,/Microcontroller/SPI1_MOSI*%
X140800000Y-82900000D03*
%TD*%
D50*
%TO.P,R25,1*%
%TO.N,/FET_Half_Bridge_B/GATE_L*%
X145000000Y-100990000D03*
%TO.P,R25,2*%
%TO.N,/FET_Half_Bridge_B/GATE_L_RAW*%
X145000000Y-102010000D03*
%TD*%
D51*
%TO.P,C36,1*%
%TO.N,VBUS*%
X127875000Y-95000000D03*
%TO.P,C36,2*%
%TO.N,GND*%
X124925000Y-95000000D03*
%TD*%
D12*
%TO.P,TP3,1,1*%
%TO.N,/Microcontroller/TIM1_CH1*%
X136900000Y-82900000D03*
%TD*%
D15*
%TO.P,C20,1*%
%TO.N,Net-(U4-CPL)*%
X134000000Y-94020000D03*
%TO.P,C20,2*%
%TO.N,Net-(U4-CPH)*%
X134000000Y-94980000D03*
%TD*%
D28*
%TO.P,H1,1*%
%TO.N,N/C*%
X167100000Y-78500000D03*
X167802944Y-76802944D03*
X167802944Y-80197056D03*
X169500000Y-76100000D03*
D29*
X169500000Y-78500000D03*
D28*
X169500000Y-80900000D03*
X171197056Y-76802944D03*
X171197056Y-80197056D03*
X171900000Y-78500000D03*
%TD*%
D17*
%TO.P,R2,1*%
%TO.N,/Microcontroller/CAN_TXVR_RX*%
X165760000Y-95000000D03*
%TO.P,R2,2*%
%TO.N,/Microcontroller/FDCAN1_RX*%
X164740000Y-95000000D03*
%TD*%
D12*
%TO.P,TP6,1,1*%
%TO.N,/Microcontroller/SPI1_NSS*%
X138200000Y-82900000D03*
%TD*%
D39*
%TO.P,R35,1*%
%TO.N,VDD*%
X154500000Y-118912500D03*
%TO.P,R35,2*%
%TO.N,/Microcontroller/ADC12_IN2*%
X154500000Y-117087500D03*
%TD*%
D41*
%TO.P,D4,1,K*%
%TO.N,/FET_Half_Bridge_A/GATE_H*%
X133500000Y-100800000D03*
%TO.P,D4,2,A*%
%TO.N,/FET_Half_Bridge_A/GATE_H_RAW*%
X133500000Y-102200000D03*
%TD*%
D13*
%TO.P,C22,1*%
%TO.N,/Microcontroller/ADC2_IN12*%
X158950000Y-80230000D03*
%TO.P,C22,2*%
%TO.N,GND*%
X158950000Y-79270000D03*
%TD*%
D50*
%TO.P,R27,1*%
%TO.N,/FET_Half_Bridge_C/GATE_H*%
X159650000Y-101190000D03*
%TO.P,R27,2*%
%TO.N,/FET_Half_Bridge_C/GATE_H_RAW*%
X159650000Y-102210000D03*
%TD*%
D52*
%TO.P,C14,1*%
%TO.N,VDDA*%
X153800000Y-78000000D03*
%TO.P,C14,2*%
%TO.N,GND*%
X155700000Y-78000000D03*
%TD*%
D36*
%TO.P,C19,1*%
%TO.N,VBUS*%
X135750000Y-95225000D03*
%TO.P,C19,2*%
%TO.N,GND*%
X135750000Y-96775000D03*
%TD*%
D53*
%TO.P,D1,1,K*%
%TO.N,/Microcontroller/CAN_N*%
X148250000Y-127137500D03*
%TO.P,D1,2,K*%
%TO.N,/Microcontroller/CAN_P*%
X150150000Y-127137500D03*
%TO.P,D1,3,A*%
%TO.N,GND*%
X149200000Y-124862500D03*
%TD*%
D13*
%TO.P,C23,1*%
%TO.N,/Microcontroller/ADC3_IN12*%
X157700000Y-80230000D03*
%TO.P,C23,2*%
%TO.N,GND*%
X157700000Y-79270000D03*
%TD*%
D14*
%TO.P,C52,1*%
%TO.N,VBUS*%
X169500000Y-110225000D03*
%TO.P,C52,2*%
%TO.N,GND*%
X169500000Y-107275000D03*
%TD*%
D12*
%TO.P,TP10,1,1*%
%TO.N,/Microcontroller/ADC1_IN12*%
X160200000Y-77800000D03*
%TD*%
D21*
%TO.P,R14,1*%
%TO.N,/Microcontroller/TIM2_CH3*%
X170390000Y-83500000D03*
%TO.P,R14,2*%
%TO.N,/Microcontroller/LED_R_K*%
X171410000Y-83500000D03*
%TD*%
D33*
%TO.P,C49,1*%
%TO.N,VBUS*%
X127750000Y-107775000D03*
%TO.P,C49,2*%
%TO.N,GND*%
X127750000Y-110725000D03*
%TD*%
D50*
%TO.P,R22,1*%
%TO.N,/FET_Half_Bridge_A/GATE_L*%
X138750000Y-100990000D03*
%TO.P,R22,2*%
%TO.N,/FET_Half_Bridge_A/GATE_L_RAW*%
X138750000Y-102010000D03*
%TD*%
D14*
%TO.P,C43,1*%
%TO.N,VBUS*%
X125250000Y-115475000D03*
%TO.P,C43,2*%
%TO.N,GND*%
X125250000Y-112525000D03*
%TD*%
D50*
%TO.P,R28,1*%
%TO.N,/FET_Half_Bridge_C/GATE_L*%
X163000000Y-101240000D03*
%TO.P,R28,2*%
%TO.N,/FET_Half_Bridge_C/GATE_L_RAW*%
X163000000Y-102260000D03*
%TD*%
D40*
%TO.P,C30,1*%
%TO.N,VBUS*%
X129000000Y-126700000D03*
%TO.P,C30,2*%
%TO.N,GND*%
X129000000Y-135300000D03*
%TD*%
D49*
%TO.P,C24,1*%
%TO.N,VBUS*%
X138750000Y-105775000D03*
%TO.P,C24,2*%
%TO.N,/FET_Half_Bridge_A/SHUNT_P*%
X138750000Y-104225000D03*
%TD*%
D45*
%TO.P,C9,1*%
%TO.N,VDD*%
X160480000Y-93250000D03*
%TO.P,C9,2*%
%TO.N,GND*%
X159520000Y-93250000D03*
%TD*%
%TO.P,C50,1*%
%TO.N,/Microcontroller/ADC12_IN1*%
X166480000Y-84500000D03*
%TO.P,C50,2*%
%TO.N,GND*%
X165520000Y-84500000D03*
%TD*%
D50*
%TO.P,R24,1*%
%TO.N,/FET_Half_Bridge_B/GATE_H*%
X152250000Y-101240000D03*
%TO.P,R24,2*%
%TO.N,/FET_Half_Bridge_B/GATE_H_RAW*%
X152250000Y-102260000D03*
%TD*%
%TO.P,R21,1*%
%TO.N,/FET_Half_Bridge_A/GATE_H*%
X132250000Y-100990000D03*
%TO.P,R21,2*%
%TO.N,/FET_Half_Bridge_A/GATE_H_RAW*%
X132250000Y-102010000D03*
%TD*%
D12*
%TO.P,TP4,1,1*%
%TO.N,/Microcontroller/TIM1_CH2*%
X135600000Y-82900000D03*
%TD*%
D18*
%TO.P,D6,1,K*%
%TO.N,/FET_Half_Bridge_A/GATE_L_RAW*%
X136000000Y-102200000D03*
%TO.P,D6,2,A*%
%TO.N,GND*%
X136000000Y-100800000D03*
%TD*%
D34*
%TO.P,R12,1*%
%TO.N,/Microcontroller/ENC_NCS*%
X154480000Y-95010000D03*
%TO.P,R12,2*%
%TO.N,/Microcontroller/SPI3_NSS*%
X154480000Y-93990000D03*
%TD*%
D49*
%TO.P,C26,1*%
%TO.N,VBUS*%
X140750000Y-105775000D03*
%TO.P,C26,2*%
%TO.N,/FET_Half_Bridge_B/SHUNT_P*%
X140750000Y-104225000D03*
%TD*%
D34*
%TO.P,R16,1*%
%TO.N,/Integrated_FET_Driver/SOA*%
X145500000Y-79910000D03*
%TO.P,R16,2*%
%TO.N,/Microcontroller/ADC1_IN12*%
X145500000Y-78890000D03*
%TD*%
D13*
%TO.P,C8,1*%
%TO.N,VDD*%
X150750000Y-90480000D03*
%TO.P,C8,2*%
%TO.N,GND*%
X150750000Y-89520000D03*
%TD*%
D21*
%TO.P,R17,1*%
%TO.N,VDD*%
X149290000Y-85500000D03*
%TO.P,R17,2*%
%TO.N,/Microcontroller/SPI1_MISO*%
X150310000Y-85500000D03*
%TD*%
D12*
%TO.P,TP11,1,1*%
%TO.N,/Microcontroller/ADC2_IN12*%
X158950000Y-77800000D03*
%TD*%
D54*
%TO.P,U5,1,CB*%
%TO.N,/Power_Supply/3V3_BUCK_CP*%
X125250000Y-89050000D03*
%TO.P,U5,2,GND*%
%TO.N,GND*%
X125250000Y-90000000D03*
%TO.P,U5,3,FB*%
%TO.N,VDD*%
X125250000Y-90950000D03*
%TO.P,U5,4,EN*%
%TO.N,VBUS*%
X127750000Y-90950000D03*
%TO.P,U5,5,VIN*%
X127750000Y-90000000D03*
%TO.P,U5,6,SW*%
%TO.N,/Power_Supply/3V3_BUCK_SW*%
X127750000Y-89050000D03*
%TD*%
D55*
%TO.P,C7,1*%
%TO.N,VDD*%
X149250000Y-80450000D03*
%TO.P,C7,2*%
%TO.N,GND*%
X149250000Y-78550000D03*
%TD*%
D56*
%TO.P,C16,1*%
%TO.N,GND*%
X131725000Y-92500000D03*
%TO.P,C16,2*%
%TO.N,/Integrated_FET_Driver/VGLS*%
X133275000Y-92500000D03*
%TD*%
D41*
%TO.P,D8,1,K*%
%TO.N,/FET_Half_Bridge_B/GATE_L*%
X143750000Y-100800000D03*
%TO.P,D8,2,A*%
%TO.N,/FET_Half_Bridge_B/GATE_L_RAW*%
X143750000Y-102200000D03*
%TD*%
D34*
%TO.P,R5,1*%
%TO.N,/Microcontroller/SWCLK*%
X139000000Y-79910000D03*
%TO.P,R5,2*%
%TO.N,/Microcontroller/DEBUG_SWCLK*%
X139000000Y-78890000D03*
%TD*%
D28*
%TO.P,H3,1*%
%TO.N,N/C*%
X167100000Y-120500000D03*
X167802944Y-118802944D03*
X167802944Y-122197056D03*
X169500000Y-118100000D03*
D29*
X169500000Y-120500000D03*
D28*
X169500000Y-122900000D03*
X171197056Y-118802944D03*
X171197056Y-122197056D03*
X171900000Y-120500000D03*
%TD*%
D34*
%TO.P,R20,1*%
%TO.N,/Integrated_FET_Driver/SOC*%
X147500000Y-79910000D03*
%TO.P,R20,2*%
%TO.N,/Microcontroller/ADC3_IN12*%
X147500000Y-78890000D03*
%TD*%
D13*
%TO.P,C29,1*%
%TO.N,/FET_Half_Bridge_C/SHUNT_P*%
X142700000Y-88580000D03*
%TO.P,C29,2*%
%TO.N,GND*%
X142700000Y-87620000D03*
%TD*%
D18*
%TO.P,D9,1,K*%
%TO.N,/FET_Half_Bridge_B/GATE_L_RAW*%
X142275000Y-102200000D03*
%TO.P,D9,2,A*%
%TO.N,GND*%
X142275000Y-100800000D03*
%TD*%
D21*
%TO.P,R15,1*%
%TO.N,/Microcontroller/TIM2_CH4*%
X170390000Y-84500000D03*
%TO.P,R15,2*%
%TO.N,/Microcontroller/LED_B_K*%
X171410000Y-84500000D03*
%TD*%
D11*
%TO.P,C2,1*%
%TO.N,/Microcontroller/NRST*%
X164520000Y-85910000D03*
%TO.P,C2,2*%
%TO.N,GND*%
X165480000Y-85910000D03*
%TD*%
%TO.P,C3,1*%
%TO.N,VDD*%
X148020000Y-101000000D03*
%TO.P,C3,2*%
%TO.N,GND*%
X148980000Y-101000000D03*
%TD*%
D57*
%TO.P,U1,1,TXD*%
%TO.N,/Microcontroller/CAN_TXVR_TX*%
X172155000Y-92775000D03*
%TO.P,U1,2,GND*%
%TO.N,GND*%
X170885000Y-92775000D03*
%TO.P,U1,3,VCC*%
%TO.N,VDD*%
X169615000Y-92775000D03*
%TO.P,U1,4,RXD*%
%TO.N,/Microcontroller/CAN_TXVR_RX*%
X168345000Y-92775000D03*
%TO.P,U1,5,SHDN*%
%TO.N,GND*%
X168345000Y-97725000D03*
%TO.P,U1,6,CANL*%
%TO.N,/Microcontroller/CAN_N*%
X169615000Y-97725000D03*
%TO.P,U1,7,CANH*%
%TO.N,/Microcontroller/CAN_P*%
X170885000Y-97725000D03*
%TO.P,U1,8,STB*%
%TO.N,GND*%
X172155000Y-97725000D03*
%TD*%
D21*
%TO.P,R33,1*%
%TO.N,/Microcontroller/ADC12_IN2*%
X163490000Y-83500000D03*
%TO.P,R33,2*%
%TO.N,GND*%
X164510000Y-83500000D03*
%TD*%
D14*
%TO.P,C54,1*%
%TO.N,VBUS*%
X127750000Y-101225000D03*
%TO.P,C54,2*%
%TO.N,GND*%
X127750000Y-98275000D03*
%TD*%
D11*
%TO.P,C1,1*%
%TO.N,VDD*%
X169770000Y-90800000D03*
%TO.P,C1,2*%
%TO.N,GND*%
X170730000Y-90800000D03*
%TD*%
D16*
%TO.P,J6,1,Pin_1*%
%TO.N,/FET_Half_Bridge_B/PHASE*%
X148500000Y-118500000D03*
%TD*%
D14*
%TO.P,C41,1*%
%TO.N,VBUS*%
X150750000Y-106975000D03*
%TO.P,C41,2*%
%TO.N,GND*%
X150750000Y-104025000D03*
%TD*%
D58*
%TO.N,VDD*%
X140800000Y-85675000D03*
X160500000Y-93900000D03*
X148400000Y-85700000D03*
X131100000Y-82900000D03*
X153000000Y-80000000D03*
X162500000Y-90400000D03*
X126200000Y-82900000D03*
X125500000Y-82900000D03*
X153500000Y-127500000D03*
X151200000Y-81400000D03*
X127600000Y-82900000D03*
X129000000Y-82900000D03*
X149900000Y-90500000D03*
X169600000Y-94300000D03*
X167500000Y-83500000D03*
X147100000Y-101000000D03*
X130400000Y-82900000D03*
X124320534Y-88025000D03*
D59*
X152750000Y-133000000D03*
D58*
X129693542Y-82896293D03*
X142100000Y-79225000D03*
X126900000Y-82900000D03*
X128300000Y-82900000D03*
%TO.N,GND*%
X138000000Y-92000000D03*
X146800000Y-104500000D03*
X128500000Y-113400000D03*
X169750000Y-132750000D03*
X131000000Y-137000000D03*
X140700000Y-102300000D03*
X149900000Y-89539000D03*
X130000000Y-132500000D03*
X166700000Y-90400000D03*
X150900000Y-105000000D03*
X153900000Y-80000000D03*
X155000000Y-137250000D03*
X154500000Y-136000000D03*
X159500000Y-134500000D03*
X170000000Y-136250000D03*
X126100000Y-111600000D03*
X158300000Y-104900000D03*
X128250000Y-133000000D03*
X130500000Y-133750000D03*
X147700000Y-104000000D03*
X158500000Y-137000000D03*
X169500000Y-133500000D03*
X150900000Y-105600000D03*
X165500000Y-133500000D03*
X155000000Y-136250000D03*
X155300000Y-104900000D03*
X158500000Y-134500000D03*
X129000000Y-98700000D03*
X127400000Y-99300000D03*
X170000000Y-135250000D03*
X127500000Y-134250000D03*
X131400000Y-103600000D03*
X165500000Y-137000000D03*
X150400000Y-104700000D03*
X126600000Y-109800000D03*
X149400000Y-104100000D03*
X166000000Y-135750000D03*
X149900000Y-101000000D03*
X131000000Y-134500000D03*
X129750000Y-133000000D03*
X159800000Y-104000000D03*
X131500000Y-134750000D03*
X125000000Y-99300000D03*
X131500000Y-137250000D03*
X132200000Y-107800000D03*
X158300000Y-105500000D03*
X125400000Y-109800000D03*
X155800000Y-105800000D03*
X132800000Y-106800000D03*
X130200000Y-105400000D03*
X131500000Y-133750000D03*
X152400000Y-105300000D03*
X124400000Y-99300000D03*
X129750000Y-132000000D03*
X130200000Y-104200000D03*
X149900000Y-105000000D03*
X166250000Y-131750000D03*
X168250000Y-131750000D03*
X134700000Y-97900000D03*
X159800000Y-105200000D03*
D59*
X132100000Y-105500000D03*
D58*
X131500000Y-135250000D03*
X126500000Y-136250000D03*
X127100000Y-87200000D03*
D59*
X161800000Y-105700000D03*
D58*
X138750000Y-92000000D03*
X138000000Y-90500000D03*
X165500000Y-136500000D03*
X132200000Y-106800000D03*
X128750000Y-133000000D03*
X148000000Y-103500000D03*
X170500000Y-135000000D03*
X127300000Y-85800000D03*
X170000000Y-134750000D03*
X170300000Y-108200000D03*
X131750000Y-93250000D03*
X169250000Y-132750000D03*
X137250000Y-92000000D03*
X168800000Y-108200000D03*
X128000000Y-103900000D03*
X169500000Y-134500000D03*
X159500000Y-93900000D03*
X158500000Y-133500000D03*
X155000000Y-133750000D03*
X158327283Y-79633749D03*
X127500000Y-136250000D03*
X130500000Y-134250000D03*
X138000000Y-89750000D03*
X159500000Y-137000000D03*
X170500000Y-136000000D03*
X147100000Y-126600000D03*
X127000000Y-136000000D03*
X127000000Y-137500000D03*
X130400000Y-107800000D03*
X136500000Y-89750000D03*
X135200000Y-101100000D03*
X132600000Y-104600000D03*
X127000000Y-135000000D03*
X168000000Y-132250000D03*
X130800000Y-103600000D03*
X170900000Y-94300000D03*
X147700000Y-105000000D03*
X127750000Y-133000000D03*
X127750000Y-132000000D03*
X165500000Y-134000000D03*
X127800000Y-109800000D03*
X167250000Y-132750000D03*
X124800000Y-109800000D03*
X170000000Y-134250000D03*
X166000000Y-133750000D03*
X157800000Y-105800000D03*
X127250000Y-133000000D03*
X165500000Y-81500000D03*
X139500000Y-89750000D03*
X131000000Y-136500000D03*
X156800000Y-105200000D03*
X124300000Y-96500000D03*
X155500000Y-134000000D03*
X131000000Y-135500000D03*
X125500000Y-113400000D03*
X126500000Y-136750000D03*
X158500000Y-136000000D03*
X169500000Y-134000000D03*
X169300000Y-108200000D03*
X128500000Y-111600000D03*
X127500000Y-135250000D03*
X126500000Y-135250000D03*
X169200000Y-103200000D03*
X154500000Y-136500000D03*
X132250000Y-93250000D03*
X137250000Y-90500000D03*
X131000000Y-134000000D03*
X132500000Y-106300000D03*
X125600000Y-99300000D03*
X130200000Y-106000000D03*
X130500000Y-135750000D03*
X132600000Y-103600000D03*
X139711828Y-85674999D03*
X166000000Y-136250000D03*
X169750000Y-131750000D03*
X170000000Y-136750000D03*
X128400000Y-109800000D03*
X170000000Y-132250000D03*
X169500000Y-136500000D03*
X151400000Y-104700000D03*
X157300000Y-105500000D03*
X166500000Y-137000000D03*
X127500000Y-133750000D03*
X130200000Y-103600000D03*
X131500000Y-136250000D03*
X159500000Y-136000000D03*
X170500000Y-133500000D03*
X155000000Y-135750000D03*
X170000000Y-135750000D03*
X131000000Y-107800000D03*
X159300000Y-104900000D03*
X126200000Y-99300000D03*
X166000000Y-134750000D03*
X155500000Y-135000000D03*
X157800000Y-105200000D03*
X166500000Y-134000000D03*
X168750000Y-131750000D03*
X131500000Y-134250000D03*
X125600000Y-87300000D03*
X139500000Y-91250000D03*
X131750000Y-91000000D03*
X127900000Y-111600000D03*
X160300000Y-103500000D03*
X129500000Y-132500000D03*
X136500000Y-89000000D03*
X128000000Y-132500000D03*
X127100000Y-87900000D03*
X170000000Y-137250000D03*
X137250000Y-89750000D03*
X125900000Y-87900000D03*
X128250000Y-132000000D03*
X155000000Y-134750000D03*
X169250000Y-131750000D03*
X159000000Y-136750000D03*
X166500000Y-132250000D03*
X160817203Y-79586293D03*
X166000000Y-136750000D03*
X139500000Y-92000000D03*
X126500000Y-98700000D03*
X130400000Y-99300000D03*
X148600000Y-103500000D03*
X136500000Y-90500000D03*
X155000000Y-134250000D03*
X158500000Y-135500000D03*
X166500000Y-136500000D03*
X151400000Y-105300000D03*
X146800000Y-103500000D03*
X130700000Y-107300000D03*
X158500000Y-136500000D03*
X131000000Y-132500000D03*
X126700000Y-113400000D03*
X159000000Y-137250000D03*
X167750000Y-132750000D03*
X159000000Y-135750000D03*
X126700000Y-111600000D03*
X126100000Y-113400000D03*
X131000000Y-135000000D03*
D59*
X137941947Y-103665215D03*
D58*
X126500000Y-135750000D03*
X130500000Y-135250000D03*
X139500000Y-90500000D03*
X155800000Y-105200000D03*
X128600000Y-99300000D03*
X167500000Y-132250000D03*
X128750000Y-132000000D03*
X159300000Y-130300000D03*
X165500000Y-135000000D03*
X128000000Y-99300000D03*
X156800000Y-105800000D03*
X126500000Y-110400000D03*
X155000000Y-136750000D03*
X130500000Y-134750000D03*
X150400000Y-105300000D03*
D59*
X164455331Y-99248223D03*
D58*
X167750000Y-131750000D03*
X166500000Y-133500000D03*
X126100000Y-96500000D03*
X147100000Y-104000000D03*
X159000000Y-136250000D03*
X159500000Y-134000000D03*
X127500000Y-134750000D03*
X159500000Y-133500000D03*
X132000000Y-103600000D03*
X152400000Y-104700000D03*
X170000000Y-133750000D03*
X138000000Y-89000000D03*
X155500000Y-136000000D03*
X126500000Y-98100000D03*
X136100000Y-97900000D03*
X131000000Y-137500000D03*
X169800000Y-108200000D03*
X124900000Y-111600000D03*
X131900000Y-106300000D03*
X128500000Y-132500000D03*
X126500000Y-102700000D03*
D59*
X142500000Y-99092433D03*
D58*
X167000000Y-132250000D03*
X169000000Y-132250000D03*
X129200000Y-99300000D03*
X132500000Y-107300000D03*
X166750000Y-132750000D03*
X153400000Y-104700000D03*
X127400000Y-103900000D03*
X158500000Y-134000000D03*
X127500000Y-135750000D03*
X167250000Y-131750000D03*
X126500000Y-133750000D03*
X126100000Y-103900000D03*
X138750000Y-90500000D03*
X130250000Y-132000000D03*
X124900000Y-103900000D03*
X130500000Y-132500000D03*
X154500000Y-135000000D03*
X131700000Y-104100000D03*
X127000000Y-135500000D03*
X159800000Y-104600000D03*
X166000000Y-134250000D03*
X166250000Y-132750000D03*
X159500000Y-135500000D03*
X154500000Y-133500000D03*
X130750000Y-133000000D03*
X131300000Y-107300000D03*
X157300000Y-104900000D03*
D59*
X147500000Y-105500000D03*
D58*
X127000000Y-136500000D03*
X154500000Y-134500000D03*
X132800000Y-107800000D03*
X168250000Y-132750000D03*
X152900000Y-105600000D03*
X131250000Y-93250000D03*
X129800000Y-99300000D03*
X165500000Y-135500000D03*
X156300000Y-105500000D03*
X132300000Y-104100000D03*
X131500000Y-135750000D03*
X159500000Y-135000000D03*
X126500000Y-112200000D03*
X159000000Y-134250000D03*
X126800000Y-103900000D03*
X126800000Y-99300000D03*
X170500000Y-137000000D03*
X149200000Y-103500000D03*
X170200000Y-113200000D03*
X125500000Y-96500000D03*
X152900000Y-105000000D03*
X166500000Y-134500000D03*
X169700000Y-113200000D03*
X154500000Y-134000000D03*
X127300000Y-113400000D03*
X170500000Y-135500000D03*
X124300000Y-113400000D03*
X169700000Y-103200000D03*
X127000000Y-134000000D03*
X151900000Y-105600000D03*
X169500000Y-136000000D03*
X166000000Y-137250000D03*
X131500000Y-136750000D03*
X156300000Y-104900000D03*
X170200000Y-103200000D03*
X129250000Y-133000000D03*
X125500000Y-86600000D03*
X166500000Y-135500000D03*
X149900000Y-105600000D03*
X127500000Y-136750000D03*
X149200000Y-77600000D03*
X129000000Y-98100000D03*
X136500000Y-92000000D03*
X127200000Y-109800000D03*
X138750000Y-89750000D03*
X130750000Y-132000000D03*
X147100000Y-105000000D03*
X126500000Y-137250000D03*
X129250000Y-132000000D03*
X154500000Y-135500000D03*
X168700000Y-103200000D03*
X127500000Y-137250000D03*
X124300000Y-103900000D03*
X165500000Y-134500000D03*
X130500000Y-136250000D03*
X159300000Y-105500000D03*
X131600000Y-107800000D03*
X125500000Y-103900000D03*
X159000000Y-134750000D03*
X130200000Y-104800000D03*
X155300000Y-105500000D03*
X137250000Y-89000000D03*
X155500000Y-137000000D03*
X155500000Y-136500000D03*
X151900000Y-105000000D03*
X170500000Y-134000000D03*
X129000000Y-132500000D03*
X127500000Y-132500000D03*
X170500000Y-134500000D03*
X138000000Y-91250000D03*
X168750000Y-132750000D03*
X155000000Y-135250000D03*
X149400000Y-105300000D03*
X169500000Y-137000000D03*
X165500000Y-136000000D03*
X154800000Y-78000000D03*
X136500000Y-91250000D03*
X169200000Y-113200000D03*
X166000000Y-135250000D03*
X124300000Y-111600000D03*
X130250000Y-133000000D03*
X124200000Y-109800000D03*
X135400000Y-97900000D03*
X159000000Y-135250000D03*
X155500000Y-133500000D03*
X147400000Y-104500000D03*
X137250000Y-91250000D03*
X131900000Y-107300000D03*
X166100000Y-100200000D03*
X159500000Y-136500000D03*
X154500000Y-137000000D03*
X153400000Y-105300000D03*
X127100000Y-86500000D03*
X166500000Y-136000000D03*
X170500000Y-136500000D03*
X125500000Y-111600000D03*
X168500000Y-132250000D03*
X126500000Y-103300000D03*
X149400000Y-104700000D03*
X158500000Y-135000000D03*
X126500000Y-134750000D03*
X126500000Y-111000000D03*
X169500000Y-135000000D03*
X127900000Y-113400000D03*
X166500000Y-135000000D03*
X166750000Y-131750000D03*
X134000000Y-97900000D03*
X159000000Y-133750000D03*
X127000000Y-137000000D03*
X155500000Y-134500000D03*
X168700000Y-113200000D03*
X131000000Y-136000000D03*
X126500000Y-134250000D03*
X127000000Y-134500000D03*
X169500000Y-135500000D03*
X124900000Y-113400000D03*
X130500000Y-137250000D03*
X158800000Y-105800000D03*
X138750000Y-91250000D03*
X126000000Y-109800000D03*
X147400000Y-103500000D03*
X155500000Y-135500000D03*
X160900000Y-103500000D03*
X127250000Y-132000000D03*
X126500000Y-112800000D03*
X139500000Y-89000000D03*
X158800000Y-105200000D03*
X132000000Y-104600000D03*
X138750000Y-89000000D03*
X130500000Y-136750000D03*
X131750000Y-91500000D03*
X159800000Y-105800000D03*
X127300000Y-111600000D03*
X124900000Y-96500000D03*
X169500000Y-132250000D03*
%TO.N,/Microcontroller/NRST*%
X154200000Y-85125000D03*
D59*
X138000000Y-80700000D03*
D58*
%TO.N,VBUS*%
X150000000Y-107750000D03*
X125000000Y-108700000D03*
X128300000Y-96500000D03*
X127300000Y-106900000D03*
X156500000Y-108250000D03*
X129600000Y-107600000D03*
X169700000Y-114200000D03*
X129000000Y-101000000D03*
X169200000Y-114200000D03*
X126100000Y-100300000D03*
X157250000Y-106750000D03*
X168800000Y-104300000D03*
X127000000Y-114600000D03*
X127600000Y-114600000D03*
X127900000Y-106900000D03*
X128000000Y-108700000D03*
X125500000Y-100300000D03*
X158250000Y-107750000D03*
X126500000Y-107500000D03*
X149750000Y-108250000D03*
X157250000Y-107250000D03*
X125500000Y-105100000D03*
X126500000Y-106300000D03*
X170300000Y-104300000D03*
X126500000Y-108100000D03*
X126700000Y-106900000D03*
X134500000Y-96000000D03*
X152250000Y-108250000D03*
X129000000Y-115200000D03*
X158750000Y-107750000D03*
X133750000Y-96700000D03*
X156000000Y-108250000D03*
X126500000Y-101600000D03*
X129100000Y-109100000D03*
X130300000Y-100300000D03*
X151750000Y-108250000D03*
X155750000Y-107750000D03*
X129600000Y-108200000D03*
X126500000Y-115200000D03*
X129600000Y-108800000D03*
X129100000Y-107300000D03*
X150500000Y-107750000D03*
X129700000Y-100300000D03*
X153000000Y-107750000D03*
X126100000Y-105100000D03*
X125600000Y-108700000D03*
X128200000Y-114600000D03*
X127300000Y-105100000D03*
X169800000Y-104300000D03*
X128500000Y-100300000D03*
X152000000Y-107250000D03*
X124300000Y-105100000D03*
X157500000Y-108250000D03*
X128500000Y-105100000D03*
X152000000Y-106750000D03*
X157750000Y-107750000D03*
X129000000Y-101600000D03*
X125800000Y-114600000D03*
X124900000Y-106900000D03*
X127300000Y-100300000D03*
X158000000Y-108250000D03*
X129100000Y-107900000D03*
D59*
X139250504Y-106417345D03*
D58*
X152500000Y-107750000D03*
D59*
X141054442Y-106670558D03*
D58*
X124900000Y-105100000D03*
X127100000Y-96500000D03*
X159250000Y-107750000D03*
X125200000Y-114600000D03*
X127400000Y-108700000D03*
X153250000Y-108250000D03*
X125500000Y-106900000D03*
X156750000Y-107750000D03*
X129100000Y-106700000D03*
X156250000Y-107750000D03*
X170200000Y-114200000D03*
X126700000Y-100300000D03*
X158500000Y-108250000D03*
X151500000Y-107750000D03*
X168800000Y-109300000D03*
X153750000Y-108250000D03*
X152000000Y-107750000D03*
X168700000Y-114200000D03*
X170300000Y-109300000D03*
X126100000Y-106900000D03*
X128500000Y-106900000D03*
X126400000Y-114600000D03*
X129100000Y-106100000D03*
X169300000Y-109300000D03*
X126500000Y-105700000D03*
X128600000Y-108700000D03*
X159000000Y-108250000D03*
X126800000Y-108700000D03*
X152750000Y-108250000D03*
X167100000Y-99400000D03*
X128900000Y-96500000D03*
X124300000Y-106900000D03*
X134500000Y-96700000D03*
X129100000Y-100300000D03*
X133750000Y-96000000D03*
X151250000Y-108250000D03*
X126200000Y-108700000D03*
X150750000Y-108250000D03*
X169800000Y-109300000D03*
X157250000Y-107750000D03*
X153500000Y-107750000D03*
X124600000Y-114600000D03*
X127700000Y-96500000D03*
X129100000Y-108500000D03*
X150250000Y-108250000D03*
X128800000Y-114600000D03*
X126500000Y-115800000D03*
X157000000Y-108250000D03*
X124300000Y-100300000D03*
X124400000Y-108700000D03*
X129600000Y-107000000D03*
X129600000Y-109400000D03*
X129000000Y-115800000D03*
X169300000Y-104300000D03*
X151000000Y-107750000D03*
X126500000Y-101000000D03*
X127900000Y-100300000D03*
X165143413Y-80456587D03*
X124900000Y-100300000D03*
X127900000Y-105100000D03*
X126700000Y-105100000D03*
D59*
%TO.N,/FET_Half_Bridge_B/SHUNT_P*%
X143000000Y-99600000D03*
X143900000Y-105400000D03*
%TO.N,/FET_Half_Bridge_C/SHUNT_P*%
X165600000Y-105500000D03*
X164903554Y-100400000D03*
D58*
%TO.N,/Microcontroller/ADC12_IN2*%
X163250000Y-85250000D03*
X170900000Y-89425000D03*
X154324944Y-127952874D03*
D59*
X168000000Y-99500000D03*
D58*
X166429468Y-85363705D03*
%TO.N,/Microcontroller/CAN_P*%
X170642500Y-99242500D03*
X149900000Y-128200000D03*
%TO.N,/Microcontroller/CAN_N*%
X169875000Y-99559375D03*
X148500000Y-128200000D03*
D59*
%TO.N,/Microcontroller/LED_R_K*%
X171675000Y-100000000D03*
X153500000Y-131750000D03*
D58*
X171700000Y-86100000D03*
D59*
%TO.N,/Microcontroller/LED_B_K*%
X172225000Y-99250000D03*
D58*
X171975000Y-84500000D03*
D59*
X153250000Y-132499000D03*
D58*
%TO.N,/Microcontroller/SWDIO*%
X153893415Y-92393412D03*
D59*
X139800000Y-80700000D03*
%TO.N,/Microcontroller/SWCLK*%
X139000000Y-80725000D03*
D58*
X153900000Y-93200000D03*
D59*
%TO.N,/Microcontroller/ENC_MOSI*%
X157500000Y-96000000D03*
%TO.N,/Microcontroller/ENC_MISO*%
X156500000Y-96000000D03*
%TO.N,/Microcontroller/ENC_CLK*%
X155500000Y-96000000D03*
%TO.N,/Microcontroller/ENC_NCS*%
X154500000Y-96000000D03*
D58*
%TO.N,/Microcontroller/TIM2_CH3*%
X155797582Y-84325000D03*
X167500000Y-82600000D03*
%TO.N,/Microcontroller/TIM2_CH4*%
X155000000Y-84700000D03*
X169800000Y-84500000D03*
D59*
%TO.N,/Microcontroller/SPI1_MISO*%
X144000000Y-85250000D03*
X147229687Y-84942685D03*
%TO.N,/Microcontroller/PA12*%
X137749937Y-86750063D03*
X147250561Y-89000000D03*
%TO.N,/Microcontroller/TIM1_CH1*%
X146600000Y-86000000D03*
%TO.N,/Microcontroller/TIM1_CH2*%
X146100000Y-86500000D03*
%TO.N,/Microcontroller/TIM1_CH3*%
X145693947Y-87007567D03*
%TO.N,/Microcontroller/SPI1_NSS*%
X146709310Y-83668620D03*
X144500000Y-83587244D03*
%TO.N,/Microcontroller/SPI1_SCK*%
X146249999Y-84149998D03*
X144209310Y-84168620D03*
%TO.N,/Microcontroller/SPI1_MOSI*%
X144500000Y-84750000D03*
X146500000Y-84750000D03*
D58*
%TO.N,/Microcontroller/PA7*%
X153200000Y-83400000D03*
D59*
X133300000Y-83000000D03*
D58*
X159500000Y-81800000D03*
D59*
X144500000Y-82800000D03*
X135200000Y-86500000D03*
X146300000Y-83000000D03*
%TO.N,/Microcontroller/PA11*%
X146046446Y-87653554D03*
X133160514Y-84716750D03*
X133896446Y-85396446D03*
X133200000Y-83700000D03*
%TD*%
D60*
%TO.N,VDD*%
X138900000Y-85420000D02*
X139271001Y-85048999D01*
X151212500Y-80450000D02*
X151250000Y-80412500D01*
X151120000Y-90480000D02*
X150750000Y-90480000D01*
D61*
X138250063Y-87553600D02*
X138250063Y-86069937D01*
D60*
X160480000Y-93880000D02*
X160500000Y-93900000D01*
X139271001Y-85048999D02*
X140173999Y-85048999D01*
D62*
X169615000Y-94285000D02*
X169600000Y-94300000D01*
D60*
X151250000Y-81350000D02*
X151200000Y-81400000D01*
X149920000Y-90480000D02*
X149900000Y-90500000D01*
D61*
X149290000Y-85500000D02*
X148600000Y-85500000D01*
X166510000Y-83500000D02*
X167500000Y-83500000D01*
D60*
X140173999Y-85048999D02*
X140800000Y-85675000D01*
X153020000Y-80750000D02*
X153020000Y-80020000D01*
D61*
X124320534Y-90770534D02*
X124320534Y-88025000D01*
X141000000Y-79910000D02*
X141415000Y-79910000D01*
D62*
X169615000Y-92775000D02*
X169615000Y-94285000D01*
D60*
X149250000Y-80450000D02*
X151212500Y-80450000D01*
X153020000Y-80020000D02*
X153000000Y-80000000D01*
D62*
X169615000Y-92775000D02*
X169615000Y-90955000D01*
D61*
X124500000Y-90950000D02*
X124320534Y-90770534D01*
X162100000Y-90000000D02*
X162500000Y-90400000D01*
D60*
X154500000Y-126600000D02*
X154500000Y-118912500D01*
X153500000Y-127500000D02*
X153600000Y-127500000D01*
X150750000Y-90480000D02*
X149920000Y-90480000D01*
D61*
X125250000Y-90950000D02*
X124500000Y-90950000D01*
D60*
X159750000Y-91412500D02*
X160480000Y-92142500D01*
X154250000Y-83087500D02*
X154250000Y-82050000D01*
X153020000Y-80820000D02*
X153020000Y-80750000D01*
D62*
X148020000Y-101000000D02*
X147100000Y-101000000D01*
D63*
X138250063Y-86069937D02*
X138900000Y-85420000D01*
D60*
X153600000Y-127500000D02*
X154500000Y-126600000D01*
X160480000Y-92142500D02*
X160480000Y-93250000D01*
X151600000Y-90000000D02*
X151120000Y-90480000D01*
X151250000Y-80412500D02*
X151250000Y-81350000D01*
D61*
X141415000Y-79910000D02*
X142100000Y-79225000D01*
D60*
X154250000Y-82050000D02*
X153020000Y-80820000D01*
D61*
X161162500Y-90000000D02*
X162100000Y-90000000D01*
D60*
X160480000Y-93250000D02*
X160480000Y-93880000D01*
X152837500Y-90000000D02*
X151600000Y-90000000D01*
D61*
X148600000Y-85500000D02*
X148400000Y-85700000D01*
D62*
X169615000Y-90955000D02*
X169770000Y-90800000D01*
D63*
%TO.N,GND*%
X138750189Y-86529811D02*
X138900000Y-86380000D01*
D61*
X161037500Y-105700000D02*
X160837500Y-105500000D01*
D60*
X136249559Y-92250441D02*
X138000000Y-90500000D01*
D62*
X159300000Y-130300000D02*
X157000000Y-132600000D01*
D61*
X138750189Y-88999811D02*
X138750000Y-89000000D01*
X142180000Y-87620000D02*
X142700000Y-87620000D01*
X161800000Y-105700000D02*
X161037500Y-105700000D01*
D62*
X135500000Y-100800000D02*
X135200000Y-101100000D01*
D60*
X153980000Y-80080000D02*
X153900000Y-80000000D01*
D61*
X141180000Y-94935971D02*
X141180000Y-95000000D01*
D60*
X135053600Y-92250441D02*
X136249559Y-92250441D01*
D61*
X147500000Y-105500000D02*
X148462500Y-105500000D01*
X142600000Y-98992433D02*
X142500000Y-99092433D01*
X172155000Y-96200000D02*
X172155000Y-95555000D01*
X140571000Y-95609000D02*
X141180000Y-95000000D01*
D60*
X165875000Y-89610000D02*
X165910000Y-89610000D01*
D61*
X140250567Y-94006538D02*
X141180000Y-94935971D01*
X138306161Y-103301001D02*
X138860372Y-103301001D01*
X168345000Y-96750001D02*
X168895001Y-96200000D01*
X131037500Y-105500000D02*
X132100000Y-105500000D01*
X141350567Y-92750567D02*
X142380000Y-93780000D01*
D60*
X156750000Y-83087500D02*
X156750000Y-81270000D01*
X164410000Y-88210000D02*
X164125000Y-88210000D01*
X154750000Y-81520000D02*
X153980000Y-80750000D01*
D62*
X142200000Y-100800000D02*
X140700000Y-102300000D01*
D61*
X140250567Y-93446400D02*
X140250567Y-94006538D01*
X164480000Y-84500000D02*
X165520000Y-84500000D01*
D60*
X156230000Y-79750000D02*
X156230000Y-78530000D01*
D62*
X124925000Y-95000000D02*
X124925000Y-93500000D01*
X165750000Y-100550000D02*
X166100000Y-100200000D01*
D60*
X149919000Y-89520000D02*
X149900000Y-89539000D01*
D62*
X148980000Y-101000000D02*
X149900000Y-101000000D01*
D61*
X165480000Y-85910000D02*
X165632194Y-85910000D01*
D60*
X149250000Y-78550000D02*
X149250000Y-77650000D01*
D61*
X165632194Y-85910000D02*
X167836000Y-88113806D01*
X164510000Y-81500000D02*
X164510000Y-82470000D01*
D60*
X159520000Y-93250000D02*
X159520000Y-93880000D01*
X165810000Y-89610000D02*
X164410000Y-88210000D01*
D61*
X168345000Y-97725000D02*
X168345000Y-96750001D01*
X165750000Y-90660000D02*
X165875000Y-90535000D01*
D62*
X165750000Y-101050000D02*
X165750000Y-100550000D01*
D61*
X165875000Y-90535000D02*
X165875000Y-89610000D01*
X164510000Y-81500000D02*
X165500000Y-81500000D01*
D62*
X148837500Y-124862500D02*
X149200000Y-124862500D01*
X147100000Y-126600000D02*
X148837500Y-124862500D01*
D61*
X162107108Y-96900000D02*
X164455331Y-99248223D01*
X165730000Y-90660000D02*
X165750000Y-90660000D01*
D62*
X136000000Y-100800000D02*
X135500000Y-100800000D01*
D60*
X153980000Y-80750000D02*
X153980000Y-80080000D01*
D61*
X164510000Y-82470000D02*
X164480000Y-82500000D01*
D62*
X126400000Y-90000000D02*
X126500000Y-89900000D01*
D61*
X165480000Y-90910000D02*
X165730000Y-90660000D01*
X145162040Y-87620000D02*
X148400000Y-90857960D01*
D62*
X126500000Y-91925000D02*
X126500000Y-90500000D01*
X170885000Y-92775000D02*
X170885000Y-90955000D01*
X126200000Y-87250000D02*
X126200000Y-85750000D01*
X125250000Y-90000000D02*
X126400000Y-90000000D01*
D61*
X160250000Y-79270000D02*
X160500910Y-79270000D01*
X164510000Y-84470000D02*
X164480000Y-84500000D01*
X167836000Y-88804000D02*
X167250000Y-89390000D01*
X142600000Y-93980000D02*
X142600000Y-98992433D01*
D60*
X159520000Y-93880000D02*
X159500000Y-93900000D01*
D61*
X148800000Y-96900000D02*
X162107108Y-96900000D01*
D62*
X125625000Y-92800000D02*
X126500000Y-91925000D01*
D61*
X158691032Y-79270000D02*
X158327283Y-79633749D01*
D62*
X124925000Y-93500000D02*
X125625000Y-92800000D01*
X170885000Y-90955000D02*
X170730000Y-90800000D01*
D61*
X148400000Y-96500000D02*
X148800000Y-96900000D01*
X137941947Y-103665215D02*
X138306161Y-103301001D01*
X141550567Y-88249433D02*
X142180000Y-87620000D01*
X140946400Y-88249433D02*
X141550567Y-88249433D01*
D60*
X155700000Y-78000000D02*
X154800000Y-78000000D01*
D61*
X172155000Y-97725000D02*
X172155000Y-96200000D01*
D60*
X149250000Y-77650000D02*
X149200000Y-77600000D01*
D61*
X138860372Y-103301001D02*
X140571000Y-101590372D01*
D60*
X150750000Y-89520000D02*
X149919000Y-89520000D01*
D61*
X157700000Y-79270000D02*
X157963534Y-79270000D01*
D62*
X126500000Y-87550000D02*
X126500000Y-89900000D01*
D60*
X152837500Y-89500000D02*
X150770000Y-89500000D01*
D63*
X138750189Y-87553600D02*
X138750189Y-86529811D01*
D62*
X126200000Y-87250000D02*
X126500000Y-87550000D01*
D61*
X166095000Y-89390000D02*
X165875000Y-89610000D01*
X140571000Y-101590372D02*
X140571000Y-95609000D01*
D62*
X157000000Y-132600000D02*
X157000000Y-135300000D01*
D61*
X140946400Y-92750567D02*
X141350567Y-92750567D01*
D60*
X159250000Y-91412500D02*
X159250000Y-92980000D01*
X165910000Y-89610000D02*
X166700000Y-90400000D01*
D61*
X142700000Y-87620000D02*
X145162040Y-87620000D01*
D62*
X170885000Y-92775000D02*
X170885000Y-94285000D01*
D61*
X164510000Y-83500000D02*
X164510000Y-84470000D01*
D60*
X156230000Y-78530000D02*
X155700000Y-78000000D01*
D62*
X126500000Y-89900000D02*
X126500000Y-90500000D01*
D60*
X159250000Y-92980000D02*
X159520000Y-93250000D01*
X138900000Y-86380000D02*
X139006827Y-86380000D01*
D61*
X167250000Y-89390000D02*
X166095000Y-89390000D01*
D60*
X156230000Y-80750000D02*
X156230000Y-79750000D01*
D61*
X172155000Y-95555000D02*
X170900000Y-94300000D01*
D60*
X165875000Y-89610000D02*
X165810000Y-89610000D01*
D61*
X157963534Y-79270000D02*
X158327283Y-79633749D01*
D62*
X142275000Y-100800000D02*
X142200000Y-100800000D01*
D61*
X168895001Y-96200000D02*
X172155000Y-96200000D01*
X160500910Y-79270000D02*
X160817203Y-79586293D01*
X158950000Y-79270000D02*
X158691032Y-79270000D01*
X164480000Y-83470000D02*
X164510000Y-83500000D01*
D60*
X150770000Y-89500000D02*
X150750000Y-89520000D01*
D61*
X142400000Y-93780000D02*
X142600000Y-93980000D01*
D60*
X156750000Y-81270000D02*
X156230000Y-80750000D01*
D61*
X164480000Y-82500000D02*
X164480000Y-83470000D01*
X167836000Y-88113806D02*
X167836000Y-88804000D01*
D62*
X170885000Y-94285000D02*
X170900000Y-94300000D01*
D61*
X142380000Y-93780000D02*
X142400000Y-93780000D01*
D60*
X154750000Y-83087500D02*
X154750000Y-81520000D01*
D61*
X148400000Y-90857960D02*
X148400000Y-96500000D01*
D60*
X139006827Y-86380000D02*
X139711828Y-85674999D01*
D61*
%TO.N,/Microcontroller/NRST*%
X156075000Y-87000000D02*
X154200000Y-85125000D01*
X138000000Y-80700000D02*
X138000000Y-79910000D01*
X164520000Y-85910000D02*
X163430000Y-87000000D01*
X161162500Y-87000000D02*
X156075000Y-87000000D01*
X163430000Y-87000000D02*
X161162500Y-87000000D01*
%TO.N,Net-(C5-Pad1)*%
X167250000Y-88430000D02*
X166095000Y-88430000D01*
X166095000Y-88430000D02*
X165875000Y-88210000D01*
X165875000Y-88210000D02*
X165875000Y-87275000D01*
X165875000Y-87275000D02*
X165510000Y-86910000D01*
%TO.N,/Microcontroller/OSC_IN*%
X162515000Y-88000000D02*
X161162500Y-88000000D01*
X164125000Y-90515000D02*
X164520000Y-90910000D01*
X164125000Y-89610000D02*
X164125000Y-90515000D01*
X164125000Y-89610000D02*
X162515000Y-88000000D01*
D60*
%TO.N,VDDA*%
X155270000Y-79750000D02*
X155270000Y-79470000D01*
X155270000Y-80762904D02*
X155270000Y-80750000D01*
X155750000Y-81242904D02*
X155270000Y-80762904D01*
X155270000Y-79470000D02*
X153800000Y-78000000D01*
X151250000Y-78587500D02*
X153212500Y-78587500D01*
X155270000Y-79750000D02*
X155270000Y-80750000D01*
D61*
X155750000Y-83087500D02*
X156250000Y-83087500D01*
D60*
X155750000Y-83087500D02*
X155750000Y-81242904D01*
X153212500Y-78587500D02*
X153800000Y-78000000D01*
%TO.N,/Integrated_FET_Driver/V_CHARGE_PUMP*%
X137749937Y-94275063D02*
X137749937Y-93446400D01*
X137250000Y-94775000D02*
X137749937Y-94275063D01*
X137250000Y-95225000D02*
X137250000Y-94775000D01*
%TO.N,/Integrated_FET_Driver/VGLS*%
X133525567Y-92750567D02*
X133275000Y-92500000D01*
X135053600Y-92750567D02*
X133525567Y-92750567D01*
%TO.N,Net-(U4-CPL)*%
X134000000Y-94020000D02*
X134022000Y-93998000D01*
X135197833Y-93998000D02*
X135749433Y-93446400D01*
X134022000Y-93998000D02*
X135197833Y-93998000D01*
%TO.N,Net-(U4-CPH)*%
X134840999Y-94449000D02*
X134309999Y-94980000D01*
X136249559Y-93446400D02*
X136249559Y-94000441D01*
X134309999Y-94980000D02*
X134000000Y-94980000D01*
X136249559Y-94000441D02*
X135801000Y-94449000D01*
X135801000Y-94449000D02*
X134840999Y-94449000D01*
D61*
%TO.N,/Microcontroller/ADC1_IN12*%
X160250000Y-76249999D02*
X160250000Y-78000000D01*
X161393203Y-79143203D02*
X160250000Y-78000000D01*
X160200000Y-80900000D02*
X159900000Y-81200000D01*
X160988084Y-80230000D02*
X161393203Y-79824881D01*
X159300001Y-75300000D02*
X160250000Y-76249999D01*
X159100000Y-81200000D02*
X158250000Y-82050000D01*
X160250000Y-80230000D02*
X160200000Y-80280000D01*
X161393203Y-79824881D02*
X161393203Y-79143203D01*
X149090000Y-75300000D02*
X159300001Y-75300000D01*
X159900000Y-81200000D02*
X159100000Y-81200000D01*
X158250000Y-82050000D02*
X158250000Y-83087500D01*
X160200000Y-80280000D02*
X160200000Y-80900000D01*
X145500000Y-78890000D02*
X149090000Y-75300000D01*
X160250000Y-80230000D02*
X160988084Y-80230000D01*
%TO.N,/Microcontroller/ADC2_IN12*%
X159600000Y-79580000D02*
X159600000Y-78650000D01*
X157750000Y-81850000D02*
X157750000Y-83087500D01*
X149300000Y-75700000D02*
X146500000Y-78500000D01*
X158950000Y-80230000D02*
X159600000Y-79580000D01*
X158950000Y-80650000D02*
X157750000Y-81850000D01*
X158950000Y-76249999D02*
X158400001Y-75700000D01*
X158950000Y-80230000D02*
X158950000Y-80650000D01*
X158950000Y-78000000D02*
X158950000Y-76249999D01*
X158400001Y-75700000D02*
X149300000Y-75700000D01*
X159600000Y-78650000D02*
X158950000Y-78000000D01*
X146500000Y-78500000D02*
X146500000Y-78890000D01*
%TO.N,/Microcontroller/ADC3_IN12*%
X157700000Y-81100000D02*
X157250000Y-81550000D01*
X157250000Y-81550000D02*
X157250000Y-83087500D01*
X149500000Y-76100000D02*
X157418577Y-76100000D01*
X147500000Y-78100000D02*
X149500000Y-76100000D01*
X157700000Y-80230000D02*
X157114000Y-79644000D01*
X157114000Y-79644000D02*
X157114000Y-78586000D01*
X157418577Y-76100000D02*
X157700000Y-76381423D01*
X147500000Y-78890000D02*
X147500000Y-78100000D01*
X157700000Y-80230000D02*
X157700000Y-81100000D01*
X157700000Y-76381423D02*
X157700000Y-78000000D01*
X157114000Y-78586000D02*
X157700000Y-78000000D01*
D63*
%TO.N,VBUS*%
X140750000Y-106366116D02*
X141054442Y-106670558D01*
D62*
X135750000Y-95275000D02*
X137250000Y-96775000D01*
X127175000Y-92800000D02*
X127175000Y-91525000D01*
D60*
X137161875Y-94225315D02*
X137249811Y-94137379D01*
D61*
X167250000Y-100975000D02*
X167250000Y-99550000D01*
D63*
X138750000Y-105916841D02*
X139250504Y-106417345D01*
D62*
X135750000Y-95225000D02*
X135175000Y-95225000D01*
D61*
X167250000Y-99550000D02*
X167100000Y-99400000D01*
D60*
X136749685Y-94225315D02*
X137161875Y-94225315D01*
D62*
X170102580Y-100975000D02*
X170901000Y-101773420D01*
X127750000Y-90950000D02*
X127750000Y-90000000D01*
X127175000Y-91525000D02*
X127750000Y-90950000D01*
D63*
X138750000Y-105775000D02*
X138750000Y-105916841D01*
D60*
X135750000Y-95225000D02*
X136749685Y-94225315D01*
D61*
X164553413Y-80456587D02*
X164510000Y-80500000D01*
D62*
X127875000Y-95000000D02*
X127875000Y-93500000D01*
X127875000Y-93500000D02*
X127175000Y-92800000D01*
D60*
X137249811Y-94137379D02*
X137249811Y-93446400D01*
D62*
X167250000Y-100975000D02*
X170102580Y-100975000D01*
D63*
X140750000Y-105775000D02*
X140750000Y-106366116D01*
D62*
X170901000Y-101773420D02*
X170901000Y-103824000D01*
D61*
X165143413Y-80456587D02*
X164553413Y-80456587D01*
D62*
X135175000Y-95225000D02*
X134500000Y-95900000D01*
X170901000Y-103824000D02*
X169500000Y-105225000D01*
D60*
X136749685Y-94225315D02*
X136749685Y-93446400D01*
D62*
X135750000Y-95225000D02*
X135750000Y-95275000D01*
D60*
X135750000Y-95225000D02*
X135775000Y-95225000D01*
D61*
%TO.N,/FET_Half_Bridge_A/SHUNT_P*%
X136286583Y-103586583D02*
X136000000Y-103873166D01*
X136200000Y-105500000D02*
X136962500Y-105500000D01*
X137313417Y-103586583D02*
X136286583Y-103586583D01*
D63*
X136962500Y-105037500D02*
X136962500Y-105500000D01*
D61*
X140220000Y-94472359D02*
X140220000Y-95000000D01*
X139750441Y-94002800D02*
X140220000Y-94472359D01*
X136000000Y-103873166D02*
X136000000Y-105300000D01*
X138714983Y-102950001D02*
X137949999Y-102950001D01*
D63*
X137775000Y-104225000D02*
X136962500Y-105037500D01*
D61*
X137949999Y-102950001D02*
X137313417Y-103586583D01*
X136000000Y-105300000D02*
X136200000Y-105500000D01*
D63*
X138750000Y-104225000D02*
X137775000Y-104225000D01*
D61*
X140220000Y-101444984D02*
X138714983Y-102950001D01*
X140220000Y-95000000D02*
X140220000Y-101444984D01*
X139750441Y-93446400D02*
X139750441Y-94002800D01*
%TO.N,/FET_Half_Bridge_B/SHUNT_P*%
X142400000Y-92820000D02*
X143000000Y-93420000D01*
X141830441Y-92250441D02*
X142400000Y-92820000D01*
X142637500Y-105400000D02*
X142537500Y-105500000D01*
X143000000Y-99600000D02*
X143100000Y-99600000D01*
D63*
X141700000Y-104662500D02*
X142537500Y-105500000D01*
D61*
X143900000Y-105400000D02*
X142637500Y-105400000D01*
X140946400Y-92250441D02*
X141830441Y-92250441D01*
D63*
X140750000Y-104225000D02*
X141625000Y-104225000D01*
X141625000Y-104225000D02*
X141700000Y-104300000D01*
D61*
X143000000Y-93420000D02*
X143000000Y-94900000D01*
X143000000Y-94900000D02*
X143000000Y-99600000D01*
D63*
X141700000Y-104300000D02*
X141700000Y-104662500D01*
D61*
%TO.N,/FET_Half_Bridge_C/SHUNT_P*%
X166762500Y-105500000D02*
X165600000Y-105500000D01*
X161750000Y-97250000D02*
X148500000Y-97250000D01*
X148500000Y-97250000D02*
X148000000Y-96750000D01*
X142530441Y-88749559D02*
X140946400Y-88749559D01*
D62*
X166762500Y-103012500D02*
X167250000Y-102525000D01*
X166762500Y-105500000D02*
X166762500Y-103012500D01*
D61*
X164903554Y-100400000D02*
X164603554Y-100100000D01*
X148000000Y-96750000D02*
X148000000Y-91000000D01*
X148000000Y-91000000D02*
X144971000Y-87971000D01*
X143091000Y-88580000D02*
X142700000Y-88580000D01*
X164603554Y-100100000D02*
X164600000Y-100100000D01*
X143700000Y-87971000D02*
X143091000Y-88580000D01*
X142700000Y-88580000D02*
X142530441Y-88749559D01*
X144971000Y-87971000D02*
X143700000Y-87971000D01*
X164600000Y-100100000D02*
X161750000Y-97250000D01*
%TO.N,/Microcontroller/ADC1_IN3*%
X162944000Y-83076000D02*
X163520000Y-82500000D01*
X161162500Y-85500000D02*
X161899999Y-85500000D01*
X162944000Y-84455999D02*
X162944000Y-83076000D01*
X161899999Y-85500000D02*
X162944000Y-84455999D01*
X163490000Y-82470000D02*
X163520000Y-82500000D01*
X163490000Y-80500000D02*
X163490000Y-81500000D01*
X163490000Y-81500000D02*
X163490000Y-82470000D01*
D60*
%TO.N,/Power_Supply/3V3_BUCK_SW*%
X127200000Y-84800000D02*
X129399997Y-86999997D01*
D62*
X128200000Y-87700000D02*
X128200000Y-88600000D01*
D60*
X129399997Y-86999997D02*
X129750000Y-86999997D01*
X124400000Y-85525000D02*
X124400000Y-85500000D01*
D62*
X128900003Y-86999997D02*
X128200000Y-87700000D01*
X128200000Y-88600000D02*
X127750000Y-89050000D01*
D60*
X124400000Y-85500000D02*
X125100000Y-84800000D01*
D62*
X129750000Y-86999997D02*
X128900003Y-86999997D01*
D60*
X125100000Y-84800000D02*
X127200000Y-84800000D01*
D61*
%TO.N,/Microcontroller/ADC12_IN1*%
X163000000Y-86500000D02*
X164176000Y-85324000D01*
X165490000Y-83500000D02*
X165490000Y-82500000D01*
X165656000Y-85324000D02*
X166480000Y-84500000D01*
X164176000Y-85324000D02*
X165656000Y-85324000D01*
X166480000Y-84500000D02*
X166480000Y-84490000D01*
X161162500Y-86500000D02*
X163000000Y-86500000D01*
X166480000Y-84490000D02*
X165490000Y-83500000D01*
%TO.N,/Microcontroller/ADC12_IN2*%
X155000000Y-120000000D02*
X155000000Y-127277818D01*
X170900000Y-86400000D02*
X169700000Y-85200000D01*
X155476000Y-118063500D02*
X155476000Y-119524000D01*
X161162500Y-86000000D02*
X162500000Y-86000000D01*
X155000000Y-127277818D02*
X154324944Y-127952874D01*
X163520000Y-83530000D02*
X163490000Y-83500000D01*
X163520000Y-84980000D02*
X163520000Y-84500000D01*
X155476000Y-119524000D02*
X155000000Y-120000000D01*
X154500000Y-117087500D02*
X155476000Y-118063500D01*
X162500000Y-86000000D02*
X163250000Y-85250000D01*
X169700000Y-85200000D02*
X166593173Y-85200000D01*
X163250000Y-85250000D02*
X163520000Y-84980000D01*
X166593173Y-85200000D02*
X166429468Y-85363705D01*
X170900000Y-89425000D02*
X170900000Y-86400000D01*
X163520000Y-84500000D02*
X163520000Y-83530000D01*
D60*
%TO.N,/Microcontroller/CAN_P*%
X150150000Y-127950000D02*
X149900000Y-128200000D01*
X150150000Y-127137500D02*
X150150000Y-127950000D01*
D63*
X170642500Y-99242500D02*
X170885000Y-99000000D01*
X170885000Y-99000000D02*
X170885000Y-97725000D01*
%TO.N,/Microcontroller/CAN_N*%
X169875000Y-99559375D02*
X169615000Y-99299375D01*
X169615000Y-99299375D02*
X169615000Y-97725000D01*
D60*
X148250000Y-127950000D02*
X148500000Y-128200000D01*
X148250000Y-127137500D02*
X148250000Y-127950000D01*
%TO.N,/Microcontroller/LED_R_K*%
X172600000Y-85200000D02*
X172600000Y-84000000D01*
X172100000Y-83500000D02*
X171410000Y-83500000D01*
X172600000Y-84000000D02*
X172100000Y-83500000D01*
X171700000Y-86100000D02*
X172600000Y-85200000D01*
%TO.N,/Microcontroller/LED_B_K*%
X171975000Y-84500000D02*
X171410000Y-84500000D01*
D62*
%TO.N,/FET_Half_Bridge_A/GATE_H*%
X138250063Y-97749937D02*
X137100000Y-98900000D01*
X133500000Y-100000000D02*
X133500000Y-100800000D01*
D60*
X138250063Y-93446400D02*
X138250063Y-94500000D01*
D62*
X132250000Y-100990000D02*
X133310000Y-100990000D01*
X133310000Y-100990000D02*
X133500000Y-100800000D01*
X137100000Y-98900000D02*
X134600000Y-98900000D01*
X138250063Y-94500000D02*
X138250063Y-97749937D01*
X134600000Y-98900000D02*
X133500000Y-100000000D01*
%TO.N,/FET_Half_Bridge_A/GATE_H_RAW*%
X133500000Y-107000000D02*
X133500000Y-102200000D01*
X132250000Y-102010000D02*
X133310000Y-102010000D01*
X134878500Y-114222900D02*
X134878500Y-108378500D01*
X134155000Y-114946400D02*
X134878500Y-114222900D01*
X134878500Y-108378500D02*
X133500000Y-107000000D01*
X133310000Y-102010000D02*
X133500000Y-102200000D01*
%TO.N,/FET_Half_Bridge_A/GATE_L_RAW*%
X138750000Y-102010000D02*
X137690000Y-102010000D01*
X137500000Y-102700000D02*
X137500000Y-102200000D01*
X135100000Y-104100000D02*
X136100000Y-103100000D01*
X137500000Y-102200000D02*
X136000000Y-102200000D01*
X136845000Y-109053600D02*
X136845000Y-108445000D01*
X136845000Y-108445000D02*
X135100000Y-106700000D01*
X136100000Y-103100000D02*
X137100000Y-103100000D01*
X135100000Y-106700000D02*
X135100000Y-104100000D01*
X137690000Y-102010000D02*
X137500000Y-102200000D01*
X137100000Y-103100000D02*
X137500000Y-102700000D01*
D60*
%TO.N,/FET_Half_Bridge_A/GATE_L*%
X139250315Y-93446400D02*
X139250315Y-94102800D01*
X139452063Y-94304548D02*
X139452063Y-95700000D01*
D62*
X139452063Y-98547937D02*
X139452063Y-95700000D01*
X137500000Y-100800000D02*
X137500000Y-100500000D01*
X137690000Y-100990000D02*
X137500000Y-100800000D01*
X138750000Y-100990000D02*
X137690000Y-100990000D01*
D60*
X139250315Y-94102800D02*
X139452063Y-94304548D01*
D62*
X137500000Y-100500000D02*
X139452063Y-98547937D01*
%TO.N,/FET_Half_Bridge_B/GATE_H_RAW*%
X152250000Y-102260000D02*
X153265000Y-102260000D01*
X153655000Y-114946400D02*
X154500000Y-114101400D01*
X154500000Y-103422420D02*
X153572580Y-102495000D01*
X153572580Y-102495000D02*
X153500000Y-102495000D01*
X153265000Y-102260000D02*
X153500000Y-102495000D01*
X154500000Y-114101400D02*
X154500000Y-103422420D01*
D60*
%TO.N,/FET_Half_Bridge_B/GATE_H*%
X143750063Y-90750063D02*
X140946400Y-90750063D01*
D62*
X153500000Y-100500000D02*
X153500000Y-101095000D01*
X145100000Y-98600000D02*
X146500000Y-100000000D01*
X153000000Y-100000000D02*
X153500000Y-100500000D01*
X153355000Y-101240000D02*
X153500000Y-101095000D01*
X146500000Y-100000000D02*
X153000000Y-100000000D01*
X145100000Y-92100000D02*
X145100000Y-98600000D01*
X152250000Y-101240000D02*
X153355000Y-101240000D01*
X144000000Y-91000000D02*
X145100000Y-92100000D01*
D60*
X144000000Y-91000000D02*
X143750063Y-90750063D01*
D62*
%TO.N,/FET_Half_Bridge_B/GATE_L_RAW*%
X139874000Y-103734468D02*
X140608468Y-103000000D01*
X142553600Y-109053600D02*
X139874000Y-106374000D01*
X143345000Y-109053600D02*
X142553600Y-109053600D01*
X142275000Y-102225000D02*
X141500000Y-103000000D01*
X145000000Y-102010000D02*
X143940000Y-102010000D01*
X139874000Y-106374000D02*
X139874000Y-103734468D01*
X142275000Y-102200000D02*
X142275000Y-102225000D01*
X143940000Y-102010000D02*
X143750000Y-102200000D01*
X140608468Y-103000000D02*
X141500000Y-103000000D01*
X142275000Y-102200000D02*
X143750000Y-102200000D01*
D60*
%TO.N,/FET_Half_Bridge_B/GATE_L*%
X140946400Y-91750315D02*
X142750315Y-91750315D01*
D62*
X145000000Y-100990000D02*
X143940000Y-100990000D01*
X143940000Y-100990000D02*
X143750000Y-100800000D01*
D60*
X142750315Y-91750315D02*
X143000000Y-92000000D01*
D62*
X143750000Y-100800000D02*
X143750000Y-92750000D01*
X143750000Y-92750000D02*
X143000000Y-92000000D01*
%TO.N,/FET_Half_Bridge_C/GATE_H*%
X145900000Y-91900000D02*
X145900000Y-98400000D01*
X159650000Y-101190000D02*
X160760000Y-101190000D01*
X145900000Y-98400000D02*
X146750000Y-99250000D01*
D60*
X144249937Y-90249937D02*
X140946400Y-90249937D01*
D62*
X144500000Y-90500000D02*
X145900000Y-91900000D01*
X160760000Y-101190000D02*
X160900000Y-101050000D01*
X146750000Y-99250000D02*
X159100000Y-99250000D01*
X159100000Y-99250000D02*
X160900000Y-101050000D01*
D60*
X144500000Y-90500000D02*
X144249937Y-90249937D01*
D62*
%TO.N,/FET_Half_Bridge_C/GATE_H_RAW*%
X160900001Y-102450000D02*
X160900000Y-102450000D01*
X161100000Y-108300000D02*
X162700000Y-106700000D01*
X160155000Y-114946400D02*
X161100000Y-114001400D01*
X162700000Y-104249999D02*
X160900001Y-102450000D01*
X160660000Y-102210000D02*
X160900000Y-102450000D01*
X162700000Y-106700000D02*
X162700000Y-104249999D01*
X159650000Y-102210000D02*
X160660000Y-102210000D01*
X161100000Y-114001400D02*
X161100000Y-108300000D01*
%TO.N,/FET_Half_Bridge_C/GATE_L_RAW*%
X162845000Y-108304942D02*
X164250000Y-106899942D01*
X162845000Y-109053600D02*
X162845000Y-108304942D01*
X165750000Y-102450000D02*
X164250000Y-102450000D01*
X163000000Y-102260000D02*
X164060000Y-102260000D01*
X164250000Y-106899942D02*
X164250000Y-102450000D01*
X164060000Y-102260000D02*
X164250000Y-102450000D01*
%TO.N,/FET_Half_Bridge_C/GATE_L*%
X163000000Y-101240000D02*
X164060000Y-101240000D01*
X147649000Y-97899000D02*
X147300000Y-97550000D01*
D60*
X140946400Y-89249685D02*
X142980376Y-89249685D01*
D62*
X161099000Y-97899000D02*
X147649000Y-97899000D01*
X164250000Y-101050000D02*
X161099000Y-97899000D01*
X164060000Y-101240000D02*
X164250000Y-101050000D01*
D60*
X142980376Y-89249685D02*
X145249685Y-89249685D01*
D62*
X147300000Y-97550000D02*
X147300000Y-91300000D01*
X147300000Y-91300000D02*
X145500000Y-89500000D01*
D60*
X145249685Y-89249685D02*
X145500000Y-89500000D01*
D61*
%TO.N,/Microcontroller/DEBUG_VTGT*%
X141000000Y-78890000D02*
X141000000Y-78330000D01*
X141000000Y-78330000D02*
X143080000Y-76250000D01*
%TO.N,/Microcontroller/DEBUG_SWCLK*%
X139000000Y-77250000D02*
X138000000Y-76250000D01*
X139000000Y-78890000D02*
X139000000Y-77250000D01*
%TO.N,/Microcontroller/DEBUG_SWDIO*%
X140000000Y-78890000D02*
X140000000Y-76790000D01*
X140000000Y-76790000D02*
X140540000Y-76250000D01*
%TO.N,/Microcontroller/DEBUG_NRST*%
X138000000Y-78890000D02*
X138000000Y-78790000D01*
X138000000Y-78790000D02*
X135460000Y-76250000D01*
D62*
%TO.N,/FET_Half_Bridge_A/PHASE*%
X138750000Y-113016000D02*
X135479500Y-109745500D01*
X134300000Y-100500000D02*
X135200000Y-99600000D01*
D60*
X138750189Y-93446400D02*
X138750189Y-94250189D01*
D62*
X134300000Y-106900000D02*
X134300000Y-100500000D01*
D60*
X138851063Y-94351063D02*
X138851063Y-94951063D01*
X138851063Y-94951063D02*
X138900000Y-95000000D01*
D62*
X137400000Y-99600000D02*
X138851063Y-98148937D01*
X135479500Y-108079500D02*
X134300000Y-106900000D01*
D60*
X138750189Y-94250189D02*
X138851063Y-94351063D01*
D62*
X135200000Y-99600000D02*
X137400000Y-99600000D01*
X138851063Y-98148937D02*
X138851063Y-95000000D01*
X135479500Y-109745500D02*
X135479500Y-108079500D01*
%TO.N,/FET_Half_Bridge_B/PHASE*%
X148500000Y-108500000D02*
X146000000Y-106000000D01*
X144400000Y-92400000D02*
X143500000Y-91500000D01*
D60*
X143250189Y-91250189D02*
X143500000Y-91500000D01*
D62*
X146000000Y-100500000D02*
X144400000Y-98900000D01*
X144400000Y-98900000D02*
X144400000Y-92400000D01*
X149845000Y-114946400D02*
X148500000Y-113601400D01*
X148500000Y-113601400D02*
X148500000Y-108500000D01*
D60*
X140946400Y-91250189D02*
X143250189Y-91250189D01*
D62*
X146000000Y-106000000D02*
X146000000Y-100500000D01*
D60*
%TO.N,/FET_Half_Bridge_C/PHASE*%
X144749811Y-89749811D02*
X145000000Y-90000000D01*
D62*
X163500000Y-104000000D02*
X162000000Y-102500000D01*
D60*
X140946400Y-89749811D02*
X143224126Y-89749811D01*
D62*
X164750000Y-113016000D02*
X161875029Y-110141029D01*
X147100000Y-98500000D02*
X146600000Y-98000000D01*
X161875029Y-108424971D02*
X163500000Y-106800000D01*
X160000000Y-98500000D02*
X147100000Y-98500000D01*
X162000000Y-102500000D02*
X162000000Y-100500000D01*
X162000000Y-100500000D02*
X160000000Y-98500000D01*
X146600000Y-91600000D02*
X145000000Y-90000000D01*
D60*
X143224126Y-89749811D02*
X144749811Y-89749811D01*
D62*
X161875029Y-110141029D02*
X161875029Y-108424971D01*
X163500000Y-106800000D02*
X163500000Y-104000000D01*
X146600000Y-98000000D02*
X146600000Y-91600000D01*
D61*
%TO.N,/Thermistors/NTC_MOTOR_CONN*%
X165500000Y-80000000D02*
X165500000Y-76000000D01*
X166510000Y-82500000D02*
X166510000Y-81010000D01*
X166510000Y-81010000D02*
X165500000Y-80000000D01*
%TO.N,/Microcontroller/CAN_TXVR_TX*%
X166250000Y-94000000D02*
X167000000Y-93250000D01*
X168250000Y-90000000D02*
X171500000Y-90000000D01*
X172155000Y-90655000D02*
X172155000Y-92775000D01*
X167000000Y-91250000D02*
X168250000Y-90000000D01*
X171500000Y-90000000D02*
X172155000Y-90655000D01*
X165760000Y-94000000D02*
X166250000Y-94000000D01*
X167000000Y-93250000D02*
X167000000Y-91250000D01*
%TO.N,/Microcontroller/FDCAN1_TX*%
X159261412Y-94476000D02*
X160738588Y-94476000D01*
X158750000Y-93964588D02*
X159261412Y-94476000D01*
X158750000Y-91412500D02*
X158750000Y-93964588D01*
X161200000Y-94014588D02*
X161200000Y-94000000D01*
X160738588Y-94476000D02*
X161200000Y-94014588D01*
X161200000Y-94000000D02*
X164740000Y-94000000D01*
%TO.N,/Microcontroller/CAN_TXVR_RX*%
X168345000Y-94155000D02*
X168345000Y-92775000D01*
X165760000Y-95000000D02*
X167500000Y-95000000D01*
X167500000Y-95000000D02*
X168345000Y-94155000D01*
%TO.N,/Microcontroller/FDCAN1_RX*%
X158250000Y-94150000D02*
X159100000Y-95000000D01*
X158250000Y-91412500D02*
X158250000Y-94150000D01*
X159100000Y-95000000D02*
X164740000Y-95000000D01*
%TO.N,/Microcontroller/SWDIO*%
X140000000Y-79910000D02*
X140000000Y-80500000D01*
X154250000Y-91412500D02*
X154250000Y-92036827D01*
X140000000Y-80500000D02*
X139800000Y-80700000D01*
X154250000Y-92036827D02*
X153893415Y-92393412D01*
%TO.N,/Microcontroller/SWCLK*%
X154750000Y-91412500D02*
X154750000Y-92350000D01*
X139000000Y-80725000D02*
X139000000Y-79910000D01*
X154750000Y-92350000D02*
X153900000Y-93200000D01*
%TO.N,/Microcontroller/USART1_TX*%
X159973468Y-90400000D02*
X157526532Y-90400000D01*
X157526532Y-90400000D02*
X157250000Y-90676532D01*
X157250000Y-90676532D02*
X157250000Y-91412500D01*
X162700000Y-92300000D02*
X161873468Y-92300000D01*
X161873468Y-92300000D02*
X159973468Y-90400000D01*
%TO.N,/Microcontroller/SPI3_MOSI*%
X156750000Y-92500000D02*
X157500000Y-93250000D01*
X157500000Y-93250000D02*
X157500000Y-93990000D01*
X156750000Y-91412500D02*
X156750000Y-92500000D01*
%TO.N,/Microcontroller/ENC_MOSI*%
X157500000Y-96000000D02*
X157500000Y-95010000D01*
%TO.N,/Microcontroller/ENC_MISO*%
X156500000Y-96000000D02*
X156500000Y-95010000D01*
%TO.N,/Microcontroller/SPI3_MISO*%
X156500000Y-93250000D02*
X156500000Y-93990000D01*
X156250000Y-91412500D02*
X156250000Y-93000000D01*
X156250000Y-93000000D02*
X156500000Y-93250000D01*
%TO.N,/Microcontroller/SPI3_SCK*%
X155750000Y-91412500D02*
X155750000Y-93000000D01*
X155750000Y-93000000D02*
X155500000Y-93250000D01*
X155500000Y-93250000D02*
X155500000Y-93990000D01*
%TO.N,/Microcontroller/ENC_CLK*%
X155500000Y-96000000D02*
X155500000Y-95010000D01*
%TO.N,/Microcontroller/SPI3_NSS*%
X154480000Y-93270000D02*
X154480000Y-93990000D01*
X155250000Y-92500000D02*
X154480000Y-93270000D01*
X155250000Y-91412500D02*
X155250000Y-92500000D01*
%TO.N,/Microcontroller/ENC_NCS*%
X154500000Y-95030000D02*
X154480000Y-95010000D01*
X154500000Y-96000000D02*
X154500000Y-95030000D01*
%TO.N,/Microcontroller/OSC_OUT*%
X163500000Y-87500000D02*
X164090000Y-86910000D01*
X161162500Y-87500000D02*
X163500000Y-87500000D01*
X164090000Y-86910000D02*
X164490000Y-86910000D01*
D60*
%TO.N,/Microcontroller/TIM2_CH3*%
X155680822Y-84325000D02*
X155250000Y-83894178D01*
X168400000Y-83500000D02*
X167500000Y-82600000D01*
X155797582Y-84325000D02*
X155680822Y-84325000D01*
X170390000Y-83500000D02*
X168400000Y-83500000D01*
X155250000Y-83894178D02*
X155250000Y-83087500D01*
%TO.N,/Microcontroller/TIM2_CH4*%
X154800000Y-84500000D02*
X155000000Y-84700000D01*
X169800000Y-84500000D02*
X170390000Y-84500000D01*
X152837500Y-84500000D02*
X154800000Y-84500000D01*
D61*
%TO.N,/Integrated_FET_Driver/SOA*%
X145001000Y-84999000D02*
X145001000Y-80901000D01*
X143750000Y-86250000D02*
X145001000Y-84999000D01*
X145001000Y-80901000D02*
X145000000Y-80900000D01*
X139250315Y-86981026D02*
X139981341Y-86250000D01*
X145000000Y-80900000D02*
X145500000Y-80400000D01*
X139981341Y-86250000D02*
X143750000Y-86250000D01*
X139250315Y-87553600D02*
X139250315Y-86981026D01*
X145500000Y-80400000D02*
X145500000Y-79910000D01*
%TO.N,/Microcontroller/SPI1_MISO*%
X137249811Y-86167995D02*
X138817806Y-84600000D01*
X150810000Y-86000000D02*
X150310000Y-85500000D01*
X142900000Y-84150000D02*
X142900000Y-83200000D01*
X142100000Y-84000000D02*
X142100000Y-82900000D01*
X147268372Y-84904000D02*
X149714000Y-84904000D01*
X152837500Y-86000000D02*
X150810000Y-86000000D01*
X144000000Y-85250000D02*
X142900000Y-84150000D01*
X141500000Y-84600000D02*
X142100000Y-84000000D01*
X137249811Y-87553600D02*
X137249811Y-86167995D01*
X142900000Y-83200000D02*
X142600000Y-82900000D01*
X138817806Y-84600000D02*
X141500000Y-84600000D01*
X149714000Y-84904000D02*
X150310000Y-85500000D01*
X142600000Y-82900000D02*
X142100000Y-82900000D01*
X147229687Y-84942685D02*
X147268372Y-84904000D01*
%TO.N,/Microcontroller/PA12*%
X137749937Y-86750063D02*
X137749937Y-87553600D01*
X147286561Y-88964000D02*
X147250561Y-89000000D01*
X152837500Y-89000000D02*
X152801500Y-88964000D01*
X152801500Y-88964000D02*
X147286561Y-88964000D01*
%TO.N,/Integrated_FET_Driver/SOB*%
X140151000Y-86649000D02*
X143847388Y-86649000D01*
X139750441Y-87553600D02*
X139750441Y-87049559D01*
X139750441Y-87049559D02*
X140151000Y-86649000D01*
X145399000Y-81401000D02*
X146500000Y-80300000D01*
X146500000Y-80300000D02*
X146500000Y-79910000D01*
X145399000Y-85097388D02*
X145399000Y-81401000D01*
X143847388Y-86649000D02*
X145399000Y-85097388D01*
%TO.N,/Integrated_FET_Driver/SOC*%
X144000000Y-87000000D02*
X145750000Y-85250000D01*
X140250567Y-87553600D02*
X140804167Y-87000000D01*
X145750000Y-85250000D02*
X145750000Y-81950000D01*
X145750000Y-81950000D02*
X147500000Y-80200000D01*
X140804167Y-87000000D02*
X144000000Y-87000000D01*
X147500000Y-80200000D02*
X147500000Y-79910000D01*
%TO.N,/Microcontroller/DAC1_OUT1*%
X162000000Y-82450000D02*
X162000000Y-83662500D01*
X162000000Y-83662500D02*
X161162500Y-84500000D01*
%TO.N,/Microcontroller/DAC1_OUT2*%
X162000000Y-81250000D02*
X161587500Y-81250000D01*
X161587500Y-81250000D02*
X159750000Y-83087500D01*
%TO.N,/Microcontroller/TIM1_CH1*%
X152837500Y-87000000D02*
X147600000Y-87000000D01*
X135053600Y-88749559D02*
X134499559Y-88749559D01*
X134247446Y-86352554D02*
X136900000Y-83700000D01*
X147600000Y-87000000D02*
X146600000Y-86000000D01*
X134247446Y-88497446D02*
X134247446Y-86352554D01*
X136900000Y-83700000D02*
X136900000Y-82900000D01*
X134499559Y-88749559D02*
X134247446Y-88497446D01*
%TO.N,/Microcontroller/TIM1_CH2*%
X134800000Y-84700000D02*
X133884371Y-84700000D01*
X135600000Y-82900000D02*
X135600000Y-83900000D01*
X133884371Y-84700000D02*
X133395446Y-85188925D01*
X135600000Y-83900000D02*
X134800000Y-84700000D01*
X133395446Y-85188925D02*
X133395446Y-88638222D01*
X147100000Y-87500000D02*
X146100000Y-86500000D01*
X152837500Y-87500000D02*
X147100000Y-87500000D01*
X134507035Y-89749811D02*
X135053600Y-89749811D01*
X133395446Y-88638222D02*
X134507035Y-89749811D01*
%TO.N,/Microcontroller/TIM1_CH3*%
X132659514Y-88928551D02*
X132659514Y-84509229D01*
X135053600Y-90750063D02*
X134481026Y-90750063D01*
X152837500Y-88000000D02*
X147100000Y-88000000D01*
X146107567Y-87007567D02*
X145693947Y-87007567D01*
X134481026Y-90750063D02*
X132659514Y-88928551D01*
X133559250Y-84215750D02*
X134300000Y-83475000D01*
X132952993Y-84215750D02*
X133559250Y-84215750D01*
X132659514Y-84509229D02*
X132952993Y-84215750D01*
X147100000Y-88000000D02*
X146107567Y-87007567D01*
X134300000Y-83475000D02*
X134300000Y-82900000D01*
%TO.N,/Microcontroller/SPI1_NSS*%
X138200000Y-83728641D02*
X135749433Y-86179208D01*
X144500000Y-83587244D02*
X143953000Y-83040244D01*
X138200000Y-82900000D02*
X138200000Y-83728641D01*
X151500000Y-85000000D02*
X150500000Y-84000000D01*
X143198000Y-81298000D02*
X140605611Y-81298000D01*
X138901000Y-82199000D02*
X138200000Y-82900000D01*
X139704611Y-82199000D02*
X138901000Y-82199000D01*
X143953000Y-83040244D02*
X143953000Y-82053000D01*
X140605611Y-81298000D02*
X139704611Y-82199000D01*
X147127141Y-83668620D02*
X146709310Y-83668620D01*
X135749433Y-86179208D02*
X135749433Y-87553600D01*
X152837500Y-85000000D02*
X151500000Y-85000000D01*
X147458521Y-84000000D02*
X147127141Y-83668620D01*
X143953000Y-82053000D02*
X143198000Y-81298000D01*
X150500000Y-84000000D02*
X147458521Y-84000000D01*
%TO.N,/Microcontroller/SPI1_SCK*%
X147131752Y-84169620D02*
X147462132Y-84500000D01*
X144209310Y-84168620D02*
X143602000Y-83561310D01*
X143602000Y-83561310D02*
X143602000Y-82202000D01*
X139500000Y-82900000D02*
X139500000Y-83600000D01*
X140751000Y-81649000D02*
X139500000Y-82900000D01*
X147462132Y-84500000D02*
X150503612Y-84500000D01*
X143602000Y-82202000D02*
X143049000Y-81649000D01*
X151503612Y-85500000D02*
X152837500Y-85500000D01*
X136249559Y-86175470D02*
X136249559Y-87553600D01*
X139202000Y-83898000D02*
X138527029Y-83898000D01*
X146269621Y-84169620D02*
X147131752Y-84169620D01*
X139500000Y-83600000D02*
X139202000Y-83898000D01*
X146249999Y-84149998D02*
X146269621Y-84169620D01*
X150503612Y-84500000D02*
X151503612Y-85500000D01*
X138527029Y-83898000D02*
X136249559Y-86175470D01*
X143049000Y-81649000D02*
X140751000Y-81649000D01*
%TO.N,/Microcontroller/SPI1_MOSI*%
X146500000Y-84921519D02*
X146500000Y-84750000D01*
X148078481Y-86500000D02*
X146500000Y-84921519D01*
X140400000Y-84249000D02*
X138672417Y-84249000D01*
X140800000Y-82900000D02*
X140800000Y-83849000D01*
X152837500Y-86500000D02*
X148078481Y-86500000D01*
X143251000Y-83918831D02*
X143251000Y-82451000D01*
X140800000Y-83849000D02*
X140400000Y-84249000D01*
X138672417Y-84249000D02*
X136749685Y-86171732D01*
X136749685Y-86171732D02*
X136749685Y-87553600D01*
X143251000Y-82451000D02*
X142800000Y-82000000D01*
X140800000Y-82300000D02*
X140800000Y-82900000D01*
X142800000Y-82000000D02*
X141100000Y-82000000D01*
X144500000Y-84750000D02*
X144082169Y-84750000D01*
X141100000Y-82000000D02*
X140800000Y-82300000D01*
X144082169Y-84750000D02*
X143251000Y-83918831D01*
%TO.N,/Microcontroller/PA7*%
X139360521Y-81848000D02*
X133950000Y-81848000D01*
X152800000Y-83000000D02*
X153200000Y-83400000D01*
X135053600Y-88249433D02*
X135053600Y-86646400D01*
X133300000Y-82498000D02*
X133300000Y-83000000D01*
X135053600Y-86646400D02*
X135200000Y-86500000D01*
X144500000Y-82800000D02*
X144500000Y-82103612D01*
X158750000Y-82350001D02*
X158750000Y-83087500D01*
X146300000Y-83000000D02*
X152800000Y-83000000D01*
X144500000Y-82103612D02*
X143296388Y-80900000D01*
X140308521Y-80900000D02*
X139360521Y-81848000D01*
X159300001Y-81800000D02*
X158750000Y-82350001D01*
X133950000Y-81848000D02*
X133300000Y-82498000D01*
X159500000Y-81800000D02*
X159300001Y-81800000D01*
X143296388Y-80900000D02*
X140308521Y-80900000D01*
%TO.N,/Microcontroller/PA11*%
X132308514Y-89077677D02*
X132308514Y-84363840D01*
X132308514Y-84363840D02*
X132972354Y-83700000D01*
X134503297Y-89249685D02*
X133896446Y-88642834D01*
X134484764Y-90249937D02*
X133044446Y-88809619D01*
X132972354Y-83700000D02*
X133200000Y-83700000D01*
X135053600Y-90249937D02*
X134484764Y-90249937D01*
X133044446Y-88809619D02*
X133044446Y-84832818D01*
X146892892Y-88500000D02*
X146046446Y-87653554D01*
X135053600Y-89249685D02*
X134503297Y-89249685D01*
X133044446Y-84832818D02*
X133160514Y-84716750D01*
X135053600Y-91250189D02*
X134481026Y-91250189D01*
X134481026Y-91250189D02*
X132308514Y-89077677D01*
X133896446Y-88642834D02*
X133896446Y-85396446D01*
X152837500Y-88500000D02*
X146892892Y-88500000D01*
D60*
%TO.N,/Power_Supply/3V3_BUCK_CP*%
X125250000Y-87925000D02*
X124400000Y-87075000D01*
X125250000Y-89050000D02*
X125250000Y-87925000D01*
%TO.N,/Integrated_FET_Driver/DVDD*%
X135053600Y-91750315D02*
X133930315Y-91750315D01*
X133930315Y-91750315D02*
X133480000Y-91300000D01*
%TD*%
%TA.AperFunction,Conductor*%
%TO.N,/FET_Half_Bridge_B/SHUNT_P*%
G36*
X143481987Y-103518013D02*
G01*
X143500000Y-103561500D01*
X143500000Y-105500000D01*
X144000000Y-106000000D01*
X144974526Y-106000000D01*
X145018013Y-106018013D01*
X147481987Y-108481987D01*
X147500000Y-108525474D01*
X147500000Y-109438500D01*
X147481987Y-109481987D01*
X147438500Y-109500000D01*
X144061500Y-109500000D01*
X144018013Y-109481987D01*
X144000000Y-109438500D01*
X144000000Y-108500000D01*
X143500000Y-108000000D01*
X142091866Y-108000000D01*
X142048379Y-107981987D01*
X141518013Y-107451620D01*
X141500000Y-107408133D01*
X141500000Y-103561500D01*
X141518013Y-103518013D01*
X141561500Y-103500000D01*
X143438500Y-103500000D01*
X143481987Y-103518013D01*
G37*
%TD.AperFunction*%
%TD*%
%TA.AperFunction,Conductor*%
%TO.N,/FET_Half_Bridge_C/SHUNT_P*%
G36*
X167481987Y-103518013D02*
G01*
X167500000Y-103561500D01*
X167500000Y-109438500D01*
X167481987Y-109481987D01*
X167438500Y-109500000D01*
X163561500Y-109500000D01*
X163518013Y-109481987D01*
X163500000Y-109438500D01*
X163500000Y-108525474D01*
X163518013Y-108481987D01*
X166000000Y-106000000D01*
X166000000Y-103561500D01*
X166018013Y-103518013D01*
X166061500Y-103500000D01*
X167438500Y-103500000D01*
X167481987Y-103518013D01*
G37*
%TD.AperFunction*%
%TD*%
%TA.AperFunction,Conductor*%
%TO.N,VBUS*%
G36*
X155592692Y-106258239D02*
G01*
X155597541Y-106261038D01*
X155606814Y-106266392D01*
X155606818Y-106266393D01*
X155606820Y-106266394D01*
X155734104Y-106300499D01*
X155734106Y-106300500D01*
X155734108Y-106300500D01*
X155865894Y-106300500D01*
X155865894Y-106300499D01*
X155943790Y-106279627D01*
X155993179Y-106266394D01*
X155993179Y-106266393D01*
X155993186Y-106266392D01*
X156004176Y-106260046D01*
X156007308Y-106258239D01*
X156038057Y-106250000D01*
X156561943Y-106250000D01*
X156592692Y-106258239D01*
X156597541Y-106261038D01*
X156606814Y-106266392D01*
X156606818Y-106266393D01*
X156606820Y-106266394D01*
X156734104Y-106300499D01*
X156734106Y-106300500D01*
X156734108Y-106300500D01*
X156865894Y-106300500D01*
X156865894Y-106300499D01*
X156943790Y-106279627D01*
X156993179Y-106266394D01*
X156993179Y-106266393D01*
X156993186Y-106266392D01*
X157004176Y-106260046D01*
X157007308Y-106258239D01*
X157038057Y-106250000D01*
X157561943Y-106250000D01*
X157592692Y-106258239D01*
X157597541Y-106261038D01*
X157606814Y-106266392D01*
X157606818Y-106266393D01*
X157606820Y-106266394D01*
X157734104Y-106300499D01*
X157734106Y-106300500D01*
X157734108Y-106300500D01*
X157865894Y-106300500D01*
X157865894Y-106300499D01*
X157943790Y-106279627D01*
X157993179Y-106266394D01*
X157993179Y-106266393D01*
X157993186Y-106266392D01*
X158004176Y-106260046D01*
X158007308Y-106258239D01*
X158038057Y-106250000D01*
X158561943Y-106250000D01*
X158592692Y-106258239D01*
X158597541Y-106261038D01*
X158606814Y-106266392D01*
X158606818Y-106266393D01*
X158606820Y-106266394D01*
X158734104Y-106300499D01*
X158734106Y-106300500D01*
X158734108Y-106300500D01*
X158865894Y-106300500D01*
X158865894Y-106300499D01*
X158943790Y-106279627D01*
X158993179Y-106266394D01*
X158993179Y-106266393D01*
X158993186Y-106266392D01*
X159004176Y-106260046D01*
X159007308Y-106258239D01*
X159038057Y-106250000D01*
X159224526Y-106250000D01*
X159268013Y-106268013D01*
X159481987Y-106481987D01*
X159500000Y-106525474D01*
X159500000Y-108250000D01*
X159750000Y-108500000D01*
X160438500Y-108500000D01*
X160481987Y-108518013D01*
X160500000Y-108561500D01*
X160500000Y-110188500D01*
X160481987Y-110231987D01*
X160438500Y-110250000D01*
X156061500Y-110250000D01*
X156018013Y-110231987D01*
X156000000Y-110188500D01*
X156000000Y-108750000D01*
X155018013Y-107768013D01*
X155000000Y-107724526D01*
X155000000Y-106311500D01*
X155018013Y-106268013D01*
X155061500Y-106250000D01*
X155561943Y-106250000D01*
X155592692Y-106258239D01*
G37*
%TD.AperFunction*%
%TD*%
%TA.AperFunction,Conductor*%
%TO.N,/FET_Half_Bridge_C/PHASE*%
G36*
X159385648Y-114214352D02*
G01*
X159400000Y-114249000D01*
X159400000Y-116000000D01*
X159800000Y-116400000D01*
X162199999Y-116400000D01*
X162200000Y-116400000D01*
X162600000Y-116000000D01*
X162600000Y-114820296D01*
X162614352Y-114785648D01*
X162985648Y-114414352D01*
X163020296Y-114400000D01*
X166379704Y-114400000D01*
X166414352Y-114414352D01*
X166985648Y-114985648D01*
X167000000Y-115020296D01*
X167000000Y-117379704D01*
X166985648Y-117414352D01*
X163814352Y-120585648D01*
X163779704Y-120600000D01*
X157420296Y-120600000D01*
X157385648Y-120585648D01*
X156014352Y-119214352D01*
X156000000Y-119179704D01*
X156000000Y-114249000D01*
X156014352Y-114214352D01*
X156049000Y-114200000D01*
X159351000Y-114200000D01*
X159385648Y-114214352D01*
G37*
%TD.AperFunction*%
%TD*%
%TA.AperFunction,Conductor*%
%TO.N,GND*%
G36*
X170643039Y-106619685D02*
G01*
X170688794Y-106672489D01*
X170700000Y-106724000D01*
X170700000Y-108376000D01*
X170680315Y-108443039D01*
X170627511Y-108488794D01*
X170576000Y-108500000D01*
X168624000Y-108500000D01*
X168556961Y-108480315D01*
X168511206Y-108427511D01*
X168500000Y-108376000D01*
X168500000Y-106724000D01*
X168519685Y-106656961D01*
X168572489Y-106611206D01*
X168624000Y-106600000D01*
X170576000Y-106600000D01*
X170643039Y-106619685D01*
G37*
%TD.AperFunction*%
%TD*%
%TA.AperFunction,Conductor*%
%TO.N,VBUS*%
G36*
X130443039Y-124519685D02*
G01*
X130488794Y-124572489D01*
X130500000Y-124624000D01*
X130500000Y-126500000D01*
X141500000Y-126500000D01*
X141500000Y-130500000D01*
X146500000Y-130500000D01*
X146500000Y-128500000D01*
X148040823Y-128500000D01*
X148107862Y-128519685D01*
X148128504Y-128536318D01*
X148192686Y-128600500D01*
X148306814Y-128666392D01*
X148434108Y-128700500D01*
X148434110Y-128700500D01*
X148565890Y-128700500D01*
X148565892Y-128700500D01*
X148693186Y-128666392D01*
X148807314Y-128600500D01*
X148871496Y-128536318D01*
X148932820Y-128502834D01*
X148959177Y-128500000D01*
X149440823Y-128500000D01*
X149507862Y-128519685D01*
X149528504Y-128536318D01*
X149592686Y-128600500D01*
X149706814Y-128666392D01*
X149834108Y-128700500D01*
X149834110Y-128700500D01*
X149965890Y-128700500D01*
X149965892Y-128700500D01*
X150093186Y-128666392D01*
X150207314Y-128600500D01*
X150271496Y-128536318D01*
X150332820Y-128502834D01*
X150359177Y-128500000D01*
X154500000Y-128500000D01*
X155500000Y-127500000D01*
X155500000Y-124624000D01*
X155519685Y-124556961D01*
X155572489Y-124511206D01*
X155624000Y-124500000D01*
X169376000Y-124500000D01*
X169443039Y-124519685D01*
X169488794Y-124572489D01*
X169500000Y-124624000D01*
X169500000Y-128876000D01*
X169480315Y-128943039D01*
X169427511Y-128988794D01*
X169376000Y-129000000D01*
X158999999Y-129000000D01*
X155536319Y-132463681D01*
X155474996Y-132497166D01*
X155448638Y-132500000D01*
X153785926Y-132500000D01*
X153764235Y-132493630D01*
X153741701Y-132491845D01*
X153731356Y-132483976D01*
X153718887Y-132480315D01*
X153704085Y-132463233D01*
X153686091Y-132449546D01*
X153678436Y-132433632D01*
X153673132Y-132427511D01*
X153669415Y-132418440D01*
X153667558Y-132413342D01*
X153646503Y-132334763D01*
X153625999Y-132299250D01*
X153622293Y-132289074D01*
X153620730Y-132264586D01*
X153614944Y-132240735D01*
X153618544Y-132230330D01*
X153617844Y-132219346D01*
X153629769Y-132197899D01*
X153637796Y-132174708D01*
X153647642Y-132165756D01*
X153651799Y-132158282D01*
X153661709Y-132152968D01*
X153676802Y-132139248D01*
X153761263Y-132090485D01*
X153840485Y-132011263D01*
X153896503Y-131914237D01*
X153925500Y-131806018D01*
X153925500Y-131693982D01*
X153896503Y-131585763D01*
X153840485Y-131488737D01*
X153761263Y-131409515D01*
X153664237Y-131353497D01*
X153556018Y-131324500D01*
X153443982Y-131324500D01*
X153335763Y-131353497D01*
X153335760Y-131353498D01*
X153238740Y-131409513D01*
X153238734Y-131409517D01*
X153159517Y-131488734D01*
X153159513Y-131488740D01*
X153103498Y-131585760D01*
X153103497Y-131585763D01*
X153074500Y-131693982D01*
X153074500Y-131806017D01*
X153103497Y-131914236D01*
X153103498Y-131914239D01*
X153118582Y-131940365D01*
X153135055Y-132008265D01*
X153112202Y-132074292D01*
X153073196Y-132109752D01*
X152988737Y-132158515D01*
X152988734Y-132158517D01*
X152909517Y-132237734D01*
X152909513Y-132237740D01*
X152853498Y-132334760D01*
X152853497Y-132334763D01*
X152833847Y-132408094D01*
X152797484Y-132467754D01*
X152734637Y-132498283D01*
X152714074Y-132500000D01*
X144551362Y-132500000D01*
X144484323Y-132480315D01*
X144463681Y-132463681D01*
X143250000Y-131250000D01*
X129801362Y-131250000D01*
X129734323Y-131230315D01*
X129713681Y-131213681D01*
X128036319Y-129536319D01*
X128002834Y-129474996D01*
X128000000Y-129448638D01*
X128000000Y-124624000D01*
X128019685Y-124556961D01*
X128072489Y-124511206D01*
X128124000Y-124500000D01*
X130376000Y-124500000D01*
X130443039Y-124519685D01*
G37*
%TD.AperFunction*%
%TD*%
%TA.AperFunction,Conductor*%
%TO.N,VBUS*%
G36*
X153981987Y-106268013D02*
G01*
X154000000Y-106311500D01*
X154000000Y-109188500D01*
X153981987Y-109231987D01*
X153938500Y-109250000D01*
X149561500Y-109250000D01*
X149518013Y-109231987D01*
X149500000Y-109188500D01*
X149500000Y-108025474D01*
X149518013Y-107981987D01*
X149750000Y-107750000D01*
X149750000Y-106311500D01*
X149768013Y-106268013D01*
X149811500Y-106250000D01*
X153938500Y-106250000D01*
X153981987Y-106268013D01*
G37*
%TD.AperFunction*%
%TD*%
%TA.AperFunction,Conductor*%
%TO.N,GND*%
G36*
X128943039Y-102419685D02*
G01*
X128988794Y-102472489D01*
X129000000Y-102524000D01*
X129000000Y-104076000D01*
X128980315Y-104143039D01*
X128927511Y-104188794D01*
X128876000Y-104200000D01*
X124124000Y-104200000D01*
X124056961Y-104180315D01*
X124011206Y-104127511D01*
X124000000Y-104076000D01*
X124000000Y-102524000D01*
X124019685Y-102456961D01*
X124072489Y-102411206D01*
X124124000Y-102400000D01*
X128876000Y-102400000D01*
X128943039Y-102419685D01*
G37*
%TD.AperFunction*%
%TD*%
%TA.AperFunction,Conductor*%
%TO.N,GND*%
G36*
X131943039Y-131769685D02*
G01*
X131988794Y-131822489D01*
X132000000Y-131874000D01*
X132000000Y-137626000D01*
X131980315Y-137693039D01*
X131927511Y-137738794D01*
X131876000Y-137750000D01*
X126466455Y-137750000D01*
X126447057Y-137748473D01*
X126320419Y-137728415D01*
X126307723Y-137725717D01*
X126091906Y-137667889D01*
X126032246Y-137631524D01*
X126001717Y-137568677D01*
X126000000Y-137548114D01*
X126000000Y-131874000D01*
X126019685Y-131806961D01*
X126072489Y-131761206D01*
X126124000Y-131750000D01*
X131876000Y-131750000D01*
X131943039Y-131769685D01*
G37*
%TD.AperFunction*%
%TD*%
%TA.AperFunction,Conductor*%
%TO.N,GND*%
G36*
X159943039Y-133019685D02*
G01*
X159988794Y-133072489D01*
X160000000Y-133124000D01*
X160000000Y-137376000D01*
X159980315Y-137443039D01*
X159927511Y-137488794D01*
X159876000Y-137500000D01*
X154124000Y-137500000D01*
X154056961Y-137480315D01*
X154011206Y-137427511D01*
X154000000Y-137376000D01*
X154000000Y-133124000D01*
X154019685Y-133056961D01*
X154072489Y-133011206D01*
X154124000Y-133000000D01*
X159876000Y-133000000D01*
X159943039Y-133019685D01*
G37*
%TD.AperFunction*%
%TD*%
%TA.AperFunction,Conductor*%
%TO.N,GND*%
G36*
X170176864Y-101619685D02*
G01*
X170197506Y-101636319D01*
X170464181Y-101902994D01*
X170497666Y-101964317D01*
X170500500Y-101990675D01*
X170500500Y-103376000D01*
X170480815Y-103443039D01*
X170428011Y-103488794D01*
X170376500Y-103500000D01*
X168524000Y-103500000D01*
X168456961Y-103480315D01*
X168411206Y-103427511D01*
X168400000Y-103376000D01*
X168400000Y-101724000D01*
X168419685Y-101656961D01*
X168472489Y-101611206D01*
X168524000Y-101600000D01*
X170109825Y-101600000D01*
X170176864Y-101619685D01*
G37*
%TD.AperFunction*%
%TD*%
%TA.AperFunction,Conductor*%
%TO.N,GND*%
G36*
X170943039Y-131519685D02*
G01*
X170988794Y-131572489D01*
X171000000Y-131624000D01*
X171000000Y-137376000D01*
X170980315Y-137443039D01*
X170927511Y-137488794D01*
X170876000Y-137500000D01*
X165124000Y-137500000D01*
X165056961Y-137480315D01*
X165011206Y-137427511D01*
X165000000Y-137376000D01*
X165000000Y-131624000D01*
X165019685Y-131556961D01*
X165072489Y-131511206D01*
X165124000Y-131500000D01*
X170876000Y-131500000D01*
X170943039Y-131519685D01*
G37*
%TD.AperFunction*%
%TD*%
%TA.AperFunction,Conductor*%
%TO.N,VBUS*%
G36*
X145578177Y-122519685D02*
G01*
X145598819Y-122536319D01*
X146463681Y-123401181D01*
X146497166Y-123462504D01*
X146500000Y-123488862D01*
X146500000Y-130500000D01*
X141500000Y-130500000D01*
X141500000Y-123801362D01*
X141519685Y-123734323D01*
X141536319Y-123713681D01*
X142713681Y-122536319D01*
X142775004Y-122502834D01*
X142801362Y-122500000D01*
X145511138Y-122500000D01*
X145578177Y-122519685D01*
G37*
%TD.AperFunction*%
%TD*%
%TA.AperFunction,Conductor*%
%TO.N,GND*%
G36*
X128643039Y-109519685D02*
G01*
X128688794Y-109572489D01*
X128700000Y-109624000D01*
X128700000Y-113576000D01*
X128680315Y-113643039D01*
X128627511Y-113688794D01*
X128576000Y-113700000D01*
X124224000Y-113700000D01*
X124156961Y-113680315D01*
X124111206Y-113627511D01*
X124100000Y-113576000D01*
X124100000Y-109624000D01*
X124119685Y-109556961D01*
X124172489Y-109511206D01*
X124224000Y-109500000D01*
X128576000Y-109500000D01*
X128643039Y-109519685D01*
G37*
%TD.AperFunction*%
%TD*%
%TA.AperFunction,Conductor*%
%TO.N,GND*%
G36*
X126485648Y-93964352D02*
G01*
X126500000Y-93999000D01*
X126500000Y-96951000D01*
X126485648Y-96985648D01*
X126451000Y-97000000D01*
X124049000Y-97000000D01*
X124014352Y-96985648D01*
X124000000Y-96951000D01*
X124000000Y-94325370D01*
X124350000Y-94325370D01*
X124350000Y-95674629D01*
X124364503Y-95747542D01*
X124419759Y-95830240D01*
X124502457Y-95885496D01*
X124575370Y-95899999D01*
X124575376Y-95900000D01*
X125274624Y-95900000D01*
X125274629Y-95899999D01*
X125347542Y-95885496D01*
X125430240Y-95830240D01*
X125485496Y-95747542D01*
X125499999Y-95674629D01*
X125500000Y-95674624D01*
X125500000Y-94325376D01*
X125499999Y-94325370D01*
X125485496Y-94252457D01*
X125430240Y-94169759D01*
X125347542Y-94114503D01*
X125274629Y-94100000D01*
X124575370Y-94100000D01*
X124502457Y-94114503D01*
X124419759Y-94169759D01*
X124364503Y-94252457D01*
X124350000Y-94325370D01*
X124000000Y-94325370D01*
X124000000Y-93999000D01*
X124014352Y-93964352D01*
X124049000Y-93950000D01*
X126451000Y-93950000D01*
X126485648Y-93964352D01*
G37*
%TD.AperFunction*%
%TD*%
%TA.AperFunction,Conductor*%
%TO.N,GND*%
G36*
X131143039Y-97719685D02*
G01*
X131188794Y-97772489D01*
X131200000Y-97824000D01*
X131200000Y-99576000D01*
X131180315Y-99643039D01*
X131127511Y-99688794D01*
X131076000Y-99700000D01*
X124224000Y-99700000D01*
X124156961Y-99680315D01*
X124111206Y-99627511D01*
X124100000Y-99576000D01*
X124100000Y-97824000D01*
X124119685Y-97756961D01*
X124172489Y-97711206D01*
X124224000Y-97700000D01*
X131076000Y-97700000D01*
X131143039Y-97719685D01*
G37*
%TD.AperFunction*%
%TD*%
%TA.AperFunction,Conductor*%
%TO.N,VBUS*%
G36*
X170543039Y-104019685D02*
G01*
X170588794Y-104072489D01*
X170600000Y-104124000D01*
X170600000Y-105776000D01*
X170580315Y-105843039D01*
X170527511Y-105888794D01*
X170476000Y-105900000D01*
X168524000Y-105900000D01*
X168456961Y-105880315D01*
X168411206Y-105827511D01*
X168400000Y-105776000D01*
X168400000Y-104124000D01*
X168419685Y-104056961D01*
X168472489Y-104011206D01*
X168524000Y-104000000D01*
X170476000Y-104000000D01*
X170543039Y-104019685D01*
G37*
%TD.AperFunction*%
%TD*%
%TA.AperFunction,Conductor*%
%TO.N,GND*%
G36*
X133042539Y-103319685D02*
G01*
X133088294Y-103372489D01*
X133099500Y-103424000D01*
X133099500Y-104776000D01*
X133079815Y-104843039D01*
X133027011Y-104888794D01*
X132975500Y-104900000D01*
X131700000Y-104900000D01*
X131700000Y-105800000D01*
X131900000Y-106000000D01*
X132948638Y-106000000D01*
X132978078Y-106008644D01*
X133008065Y-106015168D01*
X133013080Y-106018922D01*
X133015677Y-106019685D01*
X133036319Y-106036319D01*
X133063181Y-106063181D01*
X133096666Y-106124504D01*
X133099500Y-106150862D01*
X133099500Y-106947273D01*
X133099500Y-107052727D01*
X133126793Y-107154588D01*
X133126794Y-107154591D01*
X133126795Y-107154593D01*
X133183386Y-107252609D01*
X133200000Y-107314610D01*
X133200000Y-108076000D01*
X133180315Y-108143039D01*
X133127511Y-108188794D01*
X133076000Y-108200000D01*
X130224000Y-108200000D01*
X130156961Y-108180315D01*
X130111206Y-108127511D01*
X130100000Y-108076000D01*
X130100000Y-107667758D01*
X130100500Y-107665892D01*
X130100500Y-107534108D01*
X130100000Y-107532241D01*
X130100000Y-107077816D01*
X130100500Y-107070186D01*
X130100500Y-106929815D01*
X130100000Y-106922185D01*
X130100000Y-106399999D01*
X129920826Y-106131238D01*
X129900018Y-106064538D01*
X129900000Y-106062455D01*
X129900000Y-103424000D01*
X129919685Y-103356961D01*
X129972489Y-103311206D01*
X130024000Y-103300000D01*
X132975500Y-103300000D01*
X133042539Y-103319685D01*
G37*
%TD.AperFunction*%
%TD*%
%TA.AperFunction,Conductor*%
%TO.N,VDD*%
G36*
X131785648Y-82514352D02*
G01*
X131800000Y-82549000D01*
X131800000Y-84851000D01*
X131785648Y-84885648D01*
X131751000Y-84900000D01*
X127780623Y-84900000D01*
X127745975Y-84885648D01*
X127714352Y-84854025D01*
X127700000Y-84819377D01*
X127700000Y-84749303D01*
X127946600Y-84749303D01*
X131553400Y-84749303D01*
X131553400Y-83250703D01*
X127946600Y-83250703D01*
X127946600Y-84749303D01*
X127700000Y-84749303D01*
X127700000Y-84550000D01*
X127430133Y-84550000D01*
X127402870Y-84540746D01*
X127402643Y-84541141D01*
X127400660Y-84539996D01*
X127400306Y-84539876D01*
X127399865Y-84539538D01*
X127399862Y-84539535D01*
X127362750Y-84518108D01*
X127325640Y-84496682D01*
X127325637Y-84496681D01*
X127242856Y-84474500D01*
X127242853Y-84474500D01*
X125057147Y-84474500D01*
X125057146Y-84474500D01*
X125055389Y-84474731D01*
X125054527Y-84474500D01*
X125053935Y-84474500D01*
X125053935Y-84474341D01*
X125019165Y-84465019D01*
X125000418Y-84432538D01*
X125000000Y-84426149D01*
X125000000Y-83575370D01*
X125475000Y-83575370D01*
X125475000Y-84124629D01*
X125489503Y-84197542D01*
X125544759Y-84280240D01*
X125627457Y-84335496D01*
X125700370Y-84349999D01*
X125700376Y-84350000D01*
X126699624Y-84350000D01*
X126699629Y-84349999D01*
X126772542Y-84335496D01*
X126855240Y-84280240D01*
X126910496Y-84197542D01*
X126924999Y-84124629D01*
X126925000Y-84124624D01*
X126925000Y-83575376D01*
X126924999Y-83575370D01*
X126910496Y-83502457D01*
X126855240Y-83419759D01*
X126772542Y-83364503D01*
X126699629Y-83350000D01*
X125700370Y-83350000D01*
X125627457Y-83364503D01*
X125544759Y-83419759D01*
X125489503Y-83502457D01*
X125475000Y-83575370D01*
X125000000Y-83575370D01*
X125000000Y-82549000D01*
X125014352Y-82514352D01*
X125049000Y-82500000D01*
X131751000Y-82500000D01*
X131785648Y-82514352D01*
G37*
%TD.AperFunction*%
%TD*%
%TA.AperFunction,Conductor*%
%TO.N,VBUS*%
G36*
X129235648Y-93964352D02*
G01*
X129250000Y-93999000D01*
X129250000Y-96951000D01*
X129235648Y-96985648D01*
X129201000Y-97000000D01*
X126799000Y-97000000D01*
X126764352Y-96985648D01*
X126750000Y-96951000D01*
X126750000Y-94325370D01*
X127300000Y-94325370D01*
X127300000Y-95674629D01*
X127314503Y-95747542D01*
X127369759Y-95830240D01*
X127452457Y-95885496D01*
X127525370Y-95899999D01*
X127525376Y-95900000D01*
X128224624Y-95900000D01*
X128224629Y-95899999D01*
X128297542Y-95885496D01*
X128380240Y-95830240D01*
X128435496Y-95747542D01*
X128449999Y-95674629D01*
X128450000Y-95674624D01*
X128450000Y-94325376D01*
X128449999Y-94325370D01*
X128435496Y-94252457D01*
X128380240Y-94169759D01*
X128297542Y-94114503D01*
X128224629Y-94100000D01*
X127525370Y-94100000D01*
X127452457Y-94114503D01*
X127369759Y-94169759D01*
X127314503Y-94252457D01*
X127300000Y-94325370D01*
X126750000Y-94325370D01*
X126750000Y-93999000D01*
X126764352Y-93964352D01*
X126799000Y-93950000D01*
X129201000Y-93950000D01*
X129235648Y-93964352D01*
G37*
%TD.AperFunction*%
%TD*%
%TA.AperFunction,Conductor*%
%TO.N,VBUS*%
G36*
X129293039Y-114269685D02*
G01*
X129338794Y-114322489D01*
X129350000Y-114374000D01*
X129350000Y-116126000D01*
X129330315Y-116193039D01*
X129277511Y-116238794D01*
X129226000Y-116250000D01*
X124374000Y-116250000D01*
X124306961Y-116230315D01*
X124261206Y-116177511D01*
X124250000Y-116126000D01*
X124250000Y-114374000D01*
X124269685Y-114306961D01*
X124322489Y-114261206D01*
X124374000Y-114250000D01*
X129226000Y-114250000D01*
X129293039Y-114269685D01*
G37*
%TD.AperFunction*%
%TD*%
%TA.AperFunction,Conductor*%
%TO.N,VBUS*%
G36*
X128365677Y-104869685D02*
G01*
X128386319Y-104886319D01*
X129750379Y-106250379D01*
X129765872Y-106269277D01*
X129873674Y-106430980D01*
X129894482Y-106497679D01*
X129894500Y-106499763D01*
X129894500Y-106922185D01*
X129894934Y-106935457D01*
X129895000Y-106939481D01*
X129895000Y-107060523D01*
X129894934Y-107064539D01*
X129894500Y-107077816D01*
X129894500Y-107077831D01*
X129894500Y-107532243D01*
X129894734Y-107535812D01*
X129895000Y-107543925D01*
X129895000Y-107656073D01*
X129894734Y-107664185D01*
X129894500Y-107667754D01*
X129894500Y-108076007D01*
X129899197Y-108119686D01*
X129910397Y-108171174D01*
X129912890Y-108181372D01*
X129912891Y-108181375D01*
X129955899Y-108262083D01*
X129955901Y-108262086D01*
X130001660Y-108314895D01*
X130011966Y-108325413D01*
X130019246Y-108332843D01*
X130019247Y-108332844D01*
X130019249Y-108332845D01*
X130099059Y-108377488D01*
X130099063Y-108377490D01*
X130166102Y-108397175D01*
X130224000Y-108405500D01*
X130224004Y-108405500D01*
X130354138Y-108405500D01*
X130421177Y-108425185D01*
X130441819Y-108441819D01*
X130500000Y-108500000D01*
X134354000Y-108500000D01*
X134421039Y-108519685D01*
X134466794Y-108572489D01*
X134478000Y-108624000D01*
X134478000Y-113376000D01*
X134458315Y-113443039D01*
X134405511Y-113488794D01*
X134354000Y-113500000D01*
X130124000Y-113500000D01*
X130056961Y-113480315D01*
X130011206Y-113427511D01*
X130000000Y-113376000D01*
X130000000Y-110500000D01*
X128550000Y-109050000D01*
X124124000Y-109050000D01*
X124056961Y-109030315D01*
X124011206Y-108977511D01*
X124000000Y-108926000D01*
X124000000Y-104974000D01*
X124019685Y-104906961D01*
X124072489Y-104861206D01*
X124124000Y-104850000D01*
X128298638Y-104850000D01*
X128365677Y-104869685D01*
G37*
%TD.AperFunction*%
%TD*%
%TA.AperFunction,Conductor*%
%TO.N,GND*%
G36*
X170543039Y-111619685D02*
G01*
X170588794Y-111672489D01*
X170600000Y-111724000D01*
X170600000Y-113376000D01*
X170580315Y-113443039D01*
X170527511Y-113488794D01*
X170476000Y-113500000D01*
X168524000Y-113500000D01*
X168456961Y-113480315D01*
X168411206Y-113427511D01*
X168400000Y-113376000D01*
X168400000Y-111724000D01*
X168419685Y-111656961D01*
X168472489Y-111611206D01*
X168524000Y-111600000D01*
X170476000Y-111600000D01*
X170543039Y-111619685D01*
G37*
%TD.AperFunction*%
%TD*%
%TA.AperFunction,Conductor*%
%TO.N,GND*%
G36*
X127079525Y-85139852D02*
G01*
X127485648Y-85545975D01*
X127500000Y-85580622D01*
X127500000Y-88251000D01*
X127485648Y-88285648D01*
X127451000Y-88300000D01*
X125624500Y-88300000D01*
X125589852Y-88285648D01*
X125575500Y-88251000D01*
X125575500Y-87971809D01*
X125575501Y-87971796D01*
X125575501Y-87882146D01*
X125553318Y-87799363D01*
X125553317Y-87799359D01*
X125510464Y-87725137D01*
X125448156Y-87662829D01*
X125448145Y-87662819D01*
X125214352Y-87429025D01*
X125200000Y-87394377D01*
X125200000Y-85475370D01*
X125475000Y-85475370D01*
X125475000Y-86024629D01*
X125489503Y-86097542D01*
X125544759Y-86180240D01*
X125627457Y-86235496D01*
X125700370Y-86249999D01*
X125700376Y-86250000D01*
X126699624Y-86250000D01*
X126699629Y-86249999D01*
X126772542Y-86235496D01*
X126855240Y-86180240D01*
X126910496Y-86097542D01*
X126924999Y-86024629D01*
X126925000Y-86024624D01*
X126925000Y-85475376D01*
X126924999Y-85475370D01*
X126910496Y-85402457D01*
X126855240Y-85319759D01*
X126772542Y-85264503D01*
X126699629Y-85250000D01*
X125700370Y-85250000D01*
X125627457Y-85264503D01*
X125544759Y-85319759D01*
X125489503Y-85402457D01*
X125475000Y-85475370D01*
X125200000Y-85475370D01*
X125200000Y-85180623D01*
X125214352Y-85145975D01*
X125220475Y-85139852D01*
X125255123Y-85125500D01*
X127044877Y-85125500D01*
X127079525Y-85139852D01*
G37*
%TD.AperFunction*%
%TD*%
%TA.AperFunction,Conductor*%
%TO.N,VBUS*%
G36*
X170443039Y-113919685D02*
G01*
X170488794Y-113972489D01*
X170500000Y-114024000D01*
X170500000Y-115676000D01*
X170480315Y-115743039D01*
X170427511Y-115788794D01*
X170376000Y-115800000D01*
X168424000Y-115800000D01*
X168356961Y-115780315D01*
X168311206Y-115727511D01*
X168300000Y-115676000D01*
X168300000Y-114024000D01*
X168319685Y-113956961D01*
X168372489Y-113911206D01*
X168424000Y-113900000D01*
X170376000Y-113900000D01*
X170443039Y-113919685D01*
G37*
%TD.AperFunction*%
%TD*%
%TA.AperFunction,Conductor*%
%TO.N,/FET_Half_Bridge_B/PHASE*%
G36*
X147014352Y-114264352D02*
G01*
X147485648Y-114735648D01*
X147500000Y-114770296D01*
X147500000Y-116000000D01*
X148000000Y-116500000D01*
X148999999Y-116500000D01*
X149000000Y-116500000D01*
X149500000Y-116000000D01*
X149500000Y-114299000D01*
X149514352Y-114264352D01*
X149549000Y-114250000D01*
X152701000Y-114250000D01*
X152735648Y-114264352D01*
X152750000Y-114299000D01*
X152750000Y-118729704D01*
X152735648Y-118764352D01*
X150864352Y-120635648D01*
X150829704Y-120650000D01*
X144920296Y-120650000D01*
X144885648Y-120635648D01*
X143014352Y-118764352D01*
X143000000Y-118729704D01*
X143000000Y-114770296D01*
X143014352Y-114735648D01*
X143485648Y-114264352D01*
X143520296Y-114250000D01*
X146979704Y-114250000D01*
X147014352Y-114264352D01*
G37*
%TD.AperFunction*%
%TD*%
%TA.AperFunction,Conductor*%
%TO.N,GND*%
G36*
X132985648Y-90764352D02*
G01*
X133000000Y-90799000D01*
X133000000Y-91083089D01*
X132999582Y-91089478D01*
X132999500Y-91090100D01*
X132999500Y-91509896D01*
X132999501Y-91509903D01*
X132999581Y-91510508D01*
X133000000Y-91516901D01*
X133000000Y-91701000D01*
X132985648Y-91735648D01*
X132951000Y-91750000D01*
X132500000Y-91750000D01*
X132500000Y-93451000D01*
X132485648Y-93485648D01*
X132451000Y-93500000D01*
X131049000Y-93500000D01*
X131014352Y-93485648D01*
X131000000Y-93451000D01*
X131000000Y-92227834D01*
X131275000Y-92227834D01*
X131275000Y-92772165D01*
X131288053Y-92837788D01*
X131337783Y-92912216D01*
X131412211Y-92961946D01*
X131477834Y-92974999D01*
X131477840Y-92975000D01*
X131972160Y-92975000D01*
X131972165Y-92974999D01*
X132037788Y-92961946D01*
X132112216Y-92912216D01*
X132161946Y-92837788D01*
X132174999Y-92772165D01*
X132175000Y-92772160D01*
X132175000Y-92227840D01*
X132174999Y-92227834D01*
X132161946Y-92162211D01*
X132112216Y-92087783D01*
X132037788Y-92038053D01*
X131972165Y-92025000D01*
X131477834Y-92025000D01*
X131412211Y-92038053D01*
X131337783Y-92087783D01*
X131288053Y-92162211D01*
X131275000Y-92227834D01*
X131000000Y-92227834D01*
X131000000Y-91799000D01*
X131014352Y-91764352D01*
X131049000Y-91750000D01*
X131500000Y-91750000D01*
X131500000Y-91116207D01*
X132240000Y-91116207D01*
X132240000Y-91483786D01*
X132248123Y-91524627D01*
X132279064Y-91570934D01*
X132325374Y-91601877D01*
X132366209Y-91609999D01*
X132673786Y-91609999D01*
X132714627Y-91601876D01*
X132760934Y-91570935D01*
X132791877Y-91524625D01*
X132799999Y-91483792D01*
X132799999Y-91116213D01*
X132791876Y-91075372D01*
X132760935Y-91029065D01*
X132714625Y-90998122D01*
X132673790Y-90990000D01*
X132366213Y-90990000D01*
X132325372Y-90998123D01*
X132279065Y-91029064D01*
X132248122Y-91075374D01*
X132240000Y-91116207D01*
X131500000Y-91116207D01*
X131500000Y-90799000D01*
X131514352Y-90764352D01*
X131549000Y-90750000D01*
X132951000Y-90750000D01*
X132985648Y-90764352D01*
G37*
%TD.AperFunction*%
%TD*%
%TA.AperFunction,Conductor*%
%TO.N,VBUS*%
G36*
X134835648Y-95564352D02*
G01*
X134850000Y-95599000D01*
X134850000Y-96653656D01*
X134839872Y-96683489D01*
X134836806Y-96687484D01*
X134834487Y-96690284D01*
X134829426Y-96695952D01*
X134788747Y-96764926D01*
X134788747Y-96764928D01*
X134788150Y-96766632D01*
X134783596Y-96781391D01*
X134775555Y-96811399D01*
X134772767Y-96819138D01*
X134760268Y-96846398D01*
X134758748Y-96850747D01*
X134750141Y-96884154D01*
X134747399Y-96900308D01*
X134744500Y-96934712D01*
X134744500Y-97051000D01*
X134730148Y-97085648D01*
X134695500Y-97100000D01*
X133399000Y-97100000D01*
X133364352Y-97085648D01*
X133350000Y-97051000D01*
X133350000Y-95599000D01*
X133364352Y-95564352D01*
X133399000Y-95550000D01*
X134801000Y-95550000D01*
X134835648Y-95564352D01*
G37*
%TD.AperFunction*%
%TD*%
%TA.AperFunction,Conductor*%
%TO.N,/FET_Half_Bridge_A/SHUNT_P*%
G36*
X137536420Y-103818013D02*
G01*
X137546191Y-103830746D01*
X137601462Y-103926478D01*
X137680684Y-104005700D01*
X137777710Y-104061718D01*
X137777714Y-104061719D01*
X137885927Y-104090715D01*
X137938500Y-104090715D01*
X137981987Y-104108728D01*
X138000000Y-104152215D01*
X138000000Y-106300000D01*
X138172778Y-106300000D01*
X138216265Y-106318013D01*
X138216266Y-106318014D01*
X138246779Y-106348528D01*
X138307605Y-106379520D01*
X138366874Y-106409719D01*
X138466512Y-106425500D01*
X138764988Y-106425500D01*
X138808475Y-106443513D01*
X138824392Y-106471082D01*
X138853999Y-106581577D01*
X138854000Y-106581579D01*
X138854001Y-106581582D01*
X138910019Y-106678608D01*
X138989241Y-106757830D01*
X139086267Y-106813848D01*
X139086271Y-106813849D01*
X139194484Y-106842845D01*
X139194486Y-106842845D01*
X139306523Y-106842845D01*
X139354237Y-106830059D01*
X139414741Y-106813848D01*
X139414747Y-106813844D01*
X139414957Y-106813758D01*
X139415077Y-106813757D01*
X139418634Y-106812805D01*
X139418889Y-106813757D01*
X139462027Y-106813751D01*
X139495315Y-106847030D01*
X139500000Y-106870573D01*
X139500000Y-107000000D01*
X140981987Y-108481987D01*
X141000000Y-108525474D01*
X141000000Y-109438500D01*
X140981987Y-109481987D01*
X140938500Y-109500000D01*
X137361500Y-109500000D01*
X137318013Y-109481987D01*
X137300000Y-109438500D01*
X137300000Y-107500000D01*
X136491866Y-107500000D01*
X136448379Y-107481987D01*
X136318013Y-107351620D01*
X136300000Y-107308133D01*
X136300000Y-103861500D01*
X136318013Y-103818013D01*
X136361500Y-103800000D01*
X137492933Y-103800000D01*
X137536420Y-103818013D01*
G37*
%TD.AperFunction*%
%TD*%
%TA.AperFunction,Conductor*%
%TO.N,VBUS*%
G36*
X170543039Y-109019685D02*
G01*
X170588794Y-109072489D01*
X170600000Y-109124000D01*
X170600000Y-110776000D01*
X170580315Y-110843039D01*
X170527511Y-110888794D01*
X170476000Y-110900000D01*
X168524000Y-110900000D01*
X168456961Y-110880315D01*
X168411206Y-110827511D01*
X168400000Y-110776000D01*
X168400000Y-109124000D01*
X168419685Y-109056961D01*
X168472489Y-109011206D01*
X168524000Y-109000000D01*
X170476000Y-109000000D01*
X170543039Y-109019685D01*
G37*
%TD.AperFunction*%
%TD*%
%TA.AperFunction,Conductor*%
%TO.N,GND*%
G36*
X135260648Y-96814352D02*
G01*
X135275000Y-96849000D01*
X135275000Y-97022165D01*
X135288053Y-97087788D01*
X135337783Y-97162216D01*
X135412211Y-97211946D01*
X135477834Y-97224999D01*
X135477840Y-97225000D01*
X136022160Y-97225000D01*
X136022165Y-97224999D01*
X136087788Y-97211946D01*
X136162216Y-97162216D01*
X136211946Y-97087788D01*
X136224999Y-97022165D01*
X136225000Y-97022160D01*
X136225000Y-96849000D01*
X136239352Y-96814352D01*
X136274000Y-96800000D01*
X136501000Y-96800000D01*
X136535648Y-96814352D01*
X136550000Y-96849000D01*
X136550000Y-98301000D01*
X136535648Y-98335648D01*
X136501000Y-98350000D01*
X133649000Y-98350000D01*
X133614352Y-98335648D01*
X133600000Y-98301000D01*
X133600000Y-97549000D01*
X133614352Y-97514352D01*
X133649000Y-97500000D01*
X134950000Y-97500000D01*
X134950000Y-96934707D01*
X134952745Y-96918538D01*
X134954264Y-96914191D01*
X134966392Y-96893186D01*
X134982100Y-96834559D01*
X134982705Y-96832831D01*
X134994072Y-96820102D01*
X135004460Y-96806565D01*
X135006697Y-96805965D01*
X135007686Y-96804859D01*
X135011665Y-96804634D01*
X135028960Y-96800000D01*
X135226000Y-96800000D01*
X135260648Y-96814352D01*
G37*
%TD.AperFunction*%
%TD*%
%TA.AperFunction,Conductor*%
%TO.N,GND*%
G36*
X160968013Y-103218013D02*
G01*
X161731987Y-103981987D01*
X161750000Y-104025474D01*
X161750000Y-106974526D01*
X161731987Y-107018013D01*
X161518013Y-107231987D01*
X161474526Y-107250000D01*
X160025474Y-107250000D01*
X159981987Y-107231987D01*
X159768013Y-107018013D01*
X159750000Y-106974526D01*
X159750000Y-106450000D01*
X159400000Y-106100000D01*
X159398002Y-106100000D01*
X159363833Y-106089634D01*
X159346661Y-106078159D01*
X159346653Y-106078155D01*
X159303174Y-106060145D01*
X159303161Y-106060141D01*
X159224529Y-106044500D01*
X159224526Y-106044500D01*
X159038057Y-106044500D01*
X159038053Y-106044500D01*
X158984869Y-106051502D01*
X158984859Y-106051504D01*
X158954125Y-106059740D01*
X158954112Y-106059744D01*
X158927927Y-106070585D01*
X158920321Y-106073166D01*
X158868762Y-106086981D01*
X158846658Y-106092904D01*
X158830742Y-106095000D01*
X158769259Y-106095000D01*
X158753341Y-106092904D01*
X158679647Y-106073157D01*
X158672033Y-106070573D01*
X158645879Y-106059741D01*
X158615129Y-106051502D01*
X158615130Y-106051502D01*
X158561946Y-106044500D01*
X158561943Y-106044500D01*
X158038057Y-106044500D01*
X158038053Y-106044500D01*
X157984869Y-106051502D01*
X157984859Y-106051504D01*
X157954125Y-106059740D01*
X157954112Y-106059744D01*
X157927927Y-106070585D01*
X157920321Y-106073166D01*
X157868762Y-106086981D01*
X157846658Y-106092904D01*
X157830742Y-106095000D01*
X157769259Y-106095000D01*
X157753341Y-106092904D01*
X157679647Y-106073157D01*
X157672033Y-106070573D01*
X157645879Y-106059741D01*
X157615129Y-106051502D01*
X157615130Y-106051502D01*
X157561946Y-106044500D01*
X157561943Y-106044500D01*
X157038057Y-106044500D01*
X157038053Y-106044500D01*
X156984869Y-106051502D01*
X156984859Y-106051504D01*
X156954125Y-106059740D01*
X156954112Y-106059744D01*
X156927927Y-106070585D01*
X156920321Y-106073166D01*
X156868762Y-106086981D01*
X156846658Y-106092904D01*
X156830742Y-106095000D01*
X156769259Y-106095000D01*
X156753341Y-106092904D01*
X156679647Y-106073157D01*
X156672033Y-106070573D01*
X156645879Y-106059741D01*
X156615129Y-106051502D01*
X156615130Y-106051502D01*
X156561946Y-106044500D01*
X156561943Y-106044500D01*
X156038057Y-106044500D01*
X156038053Y-106044500D01*
X155984869Y-106051502D01*
X155984859Y-106051504D01*
X155954125Y-106059740D01*
X155954112Y-106059744D01*
X155927927Y-106070585D01*
X155920321Y-106073166D01*
X155868762Y-106086981D01*
X155846658Y-106092904D01*
X155830742Y-106095000D01*
X155769259Y-106095000D01*
X155753341Y-106092904D01*
X155679647Y-106073157D01*
X155672033Y-106070573D01*
X155645879Y-106059741D01*
X155615129Y-106051502D01*
X155615130Y-106051502D01*
X155561946Y-106044500D01*
X155561943Y-106044500D01*
X155319974Y-106044500D01*
X155276487Y-106026487D01*
X155018013Y-105768013D01*
X155000000Y-105724526D01*
X155000000Y-103462974D01*
X155018013Y-103419487D01*
X155219487Y-103218013D01*
X155262974Y-103200000D01*
X160924526Y-103200000D01*
X160968013Y-103218013D01*
G37*
%TD.AperFunction*%
%TD*%
%TA.AperFunction,Conductor*%
%TO.N,VBUS*%
G36*
X131143039Y-100019685D02*
G01*
X131188794Y-100072489D01*
X131200000Y-100124000D01*
X131200000Y-101848638D01*
X131191355Y-101878078D01*
X131184832Y-101908065D01*
X131181077Y-101913080D01*
X131180315Y-101915677D01*
X131163681Y-101936319D01*
X131136319Y-101963681D01*
X131074996Y-101997166D01*
X131048638Y-102000000D01*
X124124000Y-102000000D01*
X124056961Y-101980315D01*
X124011206Y-101927511D01*
X124000000Y-101876000D01*
X124000000Y-100124000D01*
X124019685Y-100056961D01*
X124072489Y-100011206D01*
X124124000Y-100000000D01*
X131076000Y-100000000D01*
X131143039Y-100019685D01*
G37*
%TD.AperFunction*%
%TD*%
%TA.AperFunction,Conductor*%
%TO.N,/FET_Half_Bridge_A/PHASE*%
G36*
X140958148Y-114050352D02*
G01*
X140972500Y-114085000D01*
X140972500Y-119257204D01*
X140958148Y-119291852D01*
X139514352Y-120735648D01*
X139479704Y-120750000D01*
X133270296Y-120750000D01*
X133235648Y-120735648D01*
X130014352Y-117514352D01*
X130000000Y-117479704D01*
X130000000Y-114299000D01*
X130014352Y-114264352D01*
X130049000Y-114250000D01*
X133201000Y-114250000D01*
X133235648Y-114264352D01*
X133250000Y-114299000D01*
X133250000Y-116000000D01*
X133750000Y-116500000D01*
X135749999Y-116500000D01*
X135750000Y-116500000D01*
X136527500Y-115722500D01*
X136527500Y-114085000D01*
X136541852Y-114050352D01*
X136576500Y-114036000D01*
X140923500Y-114036000D01*
X140958148Y-114050352D01*
G37*
%TD.AperFunction*%
%TD*%
%TA.AperFunction,Conductor*%
%TO.N,GND*%
G36*
X153643013Y-103218013D02*
G01*
X153981987Y-103556987D01*
X154000000Y-103600474D01*
X154000000Y-105938500D01*
X153981987Y-105981987D01*
X153938500Y-106000000D01*
X149350000Y-106000000D01*
X149350000Y-107188500D01*
X149331987Y-107231987D01*
X149288500Y-107250000D01*
X147861500Y-107250000D01*
X147818013Y-107231987D01*
X147800000Y-107188500D01*
X147800000Y-105200000D01*
X147799999Y-105199999D01*
X146514198Y-105203777D01*
X146470658Y-105185892D01*
X146452517Y-105142458D01*
X146452517Y-105142357D01*
X146450080Y-103261580D01*
X146468037Y-103218069D01*
X146511500Y-103200000D01*
X153599526Y-103200000D01*
X153643013Y-103218013D01*
G37*
%TD.AperFunction*%
%TD*%
M02*
