%TF.GenerationSoftware,KiCad,Pcbnew,9.0.2+dfsg-1*%
%TF.CreationDate,2026-04-29T17:38:34-04:00*%
%TF.ProjectId,spinor-r2a,7370696e-6f72-42d7-9232-612e6b696361,rev?*%
%TF.SameCoordinates,Original*%
%TF.FileFunction,Legend,Top*%
%TF.FilePolarity,Positive*%
%FSLAX46Y46*%
G04 Gerber Fmt 4.6, Leading zero omitted, Abs format (unit mm)*
G04 Created by KiCad (PCBNEW 9.0.2+dfsg-1) date 2026-04-29 17:38:34*
%MOMM*%
%LPD*%
G01*
G04 APERTURE LIST*
%ADD10C,0.150000*%
%ADD11C,0.120000*%
%ADD12C,0.152400*%
%ADD13C,0.000000*%
%ADD14C,0.127000*%
%ADD15C,0.200000*%
G04 APERTURE END LIST*
D10*
X172669819Y-117263220D02*
X171669819Y-117263220D01*
X172146009Y-117263220D02*
X172146009Y-116691792D01*
X172669819Y-116691792D02*
X171669819Y-116691792D01*
X172146009Y-116215601D02*
X172146009Y-115882268D01*
X172669819Y-115739411D02*
X172669819Y-116215601D01*
X172669819Y-116215601D02*
X171669819Y-116215601D01*
X171669819Y-116215601D02*
X171669819Y-115739411D01*
X172669819Y-115310839D02*
X171669819Y-115310839D01*
X171669819Y-115310839D02*
X172669819Y-114739411D01*
X172669819Y-114739411D02*
X171669819Y-114739411D01*
X172669819Y-113691792D02*
X172193628Y-114025125D01*
X172669819Y-114263220D02*
X171669819Y-114263220D01*
X171669819Y-114263220D02*
X171669819Y-113882268D01*
X171669819Y-113882268D02*
X171717438Y-113787030D01*
X171717438Y-113787030D02*
X171765057Y-113739411D01*
X171765057Y-113739411D02*
X171860295Y-113691792D01*
X171860295Y-113691792D02*
X172003152Y-113691792D01*
X172003152Y-113691792D02*
X172098390Y-113739411D01*
X172098390Y-113739411D02*
X172146009Y-113787030D01*
X172146009Y-113787030D02*
X172193628Y-113882268D01*
X172193628Y-113882268D02*
X172193628Y-114263220D01*
X172193628Y-113072744D02*
X172669819Y-113072744D01*
X171669819Y-113406077D02*
X172193628Y-113072744D01*
X172193628Y-113072744D02*
X171669819Y-112739411D01*
X172669819Y-111644172D02*
X171669819Y-111644172D01*
X171669819Y-111644172D02*
X172669819Y-111072744D01*
X172669819Y-111072744D02*
X171669819Y-111072744D01*
X172146009Y-110596553D02*
X172146009Y-110263220D01*
X172669819Y-110120363D02*
X172669819Y-110596553D01*
X172669819Y-110596553D02*
X171669819Y-110596553D01*
X171669819Y-110596553D02*
X171669819Y-110120363D01*
X172622200Y-109739410D02*
X172669819Y-109596553D01*
X172669819Y-109596553D02*
X172669819Y-109358458D01*
X172669819Y-109358458D02*
X172622200Y-109263220D01*
X172622200Y-109263220D02*
X172574580Y-109215601D01*
X172574580Y-109215601D02*
X172479342Y-109167982D01*
X172479342Y-109167982D02*
X172384104Y-109167982D01*
X172384104Y-109167982D02*
X172288866Y-109215601D01*
X172288866Y-109215601D02*
X172241247Y-109263220D01*
X172241247Y-109263220D02*
X172193628Y-109358458D01*
X172193628Y-109358458D02*
X172146009Y-109548934D01*
X172146009Y-109548934D02*
X172098390Y-109644172D01*
X172098390Y-109644172D02*
X172050771Y-109691791D01*
X172050771Y-109691791D02*
X171955533Y-109739410D01*
X171955533Y-109739410D02*
X171860295Y-109739410D01*
X171860295Y-109739410D02*
X171765057Y-109691791D01*
X171765057Y-109691791D02*
X171717438Y-109644172D01*
X171717438Y-109644172D02*
X171669819Y-109548934D01*
X171669819Y-109548934D02*
X171669819Y-109310839D01*
X171669819Y-109310839D02*
X171717438Y-109167982D01*
X171669819Y-108882267D02*
X171669819Y-108310839D01*
X172669819Y-108596553D02*
X171669819Y-108596553D01*
X172146009Y-107977505D02*
X172146009Y-107644172D01*
X172669819Y-107501315D02*
X172669819Y-107977505D01*
X172669819Y-107977505D02*
X171669819Y-107977505D01*
X171669819Y-107977505D02*
X171669819Y-107501315D01*
X172669819Y-106501315D02*
X172193628Y-106834648D01*
X172669819Y-107072743D02*
X171669819Y-107072743D01*
X171669819Y-107072743D02*
X171669819Y-106691791D01*
X171669819Y-106691791D02*
X171717438Y-106596553D01*
X171717438Y-106596553D02*
X171765057Y-106548934D01*
X171765057Y-106548934D02*
X171860295Y-106501315D01*
X171860295Y-106501315D02*
X172003152Y-106501315D01*
X172003152Y-106501315D02*
X172098390Y-106548934D01*
X172098390Y-106548934D02*
X172146009Y-106596553D01*
X172146009Y-106596553D02*
X172193628Y-106691791D01*
X172193628Y-106691791D02*
X172193628Y-107072743D01*
X172384104Y-105358457D02*
X172384104Y-104882267D01*
X172669819Y-105453695D02*
X171669819Y-105120362D01*
X171669819Y-105120362D02*
X172669819Y-104787029D01*
X172669819Y-104453695D02*
X171669819Y-104453695D01*
X171669819Y-104453695D02*
X171669819Y-104072743D01*
X171669819Y-104072743D02*
X171717438Y-103977505D01*
X171717438Y-103977505D02*
X171765057Y-103929886D01*
X171765057Y-103929886D02*
X171860295Y-103882267D01*
X171860295Y-103882267D02*
X172003152Y-103882267D01*
X172003152Y-103882267D02*
X172098390Y-103929886D01*
X172098390Y-103929886D02*
X172146009Y-103977505D01*
X172146009Y-103977505D02*
X172193628Y-104072743D01*
X172193628Y-104072743D02*
X172193628Y-104453695D01*
X172669819Y-102882267D02*
X172193628Y-103215600D01*
X172669819Y-103453695D02*
X171669819Y-103453695D01*
X171669819Y-103453695D02*
X171669819Y-103072743D01*
X171669819Y-103072743D02*
X171717438Y-102977505D01*
X171717438Y-102977505D02*
X171765057Y-102929886D01*
X171765057Y-102929886D02*
X171860295Y-102882267D01*
X171860295Y-102882267D02*
X172003152Y-102882267D01*
X172003152Y-102882267D02*
X172098390Y-102929886D01*
X172098390Y-102929886D02*
X172146009Y-102977505D01*
X172146009Y-102977505D02*
X172193628Y-103072743D01*
X172193628Y-103072743D02*
X172193628Y-103453695D01*
X171765057Y-101739409D02*
X171717438Y-101691790D01*
X171717438Y-101691790D02*
X171669819Y-101596552D01*
X171669819Y-101596552D02*
X171669819Y-101358457D01*
X171669819Y-101358457D02*
X171717438Y-101263219D01*
X171717438Y-101263219D02*
X171765057Y-101215600D01*
X171765057Y-101215600D02*
X171860295Y-101167981D01*
X171860295Y-101167981D02*
X171955533Y-101167981D01*
X171955533Y-101167981D02*
X172098390Y-101215600D01*
X172098390Y-101215600D02*
X172669819Y-101787028D01*
X172669819Y-101787028D02*
X172669819Y-101167981D01*
X171669819Y-100310838D02*
X171669819Y-100501314D01*
X171669819Y-100501314D02*
X171717438Y-100596552D01*
X171717438Y-100596552D02*
X171765057Y-100644171D01*
X171765057Y-100644171D02*
X171907914Y-100739409D01*
X171907914Y-100739409D02*
X172098390Y-100787028D01*
X172098390Y-100787028D02*
X172479342Y-100787028D01*
X172479342Y-100787028D02*
X172574580Y-100739409D01*
X172574580Y-100739409D02*
X172622200Y-100691790D01*
X172622200Y-100691790D02*
X172669819Y-100596552D01*
X172669819Y-100596552D02*
X172669819Y-100406076D01*
X172669819Y-100406076D02*
X172622200Y-100310838D01*
X172622200Y-100310838D02*
X172574580Y-100263219D01*
X172574580Y-100263219D02*
X172479342Y-100215600D01*
X172479342Y-100215600D02*
X172241247Y-100215600D01*
X172241247Y-100215600D02*
X172146009Y-100263219D01*
X172146009Y-100263219D02*
X172098390Y-100310838D01*
X172098390Y-100310838D02*
X172050771Y-100406076D01*
X172050771Y-100406076D02*
X172050771Y-100596552D01*
X172050771Y-100596552D02*
X172098390Y-100691790D01*
X172098390Y-100691790D02*
X172146009Y-100739409D01*
X172146009Y-100739409D02*
X172241247Y-100787028D01*
X163108207Y-78064636D02*
X163060588Y-78112256D01*
X163060588Y-78112256D02*
X162917731Y-78159875D01*
X162917731Y-78159875D02*
X162822493Y-78159875D01*
X162822493Y-78159875D02*
X162679636Y-78112256D01*
X162679636Y-78112256D02*
X162584398Y-78017017D01*
X162584398Y-78017017D02*
X162536779Y-77921779D01*
X162536779Y-77921779D02*
X162489160Y-77731303D01*
X162489160Y-77731303D02*
X162489160Y-77588446D01*
X162489160Y-77588446D02*
X162536779Y-77397970D01*
X162536779Y-77397970D02*
X162584398Y-77302732D01*
X162584398Y-77302732D02*
X162679636Y-77207494D01*
X162679636Y-77207494D02*
X162822493Y-77159875D01*
X162822493Y-77159875D02*
X162917731Y-77159875D01*
X162917731Y-77159875D02*
X163060588Y-77207494D01*
X163060588Y-77207494D02*
X163108207Y-77255113D01*
X163727255Y-77159875D02*
X163917731Y-77159875D01*
X163917731Y-77159875D02*
X164012969Y-77207494D01*
X164012969Y-77207494D02*
X164108207Y-77302732D01*
X164108207Y-77302732D02*
X164155826Y-77493208D01*
X164155826Y-77493208D02*
X164155826Y-77826541D01*
X164155826Y-77826541D02*
X164108207Y-78017017D01*
X164108207Y-78017017D02*
X164012969Y-78112256D01*
X164012969Y-78112256D02*
X163917731Y-78159875D01*
X163917731Y-78159875D02*
X163727255Y-78159875D01*
X163727255Y-78159875D02*
X163632017Y-78112256D01*
X163632017Y-78112256D02*
X163536779Y-78017017D01*
X163536779Y-78017017D02*
X163489160Y-77826541D01*
X163489160Y-77826541D02*
X163489160Y-77493208D01*
X163489160Y-77493208D02*
X163536779Y-77302732D01*
X163536779Y-77302732D02*
X163632017Y-77207494D01*
X163632017Y-77207494D02*
X163727255Y-77159875D01*
X164584398Y-78159875D02*
X164584398Y-77159875D01*
X165536778Y-78159875D02*
X165060588Y-78159875D01*
X165060588Y-78159875D02*
X165060588Y-77159875D01*
X162393922Y-78769819D02*
X162965350Y-78769819D01*
X162679636Y-79769819D02*
X162679636Y-78769819D01*
X163298684Y-79246009D02*
X163632017Y-79246009D01*
X163774874Y-79769819D02*
X163298684Y-79769819D01*
X163298684Y-79769819D02*
X163298684Y-78769819D01*
X163298684Y-78769819D02*
X163774874Y-78769819D01*
X164203446Y-79769819D02*
X164203446Y-78769819D01*
X164203446Y-78769819D02*
X164536779Y-79484104D01*
X164536779Y-79484104D02*
X164870112Y-78769819D01*
X164870112Y-78769819D02*
X164870112Y-79769819D01*
X165346303Y-79769819D02*
X165346303Y-78769819D01*
X165346303Y-78769819D02*
X165727255Y-78769819D01*
X165727255Y-78769819D02*
X165822493Y-78817438D01*
X165822493Y-78817438D02*
X165870112Y-78865057D01*
X165870112Y-78865057D02*
X165917731Y-78960295D01*
X165917731Y-78960295D02*
X165917731Y-79103152D01*
X165917731Y-79103152D02*
X165870112Y-79198390D01*
X165870112Y-79198390D02*
X165822493Y-79246009D01*
X165822493Y-79246009D02*
X165727255Y-79293628D01*
X165727255Y-79293628D02*
X165346303Y-79293628D01*
X151470112Y-120246009D02*
X151612969Y-120293628D01*
X151612969Y-120293628D02*
X151660588Y-120341247D01*
X151660588Y-120341247D02*
X151708207Y-120436485D01*
X151708207Y-120436485D02*
X151708207Y-120579342D01*
X151708207Y-120579342D02*
X151660588Y-120674580D01*
X151660588Y-120674580D02*
X151612969Y-120722200D01*
X151612969Y-120722200D02*
X151517731Y-120769819D01*
X151517731Y-120769819D02*
X151136779Y-120769819D01*
X151136779Y-120769819D02*
X151136779Y-119769819D01*
X151136779Y-119769819D02*
X151470112Y-119769819D01*
X151470112Y-119769819D02*
X151565350Y-119817438D01*
X151565350Y-119817438D02*
X151612969Y-119865057D01*
X151612969Y-119865057D02*
X151660588Y-119960295D01*
X151660588Y-119960295D02*
X151660588Y-120055533D01*
X151660588Y-120055533D02*
X151612969Y-120150771D01*
X151612969Y-120150771D02*
X151565350Y-120198390D01*
X151565350Y-120198390D02*
X151470112Y-120246009D01*
X151470112Y-120246009D02*
X151136779Y-120246009D01*
X152870112Y-120736065D02*
X152536779Y-120736065D01*
X152536779Y-121259875D02*
X152536779Y-120259875D01*
X152536779Y-120259875D02*
X153012969Y-120259875D01*
X153393922Y-120736065D02*
X153727255Y-120736065D01*
X153870112Y-121259875D02*
X153393922Y-121259875D01*
X153393922Y-121259875D02*
X153393922Y-120259875D01*
X153393922Y-120259875D02*
X153870112Y-120259875D01*
X154155827Y-120259875D02*
X154727255Y-120259875D01*
X154441541Y-121259875D02*
X154441541Y-120259875D01*
X152393922Y-121869819D02*
X152965350Y-121869819D01*
X152679636Y-122869819D02*
X152679636Y-121869819D01*
X153298684Y-122346009D02*
X153632017Y-122346009D01*
X153774874Y-122869819D02*
X153298684Y-122869819D01*
X153298684Y-122869819D02*
X153298684Y-121869819D01*
X153298684Y-121869819D02*
X153774874Y-121869819D01*
X154203446Y-122869819D02*
X154203446Y-121869819D01*
X154203446Y-121869819D02*
X154536779Y-122584104D01*
X154536779Y-122584104D02*
X154870112Y-121869819D01*
X154870112Y-121869819D02*
X154870112Y-122869819D01*
X155346303Y-122869819D02*
X155346303Y-121869819D01*
X155346303Y-121869819D02*
X155727255Y-121869819D01*
X155727255Y-121869819D02*
X155822493Y-121917438D01*
X155822493Y-121917438D02*
X155870112Y-121965057D01*
X155870112Y-121965057D02*
X155917731Y-122060295D01*
X155917731Y-122060295D02*
X155917731Y-122203152D01*
X155917731Y-122203152D02*
X155870112Y-122298390D01*
X155870112Y-122298390D02*
X155822493Y-122346009D01*
X155822493Y-122346009D02*
X155727255Y-122393628D01*
X155727255Y-122393628D02*
X155346303Y-122393628D01*
X146189160Y-122165057D02*
X146236779Y-122117438D01*
X146236779Y-122117438D02*
X146332017Y-122069819D01*
X146332017Y-122069819D02*
X146570112Y-122069819D01*
X146570112Y-122069819D02*
X146665350Y-122117438D01*
X146665350Y-122117438D02*
X146712969Y-122165057D01*
X146712969Y-122165057D02*
X146760588Y-122260295D01*
X146760588Y-122260295D02*
X146760588Y-122355533D01*
X146760588Y-122355533D02*
X146712969Y-122498390D01*
X146712969Y-122498390D02*
X146141541Y-123069819D01*
X146141541Y-123069819D02*
X146760588Y-123069819D01*
X147617731Y-122403152D02*
X147617731Y-123069819D01*
X147379636Y-122022200D02*
X147141541Y-122736485D01*
X147141541Y-122736485D02*
X147760588Y-122736485D01*
X147998684Y-122069819D02*
X148332017Y-123069819D01*
X148332017Y-123069819D02*
X148665350Y-122069819D01*
X140689160Y-120584104D02*
X141165350Y-120584104D01*
X140593922Y-120869819D02*
X140927255Y-119869819D01*
X140927255Y-119869819D02*
X141260588Y-120869819D01*
X134136779Y-123169819D02*
X134136779Y-122169819D01*
X134136779Y-122169819D02*
X134517731Y-122169819D01*
X134517731Y-122169819D02*
X134612969Y-122217438D01*
X134612969Y-122217438D02*
X134660588Y-122265057D01*
X134660588Y-122265057D02*
X134708207Y-122360295D01*
X134708207Y-122360295D02*
X134708207Y-122503152D01*
X134708207Y-122503152D02*
X134660588Y-122598390D01*
X134660588Y-122598390D02*
X134612969Y-122646009D01*
X134612969Y-122646009D02*
X134517731Y-122693628D01*
X134517731Y-122693628D02*
X134136779Y-122693628D01*
X135041541Y-122169819D02*
X135279636Y-123169819D01*
X135279636Y-123169819D02*
X135470112Y-122455533D01*
X135470112Y-122455533D02*
X135660588Y-123169819D01*
X135660588Y-123169819D02*
X135898684Y-122169819D01*
X136851064Y-123169819D02*
X136517731Y-122693628D01*
X136279636Y-123169819D02*
X136279636Y-122169819D01*
X136279636Y-122169819D02*
X136660588Y-122169819D01*
X136660588Y-122169819D02*
X136755826Y-122217438D01*
X136755826Y-122217438D02*
X136803445Y-122265057D01*
X136803445Y-122265057D02*
X136851064Y-122360295D01*
X136851064Y-122360295D02*
X136851064Y-122503152D01*
X136851064Y-122503152D02*
X136803445Y-122598390D01*
X136803445Y-122598390D02*
X136755826Y-122646009D01*
X136755826Y-122646009D02*
X136660588Y-122693628D01*
X136660588Y-122693628D02*
X136279636Y-122693628D01*
X162708207Y-120874580D02*
X162660588Y-120922200D01*
X162660588Y-120922200D02*
X162517731Y-120969819D01*
X162517731Y-120969819D02*
X162422493Y-120969819D01*
X162422493Y-120969819D02*
X162279636Y-120922200D01*
X162279636Y-120922200D02*
X162184398Y-120826961D01*
X162184398Y-120826961D02*
X162136779Y-120731723D01*
X162136779Y-120731723D02*
X162089160Y-120541247D01*
X162089160Y-120541247D02*
X162089160Y-120398390D01*
X162089160Y-120398390D02*
X162136779Y-120207914D01*
X162136779Y-120207914D02*
X162184398Y-120112676D01*
X162184398Y-120112676D02*
X162279636Y-120017438D01*
X162279636Y-120017438D02*
X162422493Y-119969819D01*
X162422493Y-119969819D02*
X162517731Y-119969819D01*
X162517731Y-119969819D02*
X162660588Y-120017438D01*
X162660588Y-120017438D02*
X162708207Y-120065057D01*
X157589160Y-122822200D02*
X157732017Y-122869819D01*
X157732017Y-122869819D02*
X157970112Y-122869819D01*
X157970112Y-122869819D02*
X158065350Y-122822200D01*
X158065350Y-122822200D02*
X158112969Y-122774580D01*
X158112969Y-122774580D02*
X158160588Y-122679342D01*
X158160588Y-122679342D02*
X158160588Y-122584104D01*
X158160588Y-122584104D02*
X158112969Y-122488866D01*
X158112969Y-122488866D02*
X158065350Y-122441247D01*
X158065350Y-122441247D02*
X157970112Y-122393628D01*
X157970112Y-122393628D02*
X157779636Y-122346009D01*
X157779636Y-122346009D02*
X157684398Y-122298390D01*
X157684398Y-122298390D02*
X157636779Y-122250771D01*
X157636779Y-122250771D02*
X157589160Y-122155533D01*
X157589160Y-122155533D02*
X157589160Y-122060295D01*
X157589160Y-122060295D02*
X157636779Y-121965057D01*
X157636779Y-121965057D02*
X157684398Y-121917438D01*
X157684398Y-121917438D02*
X157779636Y-121869819D01*
X157779636Y-121869819D02*
X158017731Y-121869819D01*
X158017731Y-121869819D02*
X158160588Y-121917438D01*
X158589160Y-122869819D02*
X158589160Y-121869819D01*
X158589160Y-121869819D02*
X158970112Y-121869819D01*
X158970112Y-121869819D02*
X159065350Y-121917438D01*
X159065350Y-121917438D02*
X159112969Y-121965057D01*
X159112969Y-121965057D02*
X159160588Y-122060295D01*
X159160588Y-122060295D02*
X159160588Y-122203152D01*
X159160588Y-122203152D02*
X159112969Y-122298390D01*
X159112969Y-122298390D02*
X159065350Y-122346009D01*
X159065350Y-122346009D02*
X158970112Y-122393628D01*
X158970112Y-122393628D02*
X158589160Y-122393628D01*
X159589160Y-122869819D02*
X159589160Y-121869819D01*
X160065350Y-122869819D02*
X160065350Y-121869819D01*
X160065350Y-121869819D02*
X160636778Y-122869819D01*
X160636778Y-122869819D02*
X160636778Y-121869819D01*
X161303445Y-121869819D02*
X161493921Y-121869819D01*
X161493921Y-121869819D02*
X161589159Y-121917438D01*
X161589159Y-121917438D02*
X161684397Y-122012676D01*
X161684397Y-122012676D02*
X161732016Y-122203152D01*
X161732016Y-122203152D02*
X161732016Y-122536485D01*
X161732016Y-122536485D02*
X161684397Y-122726961D01*
X161684397Y-122726961D02*
X161589159Y-122822200D01*
X161589159Y-122822200D02*
X161493921Y-122869819D01*
X161493921Y-122869819D02*
X161303445Y-122869819D01*
X161303445Y-122869819D02*
X161208207Y-122822200D01*
X161208207Y-122822200D02*
X161112969Y-122726961D01*
X161112969Y-122726961D02*
X161065350Y-122536485D01*
X161065350Y-122536485D02*
X161065350Y-122203152D01*
X161065350Y-122203152D02*
X161112969Y-122012676D01*
X161112969Y-122012676D02*
X161208207Y-121917438D01*
X161208207Y-121917438D02*
X161303445Y-121869819D01*
X162732016Y-122869819D02*
X162398683Y-122393628D01*
X162160588Y-122869819D02*
X162160588Y-121869819D01*
X162160588Y-121869819D02*
X162541540Y-121869819D01*
X162541540Y-121869819D02*
X162636778Y-121917438D01*
X162636778Y-121917438D02*
X162684397Y-121965057D01*
X162684397Y-121965057D02*
X162732016Y-122060295D01*
X162732016Y-122060295D02*
X162732016Y-122203152D01*
X162732016Y-122203152D02*
X162684397Y-122298390D01*
X162684397Y-122298390D02*
X162636778Y-122346009D01*
X162636778Y-122346009D02*
X162541540Y-122393628D01*
X162541540Y-122393628D02*
X162160588Y-122393628D01*
X164493921Y-122869819D02*
X164160588Y-122393628D01*
X163922493Y-122869819D02*
X163922493Y-121869819D01*
X163922493Y-121869819D02*
X164303445Y-121869819D01*
X164303445Y-121869819D02*
X164398683Y-121917438D01*
X164398683Y-121917438D02*
X164446302Y-121965057D01*
X164446302Y-121965057D02*
X164493921Y-122060295D01*
X164493921Y-122060295D02*
X164493921Y-122203152D01*
X164493921Y-122203152D02*
X164446302Y-122298390D01*
X164446302Y-122298390D02*
X164398683Y-122346009D01*
X164398683Y-122346009D02*
X164303445Y-122393628D01*
X164303445Y-122393628D02*
X163922493Y-122393628D01*
X164874874Y-121965057D02*
X164922493Y-121917438D01*
X164922493Y-121917438D02*
X165017731Y-121869819D01*
X165017731Y-121869819D02*
X165255826Y-121869819D01*
X165255826Y-121869819D02*
X165351064Y-121917438D01*
X165351064Y-121917438D02*
X165398683Y-121965057D01*
X165398683Y-121965057D02*
X165446302Y-122060295D01*
X165446302Y-122060295D02*
X165446302Y-122155533D01*
X165446302Y-122155533D02*
X165398683Y-122298390D01*
X165398683Y-122298390D02*
X164827255Y-122869819D01*
X164827255Y-122869819D02*
X165446302Y-122869819D01*
X149703152Y-136501316D02*
X149988866Y-137263220D01*
X149988866Y-137263220D02*
X150274580Y-136501316D01*
X150322200Y-136072744D02*
X150369819Y-135929887D01*
X150369819Y-135929887D02*
X150369819Y-135691792D01*
X150369819Y-135691792D02*
X150322200Y-135596554D01*
X150322200Y-135596554D02*
X150274580Y-135548935D01*
X150274580Y-135548935D02*
X150179342Y-135501316D01*
X150179342Y-135501316D02*
X150084104Y-135501316D01*
X150084104Y-135501316D02*
X149988866Y-135548935D01*
X149988866Y-135548935D02*
X149941247Y-135596554D01*
X149941247Y-135596554D02*
X149893628Y-135691792D01*
X149893628Y-135691792D02*
X149846009Y-135882268D01*
X149846009Y-135882268D02*
X149798390Y-135977506D01*
X149798390Y-135977506D02*
X149750771Y-136025125D01*
X149750771Y-136025125D02*
X149655533Y-136072744D01*
X149655533Y-136072744D02*
X149560295Y-136072744D01*
X149560295Y-136072744D02*
X149465057Y-136025125D01*
X149465057Y-136025125D02*
X149417438Y-135977506D01*
X149417438Y-135977506D02*
X149369819Y-135882268D01*
X149369819Y-135882268D02*
X149369819Y-135644173D01*
X149369819Y-135644173D02*
X149417438Y-135501316D01*
X149369819Y-135215601D02*
X149369819Y-134644173D01*
X150369819Y-134929887D02*
X149369819Y-134929887D01*
X150084104Y-134358458D02*
X150084104Y-133882268D01*
X150369819Y-134453696D02*
X149369819Y-134120363D01*
X149369819Y-134120363D02*
X150369819Y-133787030D01*
X149369819Y-133596553D02*
X149369819Y-133025125D01*
X150369819Y-133310839D02*
X149369819Y-133310839D01*
X149369819Y-132691791D02*
X150179342Y-132691791D01*
X150179342Y-132691791D02*
X150274580Y-132644172D01*
X150274580Y-132644172D02*
X150322200Y-132596553D01*
X150322200Y-132596553D02*
X150369819Y-132501315D01*
X150369819Y-132501315D02*
X150369819Y-132310839D01*
X150369819Y-132310839D02*
X150322200Y-132215601D01*
X150322200Y-132215601D02*
X150274580Y-132167982D01*
X150274580Y-132167982D02*
X150179342Y-132120363D01*
X150179342Y-132120363D02*
X149369819Y-132120363D01*
X150322200Y-131691791D02*
X150369819Y-131548934D01*
X150369819Y-131548934D02*
X150369819Y-131310839D01*
X150369819Y-131310839D02*
X150322200Y-131215601D01*
X150322200Y-131215601D02*
X150274580Y-131167982D01*
X150274580Y-131167982D02*
X150179342Y-131120363D01*
X150179342Y-131120363D02*
X150084104Y-131120363D01*
X150084104Y-131120363D02*
X149988866Y-131167982D01*
X149988866Y-131167982D02*
X149941247Y-131215601D01*
X149941247Y-131215601D02*
X149893628Y-131310839D01*
X149893628Y-131310839D02*
X149846009Y-131501315D01*
X149846009Y-131501315D02*
X149798390Y-131596553D01*
X149798390Y-131596553D02*
X149750771Y-131644172D01*
X149750771Y-131644172D02*
X149655533Y-131691791D01*
X149655533Y-131691791D02*
X149560295Y-131691791D01*
X149560295Y-131691791D02*
X149465057Y-131644172D01*
X149465057Y-131644172D02*
X149417438Y-131596553D01*
X149417438Y-131596553D02*
X149369819Y-131501315D01*
X149369819Y-131501315D02*
X149369819Y-131263220D01*
X149369819Y-131263220D02*
X149417438Y-131120363D01*
X131536779Y-79169819D02*
X131536779Y-78169819D01*
X131536779Y-78169819D02*
X131774874Y-78169819D01*
X131774874Y-78169819D02*
X131917731Y-78217438D01*
X131917731Y-78217438D02*
X132012969Y-78312676D01*
X132012969Y-78312676D02*
X132060588Y-78407914D01*
X132060588Y-78407914D02*
X132108207Y-78598390D01*
X132108207Y-78598390D02*
X132108207Y-78741247D01*
X132108207Y-78741247D02*
X132060588Y-78931723D01*
X132060588Y-78931723D02*
X132012969Y-79026961D01*
X132012969Y-79026961D02*
X131917731Y-79122200D01*
X131917731Y-79122200D02*
X131774874Y-79169819D01*
X131774874Y-79169819D02*
X131536779Y-79169819D01*
X132536779Y-78646009D02*
X132870112Y-78646009D01*
X133012969Y-79169819D02*
X132536779Y-79169819D01*
X132536779Y-79169819D02*
X132536779Y-78169819D01*
X132536779Y-78169819D02*
X133012969Y-78169819D01*
X133774874Y-78646009D02*
X133917731Y-78693628D01*
X133917731Y-78693628D02*
X133965350Y-78741247D01*
X133965350Y-78741247D02*
X134012969Y-78836485D01*
X134012969Y-78836485D02*
X134012969Y-78979342D01*
X134012969Y-78979342D02*
X133965350Y-79074580D01*
X133965350Y-79074580D02*
X133917731Y-79122200D01*
X133917731Y-79122200D02*
X133822493Y-79169819D01*
X133822493Y-79169819D02*
X133441541Y-79169819D01*
X133441541Y-79169819D02*
X133441541Y-78169819D01*
X133441541Y-78169819D02*
X133774874Y-78169819D01*
X133774874Y-78169819D02*
X133870112Y-78217438D01*
X133870112Y-78217438D02*
X133917731Y-78265057D01*
X133917731Y-78265057D02*
X133965350Y-78360295D01*
X133965350Y-78360295D02*
X133965350Y-78455533D01*
X133965350Y-78455533D02*
X133917731Y-78550771D01*
X133917731Y-78550771D02*
X133870112Y-78598390D01*
X133870112Y-78598390D02*
X133774874Y-78646009D01*
X133774874Y-78646009D02*
X133441541Y-78646009D01*
X134441541Y-78169819D02*
X134441541Y-78979342D01*
X134441541Y-78979342D02*
X134489160Y-79074580D01*
X134489160Y-79074580D02*
X134536779Y-79122200D01*
X134536779Y-79122200D02*
X134632017Y-79169819D01*
X134632017Y-79169819D02*
X134822493Y-79169819D01*
X134822493Y-79169819D02*
X134917731Y-79122200D01*
X134917731Y-79122200D02*
X134965350Y-79074580D01*
X134965350Y-79074580D02*
X135012969Y-78979342D01*
X135012969Y-78979342D02*
X135012969Y-78169819D01*
X136012969Y-78217438D02*
X135917731Y-78169819D01*
X135917731Y-78169819D02*
X135774874Y-78169819D01*
X135774874Y-78169819D02*
X135632017Y-78217438D01*
X135632017Y-78217438D02*
X135536779Y-78312676D01*
X135536779Y-78312676D02*
X135489160Y-78407914D01*
X135489160Y-78407914D02*
X135441541Y-78598390D01*
X135441541Y-78598390D02*
X135441541Y-78741247D01*
X135441541Y-78741247D02*
X135489160Y-78931723D01*
X135489160Y-78931723D02*
X135536779Y-79026961D01*
X135536779Y-79026961D02*
X135632017Y-79122200D01*
X135632017Y-79122200D02*
X135774874Y-79169819D01*
X135774874Y-79169819D02*
X135870112Y-79169819D01*
X135870112Y-79169819D02*
X136012969Y-79122200D01*
X136012969Y-79122200D02*
X136060588Y-79074580D01*
X136060588Y-79074580D02*
X136060588Y-78741247D01*
X136060588Y-78741247D02*
X135870112Y-78741247D01*
X131257142Y-81059580D02*
X131209523Y-81107200D01*
X131209523Y-81107200D02*
X131066666Y-81154819D01*
X131066666Y-81154819D02*
X130971428Y-81154819D01*
X130971428Y-81154819D02*
X130828571Y-81107200D01*
X130828571Y-81107200D02*
X130733333Y-81011961D01*
X130733333Y-81011961D02*
X130685714Y-80916723D01*
X130685714Y-80916723D02*
X130638095Y-80726247D01*
X130638095Y-80726247D02*
X130638095Y-80583390D01*
X130638095Y-80583390D02*
X130685714Y-80392914D01*
X130685714Y-80392914D02*
X130733333Y-80297676D01*
X130733333Y-80297676D02*
X130828571Y-80202438D01*
X130828571Y-80202438D02*
X130971428Y-80154819D01*
X130971428Y-80154819D02*
X131066666Y-80154819D01*
X131066666Y-80154819D02*
X131209523Y-80202438D01*
X131209523Y-80202438D02*
X131257142Y-80250057D01*
X131590476Y-80154819D02*
X132209523Y-80154819D01*
X132209523Y-80154819D02*
X131876190Y-80535771D01*
X131876190Y-80535771D02*
X132019047Y-80535771D01*
X132019047Y-80535771D02*
X132114285Y-80583390D01*
X132114285Y-80583390D02*
X132161904Y-80631009D01*
X132161904Y-80631009D02*
X132209523Y-80726247D01*
X132209523Y-80726247D02*
X132209523Y-80964342D01*
X132209523Y-80964342D02*
X132161904Y-81059580D01*
X132161904Y-81059580D02*
X132114285Y-81107200D01*
X132114285Y-81107200D02*
X132019047Y-81154819D01*
X132019047Y-81154819D02*
X131733333Y-81154819D01*
X131733333Y-81154819D02*
X131638095Y-81107200D01*
X131638095Y-81107200D02*
X131590476Y-81059580D01*
X133066666Y-80488152D02*
X133066666Y-81154819D01*
X132828571Y-80107200D02*
X132590476Y-80821485D01*
X132590476Y-80821485D02*
X133209523Y-80821485D01*
X151757142Y-82359580D02*
X151709523Y-82407200D01*
X151709523Y-82407200D02*
X151566666Y-82454819D01*
X151566666Y-82454819D02*
X151471428Y-82454819D01*
X151471428Y-82454819D02*
X151328571Y-82407200D01*
X151328571Y-82407200D02*
X151233333Y-82311961D01*
X151233333Y-82311961D02*
X151185714Y-82216723D01*
X151185714Y-82216723D02*
X151138095Y-82026247D01*
X151138095Y-82026247D02*
X151138095Y-81883390D01*
X151138095Y-81883390D02*
X151185714Y-81692914D01*
X151185714Y-81692914D02*
X151233333Y-81597676D01*
X151233333Y-81597676D02*
X151328571Y-81502438D01*
X151328571Y-81502438D02*
X151471428Y-81454819D01*
X151471428Y-81454819D02*
X151566666Y-81454819D01*
X151566666Y-81454819D02*
X151709523Y-81502438D01*
X151709523Y-81502438D02*
X151757142Y-81550057D01*
X152709523Y-82454819D02*
X152138095Y-82454819D01*
X152423809Y-82454819D02*
X152423809Y-81454819D01*
X152423809Y-81454819D02*
X152328571Y-81597676D01*
X152328571Y-81597676D02*
X152233333Y-81692914D01*
X152233333Y-81692914D02*
X152138095Y-81740533D01*
X153328571Y-81454819D02*
X153423809Y-81454819D01*
X153423809Y-81454819D02*
X153519047Y-81502438D01*
X153519047Y-81502438D02*
X153566666Y-81550057D01*
X153566666Y-81550057D02*
X153614285Y-81645295D01*
X153614285Y-81645295D02*
X153661904Y-81835771D01*
X153661904Y-81835771D02*
X153661904Y-82073866D01*
X153661904Y-82073866D02*
X153614285Y-82264342D01*
X153614285Y-82264342D02*
X153566666Y-82359580D01*
X153566666Y-82359580D02*
X153519047Y-82407200D01*
X153519047Y-82407200D02*
X153423809Y-82454819D01*
X153423809Y-82454819D02*
X153328571Y-82454819D01*
X153328571Y-82454819D02*
X153233333Y-82407200D01*
X153233333Y-82407200D02*
X153185714Y-82359580D01*
X153185714Y-82359580D02*
X153138095Y-82264342D01*
X153138095Y-82264342D02*
X153090476Y-82073866D01*
X153090476Y-82073866D02*
X153090476Y-81835771D01*
X153090476Y-81835771D02*
X153138095Y-81645295D01*
X153138095Y-81645295D02*
X153185714Y-81550057D01*
X153185714Y-81550057D02*
X153233333Y-81502438D01*
X153233333Y-81502438D02*
X153328571Y-81454819D01*
X160861905Y-93554819D02*
X161433333Y-93554819D01*
X161147619Y-94554819D02*
X161147619Y-93554819D01*
X161766667Y-94554819D02*
X161766667Y-93554819D01*
X161766667Y-93554819D02*
X162147619Y-93554819D01*
X162147619Y-93554819D02*
X162242857Y-93602438D01*
X162242857Y-93602438D02*
X162290476Y-93650057D01*
X162290476Y-93650057D02*
X162338095Y-93745295D01*
X162338095Y-93745295D02*
X162338095Y-93888152D01*
X162338095Y-93888152D02*
X162290476Y-93983390D01*
X162290476Y-93983390D02*
X162242857Y-94031009D01*
X162242857Y-94031009D02*
X162147619Y-94078628D01*
X162147619Y-94078628D02*
X161766667Y-94078628D01*
X163290476Y-94554819D02*
X162719048Y-94554819D01*
X163004762Y-94554819D02*
X163004762Y-93554819D01*
X163004762Y-93554819D02*
X162909524Y-93697676D01*
X162909524Y-93697676D02*
X162814286Y-93792914D01*
X162814286Y-93792914D02*
X162719048Y-93840533D01*
X163623810Y-93554819D02*
X164242857Y-93554819D01*
X164242857Y-93554819D02*
X163909524Y-93935771D01*
X163909524Y-93935771D02*
X164052381Y-93935771D01*
X164052381Y-93935771D02*
X164147619Y-93983390D01*
X164147619Y-93983390D02*
X164195238Y-94031009D01*
X164195238Y-94031009D02*
X164242857Y-94126247D01*
X164242857Y-94126247D02*
X164242857Y-94364342D01*
X164242857Y-94364342D02*
X164195238Y-94459580D01*
X164195238Y-94459580D02*
X164147619Y-94507200D01*
X164147619Y-94507200D02*
X164052381Y-94554819D01*
X164052381Y-94554819D02*
X163766667Y-94554819D01*
X163766667Y-94554819D02*
X163671429Y-94507200D01*
X163671429Y-94507200D02*
X163623810Y-94459580D01*
X142557142Y-95459580D02*
X142509523Y-95507200D01*
X142509523Y-95507200D02*
X142366666Y-95554819D01*
X142366666Y-95554819D02*
X142271428Y-95554819D01*
X142271428Y-95554819D02*
X142128571Y-95507200D01*
X142128571Y-95507200D02*
X142033333Y-95411961D01*
X142033333Y-95411961D02*
X141985714Y-95316723D01*
X141985714Y-95316723D02*
X141938095Y-95126247D01*
X141938095Y-95126247D02*
X141938095Y-94983390D01*
X141938095Y-94983390D02*
X141985714Y-94792914D01*
X141985714Y-94792914D02*
X142033333Y-94697676D01*
X142033333Y-94697676D02*
X142128571Y-94602438D01*
X142128571Y-94602438D02*
X142271428Y-94554819D01*
X142271428Y-94554819D02*
X142366666Y-94554819D01*
X142366666Y-94554819D02*
X142509523Y-94602438D01*
X142509523Y-94602438D02*
X142557142Y-94650057D01*
X142938095Y-94650057D02*
X142985714Y-94602438D01*
X142985714Y-94602438D02*
X143080952Y-94554819D01*
X143080952Y-94554819D02*
X143319047Y-94554819D01*
X143319047Y-94554819D02*
X143414285Y-94602438D01*
X143414285Y-94602438D02*
X143461904Y-94650057D01*
X143461904Y-94650057D02*
X143509523Y-94745295D01*
X143509523Y-94745295D02*
X143509523Y-94840533D01*
X143509523Y-94840533D02*
X143461904Y-94983390D01*
X143461904Y-94983390D02*
X142890476Y-95554819D01*
X142890476Y-95554819D02*
X143509523Y-95554819D01*
X144414285Y-94554819D02*
X143938095Y-94554819D01*
X143938095Y-94554819D02*
X143890476Y-95031009D01*
X143890476Y-95031009D02*
X143938095Y-94983390D01*
X143938095Y-94983390D02*
X144033333Y-94935771D01*
X144033333Y-94935771D02*
X144271428Y-94935771D01*
X144271428Y-94935771D02*
X144366666Y-94983390D01*
X144366666Y-94983390D02*
X144414285Y-95031009D01*
X144414285Y-95031009D02*
X144461904Y-95126247D01*
X144461904Y-95126247D02*
X144461904Y-95364342D01*
X144461904Y-95364342D02*
X144414285Y-95459580D01*
X144414285Y-95459580D02*
X144366666Y-95507200D01*
X144366666Y-95507200D02*
X144271428Y-95554819D01*
X144271428Y-95554819D02*
X144033333Y-95554819D01*
X144033333Y-95554819D02*
X143938095Y-95507200D01*
X143938095Y-95507200D02*
X143890476Y-95459580D01*
X140957142Y-86059580D02*
X140909523Y-86107200D01*
X140909523Y-86107200D02*
X140766666Y-86154819D01*
X140766666Y-86154819D02*
X140671428Y-86154819D01*
X140671428Y-86154819D02*
X140528571Y-86107200D01*
X140528571Y-86107200D02*
X140433333Y-86011961D01*
X140433333Y-86011961D02*
X140385714Y-85916723D01*
X140385714Y-85916723D02*
X140338095Y-85726247D01*
X140338095Y-85726247D02*
X140338095Y-85583390D01*
X140338095Y-85583390D02*
X140385714Y-85392914D01*
X140385714Y-85392914D02*
X140433333Y-85297676D01*
X140433333Y-85297676D02*
X140528571Y-85202438D01*
X140528571Y-85202438D02*
X140671428Y-85154819D01*
X140671428Y-85154819D02*
X140766666Y-85154819D01*
X140766666Y-85154819D02*
X140909523Y-85202438D01*
X140909523Y-85202438D02*
X140957142Y-85250057D01*
X141909523Y-86154819D02*
X141338095Y-86154819D01*
X141623809Y-86154819D02*
X141623809Y-85154819D01*
X141623809Y-85154819D02*
X141528571Y-85297676D01*
X141528571Y-85297676D02*
X141433333Y-85392914D01*
X141433333Y-85392914D02*
X141338095Y-85440533D01*
X142480952Y-85583390D02*
X142385714Y-85535771D01*
X142385714Y-85535771D02*
X142338095Y-85488152D01*
X142338095Y-85488152D02*
X142290476Y-85392914D01*
X142290476Y-85392914D02*
X142290476Y-85345295D01*
X142290476Y-85345295D02*
X142338095Y-85250057D01*
X142338095Y-85250057D02*
X142385714Y-85202438D01*
X142385714Y-85202438D02*
X142480952Y-85154819D01*
X142480952Y-85154819D02*
X142671428Y-85154819D01*
X142671428Y-85154819D02*
X142766666Y-85202438D01*
X142766666Y-85202438D02*
X142814285Y-85250057D01*
X142814285Y-85250057D02*
X142861904Y-85345295D01*
X142861904Y-85345295D02*
X142861904Y-85392914D01*
X142861904Y-85392914D02*
X142814285Y-85488152D01*
X142814285Y-85488152D02*
X142766666Y-85535771D01*
X142766666Y-85535771D02*
X142671428Y-85583390D01*
X142671428Y-85583390D02*
X142480952Y-85583390D01*
X142480952Y-85583390D02*
X142385714Y-85631009D01*
X142385714Y-85631009D02*
X142338095Y-85678628D01*
X142338095Y-85678628D02*
X142290476Y-85773866D01*
X142290476Y-85773866D02*
X142290476Y-85964342D01*
X142290476Y-85964342D02*
X142338095Y-86059580D01*
X142338095Y-86059580D02*
X142385714Y-86107200D01*
X142385714Y-86107200D02*
X142480952Y-86154819D01*
X142480952Y-86154819D02*
X142671428Y-86154819D01*
X142671428Y-86154819D02*
X142766666Y-86107200D01*
X142766666Y-86107200D02*
X142814285Y-86059580D01*
X142814285Y-86059580D02*
X142861904Y-85964342D01*
X142861904Y-85964342D02*
X142861904Y-85773866D01*
X142861904Y-85773866D02*
X142814285Y-85678628D01*
X142814285Y-85678628D02*
X142766666Y-85631009D01*
X142766666Y-85631009D02*
X142671428Y-85583390D01*
X143657142Y-93659580D02*
X143609523Y-93707200D01*
X143609523Y-93707200D02*
X143466666Y-93754819D01*
X143466666Y-93754819D02*
X143371428Y-93754819D01*
X143371428Y-93754819D02*
X143228571Y-93707200D01*
X143228571Y-93707200D02*
X143133333Y-93611961D01*
X143133333Y-93611961D02*
X143085714Y-93516723D01*
X143085714Y-93516723D02*
X143038095Y-93326247D01*
X143038095Y-93326247D02*
X143038095Y-93183390D01*
X143038095Y-93183390D02*
X143085714Y-92992914D01*
X143085714Y-92992914D02*
X143133333Y-92897676D01*
X143133333Y-92897676D02*
X143228571Y-92802438D01*
X143228571Y-92802438D02*
X143371428Y-92754819D01*
X143371428Y-92754819D02*
X143466666Y-92754819D01*
X143466666Y-92754819D02*
X143609523Y-92802438D01*
X143609523Y-92802438D02*
X143657142Y-92850057D01*
X144038095Y-92850057D02*
X144085714Y-92802438D01*
X144085714Y-92802438D02*
X144180952Y-92754819D01*
X144180952Y-92754819D02*
X144419047Y-92754819D01*
X144419047Y-92754819D02*
X144514285Y-92802438D01*
X144514285Y-92802438D02*
X144561904Y-92850057D01*
X144561904Y-92850057D02*
X144609523Y-92945295D01*
X144609523Y-92945295D02*
X144609523Y-93040533D01*
X144609523Y-93040533D02*
X144561904Y-93183390D01*
X144561904Y-93183390D02*
X143990476Y-93754819D01*
X143990476Y-93754819D02*
X144609523Y-93754819D01*
X144942857Y-92754819D02*
X145609523Y-92754819D01*
X145609523Y-92754819D02*
X145180952Y-93754819D01*
X164985714Y-98754819D02*
X164985714Y-97754819D01*
X164985714Y-97754819D02*
X165223809Y-97754819D01*
X165223809Y-97754819D02*
X165366666Y-97802438D01*
X165366666Y-97802438D02*
X165461904Y-97897676D01*
X165461904Y-97897676D02*
X165509523Y-97992914D01*
X165509523Y-97992914D02*
X165557142Y-98183390D01*
X165557142Y-98183390D02*
X165557142Y-98326247D01*
X165557142Y-98326247D02*
X165509523Y-98516723D01*
X165509523Y-98516723D02*
X165461904Y-98611961D01*
X165461904Y-98611961D02*
X165366666Y-98707200D01*
X165366666Y-98707200D02*
X165223809Y-98754819D01*
X165223809Y-98754819D02*
X164985714Y-98754819D01*
X166509523Y-98754819D02*
X165938095Y-98754819D01*
X166223809Y-98754819D02*
X166223809Y-97754819D01*
X166223809Y-97754819D02*
X166128571Y-97897676D01*
X166128571Y-97897676D02*
X166033333Y-97992914D01*
X166033333Y-97992914D02*
X165938095Y-98040533D01*
X166890476Y-97850057D02*
X166938095Y-97802438D01*
X166938095Y-97802438D02*
X167033333Y-97754819D01*
X167033333Y-97754819D02*
X167271428Y-97754819D01*
X167271428Y-97754819D02*
X167366666Y-97802438D01*
X167366666Y-97802438D02*
X167414285Y-97850057D01*
X167414285Y-97850057D02*
X167461904Y-97945295D01*
X167461904Y-97945295D02*
X167461904Y-98040533D01*
X167461904Y-98040533D02*
X167414285Y-98183390D01*
X167414285Y-98183390D02*
X166842857Y-98754819D01*
X166842857Y-98754819D02*
X167461904Y-98754819D01*
X149338095Y-82254819D02*
X149338095Y-83064342D01*
X149338095Y-83064342D02*
X149385714Y-83159580D01*
X149385714Y-83159580D02*
X149433333Y-83207200D01*
X149433333Y-83207200D02*
X149528571Y-83254819D01*
X149528571Y-83254819D02*
X149719047Y-83254819D01*
X149719047Y-83254819D02*
X149814285Y-83207200D01*
X149814285Y-83207200D02*
X149861904Y-83159580D01*
X149861904Y-83159580D02*
X149909523Y-83064342D01*
X149909523Y-83064342D02*
X149909523Y-82254819D01*
X150338095Y-82350057D02*
X150385714Y-82302438D01*
X150385714Y-82302438D02*
X150480952Y-82254819D01*
X150480952Y-82254819D02*
X150719047Y-82254819D01*
X150719047Y-82254819D02*
X150814285Y-82302438D01*
X150814285Y-82302438D02*
X150861904Y-82350057D01*
X150861904Y-82350057D02*
X150909523Y-82445295D01*
X150909523Y-82445295D02*
X150909523Y-82540533D01*
X150909523Y-82540533D02*
X150861904Y-82683390D01*
X150861904Y-82683390D02*
X150290476Y-83254819D01*
X150290476Y-83254819D02*
X150909523Y-83254819D01*
X168433333Y-90359580D02*
X168385714Y-90407200D01*
X168385714Y-90407200D02*
X168242857Y-90454819D01*
X168242857Y-90454819D02*
X168147619Y-90454819D01*
X168147619Y-90454819D02*
X168004762Y-90407200D01*
X168004762Y-90407200D02*
X167909524Y-90311961D01*
X167909524Y-90311961D02*
X167861905Y-90216723D01*
X167861905Y-90216723D02*
X167814286Y-90026247D01*
X167814286Y-90026247D02*
X167814286Y-89883390D01*
X167814286Y-89883390D02*
X167861905Y-89692914D01*
X167861905Y-89692914D02*
X167909524Y-89597676D01*
X167909524Y-89597676D02*
X168004762Y-89502438D01*
X168004762Y-89502438D02*
X168147619Y-89454819D01*
X168147619Y-89454819D02*
X168242857Y-89454819D01*
X168242857Y-89454819D02*
X168385714Y-89502438D01*
X168385714Y-89502438D02*
X168433333Y-89550057D01*
X169338095Y-89454819D02*
X168861905Y-89454819D01*
X168861905Y-89454819D02*
X168814286Y-89931009D01*
X168814286Y-89931009D02*
X168861905Y-89883390D01*
X168861905Y-89883390D02*
X168957143Y-89835771D01*
X168957143Y-89835771D02*
X169195238Y-89835771D01*
X169195238Y-89835771D02*
X169290476Y-89883390D01*
X169290476Y-89883390D02*
X169338095Y-89931009D01*
X169338095Y-89931009D02*
X169385714Y-90026247D01*
X169385714Y-90026247D02*
X169385714Y-90264342D01*
X169385714Y-90264342D02*
X169338095Y-90359580D01*
X169338095Y-90359580D02*
X169290476Y-90407200D01*
X169290476Y-90407200D02*
X169195238Y-90454819D01*
X169195238Y-90454819D02*
X168957143Y-90454819D01*
X168957143Y-90454819D02*
X168861905Y-90407200D01*
X168861905Y-90407200D02*
X168814286Y-90359580D01*
X143104761Y-117650057D02*
X143009523Y-117602438D01*
X143009523Y-117602438D02*
X142914285Y-117507200D01*
X142914285Y-117507200D02*
X142771428Y-117364342D01*
X142771428Y-117364342D02*
X142676190Y-117316723D01*
X142676190Y-117316723D02*
X142580952Y-117316723D01*
X142628571Y-117554819D02*
X142533333Y-117507200D01*
X142533333Y-117507200D02*
X142438095Y-117411961D01*
X142438095Y-117411961D02*
X142390476Y-117221485D01*
X142390476Y-117221485D02*
X142390476Y-116888152D01*
X142390476Y-116888152D02*
X142438095Y-116697676D01*
X142438095Y-116697676D02*
X142533333Y-116602438D01*
X142533333Y-116602438D02*
X142628571Y-116554819D01*
X142628571Y-116554819D02*
X142819047Y-116554819D01*
X142819047Y-116554819D02*
X142914285Y-116602438D01*
X142914285Y-116602438D02*
X143009523Y-116697676D01*
X143009523Y-116697676D02*
X143057142Y-116888152D01*
X143057142Y-116888152D02*
X143057142Y-117221485D01*
X143057142Y-117221485D02*
X143009523Y-117411961D01*
X143009523Y-117411961D02*
X142914285Y-117507200D01*
X142914285Y-117507200D02*
X142819047Y-117554819D01*
X142819047Y-117554819D02*
X142628571Y-117554819D01*
X143914285Y-116888152D02*
X143914285Y-117554819D01*
X143676190Y-116507200D02*
X143438095Y-117221485D01*
X143438095Y-117221485D02*
X144057142Y-117221485D01*
X133004761Y-117750057D02*
X132909523Y-117702438D01*
X132909523Y-117702438D02*
X132814285Y-117607200D01*
X132814285Y-117607200D02*
X132671428Y-117464342D01*
X132671428Y-117464342D02*
X132576190Y-117416723D01*
X132576190Y-117416723D02*
X132480952Y-117416723D01*
X132528571Y-117654819D02*
X132433333Y-117607200D01*
X132433333Y-117607200D02*
X132338095Y-117511961D01*
X132338095Y-117511961D02*
X132290476Y-117321485D01*
X132290476Y-117321485D02*
X132290476Y-116988152D01*
X132290476Y-116988152D02*
X132338095Y-116797676D01*
X132338095Y-116797676D02*
X132433333Y-116702438D01*
X132433333Y-116702438D02*
X132528571Y-116654819D01*
X132528571Y-116654819D02*
X132719047Y-116654819D01*
X132719047Y-116654819D02*
X132814285Y-116702438D01*
X132814285Y-116702438D02*
X132909523Y-116797676D01*
X132909523Y-116797676D02*
X132957142Y-116988152D01*
X132957142Y-116988152D02*
X132957142Y-117321485D01*
X132957142Y-117321485D02*
X132909523Y-117511961D01*
X132909523Y-117511961D02*
X132814285Y-117607200D01*
X132814285Y-117607200D02*
X132719047Y-117654819D01*
X132719047Y-117654819D02*
X132528571Y-117654819D01*
X133338095Y-116750057D02*
X133385714Y-116702438D01*
X133385714Y-116702438D02*
X133480952Y-116654819D01*
X133480952Y-116654819D02*
X133719047Y-116654819D01*
X133719047Y-116654819D02*
X133814285Y-116702438D01*
X133814285Y-116702438D02*
X133861904Y-116750057D01*
X133861904Y-116750057D02*
X133909523Y-116845295D01*
X133909523Y-116845295D02*
X133909523Y-116940533D01*
X133909523Y-116940533D02*
X133861904Y-117083390D01*
X133861904Y-117083390D02*
X133290476Y-117654819D01*
X133290476Y-117654819D02*
X133909523Y-117654819D01*
X162704761Y-117250057D02*
X162609523Y-117202438D01*
X162609523Y-117202438D02*
X162514285Y-117107200D01*
X162514285Y-117107200D02*
X162371428Y-116964342D01*
X162371428Y-116964342D02*
X162276190Y-116916723D01*
X162276190Y-116916723D02*
X162180952Y-116916723D01*
X162228571Y-117154819D02*
X162133333Y-117107200D01*
X162133333Y-117107200D02*
X162038095Y-117011961D01*
X162038095Y-117011961D02*
X161990476Y-116821485D01*
X161990476Y-116821485D02*
X161990476Y-116488152D01*
X161990476Y-116488152D02*
X162038095Y-116297676D01*
X162038095Y-116297676D02*
X162133333Y-116202438D01*
X162133333Y-116202438D02*
X162228571Y-116154819D01*
X162228571Y-116154819D02*
X162419047Y-116154819D01*
X162419047Y-116154819D02*
X162514285Y-116202438D01*
X162514285Y-116202438D02*
X162609523Y-116297676D01*
X162609523Y-116297676D02*
X162657142Y-116488152D01*
X162657142Y-116488152D02*
X162657142Y-116821485D01*
X162657142Y-116821485D02*
X162609523Y-117011961D01*
X162609523Y-117011961D02*
X162514285Y-117107200D01*
X162514285Y-117107200D02*
X162419047Y-117154819D01*
X162419047Y-117154819D02*
X162228571Y-117154819D01*
X163561904Y-116154819D02*
X163085714Y-116154819D01*
X163085714Y-116154819D02*
X163038095Y-116631009D01*
X163038095Y-116631009D02*
X163085714Y-116583390D01*
X163085714Y-116583390D02*
X163180952Y-116535771D01*
X163180952Y-116535771D02*
X163419047Y-116535771D01*
X163419047Y-116535771D02*
X163514285Y-116583390D01*
X163514285Y-116583390D02*
X163561904Y-116631009D01*
X163561904Y-116631009D02*
X163609523Y-116726247D01*
X163609523Y-116726247D02*
X163609523Y-116964342D01*
X163609523Y-116964342D02*
X163561904Y-117059580D01*
X163561904Y-117059580D02*
X163514285Y-117107200D01*
X163514285Y-117107200D02*
X163419047Y-117154819D01*
X163419047Y-117154819D02*
X163180952Y-117154819D01*
X163180952Y-117154819D02*
X163085714Y-117107200D01*
X163085714Y-117107200D02*
X163038095Y-117059580D01*
X129583333Y-89354819D02*
X129107143Y-89354819D01*
X129107143Y-89354819D02*
X129107143Y-88354819D01*
X129821429Y-88354819D02*
X130440476Y-88354819D01*
X130440476Y-88354819D02*
X130107143Y-88735771D01*
X130107143Y-88735771D02*
X130250000Y-88735771D01*
X130250000Y-88735771D02*
X130345238Y-88783390D01*
X130345238Y-88783390D02*
X130392857Y-88831009D01*
X130392857Y-88831009D02*
X130440476Y-88926247D01*
X130440476Y-88926247D02*
X130440476Y-89164342D01*
X130440476Y-89164342D02*
X130392857Y-89259580D01*
X130392857Y-89259580D02*
X130345238Y-89307200D01*
X130345238Y-89307200D02*
X130250000Y-89354819D01*
X130250000Y-89354819D02*
X129964286Y-89354819D01*
X129964286Y-89354819D02*
X129869048Y-89307200D01*
X129869048Y-89307200D02*
X129821429Y-89259580D01*
X132838095Y-86254819D02*
X132838095Y-87064342D01*
X132838095Y-87064342D02*
X132885714Y-87159580D01*
X132885714Y-87159580D02*
X132933333Y-87207200D01*
X132933333Y-87207200D02*
X133028571Y-87254819D01*
X133028571Y-87254819D02*
X133219047Y-87254819D01*
X133219047Y-87254819D02*
X133314285Y-87207200D01*
X133314285Y-87207200D02*
X133361904Y-87159580D01*
X133361904Y-87159580D02*
X133409523Y-87064342D01*
X133409523Y-87064342D02*
X133409523Y-86254819D01*
X134314285Y-86588152D02*
X134314285Y-87254819D01*
X134076190Y-86207200D02*
X133838095Y-86921485D01*
X133838095Y-86921485D02*
X134457142Y-86921485D01*
X134954189Y-94487799D02*
X135192284Y-94487799D01*
X135097046Y-94725894D02*
X135192284Y-94487799D01*
X135192284Y-94487799D02*
X135097046Y-94249704D01*
X135382760Y-94630656D02*
X135192284Y-94487799D01*
X135192284Y-94487799D02*
X135382760Y-94344942D01*
X134954189Y-94487799D02*
X135192284Y-94487799D01*
X135097046Y-94725894D02*
X135192284Y-94487799D01*
X135192284Y-94487799D02*
X135097046Y-94249704D01*
X135382760Y-94630656D02*
X135192284Y-94487799D01*
X135192284Y-94487799D02*
X135382760Y-94344942D01*
X145957142Y-78154819D02*
X145623809Y-77678628D01*
X145385714Y-78154819D02*
X145385714Y-77154819D01*
X145385714Y-77154819D02*
X145766666Y-77154819D01*
X145766666Y-77154819D02*
X145861904Y-77202438D01*
X145861904Y-77202438D02*
X145909523Y-77250057D01*
X145909523Y-77250057D02*
X145957142Y-77345295D01*
X145957142Y-77345295D02*
X145957142Y-77488152D01*
X145957142Y-77488152D02*
X145909523Y-77583390D01*
X145909523Y-77583390D02*
X145861904Y-77631009D01*
X145861904Y-77631009D02*
X145766666Y-77678628D01*
X145766666Y-77678628D02*
X145385714Y-77678628D01*
X146909523Y-78154819D02*
X146338095Y-78154819D01*
X146623809Y-78154819D02*
X146623809Y-77154819D01*
X146623809Y-77154819D02*
X146528571Y-77297676D01*
X146528571Y-77297676D02*
X146433333Y-77392914D01*
X146433333Y-77392914D02*
X146338095Y-77440533D01*
X147385714Y-78154819D02*
X147576190Y-78154819D01*
X147576190Y-78154819D02*
X147671428Y-78107200D01*
X147671428Y-78107200D02*
X147719047Y-78059580D01*
X147719047Y-78059580D02*
X147814285Y-77916723D01*
X147814285Y-77916723D02*
X147861904Y-77726247D01*
X147861904Y-77726247D02*
X147861904Y-77345295D01*
X147861904Y-77345295D02*
X147814285Y-77250057D01*
X147814285Y-77250057D02*
X147766666Y-77202438D01*
X147766666Y-77202438D02*
X147671428Y-77154819D01*
X147671428Y-77154819D02*
X147480952Y-77154819D01*
X147480952Y-77154819D02*
X147385714Y-77202438D01*
X147385714Y-77202438D02*
X147338095Y-77250057D01*
X147338095Y-77250057D02*
X147290476Y-77345295D01*
X147290476Y-77345295D02*
X147290476Y-77583390D01*
X147290476Y-77583390D02*
X147338095Y-77678628D01*
X147338095Y-77678628D02*
X147385714Y-77726247D01*
X147385714Y-77726247D02*
X147480952Y-77773866D01*
X147480952Y-77773866D02*
X147671428Y-77773866D01*
X147671428Y-77773866D02*
X147766666Y-77726247D01*
X147766666Y-77726247D02*
X147814285Y-77678628D01*
X147814285Y-77678628D02*
X147861904Y-77583390D01*
X129157142Y-92359580D02*
X129109523Y-92407200D01*
X129109523Y-92407200D02*
X128966666Y-92454819D01*
X128966666Y-92454819D02*
X128871428Y-92454819D01*
X128871428Y-92454819D02*
X128728571Y-92407200D01*
X128728571Y-92407200D02*
X128633333Y-92311961D01*
X128633333Y-92311961D02*
X128585714Y-92216723D01*
X128585714Y-92216723D02*
X128538095Y-92026247D01*
X128538095Y-92026247D02*
X128538095Y-91883390D01*
X128538095Y-91883390D02*
X128585714Y-91692914D01*
X128585714Y-91692914D02*
X128633333Y-91597676D01*
X128633333Y-91597676D02*
X128728571Y-91502438D01*
X128728571Y-91502438D02*
X128871428Y-91454819D01*
X128871428Y-91454819D02*
X128966666Y-91454819D01*
X128966666Y-91454819D02*
X129109523Y-91502438D01*
X129109523Y-91502438D02*
X129157142Y-91550057D01*
X129490476Y-91454819D02*
X130109523Y-91454819D01*
X130109523Y-91454819D02*
X129776190Y-91835771D01*
X129776190Y-91835771D02*
X129919047Y-91835771D01*
X129919047Y-91835771D02*
X130014285Y-91883390D01*
X130014285Y-91883390D02*
X130061904Y-91931009D01*
X130061904Y-91931009D02*
X130109523Y-92026247D01*
X130109523Y-92026247D02*
X130109523Y-92264342D01*
X130109523Y-92264342D02*
X130061904Y-92359580D01*
X130061904Y-92359580D02*
X130014285Y-92407200D01*
X130014285Y-92407200D02*
X129919047Y-92454819D01*
X129919047Y-92454819D02*
X129633333Y-92454819D01*
X129633333Y-92454819D02*
X129538095Y-92407200D01*
X129538095Y-92407200D02*
X129490476Y-92359580D01*
X130442857Y-91454819D02*
X131109523Y-91454819D01*
X131109523Y-91454819D02*
X130680952Y-92454819D01*
X130557142Y-82259580D02*
X130509523Y-82307200D01*
X130509523Y-82307200D02*
X130366666Y-82354819D01*
X130366666Y-82354819D02*
X130271428Y-82354819D01*
X130271428Y-82354819D02*
X130128571Y-82307200D01*
X130128571Y-82307200D02*
X130033333Y-82211961D01*
X130033333Y-82211961D02*
X129985714Y-82116723D01*
X129985714Y-82116723D02*
X129938095Y-81926247D01*
X129938095Y-81926247D02*
X129938095Y-81783390D01*
X129938095Y-81783390D02*
X129985714Y-81592914D01*
X129985714Y-81592914D02*
X130033333Y-81497676D01*
X130033333Y-81497676D02*
X130128571Y-81402438D01*
X130128571Y-81402438D02*
X130271428Y-81354819D01*
X130271428Y-81354819D02*
X130366666Y-81354819D01*
X130366666Y-81354819D02*
X130509523Y-81402438D01*
X130509523Y-81402438D02*
X130557142Y-81450057D01*
X130890476Y-81354819D02*
X131509523Y-81354819D01*
X131509523Y-81354819D02*
X131176190Y-81735771D01*
X131176190Y-81735771D02*
X131319047Y-81735771D01*
X131319047Y-81735771D02*
X131414285Y-81783390D01*
X131414285Y-81783390D02*
X131461904Y-81831009D01*
X131461904Y-81831009D02*
X131509523Y-81926247D01*
X131509523Y-81926247D02*
X131509523Y-82164342D01*
X131509523Y-82164342D02*
X131461904Y-82259580D01*
X131461904Y-82259580D02*
X131414285Y-82307200D01*
X131414285Y-82307200D02*
X131319047Y-82354819D01*
X131319047Y-82354819D02*
X131033333Y-82354819D01*
X131033333Y-82354819D02*
X130938095Y-82307200D01*
X130938095Y-82307200D02*
X130890476Y-82259580D01*
X131842857Y-81354819D02*
X132461904Y-81354819D01*
X132461904Y-81354819D02*
X132128571Y-81735771D01*
X132128571Y-81735771D02*
X132271428Y-81735771D01*
X132271428Y-81735771D02*
X132366666Y-81783390D01*
X132366666Y-81783390D02*
X132414285Y-81831009D01*
X132414285Y-81831009D02*
X132461904Y-81926247D01*
X132461904Y-81926247D02*
X132461904Y-82164342D01*
X132461904Y-82164342D02*
X132414285Y-82259580D01*
X132414285Y-82259580D02*
X132366666Y-82307200D01*
X132366666Y-82307200D02*
X132271428Y-82354819D01*
X132271428Y-82354819D02*
X131985714Y-82354819D01*
X131985714Y-82354819D02*
X131890476Y-82307200D01*
X131890476Y-82307200D02*
X131842857Y-82259580D01*
X166723809Y-91078628D02*
X166723809Y-91554819D01*
X166390476Y-90554819D02*
X166723809Y-91078628D01*
X166723809Y-91078628D02*
X167057142Y-90554819D01*
X167914285Y-91554819D02*
X167342857Y-91554819D01*
X167628571Y-91554819D02*
X167628571Y-90554819D01*
X167628571Y-90554819D02*
X167533333Y-90697676D01*
X167533333Y-90697676D02*
X167438095Y-90792914D01*
X167438095Y-90792914D02*
X167342857Y-90840533D01*
X146257142Y-102954819D02*
X145923809Y-102478628D01*
X145685714Y-102954819D02*
X145685714Y-101954819D01*
X145685714Y-101954819D02*
X146066666Y-101954819D01*
X146066666Y-101954819D02*
X146161904Y-102002438D01*
X146161904Y-102002438D02*
X146209523Y-102050057D01*
X146209523Y-102050057D02*
X146257142Y-102145295D01*
X146257142Y-102145295D02*
X146257142Y-102288152D01*
X146257142Y-102288152D02*
X146209523Y-102383390D01*
X146209523Y-102383390D02*
X146161904Y-102431009D01*
X146161904Y-102431009D02*
X146066666Y-102478628D01*
X146066666Y-102478628D02*
X145685714Y-102478628D01*
X146638095Y-102050057D02*
X146685714Y-102002438D01*
X146685714Y-102002438D02*
X146780952Y-101954819D01*
X146780952Y-101954819D02*
X147019047Y-101954819D01*
X147019047Y-101954819D02*
X147114285Y-102002438D01*
X147114285Y-102002438D02*
X147161904Y-102050057D01*
X147161904Y-102050057D02*
X147209523Y-102145295D01*
X147209523Y-102145295D02*
X147209523Y-102240533D01*
X147209523Y-102240533D02*
X147161904Y-102383390D01*
X147161904Y-102383390D02*
X146590476Y-102954819D01*
X146590476Y-102954819D02*
X147209523Y-102954819D01*
X148066666Y-101954819D02*
X147876190Y-101954819D01*
X147876190Y-101954819D02*
X147780952Y-102002438D01*
X147780952Y-102002438D02*
X147733333Y-102050057D01*
X147733333Y-102050057D02*
X147638095Y-102192914D01*
X147638095Y-102192914D02*
X147590476Y-102383390D01*
X147590476Y-102383390D02*
X147590476Y-102764342D01*
X147590476Y-102764342D02*
X147638095Y-102859580D01*
X147638095Y-102859580D02*
X147685714Y-102907200D01*
X147685714Y-102907200D02*
X147780952Y-102954819D01*
X147780952Y-102954819D02*
X147971428Y-102954819D01*
X147971428Y-102954819D02*
X148066666Y-102907200D01*
X148066666Y-102907200D02*
X148114285Y-102859580D01*
X148114285Y-102859580D02*
X148161904Y-102764342D01*
X148161904Y-102764342D02*
X148161904Y-102526247D01*
X148161904Y-102526247D02*
X148114285Y-102431009D01*
X148114285Y-102431009D02*
X148066666Y-102383390D01*
X148066666Y-102383390D02*
X147971428Y-102335771D01*
X147971428Y-102335771D02*
X147780952Y-102335771D01*
X147780952Y-102335771D02*
X147685714Y-102383390D01*
X147685714Y-102383390D02*
X147638095Y-102431009D01*
X147638095Y-102431009D02*
X147590476Y-102526247D01*
X151133333Y-77554819D02*
X150657143Y-77554819D01*
X150657143Y-77554819D02*
X150657143Y-76554819D01*
X151990476Y-77554819D02*
X151419048Y-77554819D01*
X151704762Y-77554819D02*
X151704762Y-76554819D01*
X151704762Y-76554819D02*
X151609524Y-76697676D01*
X151609524Y-76697676D02*
X151514286Y-76792914D01*
X151514286Y-76792914D02*
X151419048Y-76840533D01*
X161133333Y-125059580D02*
X161085714Y-125107200D01*
X161085714Y-125107200D02*
X160942857Y-125154819D01*
X160942857Y-125154819D02*
X160847619Y-125154819D01*
X160847619Y-125154819D02*
X160704762Y-125107200D01*
X160704762Y-125107200D02*
X160609524Y-125011961D01*
X160609524Y-125011961D02*
X160561905Y-124916723D01*
X160561905Y-124916723D02*
X160514286Y-124726247D01*
X160514286Y-124726247D02*
X160514286Y-124583390D01*
X160514286Y-124583390D02*
X160561905Y-124392914D01*
X160561905Y-124392914D02*
X160609524Y-124297676D01*
X160609524Y-124297676D02*
X160704762Y-124202438D01*
X160704762Y-124202438D02*
X160847619Y-124154819D01*
X160847619Y-124154819D02*
X160942857Y-124154819D01*
X160942857Y-124154819D02*
X161085714Y-124202438D01*
X161085714Y-124202438D02*
X161133333Y-124250057D01*
X161990476Y-124488152D02*
X161990476Y-125154819D01*
X161752381Y-124107200D02*
X161514286Y-124821485D01*
X161514286Y-124821485D02*
X162133333Y-124821485D01*
X143933333Y-80954819D02*
X143600000Y-80478628D01*
X143361905Y-80954819D02*
X143361905Y-79954819D01*
X143361905Y-79954819D02*
X143742857Y-79954819D01*
X143742857Y-79954819D02*
X143838095Y-80002438D01*
X143838095Y-80002438D02*
X143885714Y-80050057D01*
X143885714Y-80050057D02*
X143933333Y-80145295D01*
X143933333Y-80145295D02*
X143933333Y-80288152D01*
X143933333Y-80288152D02*
X143885714Y-80383390D01*
X143885714Y-80383390D02*
X143838095Y-80431009D01*
X143838095Y-80431009D02*
X143742857Y-80478628D01*
X143742857Y-80478628D02*
X143361905Y-80478628D01*
X144266667Y-79954819D02*
X144885714Y-79954819D01*
X144885714Y-79954819D02*
X144552381Y-80335771D01*
X144552381Y-80335771D02*
X144695238Y-80335771D01*
X144695238Y-80335771D02*
X144790476Y-80383390D01*
X144790476Y-80383390D02*
X144838095Y-80431009D01*
X144838095Y-80431009D02*
X144885714Y-80526247D01*
X144885714Y-80526247D02*
X144885714Y-80764342D01*
X144885714Y-80764342D02*
X144838095Y-80859580D01*
X144838095Y-80859580D02*
X144790476Y-80907200D01*
X144790476Y-80907200D02*
X144695238Y-80954819D01*
X144695238Y-80954819D02*
X144409524Y-80954819D01*
X144409524Y-80954819D02*
X144314286Y-80907200D01*
X144314286Y-80907200D02*
X144266667Y-80859580D01*
X161085714Y-100054819D02*
X161085714Y-99054819D01*
X161085714Y-99054819D02*
X161323809Y-99054819D01*
X161323809Y-99054819D02*
X161466666Y-99102438D01*
X161466666Y-99102438D02*
X161561904Y-99197676D01*
X161561904Y-99197676D02*
X161609523Y-99292914D01*
X161609523Y-99292914D02*
X161657142Y-99483390D01*
X161657142Y-99483390D02*
X161657142Y-99626247D01*
X161657142Y-99626247D02*
X161609523Y-99816723D01*
X161609523Y-99816723D02*
X161561904Y-99911961D01*
X161561904Y-99911961D02*
X161466666Y-100007200D01*
X161466666Y-100007200D02*
X161323809Y-100054819D01*
X161323809Y-100054819D02*
X161085714Y-100054819D01*
X162609523Y-100054819D02*
X162038095Y-100054819D01*
X162323809Y-100054819D02*
X162323809Y-99054819D01*
X162323809Y-99054819D02*
X162228571Y-99197676D01*
X162228571Y-99197676D02*
X162133333Y-99292914D01*
X162133333Y-99292914D02*
X162038095Y-99340533D01*
X163228571Y-99054819D02*
X163323809Y-99054819D01*
X163323809Y-99054819D02*
X163419047Y-99102438D01*
X163419047Y-99102438D02*
X163466666Y-99150057D01*
X163466666Y-99150057D02*
X163514285Y-99245295D01*
X163514285Y-99245295D02*
X163561904Y-99435771D01*
X163561904Y-99435771D02*
X163561904Y-99673866D01*
X163561904Y-99673866D02*
X163514285Y-99864342D01*
X163514285Y-99864342D02*
X163466666Y-99959580D01*
X163466666Y-99959580D02*
X163419047Y-100007200D01*
X163419047Y-100007200D02*
X163323809Y-100054819D01*
X163323809Y-100054819D02*
X163228571Y-100054819D01*
X163228571Y-100054819D02*
X163133333Y-100007200D01*
X163133333Y-100007200D02*
X163085714Y-99959580D01*
X163085714Y-99959580D02*
X163038095Y-99864342D01*
X163038095Y-99864342D02*
X162990476Y-99673866D01*
X162990476Y-99673866D02*
X162990476Y-99435771D01*
X162990476Y-99435771D02*
X163038095Y-99245295D01*
X163038095Y-99245295D02*
X163085714Y-99150057D01*
X163085714Y-99150057D02*
X163133333Y-99102438D01*
X163133333Y-99102438D02*
X163228571Y-99054819D01*
X146428571Y-124439700D02*
X147571429Y-124439700D01*
X147000000Y-125011128D02*
X147000000Y-123868271D01*
X135428571Y-124439700D02*
X136571429Y-124439700D01*
X132257142Y-90359580D02*
X132209523Y-90407200D01*
X132209523Y-90407200D02*
X132066666Y-90454819D01*
X132066666Y-90454819D02*
X131971428Y-90454819D01*
X131971428Y-90454819D02*
X131828571Y-90407200D01*
X131828571Y-90407200D02*
X131733333Y-90311961D01*
X131733333Y-90311961D02*
X131685714Y-90216723D01*
X131685714Y-90216723D02*
X131638095Y-90026247D01*
X131638095Y-90026247D02*
X131638095Y-89883390D01*
X131638095Y-89883390D02*
X131685714Y-89692914D01*
X131685714Y-89692914D02*
X131733333Y-89597676D01*
X131733333Y-89597676D02*
X131828571Y-89502438D01*
X131828571Y-89502438D02*
X131971428Y-89454819D01*
X131971428Y-89454819D02*
X132066666Y-89454819D01*
X132066666Y-89454819D02*
X132209523Y-89502438D01*
X132209523Y-89502438D02*
X132257142Y-89550057D01*
X133209523Y-90454819D02*
X132638095Y-90454819D01*
X132923809Y-90454819D02*
X132923809Y-89454819D01*
X132923809Y-89454819D02*
X132828571Y-89597676D01*
X132828571Y-89597676D02*
X132733333Y-89692914D01*
X132733333Y-89692914D02*
X132638095Y-89740533D01*
X133542857Y-89454819D02*
X134209523Y-89454819D01*
X134209523Y-89454819D02*
X133780952Y-90454819D01*
X161533333Y-96554819D02*
X161200000Y-96078628D01*
X160961905Y-96554819D02*
X160961905Y-95554819D01*
X160961905Y-95554819D02*
X161342857Y-95554819D01*
X161342857Y-95554819D02*
X161438095Y-95602438D01*
X161438095Y-95602438D02*
X161485714Y-95650057D01*
X161485714Y-95650057D02*
X161533333Y-95745295D01*
X161533333Y-95745295D02*
X161533333Y-95888152D01*
X161533333Y-95888152D02*
X161485714Y-95983390D01*
X161485714Y-95983390D02*
X161438095Y-96031009D01*
X161438095Y-96031009D02*
X161342857Y-96078628D01*
X161342857Y-96078628D02*
X160961905Y-96078628D01*
X162009524Y-96554819D02*
X162200000Y-96554819D01*
X162200000Y-96554819D02*
X162295238Y-96507200D01*
X162295238Y-96507200D02*
X162342857Y-96459580D01*
X162342857Y-96459580D02*
X162438095Y-96316723D01*
X162438095Y-96316723D02*
X162485714Y-96126247D01*
X162485714Y-96126247D02*
X162485714Y-95745295D01*
X162485714Y-95745295D02*
X162438095Y-95650057D01*
X162438095Y-95650057D02*
X162390476Y-95602438D01*
X162390476Y-95602438D02*
X162295238Y-95554819D01*
X162295238Y-95554819D02*
X162104762Y-95554819D01*
X162104762Y-95554819D02*
X162009524Y-95602438D01*
X162009524Y-95602438D02*
X161961905Y-95650057D01*
X161961905Y-95650057D02*
X161914286Y-95745295D01*
X161914286Y-95745295D02*
X161914286Y-95983390D01*
X161914286Y-95983390D02*
X161961905Y-96078628D01*
X161961905Y-96078628D02*
X162009524Y-96126247D01*
X162009524Y-96126247D02*
X162104762Y-96173866D01*
X162104762Y-96173866D02*
X162295238Y-96173866D01*
X162295238Y-96173866D02*
X162390476Y-96126247D01*
X162390476Y-96126247D02*
X162438095Y-96078628D01*
X162438095Y-96078628D02*
X162485714Y-95983390D01*
X145204761Y-117550057D02*
X145109523Y-117502438D01*
X145109523Y-117502438D02*
X145014285Y-117407200D01*
X145014285Y-117407200D02*
X144871428Y-117264342D01*
X144871428Y-117264342D02*
X144776190Y-117216723D01*
X144776190Y-117216723D02*
X144680952Y-117216723D01*
X144728571Y-117454819D02*
X144633333Y-117407200D01*
X144633333Y-117407200D02*
X144538095Y-117311961D01*
X144538095Y-117311961D02*
X144490476Y-117121485D01*
X144490476Y-117121485D02*
X144490476Y-116788152D01*
X144490476Y-116788152D02*
X144538095Y-116597676D01*
X144538095Y-116597676D02*
X144633333Y-116502438D01*
X144633333Y-116502438D02*
X144728571Y-116454819D01*
X144728571Y-116454819D02*
X144919047Y-116454819D01*
X144919047Y-116454819D02*
X145014285Y-116502438D01*
X145014285Y-116502438D02*
X145109523Y-116597676D01*
X145109523Y-116597676D02*
X145157142Y-116788152D01*
X145157142Y-116788152D02*
X145157142Y-117121485D01*
X145157142Y-117121485D02*
X145109523Y-117311961D01*
X145109523Y-117311961D02*
X145014285Y-117407200D01*
X145014285Y-117407200D02*
X144919047Y-117454819D01*
X144919047Y-117454819D02*
X144728571Y-117454819D01*
X145490476Y-116454819D02*
X146109523Y-116454819D01*
X146109523Y-116454819D02*
X145776190Y-116835771D01*
X145776190Y-116835771D02*
X145919047Y-116835771D01*
X145919047Y-116835771D02*
X146014285Y-116883390D01*
X146014285Y-116883390D02*
X146061904Y-116931009D01*
X146061904Y-116931009D02*
X146109523Y-117026247D01*
X146109523Y-117026247D02*
X146109523Y-117264342D01*
X146109523Y-117264342D02*
X146061904Y-117359580D01*
X146061904Y-117359580D02*
X146014285Y-117407200D01*
X146014285Y-117407200D02*
X145919047Y-117454819D01*
X145919047Y-117454819D02*
X145633333Y-117454819D01*
X145633333Y-117454819D02*
X145538095Y-117407200D01*
X145538095Y-117407200D02*
X145490476Y-117359580D01*
X165133333Y-93354819D02*
X164800000Y-92878628D01*
X164561905Y-93354819D02*
X164561905Y-92354819D01*
X164561905Y-92354819D02*
X164942857Y-92354819D01*
X164942857Y-92354819D02*
X165038095Y-92402438D01*
X165038095Y-92402438D02*
X165085714Y-92450057D01*
X165085714Y-92450057D02*
X165133333Y-92545295D01*
X165133333Y-92545295D02*
X165133333Y-92688152D01*
X165133333Y-92688152D02*
X165085714Y-92783390D01*
X165085714Y-92783390D02*
X165038095Y-92831009D01*
X165038095Y-92831009D02*
X164942857Y-92878628D01*
X164942857Y-92878628D02*
X164561905Y-92878628D01*
X166085714Y-93354819D02*
X165514286Y-93354819D01*
X165800000Y-93354819D02*
X165800000Y-92354819D01*
X165800000Y-92354819D02*
X165704762Y-92497676D01*
X165704762Y-92497676D02*
X165609524Y-92592914D01*
X165609524Y-92592914D02*
X165514286Y-92640533D01*
X129757142Y-103154819D02*
X129423809Y-102678628D01*
X129185714Y-103154819D02*
X129185714Y-102154819D01*
X129185714Y-102154819D02*
X129566666Y-102154819D01*
X129566666Y-102154819D02*
X129661904Y-102202438D01*
X129661904Y-102202438D02*
X129709523Y-102250057D01*
X129709523Y-102250057D02*
X129757142Y-102345295D01*
X129757142Y-102345295D02*
X129757142Y-102488152D01*
X129757142Y-102488152D02*
X129709523Y-102583390D01*
X129709523Y-102583390D02*
X129661904Y-102631009D01*
X129661904Y-102631009D02*
X129566666Y-102678628D01*
X129566666Y-102678628D02*
X129185714Y-102678628D01*
X130138095Y-102250057D02*
X130185714Y-102202438D01*
X130185714Y-102202438D02*
X130280952Y-102154819D01*
X130280952Y-102154819D02*
X130519047Y-102154819D01*
X130519047Y-102154819D02*
X130614285Y-102202438D01*
X130614285Y-102202438D02*
X130661904Y-102250057D01*
X130661904Y-102250057D02*
X130709523Y-102345295D01*
X130709523Y-102345295D02*
X130709523Y-102440533D01*
X130709523Y-102440533D02*
X130661904Y-102583390D01*
X130661904Y-102583390D02*
X130090476Y-103154819D01*
X130090476Y-103154819D02*
X130709523Y-103154819D01*
X131042857Y-102154819D02*
X131661904Y-102154819D01*
X131661904Y-102154819D02*
X131328571Y-102535771D01*
X131328571Y-102535771D02*
X131471428Y-102535771D01*
X131471428Y-102535771D02*
X131566666Y-102583390D01*
X131566666Y-102583390D02*
X131614285Y-102631009D01*
X131614285Y-102631009D02*
X131661904Y-102726247D01*
X131661904Y-102726247D02*
X131661904Y-102964342D01*
X131661904Y-102964342D02*
X131614285Y-103059580D01*
X131614285Y-103059580D02*
X131566666Y-103107200D01*
X131566666Y-103107200D02*
X131471428Y-103154819D01*
X131471428Y-103154819D02*
X131185714Y-103154819D01*
X131185714Y-103154819D02*
X131090476Y-103107200D01*
X131090476Y-103107200D02*
X131042857Y-103059580D01*
X137357142Y-98559580D02*
X137309523Y-98607200D01*
X137309523Y-98607200D02*
X137166666Y-98654819D01*
X137166666Y-98654819D02*
X137071428Y-98654819D01*
X137071428Y-98654819D02*
X136928571Y-98607200D01*
X136928571Y-98607200D02*
X136833333Y-98511961D01*
X136833333Y-98511961D02*
X136785714Y-98416723D01*
X136785714Y-98416723D02*
X136738095Y-98226247D01*
X136738095Y-98226247D02*
X136738095Y-98083390D01*
X136738095Y-98083390D02*
X136785714Y-97892914D01*
X136785714Y-97892914D02*
X136833333Y-97797676D01*
X136833333Y-97797676D02*
X136928571Y-97702438D01*
X136928571Y-97702438D02*
X137071428Y-97654819D01*
X137071428Y-97654819D02*
X137166666Y-97654819D01*
X137166666Y-97654819D02*
X137309523Y-97702438D01*
X137309523Y-97702438D02*
X137357142Y-97750057D01*
X138309523Y-98654819D02*
X137738095Y-98654819D01*
X138023809Y-98654819D02*
X138023809Y-97654819D01*
X138023809Y-97654819D02*
X137928571Y-97797676D01*
X137928571Y-97797676D02*
X137833333Y-97892914D01*
X137833333Y-97892914D02*
X137738095Y-97940533D01*
X139214285Y-97654819D02*
X138738095Y-97654819D01*
X138738095Y-97654819D02*
X138690476Y-98131009D01*
X138690476Y-98131009D02*
X138738095Y-98083390D01*
X138738095Y-98083390D02*
X138833333Y-98035771D01*
X138833333Y-98035771D02*
X139071428Y-98035771D01*
X139071428Y-98035771D02*
X139166666Y-98083390D01*
X139166666Y-98083390D02*
X139214285Y-98131009D01*
X139214285Y-98131009D02*
X139261904Y-98226247D01*
X139261904Y-98226247D02*
X139261904Y-98464342D01*
X139261904Y-98464342D02*
X139214285Y-98559580D01*
X139214285Y-98559580D02*
X139166666Y-98607200D01*
X139166666Y-98607200D02*
X139071428Y-98654819D01*
X139071428Y-98654819D02*
X138833333Y-98654819D01*
X138833333Y-98654819D02*
X138738095Y-98607200D01*
X138738095Y-98607200D02*
X138690476Y-98559580D01*
X142133333Y-80954819D02*
X141800000Y-80478628D01*
X141561905Y-80954819D02*
X141561905Y-79954819D01*
X141561905Y-79954819D02*
X141942857Y-79954819D01*
X141942857Y-79954819D02*
X142038095Y-80002438D01*
X142038095Y-80002438D02*
X142085714Y-80050057D01*
X142085714Y-80050057D02*
X142133333Y-80145295D01*
X142133333Y-80145295D02*
X142133333Y-80288152D01*
X142133333Y-80288152D02*
X142085714Y-80383390D01*
X142085714Y-80383390D02*
X142038095Y-80431009D01*
X142038095Y-80431009D02*
X141942857Y-80478628D01*
X141942857Y-80478628D02*
X141561905Y-80478628D01*
X142990476Y-80288152D02*
X142990476Y-80954819D01*
X142752381Y-79907200D02*
X142514286Y-80621485D01*
X142514286Y-80621485D02*
X143133333Y-80621485D01*
X166933333Y-92759580D02*
X166885714Y-92807200D01*
X166885714Y-92807200D02*
X166742857Y-92854819D01*
X166742857Y-92854819D02*
X166647619Y-92854819D01*
X166647619Y-92854819D02*
X166504762Y-92807200D01*
X166504762Y-92807200D02*
X166409524Y-92711961D01*
X166409524Y-92711961D02*
X166361905Y-92616723D01*
X166361905Y-92616723D02*
X166314286Y-92426247D01*
X166314286Y-92426247D02*
X166314286Y-92283390D01*
X166314286Y-92283390D02*
X166361905Y-92092914D01*
X166361905Y-92092914D02*
X166409524Y-91997676D01*
X166409524Y-91997676D02*
X166504762Y-91902438D01*
X166504762Y-91902438D02*
X166647619Y-91854819D01*
X166647619Y-91854819D02*
X166742857Y-91854819D01*
X166742857Y-91854819D02*
X166885714Y-91902438D01*
X166885714Y-91902438D02*
X166933333Y-91950057D01*
X167790476Y-91854819D02*
X167600000Y-91854819D01*
X167600000Y-91854819D02*
X167504762Y-91902438D01*
X167504762Y-91902438D02*
X167457143Y-91950057D01*
X167457143Y-91950057D02*
X167361905Y-92092914D01*
X167361905Y-92092914D02*
X167314286Y-92283390D01*
X167314286Y-92283390D02*
X167314286Y-92664342D01*
X167314286Y-92664342D02*
X167361905Y-92759580D01*
X167361905Y-92759580D02*
X167409524Y-92807200D01*
X167409524Y-92807200D02*
X167504762Y-92854819D01*
X167504762Y-92854819D02*
X167695238Y-92854819D01*
X167695238Y-92854819D02*
X167790476Y-92807200D01*
X167790476Y-92807200D02*
X167838095Y-92759580D01*
X167838095Y-92759580D02*
X167885714Y-92664342D01*
X167885714Y-92664342D02*
X167885714Y-92426247D01*
X167885714Y-92426247D02*
X167838095Y-92331009D01*
X167838095Y-92331009D02*
X167790476Y-92283390D01*
X167790476Y-92283390D02*
X167695238Y-92235771D01*
X167695238Y-92235771D02*
X167504762Y-92235771D01*
X167504762Y-92235771D02*
X167409524Y-92283390D01*
X167409524Y-92283390D02*
X167361905Y-92331009D01*
X167361905Y-92331009D02*
X167314286Y-92426247D01*
X158757142Y-96554819D02*
X158423809Y-96078628D01*
X158185714Y-96554819D02*
X158185714Y-95554819D01*
X158185714Y-95554819D02*
X158566666Y-95554819D01*
X158566666Y-95554819D02*
X158661904Y-95602438D01*
X158661904Y-95602438D02*
X158709523Y-95650057D01*
X158709523Y-95650057D02*
X158757142Y-95745295D01*
X158757142Y-95745295D02*
X158757142Y-95888152D01*
X158757142Y-95888152D02*
X158709523Y-95983390D01*
X158709523Y-95983390D02*
X158661904Y-96031009D01*
X158661904Y-96031009D02*
X158566666Y-96078628D01*
X158566666Y-96078628D02*
X158185714Y-96078628D01*
X159709523Y-96554819D02*
X159138095Y-96554819D01*
X159423809Y-96554819D02*
X159423809Y-95554819D01*
X159423809Y-95554819D02*
X159328571Y-95697676D01*
X159328571Y-95697676D02*
X159233333Y-95792914D01*
X159233333Y-95792914D02*
X159138095Y-95840533D01*
X160328571Y-95554819D02*
X160423809Y-95554819D01*
X160423809Y-95554819D02*
X160519047Y-95602438D01*
X160519047Y-95602438D02*
X160566666Y-95650057D01*
X160566666Y-95650057D02*
X160614285Y-95745295D01*
X160614285Y-95745295D02*
X160661904Y-95935771D01*
X160661904Y-95935771D02*
X160661904Y-96173866D01*
X160661904Y-96173866D02*
X160614285Y-96364342D01*
X160614285Y-96364342D02*
X160566666Y-96459580D01*
X160566666Y-96459580D02*
X160519047Y-96507200D01*
X160519047Y-96507200D02*
X160423809Y-96554819D01*
X160423809Y-96554819D02*
X160328571Y-96554819D01*
X160328571Y-96554819D02*
X160233333Y-96507200D01*
X160233333Y-96507200D02*
X160185714Y-96459580D01*
X160185714Y-96459580D02*
X160138095Y-96364342D01*
X160138095Y-96364342D02*
X160090476Y-96173866D01*
X160090476Y-96173866D02*
X160090476Y-95935771D01*
X160090476Y-95935771D02*
X160138095Y-95745295D01*
X160138095Y-95745295D02*
X160185714Y-95650057D01*
X160185714Y-95650057D02*
X160233333Y-95602438D01*
X160233333Y-95602438D02*
X160328571Y-95554819D01*
X131104761Y-117750057D02*
X131009523Y-117702438D01*
X131009523Y-117702438D02*
X130914285Y-117607200D01*
X130914285Y-117607200D02*
X130771428Y-117464342D01*
X130771428Y-117464342D02*
X130676190Y-117416723D01*
X130676190Y-117416723D02*
X130580952Y-117416723D01*
X130628571Y-117654819D02*
X130533333Y-117607200D01*
X130533333Y-117607200D02*
X130438095Y-117511961D01*
X130438095Y-117511961D02*
X130390476Y-117321485D01*
X130390476Y-117321485D02*
X130390476Y-116988152D01*
X130390476Y-116988152D02*
X130438095Y-116797676D01*
X130438095Y-116797676D02*
X130533333Y-116702438D01*
X130533333Y-116702438D02*
X130628571Y-116654819D01*
X130628571Y-116654819D02*
X130819047Y-116654819D01*
X130819047Y-116654819D02*
X130914285Y-116702438D01*
X130914285Y-116702438D02*
X131009523Y-116797676D01*
X131009523Y-116797676D02*
X131057142Y-116988152D01*
X131057142Y-116988152D02*
X131057142Y-117321485D01*
X131057142Y-117321485D02*
X131009523Y-117511961D01*
X131009523Y-117511961D02*
X130914285Y-117607200D01*
X130914285Y-117607200D02*
X130819047Y-117654819D01*
X130819047Y-117654819D02*
X130628571Y-117654819D01*
X132009523Y-117654819D02*
X131438095Y-117654819D01*
X131723809Y-117654819D02*
X131723809Y-116654819D01*
X131723809Y-116654819D02*
X131628571Y-116797676D01*
X131628571Y-116797676D02*
X131533333Y-116892914D01*
X131533333Y-116892914D02*
X131438095Y-116940533D01*
X155357142Y-97454819D02*
X155023809Y-96978628D01*
X154785714Y-97454819D02*
X154785714Y-96454819D01*
X154785714Y-96454819D02*
X155166666Y-96454819D01*
X155166666Y-96454819D02*
X155261904Y-96502438D01*
X155261904Y-96502438D02*
X155309523Y-96550057D01*
X155309523Y-96550057D02*
X155357142Y-96645295D01*
X155357142Y-96645295D02*
X155357142Y-96788152D01*
X155357142Y-96788152D02*
X155309523Y-96883390D01*
X155309523Y-96883390D02*
X155261904Y-96931009D01*
X155261904Y-96931009D02*
X155166666Y-96978628D01*
X155166666Y-96978628D02*
X154785714Y-96978628D01*
X156309523Y-97454819D02*
X155738095Y-97454819D01*
X156023809Y-97454819D02*
X156023809Y-96454819D01*
X156023809Y-96454819D02*
X155928571Y-96597676D01*
X155928571Y-96597676D02*
X155833333Y-96692914D01*
X155833333Y-96692914D02*
X155738095Y-96740533D01*
X157261904Y-97454819D02*
X156690476Y-97454819D01*
X156976190Y-97454819D02*
X156976190Y-96454819D01*
X156976190Y-96454819D02*
X156880952Y-96597676D01*
X156880952Y-96597676D02*
X156785714Y-96692914D01*
X156785714Y-96692914D02*
X156690476Y-96740533D01*
X156857142Y-102654819D02*
X156523809Y-102178628D01*
X156285714Y-102654819D02*
X156285714Y-101654819D01*
X156285714Y-101654819D02*
X156666666Y-101654819D01*
X156666666Y-101654819D02*
X156761904Y-101702438D01*
X156761904Y-101702438D02*
X156809523Y-101750057D01*
X156809523Y-101750057D02*
X156857142Y-101845295D01*
X156857142Y-101845295D02*
X156857142Y-101988152D01*
X156857142Y-101988152D02*
X156809523Y-102083390D01*
X156809523Y-102083390D02*
X156761904Y-102131009D01*
X156761904Y-102131009D02*
X156666666Y-102178628D01*
X156666666Y-102178628D02*
X156285714Y-102178628D01*
X157238095Y-101750057D02*
X157285714Y-101702438D01*
X157285714Y-101702438D02*
X157380952Y-101654819D01*
X157380952Y-101654819D02*
X157619047Y-101654819D01*
X157619047Y-101654819D02*
X157714285Y-101702438D01*
X157714285Y-101702438D02*
X157761904Y-101750057D01*
X157761904Y-101750057D02*
X157809523Y-101845295D01*
X157809523Y-101845295D02*
X157809523Y-101940533D01*
X157809523Y-101940533D02*
X157761904Y-102083390D01*
X157761904Y-102083390D02*
X157190476Y-102654819D01*
X157190476Y-102654819D02*
X157809523Y-102654819D01*
X158285714Y-102654819D02*
X158476190Y-102654819D01*
X158476190Y-102654819D02*
X158571428Y-102607200D01*
X158571428Y-102607200D02*
X158619047Y-102559580D01*
X158619047Y-102559580D02*
X158714285Y-102416723D01*
X158714285Y-102416723D02*
X158761904Y-102226247D01*
X158761904Y-102226247D02*
X158761904Y-101845295D01*
X158761904Y-101845295D02*
X158714285Y-101750057D01*
X158714285Y-101750057D02*
X158666666Y-101702438D01*
X158666666Y-101702438D02*
X158571428Y-101654819D01*
X158571428Y-101654819D02*
X158380952Y-101654819D01*
X158380952Y-101654819D02*
X158285714Y-101702438D01*
X158285714Y-101702438D02*
X158238095Y-101750057D01*
X158238095Y-101750057D02*
X158190476Y-101845295D01*
X158190476Y-101845295D02*
X158190476Y-102083390D01*
X158190476Y-102083390D02*
X158238095Y-102178628D01*
X158238095Y-102178628D02*
X158285714Y-102226247D01*
X158285714Y-102226247D02*
X158380952Y-102273866D01*
X158380952Y-102273866D02*
X158571428Y-102273866D01*
X158571428Y-102273866D02*
X158666666Y-102226247D01*
X158666666Y-102226247D02*
X158714285Y-102178628D01*
X158714285Y-102178628D02*
X158761904Y-102083390D01*
X153461905Y-99854819D02*
X153461905Y-98854819D01*
X153461905Y-98854819D02*
X153700000Y-98854819D01*
X153700000Y-98854819D02*
X153842857Y-98902438D01*
X153842857Y-98902438D02*
X153938095Y-98997676D01*
X153938095Y-98997676D02*
X153985714Y-99092914D01*
X153985714Y-99092914D02*
X154033333Y-99283390D01*
X154033333Y-99283390D02*
X154033333Y-99426247D01*
X154033333Y-99426247D02*
X153985714Y-99616723D01*
X153985714Y-99616723D02*
X153938095Y-99711961D01*
X153938095Y-99711961D02*
X153842857Y-99807200D01*
X153842857Y-99807200D02*
X153700000Y-99854819D01*
X153700000Y-99854819D02*
X153461905Y-99854819D01*
X154366667Y-98854819D02*
X155033333Y-98854819D01*
X155033333Y-98854819D02*
X154604762Y-99854819D01*
X163857142Y-124959580D02*
X163809523Y-125007200D01*
X163809523Y-125007200D02*
X163666666Y-125054819D01*
X163666666Y-125054819D02*
X163571428Y-125054819D01*
X163571428Y-125054819D02*
X163428571Y-125007200D01*
X163428571Y-125007200D02*
X163333333Y-124911961D01*
X163333333Y-124911961D02*
X163285714Y-124816723D01*
X163285714Y-124816723D02*
X163238095Y-124626247D01*
X163238095Y-124626247D02*
X163238095Y-124483390D01*
X163238095Y-124483390D02*
X163285714Y-124292914D01*
X163285714Y-124292914D02*
X163333333Y-124197676D01*
X163333333Y-124197676D02*
X163428571Y-124102438D01*
X163428571Y-124102438D02*
X163571428Y-124054819D01*
X163571428Y-124054819D02*
X163666666Y-124054819D01*
X163666666Y-124054819D02*
X163809523Y-124102438D01*
X163809523Y-124102438D02*
X163857142Y-124150057D01*
X164190476Y-124054819D02*
X164809523Y-124054819D01*
X164809523Y-124054819D02*
X164476190Y-124435771D01*
X164476190Y-124435771D02*
X164619047Y-124435771D01*
X164619047Y-124435771D02*
X164714285Y-124483390D01*
X164714285Y-124483390D02*
X164761904Y-124531009D01*
X164761904Y-124531009D02*
X164809523Y-124626247D01*
X164809523Y-124626247D02*
X164809523Y-124864342D01*
X164809523Y-124864342D02*
X164761904Y-124959580D01*
X164761904Y-124959580D02*
X164714285Y-125007200D01*
X164714285Y-125007200D02*
X164619047Y-125054819D01*
X164619047Y-125054819D02*
X164333333Y-125054819D01*
X164333333Y-125054819D02*
X164238095Y-125007200D01*
X164238095Y-125007200D02*
X164190476Y-124959580D01*
X165761904Y-125054819D02*
X165190476Y-125054819D01*
X165476190Y-125054819D02*
X165476190Y-124054819D01*
X165476190Y-124054819D02*
X165380952Y-124197676D01*
X165380952Y-124197676D02*
X165285714Y-124292914D01*
X165285714Y-124292914D02*
X165190476Y-124340533D01*
X134433333Y-80454819D02*
X134100000Y-79978628D01*
X133861905Y-80454819D02*
X133861905Y-79454819D01*
X133861905Y-79454819D02*
X134242857Y-79454819D01*
X134242857Y-79454819D02*
X134338095Y-79502438D01*
X134338095Y-79502438D02*
X134385714Y-79550057D01*
X134385714Y-79550057D02*
X134433333Y-79645295D01*
X134433333Y-79645295D02*
X134433333Y-79788152D01*
X134433333Y-79788152D02*
X134385714Y-79883390D01*
X134385714Y-79883390D02*
X134338095Y-79931009D01*
X134338095Y-79931009D02*
X134242857Y-79978628D01*
X134242857Y-79978628D02*
X133861905Y-79978628D01*
X135290476Y-79454819D02*
X135100000Y-79454819D01*
X135100000Y-79454819D02*
X135004762Y-79502438D01*
X135004762Y-79502438D02*
X134957143Y-79550057D01*
X134957143Y-79550057D02*
X134861905Y-79692914D01*
X134861905Y-79692914D02*
X134814286Y-79883390D01*
X134814286Y-79883390D02*
X134814286Y-80264342D01*
X134814286Y-80264342D02*
X134861905Y-80359580D01*
X134861905Y-80359580D02*
X134909524Y-80407200D01*
X134909524Y-80407200D02*
X135004762Y-80454819D01*
X135004762Y-80454819D02*
X135195238Y-80454819D01*
X135195238Y-80454819D02*
X135290476Y-80407200D01*
X135290476Y-80407200D02*
X135338095Y-80359580D01*
X135338095Y-80359580D02*
X135385714Y-80264342D01*
X135385714Y-80264342D02*
X135385714Y-80026247D01*
X135385714Y-80026247D02*
X135338095Y-79931009D01*
X135338095Y-79931009D02*
X135290476Y-79883390D01*
X135290476Y-79883390D02*
X135195238Y-79835771D01*
X135195238Y-79835771D02*
X135004762Y-79835771D01*
X135004762Y-79835771D02*
X134909524Y-79883390D01*
X134909524Y-79883390D02*
X134861905Y-79931009D01*
X134861905Y-79931009D02*
X134814286Y-80026247D01*
X168657142Y-100959580D02*
X168609523Y-101007200D01*
X168609523Y-101007200D02*
X168466666Y-101054819D01*
X168466666Y-101054819D02*
X168371428Y-101054819D01*
X168371428Y-101054819D02*
X168228571Y-101007200D01*
X168228571Y-101007200D02*
X168133333Y-100911961D01*
X168133333Y-100911961D02*
X168085714Y-100816723D01*
X168085714Y-100816723D02*
X168038095Y-100626247D01*
X168038095Y-100626247D02*
X168038095Y-100483390D01*
X168038095Y-100483390D02*
X168085714Y-100292914D01*
X168085714Y-100292914D02*
X168133333Y-100197676D01*
X168133333Y-100197676D02*
X168228571Y-100102438D01*
X168228571Y-100102438D02*
X168371428Y-100054819D01*
X168371428Y-100054819D02*
X168466666Y-100054819D01*
X168466666Y-100054819D02*
X168609523Y-100102438D01*
X168609523Y-100102438D02*
X168657142Y-100150057D01*
X169038095Y-100150057D02*
X169085714Y-100102438D01*
X169085714Y-100102438D02*
X169180952Y-100054819D01*
X169180952Y-100054819D02*
X169419047Y-100054819D01*
X169419047Y-100054819D02*
X169514285Y-100102438D01*
X169514285Y-100102438D02*
X169561904Y-100150057D01*
X169561904Y-100150057D02*
X169609523Y-100245295D01*
X169609523Y-100245295D02*
X169609523Y-100340533D01*
X169609523Y-100340533D02*
X169561904Y-100483390D01*
X169561904Y-100483390D02*
X168990476Y-101054819D01*
X168990476Y-101054819D02*
X169609523Y-101054819D01*
X170180952Y-100483390D02*
X170085714Y-100435771D01*
X170085714Y-100435771D02*
X170038095Y-100388152D01*
X170038095Y-100388152D02*
X169990476Y-100292914D01*
X169990476Y-100292914D02*
X169990476Y-100245295D01*
X169990476Y-100245295D02*
X170038095Y-100150057D01*
X170038095Y-100150057D02*
X170085714Y-100102438D01*
X170085714Y-100102438D02*
X170180952Y-100054819D01*
X170180952Y-100054819D02*
X170371428Y-100054819D01*
X170371428Y-100054819D02*
X170466666Y-100102438D01*
X170466666Y-100102438D02*
X170514285Y-100150057D01*
X170514285Y-100150057D02*
X170561904Y-100245295D01*
X170561904Y-100245295D02*
X170561904Y-100292914D01*
X170561904Y-100292914D02*
X170514285Y-100388152D01*
X170514285Y-100388152D02*
X170466666Y-100435771D01*
X170466666Y-100435771D02*
X170371428Y-100483390D01*
X170371428Y-100483390D02*
X170180952Y-100483390D01*
X170180952Y-100483390D02*
X170085714Y-100531009D01*
X170085714Y-100531009D02*
X170038095Y-100578628D01*
X170038095Y-100578628D02*
X169990476Y-100673866D01*
X169990476Y-100673866D02*
X169990476Y-100864342D01*
X169990476Y-100864342D02*
X170038095Y-100959580D01*
X170038095Y-100959580D02*
X170085714Y-101007200D01*
X170085714Y-101007200D02*
X170180952Y-101054819D01*
X170180952Y-101054819D02*
X170371428Y-101054819D01*
X170371428Y-101054819D02*
X170466666Y-101007200D01*
X170466666Y-101007200D02*
X170514285Y-100959580D01*
X170514285Y-100959580D02*
X170561904Y-100864342D01*
X170561904Y-100864342D02*
X170561904Y-100673866D01*
X170561904Y-100673866D02*
X170514285Y-100578628D01*
X170514285Y-100578628D02*
X170466666Y-100531009D01*
X170466666Y-100531009D02*
X170371428Y-100483390D01*
X135861905Y-99954819D02*
X135861905Y-98954819D01*
X135861905Y-98954819D02*
X136100000Y-98954819D01*
X136100000Y-98954819D02*
X136242857Y-99002438D01*
X136242857Y-99002438D02*
X136338095Y-99097676D01*
X136338095Y-99097676D02*
X136385714Y-99192914D01*
X136385714Y-99192914D02*
X136433333Y-99383390D01*
X136433333Y-99383390D02*
X136433333Y-99526247D01*
X136433333Y-99526247D02*
X136385714Y-99716723D01*
X136385714Y-99716723D02*
X136338095Y-99811961D01*
X136338095Y-99811961D02*
X136242857Y-99907200D01*
X136242857Y-99907200D02*
X136100000Y-99954819D01*
X136100000Y-99954819D02*
X135861905Y-99954819D01*
X137338095Y-98954819D02*
X136861905Y-98954819D01*
X136861905Y-98954819D02*
X136814286Y-99431009D01*
X136814286Y-99431009D02*
X136861905Y-99383390D01*
X136861905Y-99383390D02*
X136957143Y-99335771D01*
X136957143Y-99335771D02*
X137195238Y-99335771D01*
X137195238Y-99335771D02*
X137290476Y-99383390D01*
X137290476Y-99383390D02*
X137338095Y-99431009D01*
X137338095Y-99431009D02*
X137385714Y-99526247D01*
X137385714Y-99526247D02*
X137385714Y-99764342D01*
X137385714Y-99764342D02*
X137338095Y-99859580D01*
X137338095Y-99859580D02*
X137290476Y-99907200D01*
X137290476Y-99907200D02*
X137195238Y-99954819D01*
X137195238Y-99954819D02*
X136957143Y-99954819D01*
X136957143Y-99954819D02*
X136861905Y-99907200D01*
X136861905Y-99907200D02*
X136814286Y-99859580D01*
X167557142Y-87654819D02*
X167223809Y-87178628D01*
X166985714Y-87654819D02*
X166985714Y-86654819D01*
X166985714Y-86654819D02*
X167366666Y-86654819D01*
X167366666Y-86654819D02*
X167461904Y-86702438D01*
X167461904Y-86702438D02*
X167509523Y-86750057D01*
X167509523Y-86750057D02*
X167557142Y-86845295D01*
X167557142Y-86845295D02*
X167557142Y-86988152D01*
X167557142Y-86988152D02*
X167509523Y-87083390D01*
X167509523Y-87083390D02*
X167461904Y-87131009D01*
X167461904Y-87131009D02*
X167366666Y-87178628D01*
X167366666Y-87178628D02*
X166985714Y-87178628D01*
X168509523Y-87654819D02*
X167938095Y-87654819D01*
X168223809Y-87654819D02*
X168223809Y-86654819D01*
X168223809Y-86654819D02*
X168128571Y-86797676D01*
X168128571Y-86797676D02*
X168033333Y-86892914D01*
X168033333Y-86892914D02*
X167938095Y-86940533D01*
X168842857Y-86654819D02*
X169461904Y-86654819D01*
X169461904Y-86654819D02*
X169128571Y-87035771D01*
X169128571Y-87035771D02*
X169271428Y-87035771D01*
X169271428Y-87035771D02*
X169366666Y-87083390D01*
X169366666Y-87083390D02*
X169414285Y-87131009D01*
X169414285Y-87131009D02*
X169461904Y-87226247D01*
X169461904Y-87226247D02*
X169461904Y-87464342D01*
X169461904Y-87464342D02*
X169414285Y-87559580D01*
X169414285Y-87559580D02*
X169366666Y-87607200D01*
X169366666Y-87607200D02*
X169271428Y-87654819D01*
X169271428Y-87654819D02*
X168985714Y-87654819D01*
X168985714Y-87654819D02*
X168890476Y-87607200D01*
X168890476Y-87607200D02*
X168842857Y-87559580D01*
X164704761Y-117250057D02*
X164609523Y-117202438D01*
X164609523Y-117202438D02*
X164514285Y-117107200D01*
X164514285Y-117107200D02*
X164371428Y-116964342D01*
X164371428Y-116964342D02*
X164276190Y-116916723D01*
X164276190Y-116916723D02*
X164180952Y-116916723D01*
X164228571Y-117154819D02*
X164133333Y-117107200D01*
X164133333Y-117107200D02*
X164038095Y-117011961D01*
X164038095Y-117011961D02*
X163990476Y-116821485D01*
X163990476Y-116821485D02*
X163990476Y-116488152D01*
X163990476Y-116488152D02*
X164038095Y-116297676D01*
X164038095Y-116297676D02*
X164133333Y-116202438D01*
X164133333Y-116202438D02*
X164228571Y-116154819D01*
X164228571Y-116154819D02*
X164419047Y-116154819D01*
X164419047Y-116154819D02*
X164514285Y-116202438D01*
X164514285Y-116202438D02*
X164609523Y-116297676D01*
X164609523Y-116297676D02*
X164657142Y-116488152D01*
X164657142Y-116488152D02*
X164657142Y-116821485D01*
X164657142Y-116821485D02*
X164609523Y-117011961D01*
X164609523Y-117011961D02*
X164514285Y-117107200D01*
X164514285Y-117107200D02*
X164419047Y-117154819D01*
X164419047Y-117154819D02*
X164228571Y-117154819D01*
X165514285Y-116154819D02*
X165323809Y-116154819D01*
X165323809Y-116154819D02*
X165228571Y-116202438D01*
X165228571Y-116202438D02*
X165180952Y-116250057D01*
X165180952Y-116250057D02*
X165085714Y-116392914D01*
X165085714Y-116392914D02*
X165038095Y-116583390D01*
X165038095Y-116583390D02*
X165038095Y-116964342D01*
X165038095Y-116964342D02*
X165085714Y-117059580D01*
X165085714Y-117059580D02*
X165133333Y-117107200D01*
X165133333Y-117107200D02*
X165228571Y-117154819D01*
X165228571Y-117154819D02*
X165419047Y-117154819D01*
X165419047Y-117154819D02*
X165514285Y-117107200D01*
X165514285Y-117107200D02*
X165561904Y-117059580D01*
X165561904Y-117059580D02*
X165609523Y-116964342D01*
X165609523Y-116964342D02*
X165609523Y-116726247D01*
X165609523Y-116726247D02*
X165561904Y-116631009D01*
X165561904Y-116631009D02*
X165514285Y-116583390D01*
X165514285Y-116583390D02*
X165419047Y-116535771D01*
X165419047Y-116535771D02*
X165228571Y-116535771D01*
X165228571Y-116535771D02*
X165133333Y-116583390D01*
X165133333Y-116583390D02*
X165085714Y-116631009D01*
X165085714Y-116631009D02*
X165038095Y-116726247D01*
X162185714Y-98754819D02*
X162185714Y-97754819D01*
X162185714Y-97754819D02*
X162423809Y-97754819D01*
X162423809Y-97754819D02*
X162566666Y-97802438D01*
X162566666Y-97802438D02*
X162661904Y-97897676D01*
X162661904Y-97897676D02*
X162709523Y-97992914D01*
X162709523Y-97992914D02*
X162757142Y-98183390D01*
X162757142Y-98183390D02*
X162757142Y-98326247D01*
X162757142Y-98326247D02*
X162709523Y-98516723D01*
X162709523Y-98516723D02*
X162661904Y-98611961D01*
X162661904Y-98611961D02*
X162566666Y-98707200D01*
X162566666Y-98707200D02*
X162423809Y-98754819D01*
X162423809Y-98754819D02*
X162185714Y-98754819D01*
X163709523Y-98754819D02*
X163138095Y-98754819D01*
X163423809Y-98754819D02*
X163423809Y-97754819D01*
X163423809Y-97754819D02*
X163328571Y-97897676D01*
X163328571Y-97897676D02*
X163233333Y-97992914D01*
X163233333Y-97992914D02*
X163138095Y-98040533D01*
X164661904Y-98754819D02*
X164090476Y-98754819D01*
X164376190Y-98754819D02*
X164376190Y-97754819D01*
X164376190Y-97754819D02*
X164280952Y-97897676D01*
X164280952Y-97897676D02*
X164185714Y-97992914D01*
X164185714Y-97992914D02*
X164090476Y-98040533D01*
X145557142Y-100254819D02*
X145223809Y-99778628D01*
X144985714Y-100254819D02*
X144985714Y-99254819D01*
X144985714Y-99254819D02*
X145366666Y-99254819D01*
X145366666Y-99254819D02*
X145461904Y-99302438D01*
X145461904Y-99302438D02*
X145509523Y-99350057D01*
X145509523Y-99350057D02*
X145557142Y-99445295D01*
X145557142Y-99445295D02*
X145557142Y-99588152D01*
X145557142Y-99588152D02*
X145509523Y-99683390D01*
X145509523Y-99683390D02*
X145461904Y-99731009D01*
X145461904Y-99731009D02*
X145366666Y-99778628D01*
X145366666Y-99778628D02*
X144985714Y-99778628D01*
X145938095Y-99350057D02*
X145985714Y-99302438D01*
X145985714Y-99302438D02*
X146080952Y-99254819D01*
X146080952Y-99254819D02*
X146319047Y-99254819D01*
X146319047Y-99254819D02*
X146414285Y-99302438D01*
X146414285Y-99302438D02*
X146461904Y-99350057D01*
X146461904Y-99350057D02*
X146509523Y-99445295D01*
X146509523Y-99445295D02*
X146509523Y-99540533D01*
X146509523Y-99540533D02*
X146461904Y-99683390D01*
X146461904Y-99683390D02*
X145890476Y-100254819D01*
X145890476Y-100254819D02*
X146509523Y-100254819D01*
X147414285Y-99254819D02*
X146938095Y-99254819D01*
X146938095Y-99254819D02*
X146890476Y-99731009D01*
X146890476Y-99731009D02*
X146938095Y-99683390D01*
X146938095Y-99683390D02*
X147033333Y-99635771D01*
X147033333Y-99635771D02*
X147271428Y-99635771D01*
X147271428Y-99635771D02*
X147366666Y-99683390D01*
X147366666Y-99683390D02*
X147414285Y-99731009D01*
X147414285Y-99731009D02*
X147461904Y-99826247D01*
X147461904Y-99826247D02*
X147461904Y-100064342D01*
X147461904Y-100064342D02*
X147414285Y-100159580D01*
X147414285Y-100159580D02*
X147366666Y-100207200D01*
X147366666Y-100207200D02*
X147271428Y-100254819D01*
X147271428Y-100254819D02*
X147033333Y-100254819D01*
X147033333Y-100254819D02*
X146938095Y-100207200D01*
X146938095Y-100207200D02*
X146890476Y-100159580D01*
X128857142Y-93559580D02*
X128809523Y-93607200D01*
X128809523Y-93607200D02*
X128666666Y-93654819D01*
X128666666Y-93654819D02*
X128571428Y-93654819D01*
X128571428Y-93654819D02*
X128428571Y-93607200D01*
X128428571Y-93607200D02*
X128333333Y-93511961D01*
X128333333Y-93511961D02*
X128285714Y-93416723D01*
X128285714Y-93416723D02*
X128238095Y-93226247D01*
X128238095Y-93226247D02*
X128238095Y-93083390D01*
X128238095Y-93083390D02*
X128285714Y-92892914D01*
X128285714Y-92892914D02*
X128333333Y-92797676D01*
X128333333Y-92797676D02*
X128428571Y-92702438D01*
X128428571Y-92702438D02*
X128571428Y-92654819D01*
X128571428Y-92654819D02*
X128666666Y-92654819D01*
X128666666Y-92654819D02*
X128809523Y-92702438D01*
X128809523Y-92702438D02*
X128857142Y-92750057D01*
X129190476Y-92654819D02*
X129809523Y-92654819D01*
X129809523Y-92654819D02*
X129476190Y-93035771D01*
X129476190Y-93035771D02*
X129619047Y-93035771D01*
X129619047Y-93035771D02*
X129714285Y-93083390D01*
X129714285Y-93083390D02*
X129761904Y-93131009D01*
X129761904Y-93131009D02*
X129809523Y-93226247D01*
X129809523Y-93226247D02*
X129809523Y-93464342D01*
X129809523Y-93464342D02*
X129761904Y-93559580D01*
X129761904Y-93559580D02*
X129714285Y-93607200D01*
X129714285Y-93607200D02*
X129619047Y-93654819D01*
X129619047Y-93654819D02*
X129333333Y-93654819D01*
X129333333Y-93654819D02*
X129238095Y-93607200D01*
X129238095Y-93607200D02*
X129190476Y-93559580D01*
X130666666Y-92654819D02*
X130476190Y-92654819D01*
X130476190Y-92654819D02*
X130380952Y-92702438D01*
X130380952Y-92702438D02*
X130333333Y-92750057D01*
X130333333Y-92750057D02*
X130238095Y-92892914D01*
X130238095Y-92892914D02*
X130190476Y-93083390D01*
X130190476Y-93083390D02*
X130190476Y-93464342D01*
X130190476Y-93464342D02*
X130238095Y-93559580D01*
X130238095Y-93559580D02*
X130285714Y-93607200D01*
X130285714Y-93607200D02*
X130380952Y-93654819D01*
X130380952Y-93654819D02*
X130571428Y-93654819D01*
X130571428Y-93654819D02*
X130666666Y-93607200D01*
X130666666Y-93607200D02*
X130714285Y-93559580D01*
X130714285Y-93559580D02*
X130761904Y-93464342D01*
X130761904Y-93464342D02*
X130761904Y-93226247D01*
X130761904Y-93226247D02*
X130714285Y-93131009D01*
X130714285Y-93131009D02*
X130666666Y-93083390D01*
X130666666Y-93083390D02*
X130571428Y-93035771D01*
X130571428Y-93035771D02*
X130380952Y-93035771D01*
X130380952Y-93035771D02*
X130285714Y-93083390D01*
X130285714Y-93083390D02*
X130238095Y-93131009D01*
X130238095Y-93131009D02*
X130190476Y-93226247D01*
X131457142Y-95959580D02*
X131409523Y-96007200D01*
X131409523Y-96007200D02*
X131266666Y-96054819D01*
X131266666Y-96054819D02*
X131171428Y-96054819D01*
X131171428Y-96054819D02*
X131028571Y-96007200D01*
X131028571Y-96007200D02*
X130933333Y-95911961D01*
X130933333Y-95911961D02*
X130885714Y-95816723D01*
X130885714Y-95816723D02*
X130838095Y-95626247D01*
X130838095Y-95626247D02*
X130838095Y-95483390D01*
X130838095Y-95483390D02*
X130885714Y-95292914D01*
X130885714Y-95292914D02*
X130933333Y-95197676D01*
X130933333Y-95197676D02*
X131028571Y-95102438D01*
X131028571Y-95102438D02*
X131171428Y-95054819D01*
X131171428Y-95054819D02*
X131266666Y-95054819D01*
X131266666Y-95054819D02*
X131409523Y-95102438D01*
X131409523Y-95102438D02*
X131457142Y-95150057D01*
X131838095Y-95150057D02*
X131885714Y-95102438D01*
X131885714Y-95102438D02*
X131980952Y-95054819D01*
X131980952Y-95054819D02*
X132219047Y-95054819D01*
X132219047Y-95054819D02*
X132314285Y-95102438D01*
X132314285Y-95102438D02*
X132361904Y-95150057D01*
X132361904Y-95150057D02*
X132409523Y-95245295D01*
X132409523Y-95245295D02*
X132409523Y-95340533D01*
X132409523Y-95340533D02*
X132361904Y-95483390D01*
X132361904Y-95483390D02*
X131790476Y-96054819D01*
X131790476Y-96054819D02*
X132409523Y-96054819D01*
X133028571Y-95054819D02*
X133123809Y-95054819D01*
X133123809Y-95054819D02*
X133219047Y-95102438D01*
X133219047Y-95102438D02*
X133266666Y-95150057D01*
X133266666Y-95150057D02*
X133314285Y-95245295D01*
X133314285Y-95245295D02*
X133361904Y-95435771D01*
X133361904Y-95435771D02*
X133361904Y-95673866D01*
X133361904Y-95673866D02*
X133314285Y-95864342D01*
X133314285Y-95864342D02*
X133266666Y-95959580D01*
X133266666Y-95959580D02*
X133219047Y-96007200D01*
X133219047Y-96007200D02*
X133123809Y-96054819D01*
X133123809Y-96054819D02*
X133028571Y-96054819D01*
X133028571Y-96054819D02*
X132933333Y-96007200D01*
X132933333Y-96007200D02*
X132885714Y-95959580D01*
X132885714Y-95959580D02*
X132838095Y-95864342D01*
X132838095Y-95864342D02*
X132790476Y-95673866D01*
X132790476Y-95673866D02*
X132790476Y-95435771D01*
X132790476Y-95435771D02*
X132838095Y-95245295D01*
X132838095Y-95245295D02*
X132885714Y-95150057D01*
X132885714Y-95150057D02*
X132933333Y-95102438D01*
X132933333Y-95102438D02*
X133028571Y-95054819D01*
X165083333Y-96754819D02*
X164750000Y-96278628D01*
X164511905Y-96754819D02*
X164511905Y-95754819D01*
X164511905Y-95754819D02*
X164892857Y-95754819D01*
X164892857Y-95754819D02*
X164988095Y-95802438D01*
X164988095Y-95802438D02*
X165035714Y-95850057D01*
X165035714Y-95850057D02*
X165083333Y-95945295D01*
X165083333Y-95945295D02*
X165083333Y-96088152D01*
X165083333Y-96088152D02*
X165035714Y-96183390D01*
X165035714Y-96183390D02*
X164988095Y-96231009D01*
X164988095Y-96231009D02*
X164892857Y-96278628D01*
X164892857Y-96278628D02*
X164511905Y-96278628D01*
X165464286Y-95850057D02*
X165511905Y-95802438D01*
X165511905Y-95802438D02*
X165607143Y-95754819D01*
X165607143Y-95754819D02*
X165845238Y-95754819D01*
X165845238Y-95754819D02*
X165940476Y-95802438D01*
X165940476Y-95802438D02*
X165988095Y-95850057D01*
X165988095Y-95850057D02*
X166035714Y-95945295D01*
X166035714Y-95945295D02*
X166035714Y-96040533D01*
X166035714Y-96040533D02*
X165988095Y-96183390D01*
X165988095Y-96183390D02*
X165416667Y-96754819D01*
X165416667Y-96754819D02*
X166035714Y-96754819D01*
X152957142Y-124354819D02*
X152623809Y-123878628D01*
X152385714Y-124354819D02*
X152385714Y-123354819D01*
X152385714Y-123354819D02*
X152766666Y-123354819D01*
X152766666Y-123354819D02*
X152861904Y-123402438D01*
X152861904Y-123402438D02*
X152909523Y-123450057D01*
X152909523Y-123450057D02*
X152957142Y-123545295D01*
X152957142Y-123545295D02*
X152957142Y-123688152D01*
X152957142Y-123688152D02*
X152909523Y-123783390D01*
X152909523Y-123783390D02*
X152861904Y-123831009D01*
X152861904Y-123831009D02*
X152766666Y-123878628D01*
X152766666Y-123878628D02*
X152385714Y-123878628D01*
X153290476Y-123354819D02*
X153909523Y-123354819D01*
X153909523Y-123354819D02*
X153576190Y-123735771D01*
X153576190Y-123735771D02*
X153719047Y-123735771D01*
X153719047Y-123735771D02*
X153814285Y-123783390D01*
X153814285Y-123783390D02*
X153861904Y-123831009D01*
X153861904Y-123831009D02*
X153909523Y-123926247D01*
X153909523Y-123926247D02*
X153909523Y-124164342D01*
X153909523Y-124164342D02*
X153861904Y-124259580D01*
X153861904Y-124259580D02*
X153814285Y-124307200D01*
X153814285Y-124307200D02*
X153719047Y-124354819D01*
X153719047Y-124354819D02*
X153433333Y-124354819D01*
X153433333Y-124354819D02*
X153338095Y-124307200D01*
X153338095Y-124307200D02*
X153290476Y-124259580D01*
X154814285Y-123354819D02*
X154338095Y-123354819D01*
X154338095Y-123354819D02*
X154290476Y-123831009D01*
X154290476Y-123831009D02*
X154338095Y-123783390D01*
X154338095Y-123783390D02*
X154433333Y-123735771D01*
X154433333Y-123735771D02*
X154671428Y-123735771D01*
X154671428Y-123735771D02*
X154766666Y-123783390D01*
X154766666Y-123783390D02*
X154814285Y-123831009D01*
X154814285Y-123831009D02*
X154861904Y-123926247D01*
X154861904Y-123926247D02*
X154861904Y-124164342D01*
X154861904Y-124164342D02*
X154814285Y-124259580D01*
X154814285Y-124259580D02*
X154766666Y-124307200D01*
X154766666Y-124307200D02*
X154671428Y-124354819D01*
X154671428Y-124354819D02*
X154433333Y-124354819D01*
X154433333Y-124354819D02*
X154338095Y-124307200D01*
X154338095Y-124307200D02*
X154290476Y-124259580D01*
X132361905Y-99954819D02*
X132361905Y-98954819D01*
X132361905Y-98954819D02*
X132600000Y-98954819D01*
X132600000Y-98954819D02*
X132742857Y-99002438D01*
X132742857Y-99002438D02*
X132838095Y-99097676D01*
X132838095Y-99097676D02*
X132885714Y-99192914D01*
X132885714Y-99192914D02*
X132933333Y-99383390D01*
X132933333Y-99383390D02*
X132933333Y-99526247D01*
X132933333Y-99526247D02*
X132885714Y-99716723D01*
X132885714Y-99716723D02*
X132838095Y-99811961D01*
X132838095Y-99811961D02*
X132742857Y-99907200D01*
X132742857Y-99907200D02*
X132600000Y-99954819D01*
X132600000Y-99954819D02*
X132361905Y-99954819D01*
X133790476Y-99288152D02*
X133790476Y-99954819D01*
X133552381Y-98907200D02*
X133314286Y-99621485D01*
X133314286Y-99621485D02*
X133933333Y-99621485D01*
X158857142Y-100054819D02*
X158523809Y-99578628D01*
X158285714Y-100054819D02*
X158285714Y-99054819D01*
X158285714Y-99054819D02*
X158666666Y-99054819D01*
X158666666Y-99054819D02*
X158761904Y-99102438D01*
X158761904Y-99102438D02*
X158809523Y-99150057D01*
X158809523Y-99150057D02*
X158857142Y-99245295D01*
X158857142Y-99245295D02*
X158857142Y-99388152D01*
X158857142Y-99388152D02*
X158809523Y-99483390D01*
X158809523Y-99483390D02*
X158761904Y-99531009D01*
X158761904Y-99531009D02*
X158666666Y-99578628D01*
X158666666Y-99578628D02*
X158285714Y-99578628D01*
X159238095Y-99150057D02*
X159285714Y-99102438D01*
X159285714Y-99102438D02*
X159380952Y-99054819D01*
X159380952Y-99054819D02*
X159619047Y-99054819D01*
X159619047Y-99054819D02*
X159714285Y-99102438D01*
X159714285Y-99102438D02*
X159761904Y-99150057D01*
X159761904Y-99150057D02*
X159809523Y-99245295D01*
X159809523Y-99245295D02*
X159809523Y-99340533D01*
X159809523Y-99340533D02*
X159761904Y-99483390D01*
X159761904Y-99483390D02*
X159190476Y-100054819D01*
X159190476Y-100054819D02*
X159809523Y-100054819D01*
X160142857Y-99054819D02*
X160809523Y-99054819D01*
X160809523Y-99054819D02*
X160380952Y-100054819D01*
X154107142Y-76679580D02*
X154059523Y-76727200D01*
X154059523Y-76727200D02*
X153916666Y-76774819D01*
X153916666Y-76774819D02*
X153821428Y-76774819D01*
X153821428Y-76774819D02*
X153678571Y-76727200D01*
X153678571Y-76727200D02*
X153583333Y-76631961D01*
X153583333Y-76631961D02*
X153535714Y-76536723D01*
X153535714Y-76536723D02*
X153488095Y-76346247D01*
X153488095Y-76346247D02*
X153488095Y-76203390D01*
X153488095Y-76203390D02*
X153535714Y-76012914D01*
X153535714Y-76012914D02*
X153583333Y-75917676D01*
X153583333Y-75917676D02*
X153678571Y-75822438D01*
X153678571Y-75822438D02*
X153821428Y-75774819D01*
X153821428Y-75774819D02*
X153916666Y-75774819D01*
X153916666Y-75774819D02*
X154059523Y-75822438D01*
X154059523Y-75822438D02*
X154107142Y-75870057D01*
X155059523Y-76774819D02*
X154488095Y-76774819D01*
X154773809Y-76774819D02*
X154773809Y-75774819D01*
X154773809Y-75774819D02*
X154678571Y-75917676D01*
X154678571Y-75917676D02*
X154583333Y-76012914D01*
X154583333Y-76012914D02*
X154488095Y-76060533D01*
X155916666Y-76108152D02*
X155916666Y-76774819D01*
X155678571Y-75727200D02*
X155440476Y-76441485D01*
X155440476Y-76441485D02*
X156059523Y-76441485D01*
X138757142Y-97359580D02*
X138709523Y-97407200D01*
X138709523Y-97407200D02*
X138566666Y-97454819D01*
X138566666Y-97454819D02*
X138471428Y-97454819D01*
X138471428Y-97454819D02*
X138328571Y-97407200D01*
X138328571Y-97407200D02*
X138233333Y-97311961D01*
X138233333Y-97311961D02*
X138185714Y-97216723D01*
X138185714Y-97216723D02*
X138138095Y-97026247D01*
X138138095Y-97026247D02*
X138138095Y-96883390D01*
X138138095Y-96883390D02*
X138185714Y-96692914D01*
X138185714Y-96692914D02*
X138233333Y-96597676D01*
X138233333Y-96597676D02*
X138328571Y-96502438D01*
X138328571Y-96502438D02*
X138471428Y-96454819D01*
X138471428Y-96454819D02*
X138566666Y-96454819D01*
X138566666Y-96454819D02*
X138709523Y-96502438D01*
X138709523Y-96502438D02*
X138757142Y-96550057D01*
X139709523Y-97454819D02*
X139138095Y-97454819D01*
X139423809Y-97454819D02*
X139423809Y-96454819D01*
X139423809Y-96454819D02*
X139328571Y-96597676D01*
X139328571Y-96597676D02*
X139233333Y-96692914D01*
X139233333Y-96692914D02*
X139138095Y-96740533D01*
X140185714Y-97454819D02*
X140376190Y-97454819D01*
X140376190Y-97454819D02*
X140471428Y-97407200D01*
X140471428Y-97407200D02*
X140519047Y-97359580D01*
X140519047Y-97359580D02*
X140614285Y-97216723D01*
X140614285Y-97216723D02*
X140661904Y-97026247D01*
X140661904Y-97026247D02*
X140661904Y-96645295D01*
X140661904Y-96645295D02*
X140614285Y-96550057D01*
X140614285Y-96550057D02*
X140566666Y-96502438D01*
X140566666Y-96502438D02*
X140471428Y-96454819D01*
X140471428Y-96454819D02*
X140280952Y-96454819D01*
X140280952Y-96454819D02*
X140185714Y-96502438D01*
X140185714Y-96502438D02*
X140138095Y-96550057D01*
X140138095Y-96550057D02*
X140090476Y-96645295D01*
X140090476Y-96645295D02*
X140090476Y-96883390D01*
X140090476Y-96883390D02*
X140138095Y-96978628D01*
X140138095Y-96978628D02*
X140185714Y-97026247D01*
X140185714Y-97026247D02*
X140280952Y-97073866D01*
X140280952Y-97073866D02*
X140471428Y-97073866D01*
X140471428Y-97073866D02*
X140566666Y-97026247D01*
X140566666Y-97026247D02*
X140614285Y-96978628D01*
X140614285Y-96978628D02*
X140661904Y-96883390D01*
X150061905Y-124354819D02*
X150061905Y-123354819D01*
X150061905Y-123354819D02*
X150300000Y-123354819D01*
X150300000Y-123354819D02*
X150442857Y-123402438D01*
X150442857Y-123402438D02*
X150538095Y-123497676D01*
X150538095Y-123497676D02*
X150585714Y-123592914D01*
X150585714Y-123592914D02*
X150633333Y-123783390D01*
X150633333Y-123783390D02*
X150633333Y-123926247D01*
X150633333Y-123926247D02*
X150585714Y-124116723D01*
X150585714Y-124116723D02*
X150538095Y-124211961D01*
X150538095Y-124211961D02*
X150442857Y-124307200D01*
X150442857Y-124307200D02*
X150300000Y-124354819D01*
X150300000Y-124354819D02*
X150061905Y-124354819D01*
X151585714Y-124354819D02*
X151014286Y-124354819D01*
X151300000Y-124354819D02*
X151300000Y-123354819D01*
X151300000Y-123354819D02*
X151204762Y-123497676D01*
X151204762Y-123497676D02*
X151109524Y-123592914D01*
X151109524Y-123592914D02*
X151014286Y-123640533D01*
X170103501Y-86354819D02*
X169770168Y-85878628D01*
X169532073Y-86354819D02*
X169532073Y-85354819D01*
X169532073Y-85354819D02*
X169913025Y-85354819D01*
X169913025Y-85354819D02*
X170008263Y-85402438D01*
X170008263Y-85402438D02*
X170055882Y-85450057D01*
X170055882Y-85450057D02*
X170103501Y-85545295D01*
X170103501Y-85545295D02*
X170103501Y-85688152D01*
X170103501Y-85688152D02*
X170055882Y-85783390D01*
X170055882Y-85783390D02*
X170008263Y-85831009D01*
X170008263Y-85831009D02*
X169913025Y-85878628D01*
X169913025Y-85878628D02*
X169532073Y-85878628D01*
X171055882Y-86354819D02*
X170484454Y-86354819D01*
X170770168Y-86354819D02*
X170770168Y-85354819D01*
X170770168Y-85354819D02*
X170674930Y-85497676D01*
X170674930Y-85497676D02*
X170579692Y-85592914D01*
X170579692Y-85592914D02*
X170484454Y-85640533D01*
X171913025Y-85688152D02*
X171913025Y-86354819D01*
X171674930Y-85307200D02*
X171436835Y-86021485D01*
X171436835Y-86021485D02*
X172055882Y-86021485D01*
X138257142Y-99954819D02*
X137923809Y-99478628D01*
X137685714Y-99954819D02*
X137685714Y-98954819D01*
X137685714Y-98954819D02*
X138066666Y-98954819D01*
X138066666Y-98954819D02*
X138161904Y-99002438D01*
X138161904Y-99002438D02*
X138209523Y-99050057D01*
X138209523Y-99050057D02*
X138257142Y-99145295D01*
X138257142Y-99145295D02*
X138257142Y-99288152D01*
X138257142Y-99288152D02*
X138209523Y-99383390D01*
X138209523Y-99383390D02*
X138161904Y-99431009D01*
X138161904Y-99431009D02*
X138066666Y-99478628D01*
X138066666Y-99478628D02*
X137685714Y-99478628D01*
X138638095Y-99050057D02*
X138685714Y-99002438D01*
X138685714Y-99002438D02*
X138780952Y-98954819D01*
X138780952Y-98954819D02*
X139019047Y-98954819D01*
X139019047Y-98954819D02*
X139114285Y-99002438D01*
X139114285Y-99002438D02*
X139161904Y-99050057D01*
X139161904Y-99050057D02*
X139209523Y-99145295D01*
X139209523Y-99145295D02*
X139209523Y-99240533D01*
X139209523Y-99240533D02*
X139161904Y-99383390D01*
X139161904Y-99383390D02*
X138590476Y-99954819D01*
X138590476Y-99954819D02*
X139209523Y-99954819D01*
X139590476Y-99050057D02*
X139638095Y-99002438D01*
X139638095Y-99002438D02*
X139733333Y-98954819D01*
X139733333Y-98954819D02*
X139971428Y-98954819D01*
X139971428Y-98954819D02*
X140066666Y-99002438D01*
X140066666Y-99002438D02*
X140114285Y-99050057D01*
X140114285Y-99050057D02*
X140161904Y-99145295D01*
X140161904Y-99145295D02*
X140161904Y-99240533D01*
X140161904Y-99240533D02*
X140114285Y-99383390D01*
X140114285Y-99383390D02*
X139542857Y-99954819D01*
X139542857Y-99954819D02*
X140161904Y-99954819D01*
X159957142Y-98754819D02*
X159623809Y-98278628D01*
X159385714Y-98754819D02*
X159385714Y-97754819D01*
X159385714Y-97754819D02*
X159766666Y-97754819D01*
X159766666Y-97754819D02*
X159861904Y-97802438D01*
X159861904Y-97802438D02*
X159909523Y-97850057D01*
X159909523Y-97850057D02*
X159957142Y-97945295D01*
X159957142Y-97945295D02*
X159957142Y-98088152D01*
X159957142Y-98088152D02*
X159909523Y-98183390D01*
X159909523Y-98183390D02*
X159861904Y-98231009D01*
X159861904Y-98231009D02*
X159766666Y-98278628D01*
X159766666Y-98278628D02*
X159385714Y-98278628D01*
X160338095Y-97850057D02*
X160385714Y-97802438D01*
X160385714Y-97802438D02*
X160480952Y-97754819D01*
X160480952Y-97754819D02*
X160719047Y-97754819D01*
X160719047Y-97754819D02*
X160814285Y-97802438D01*
X160814285Y-97802438D02*
X160861904Y-97850057D01*
X160861904Y-97850057D02*
X160909523Y-97945295D01*
X160909523Y-97945295D02*
X160909523Y-98040533D01*
X160909523Y-98040533D02*
X160861904Y-98183390D01*
X160861904Y-98183390D02*
X160290476Y-98754819D01*
X160290476Y-98754819D02*
X160909523Y-98754819D01*
X161480952Y-98183390D02*
X161385714Y-98135771D01*
X161385714Y-98135771D02*
X161338095Y-98088152D01*
X161338095Y-98088152D02*
X161290476Y-97992914D01*
X161290476Y-97992914D02*
X161290476Y-97945295D01*
X161290476Y-97945295D02*
X161338095Y-97850057D01*
X161338095Y-97850057D02*
X161385714Y-97802438D01*
X161385714Y-97802438D02*
X161480952Y-97754819D01*
X161480952Y-97754819D02*
X161671428Y-97754819D01*
X161671428Y-97754819D02*
X161766666Y-97802438D01*
X161766666Y-97802438D02*
X161814285Y-97850057D01*
X161814285Y-97850057D02*
X161861904Y-97945295D01*
X161861904Y-97945295D02*
X161861904Y-97992914D01*
X161861904Y-97992914D02*
X161814285Y-98088152D01*
X161814285Y-98088152D02*
X161766666Y-98135771D01*
X161766666Y-98135771D02*
X161671428Y-98183390D01*
X161671428Y-98183390D02*
X161480952Y-98183390D01*
X161480952Y-98183390D02*
X161385714Y-98231009D01*
X161385714Y-98231009D02*
X161338095Y-98278628D01*
X161338095Y-98278628D02*
X161290476Y-98373866D01*
X161290476Y-98373866D02*
X161290476Y-98564342D01*
X161290476Y-98564342D02*
X161338095Y-98659580D01*
X161338095Y-98659580D02*
X161385714Y-98707200D01*
X161385714Y-98707200D02*
X161480952Y-98754819D01*
X161480952Y-98754819D02*
X161671428Y-98754819D01*
X161671428Y-98754819D02*
X161766666Y-98707200D01*
X161766666Y-98707200D02*
X161814285Y-98659580D01*
X161814285Y-98659580D02*
X161861904Y-98564342D01*
X161861904Y-98564342D02*
X161861904Y-98373866D01*
X161861904Y-98373866D02*
X161814285Y-98278628D01*
X161814285Y-98278628D02*
X161766666Y-98231009D01*
X161766666Y-98231009D02*
X161671428Y-98183390D01*
X132057142Y-125259580D02*
X132009523Y-125307200D01*
X132009523Y-125307200D02*
X131866666Y-125354819D01*
X131866666Y-125354819D02*
X131771428Y-125354819D01*
X131771428Y-125354819D02*
X131628571Y-125307200D01*
X131628571Y-125307200D02*
X131533333Y-125211961D01*
X131533333Y-125211961D02*
X131485714Y-125116723D01*
X131485714Y-125116723D02*
X131438095Y-124926247D01*
X131438095Y-124926247D02*
X131438095Y-124783390D01*
X131438095Y-124783390D02*
X131485714Y-124592914D01*
X131485714Y-124592914D02*
X131533333Y-124497676D01*
X131533333Y-124497676D02*
X131628571Y-124402438D01*
X131628571Y-124402438D02*
X131771428Y-124354819D01*
X131771428Y-124354819D02*
X131866666Y-124354819D01*
X131866666Y-124354819D02*
X132009523Y-124402438D01*
X132009523Y-124402438D02*
X132057142Y-124450057D01*
X132390476Y-124354819D02*
X133009523Y-124354819D01*
X133009523Y-124354819D02*
X132676190Y-124735771D01*
X132676190Y-124735771D02*
X132819047Y-124735771D01*
X132819047Y-124735771D02*
X132914285Y-124783390D01*
X132914285Y-124783390D02*
X132961904Y-124831009D01*
X132961904Y-124831009D02*
X133009523Y-124926247D01*
X133009523Y-124926247D02*
X133009523Y-125164342D01*
X133009523Y-125164342D02*
X132961904Y-125259580D01*
X132961904Y-125259580D02*
X132914285Y-125307200D01*
X132914285Y-125307200D02*
X132819047Y-125354819D01*
X132819047Y-125354819D02*
X132533333Y-125354819D01*
X132533333Y-125354819D02*
X132438095Y-125307200D01*
X132438095Y-125307200D02*
X132390476Y-125259580D01*
X133628571Y-124354819D02*
X133723809Y-124354819D01*
X133723809Y-124354819D02*
X133819047Y-124402438D01*
X133819047Y-124402438D02*
X133866666Y-124450057D01*
X133866666Y-124450057D02*
X133914285Y-124545295D01*
X133914285Y-124545295D02*
X133961904Y-124735771D01*
X133961904Y-124735771D02*
X133961904Y-124973866D01*
X133961904Y-124973866D02*
X133914285Y-125164342D01*
X133914285Y-125164342D02*
X133866666Y-125259580D01*
X133866666Y-125259580D02*
X133819047Y-125307200D01*
X133819047Y-125307200D02*
X133723809Y-125354819D01*
X133723809Y-125354819D02*
X133628571Y-125354819D01*
X133628571Y-125354819D02*
X133533333Y-125307200D01*
X133533333Y-125307200D02*
X133485714Y-125259580D01*
X133485714Y-125259580D02*
X133438095Y-125164342D01*
X133438095Y-125164342D02*
X133390476Y-124973866D01*
X133390476Y-124973866D02*
X133390476Y-124735771D01*
X133390476Y-124735771D02*
X133438095Y-124545295D01*
X133438095Y-124545295D02*
X133485714Y-124450057D01*
X133485714Y-124450057D02*
X133533333Y-124402438D01*
X133533333Y-124402438D02*
X133628571Y-124354819D01*
X159733333Y-95359580D02*
X159685714Y-95407200D01*
X159685714Y-95407200D02*
X159542857Y-95454819D01*
X159542857Y-95454819D02*
X159447619Y-95454819D01*
X159447619Y-95454819D02*
X159304762Y-95407200D01*
X159304762Y-95407200D02*
X159209524Y-95311961D01*
X159209524Y-95311961D02*
X159161905Y-95216723D01*
X159161905Y-95216723D02*
X159114286Y-95026247D01*
X159114286Y-95026247D02*
X159114286Y-94883390D01*
X159114286Y-94883390D02*
X159161905Y-94692914D01*
X159161905Y-94692914D02*
X159209524Y-94597676D01*
X159209524Y-94597676D02*
X159304762Y-94502438D01*
X159304762Y-94502438D02*
X159447619Y-94454819D01*
X159447619Y-94454819D02*
X159542857Y-94454819D01*
X159542857Y-94454819D02*
X159685714Y-94502438D01*
X159685714Y-94502438D02*
X159733333Y-94550057D01*
X160209524Y-95454819D02*
X160400000Y-95454819D01*
X160400000Y-95454819D02*
X160495238Y-95407200D01*
X160495238Y-95407200D02*
X160542857Y-95359580D01*
X160542857Y-95359580D02*
X160638095Y-95216723D01*
X160638095Y-95216723D02*
X160685714Y-95026247D01*
X160685714Y-95026247D02*
X160685714Y-94645295D01*
X160685714Y-94645295D02*
X160638095Y-94550057D01*
X160638095Y-94550057D02*
X160590476Y-94502438D01*
X160590476Y-94502438D02*
X160495238Y-94454819D01*
X160495238Y-94454819D02*
X160304762Y-94454819D01*
X160304762Y-94454819D02*
X160209524Y-94502438D01*
X160209524Y-94502438D02*
X160161905Y-94550057D01*
X160161905Y-94550057D02*
X160114286Y-94645295D01*
X160114286Y-94645295D02*
X160114286Y-94883390D01*
X160114286Y-94883390D02*
X160161905Y-94978628D01*
X160161905Y-94978628D02*
X160209524Y-95026247D01*
X160209524Y-95026247D02*
X160304762Y-95073866D01*
X160304762Y-95073866D02*
X160495238Y-95073866D01*
X160495238Y-95073866D02*
X160590476Y-95026247D01*
X160590476Y-95026247D02*
X160638095Y-94978628D01*
X160638095Y-94978628D02*
X160685714Y-94883390D01*
X151257142Y-99854819D02*
X150923809Y-99378628D01*
X150685714Y-99854819D02*
X150685714Y-98854819D01*
X150685714Y-98854819D02*
X151066666Y-98854819D01*
X151066666Y-98854819D02*
X151161904Y-98902438D01*
X151161904Y-98902438D02*
X151209523Y-98950057D01*
X151209523Y-98950057D02*
X151257142Y-99045295D01*
X151257142Y-99045295D02*
X151257142Y-99188152D01*
X151257142Y-99188152D02*
X151209523Y-99283390D01*
X151209523Y-99283390D02*
X151161904Y-99331009D01*
X151161904Y-99331009D02*
X151066666Y-99378628D01*
X151066666Y-99378628D02*
X150685714Y-99378628D01*
X151638095Y-98950057D02*
X151685714Y-98902438D01*
X151685714Y-98902438D02*
X151780952Y-98854819D01*
X151780952Y-98854819D02*
X152019047Y-98854819D01*
X152019047Y-98854819D02*
X152114285Y-98902438D01*
X152114285Y-98902438D02*
X152161904Y-98950057D01*
X152161904Y-98950057D02*
X152209523Y-99045295D01*
X152209523Y-99045295D02*
X152209523Y-99140533D01*
X152209523Y-99140533D02*
X152161904Y-99283390D01*
X152161904Y-99283390D02*
X151590476Y-99854819D01*
X151590476Y-99854819D02*
X152209523Y-99854819D01*
X153066666Y-99188152D02*
X153066666Y-99854819D01*
X152828571Y-98807200D02*
X152590476Y-99521485D01*
X152590476Y-99521485D02*
X153209523Y-99521485D01*
X131957142Y-98554819D02*
X131623809Y-98078628D01*
X131385714Y-98554819D02*
X131385714Y-97554819D01*
X131385714Y-97554819D02*
X131766666Y-97554819D01*
X131766666Y-97554819D02*
X131861904Y-97602438D01*
X131861904Y-97602438D02*
X131909523Y-97650057D01*
X131909523Y-97650057D02*
X131957142Y-97745295D01*
X131957142Y-97745295D02*
X131957142Y-97888152D01*
X131957142Y-97888152D02*
X131909523Y-97983390D01*
X131909523Y-97983390D02*
X131861904Y-98031009D01*
X131861904Y-98031009D02*
X131766666Y-98078628D01*
X131766666Y-98078628D02*
X131385714Y-98078628D01*
X132338095Y-97650057D02*
X132385714Y-97602438D01*
X132385714Y-97602438D02*
X132480952Y-97554819D01*
X132480952Y-97554819D02*
X132719047Y-97554819D01*
X132719047Y-97554819D02*
X132814285Y-97602438D01*
X132814285Y-97602438D02*
X132861904Y-97650057D01*
X132861904Y-97650057D02*
X132909523Y-97745295D01*
X132909523Y-97745295D02*
X132909523Y-97840533D01*
X132909523Y-97840533D02*
X132861904Y-97983390D01*
X132861904Y-97983390D02*
X132290476Y-98554819D01*
X132290476Y-98554819D02*
X132909523Y-98554819D01*
X133861904Y-98554819D02*
X133290476Y-98554819D01*
X133576190Y-98554819D02*
X133576190Y-97554819D01*
X133576190Y-97554819D02*
X133480952Y-97697676D01*
X133480952Y-97697676D02*
X133385714Y-97792914D01*
X133385714Y-97792914D02*
X133290476Y-97840533D01*
X134061905Y-99954819D02*
X134061905Y-98954819D01*
X134061905Y-98954819D02*
X134300000Y-98954819D01*
X134300000Y-98954819D02*
X134442857Y-99002438D01*
X134442857Y-99002438D02*
X134538095Y-99097676D01*
X134538095Y-99097676D02*
X134585714Y-99192914D01*
X134585714Y-99192914D02*
X134633333Y-99383390D01*
X134633333Y-99383390D02*
X134633333Y-99526247D01*
X134633333Y-99526247D02*
X134585714Y-99716723D01*
X134585714Y-99716723D02*
X134538095Y-99811961D01*
X134538095Y-99811961D02*
X134442857Y-99907200D01*
X134442857Y-99907200D02*
X134300000Y-99954819D01*
X134300000Y-99954819D02*
X134061905Y-99954819D01*
X135490476Y-98954819D02*
X135300000Y-98954819D01*
X135300000Y-98954819D02*
X135204762Y-99002438D01*
X135204762Y-99002438D02*
X135157143Y-99050057D01*
X135157143Y-99050057D02*
X135061905Y-99192914D01*
X135061905Y-99192914D02*
X135014286Y-99383390D01*
X135014286Y-99383390D02*
X135014286Y-99764342D01*
X135014286Y-99764342D02*
X135061905Y-99859580D01*
X135061905Y-99859580D02*
X135109524Y-99907200D01*
X135109524Y-99907200D02*
X135204762Y-99954819D01*
X135204762Y-99954819D02*
X135395238Y-99954819D01*
X135395238Y-99954819D02*
X135490476Y-99907200D01*
X135490476Y-99907200D02*
X135538095Y-99859580D01*
X135538095Y-99859580D02*
X135585714Y-99764342D01*
X135585714Y-99764342D02*
X135585714Y-99526247D01*
X135585714Y-99526247D02*
X135538095Y-99431009D01*
X135538095Y-99431009D02*
X135490476Y-99383390D01*
X135490476Y-99383390D02*
X135395238Y-99335771D01*
X135395238Y-99335771D02*
X135204762Y-99335771D01*
X135204762Y-99335771D02*
X135109524Y-99383390D01*
X135109524Y-99383390D02*
X135061905Y-99431009D01*
X135061905Y-99431009D02*
X135014286Y-99526247D01*
X152457142Y-97454819D02*
X152123809Y-96978628D01*
X151885714Y-97454819D02*
X151885714Y-96454819D01*
X151885714Y-96454819D02*
X152266666Y-96454819D01*
X152266666Y-96454819D02*
X152361904Y-96502438D01*
X152361904Y-96502438D02*
X152409523Y-96550057D01*
X152409523Y-96550057D02*
X152457142Y-96645295D01*
X152457142Y-96645295D02*
X152457142Y-96788152D01*
X152457142Y-96788152D02*
X152409523Y-96883390D01*
X152409523Y-96883390D02*
X152361904Y-96931009D01*
X152361904Y-96931009D02*
X152266666Y-96978628D01*
X152266666Y-96978628D02*
X151885714Y-96978628D01*
X153409523Y-97454819D02*
X152838095Y-97454819D01*
X153123809Y-97454819D02*
X153123809Y-96454819D01*
X153123809Y-96454819D02*
X153028571Y-96597676D01*
X153028571Y-96597676D02*
X152933333Y-96692914D01*
X152933333Y-96692914D02*
X152838095Y-96740533D01*
X153790476Y-96550057D02*
X153838095Y-96502438D01*
X153838095Y-96502438D02*
X153933333Y-96454819D01*
X153933333Y-96454819D02*
X154171428Y-96454819D01*
X154171428Y-96454819D02*
X154266666Y-96502438D01*
X154266666Y-96502438D02*
X154314285Y-96550057D01*
X154314285Y-96550057D02*
X154361904Y-96645295D01*
X154361904Y-96645295D02*
X154361904Y-96740533D01*
X154361904Y-96740533D02*
X154314285Y-96883390D01*
X154314285Y-96883390D02*
X153742857Y-97454819D01*
X153742857Y-97454819D02*
X154361904Y-97454819D01*
X143957142Y-82254819D02*
X143623809Y-81778628D01*
X143385714Y-82254819D02*
X143385714Y-81254819D01*
X143385714Y-81254819D02*
X143766666Y-81254819D01*
X143766666Y-81254819D02*
X143861904Y-81302438D01*
X143861904Y-81302438D02*
X143909523Y-81350057D01*
X143909523Y-81350057D02*
X143957142Y-81445295D01*
X143957142Y-81445295D02*
X143957142Y-81588152D01*
X143957142Y-81588152D02*
X143909523Y-81683390D01*
X143909523Y-81683390D02*
X143861904Y-81731009D01*
X143861904Y-81731009D02*
X143766666Y-81778628D01*
X143766666Y-81778628D02*
X143385714Y-81778628D01*
X144909523Y-82254819D02*
X144338095Y-82254819D01*
X144623809Y-82254819D02*
X144623809Y-81254819D01*
X144623809Y-81254819D02*
X144528571Y-81397676D01*
X144528571Y-81397676D02*
X144433333Y-81492914D01*
X144433333Y-81492914D02*
X144338095Y-81540533D01*
X145766666Y-81254819D02*
X145576190Y-81254819D01*
X145576190Y-81254819D02*
X145480952Y-81302438D01*
X145480952Y-81302438D02*
X145433333Y-81350057D01*
X145433333Y-81350057D02*
X145338095Y-81492914D01*
X145338095Y-81492914D02*
X145290476Y-81683390D01*
X145290476Y-81683390D02*
X145290476Y-82064342D01*
X145290476Y-82064342D02*
X145338095Y-82159580D01*
X145338095Y-82159580D02*
X145385714Y-82207200D01*
X145385714Y-82207200D02*
X145480952Y-82254819D01*
X145480952Y-82254819D02*
X145671428Y-82254819D01*
X145671428Y-82254819D02*
X145766666Y-82207200D01*
X145766666Y-82207200D02*
X145814285Y-82159580D01*
X145814285Y-82159580D02*
X145861904Y-82064342D01*
X145861904Y-82064342D02*
X145861904Y-81826247D01*
X145861904Y-81826247D02*
X145814285Y-81731009D01*
X145814285Y-81731009D02*
X145766666Y-81683390D01*
X145766666Y-81683390D02*
X145671428Y-81635771D01*
X145671428Y-81635771D02*
X145480952Y-81635771D01*
X145480952Y-81635771D02*
X145385714Y-81683390D01*
X145385714Y-81683390D02*
X145338095Y-81731009D01*
X145338095Y-81731009D02*
X145290476Y-81826247D01*
X148433333Y-90359580D02*
X148385714Y-90407200D01*
X148385714Y-90407200D02*
X148242857Y-90454819D01*
X148242857Y-90454819D02*
X148147619Y-90454819D01*
X148147619Y-90454819D02*
X148004762Y-90407200D01*
X148004762Y-90407200D02*
X147909524Y-90311961D01*
X147909524Y-90311961D02*
X147861905Y-90216723D01*
X147861905Y-90216723D02*
X147814286Y-90026247D01*
X147814286Y-90026247D02*
X147814286Y-89883390D01*
X147814286Y-89883390D02*
X147861905Y-89692914D01*
X147861905Y-89692914D02*
X147909524Y-89597676D01*
X147909524Y-89597676D02*
X148004762Y-89502438D01*
X148004762Y-89502438D02*
X148147619Y-89454819D01*
X148147619Y-89454819D02*
X148242857Y-89454819D01*
X148242857Y-89454819D02*
X148385714Y-89502438D01*
X148385714Y-89502438D02*
X148433333Y-89550057D01*
X149004762Y-89883390D02*
X148909524Y-89835771D01*
X148909524Y-89835771D02*
X148861905Y-89788152D01*
X148861905Y-89788152D02*
X148814286Y-89692914D01*
X148814286Y-89692914D02*
X148814286Y-89645295D01*
X148814286Y-89645295D02*
X148861905Y-89550057D01*
X148861905Y-89550057D02*
X148909524Y-89502438D01*
X148909524Y-89502438D02*
X149004762Y-89454819D01*
X149004762Y-89454819D02*
X149195238Y-89454819D01*
X149195238Y-89454819D02*
X149290476Y-89502438D01*
X149290476Y-89502438D02*
X149338095Y-89550057D01*
X149338095Y-89550057D02*
X149385714Y-89645295D01*
X149385714Y-89645295D02*
X149385714Y-89692914D01*
X149385714Y-89692914D02*
X149338095Y-89788152D01*
X149338095Y-89788152D02*
X149290476Y-89835771D01*
X149290476Y-89835771D02*
X149195238Y-89883390D01*
X149195238Y-89883390D02*
X149004762Y-89883390D01*
X149004762Y-89883390D02*
X148909524Y-89931009D01*
X148909524Y-89931009D02*
X148861905Y-89978628D01*
X148861905Y-89978628D02*
X148814286Y-90073866D01*
X148814286Y-90073866D02*
X148814286Y-90264342D01*
X148814286Y-90264342D02*
X148861905Y-90359580D01*
X148861905Y-90359580D02*
X148909524Y-90407200D01*
X148909524Y-90407200D02*
X149004762Y-90454819D01*
X149004762Y-90454819D02*
X149195238Y-90454819D01*
X149195238Y-90454819D02*
X149290476Y-90407200D01*
X149290476Y-90407200D02*
X149338095Y-90359580D01*
X149338095Y-90359580D02*
X149385714Y-90264342D01*
X149385714Y-90264342D02*
X149385714Y-90073866D01*
X149385714Y-90073866D02*
X149338095Y-89978628D01*
X149338095Y-89978628D02*
X149290476Y-89931009D01*
X149290476Y-89931009D02*
X149195238Y-89883390D01*
X149157142Y-84784819D02*
X148823809Y-84308628D01*
X148585714Y-84784819D02*
X148585714Y-83784819D01*
X148585714Y-83784819D02*
X148966666Y-83784819D01*
X148966666Y-83784819D02*
X149061904Y-83832438D01*
X149061904Y-83832438D02*
X149109523Y-83880057D01*
X149109523Y-83880057D02*
X149157142Y-83975295D01*
X149157142Y-83975295D02*
X149157142Y-84118152D01*
X149157142Y-84118152D02*
X149109523Y-84213390D01*
X149109523Y-84213390D02*
X149061904Y-84261009D01*
X149061904Y-84261009D02*
X148966666Y-84308628D01*
X148966666Y-84308628D02*
X148585714Y-84308628D01*
X150109523Y-84784819D02*
X149538095Y-84784819D01*
X149823809Y-84784819D02*
X149823809Y-83784819D01*
X149823809Y-83784819D02*
X149728571Y-83927676D01*
X149728571Y-83927676D02*
X149633333Y-84022914D01*
X149633333Y-84022914D02*
X149538095Y-84070533D01*
X150442857Y-83784819D02*
X151109523Y-83784819D01*
X151109523Y-83784819D02*
X150680952Y-84784819D01*
X128938095Y-89954819D02*
X128938095Y-90764342D01*
X128938095Y-90764342D02*
X128985714Y-90859580D01*
X128985714Y-90859580D02*
X129033333Y-90907200D01*
X129033333Y-90907200D02*
X129128571Y-90954819D01*
X129128571Y-90954819D02*
X129319047Y-90954819D01*
X129319047Y-90954819D02*
X129414285Y-90907200D01*
X129414285Y-90907200D02*
X129461904Y-90859580D01*
X129461904Y-90859580D02*
X129509523Y-90764342D01*
X129509523Y-90764342D02*
X129509523Y-89954819D01*
X130461904Y-89954819D02*
X129985714Y-89954819D01*
X129985714Y-89954819D02*
X129938095Y-90431009D01*
X129938095Y-90431009D02*
X129985714Y-90383390D01*
X129985714Y-90383390D02*
X130080952Y-90335771D01*
X130080952Y-90335771D02*
X130319047Y-90335771D01*
X130319047Y-90335771D02*
X130414285Y-90383390D01*
X130414285Y-90383390D02*
X130461904Y-90431009D01*
X130461904Y-90431009D02*
X130509523Y-90526247D01*
X130509523Y-90526247D02*
X130509523Y-90764342D01*
X130509523Y-90764342D02*
X130461904Y-90859580D01*
X130461904Y-90859580D02*
X130414285Y-90907200D01*
X130414285Y-90907200D02*
X130319047Y-90954819D01*
X130319047Y-90954819D02*
X130080952Y-90954819D01*
X130080952Y-90954819D02*
X129985714Y-90907200D01*
X129985714Y-90907200D02*
X129938095Y-90859580D01*
X149233333Y-76959580D02*
X149185714Y-77007200D01*
X149185714Y-77007200D02*
X149042857Y-77054819D01*
X149042857Y-77054819D02*
X148947619Y-77054819D01*
X148947619Y-77054819D02*
X148804762Y-77007200D01*
X148804762Y-77007200D02*
X148709524Y-76911961D01*
X148709524Y-76911961D02*
X148661905Y-76816723D01*
X148661905Y-76816723D02*
X148614286Y-76626247D01*
X148614286Y-76626247D02*
X148614286Y-76483390D01*
X148614286Y-76483390D02*
X148661905Y-76292914D01*
X148661905Y-76292914D02*
X148709524Y-76197676D01*
X148709524Y-76197676D02*
X148804762Y-76102438D01*
X148804762Y-76102438D02*
X148947619Y-76054819D01*
X148947619Y-76054819D02*
X149042857Y-76054819D01*
X149042857Y-76054819D02*
X149185714Y-76102438D01*
X149185714Y-76102438D02*
X149233333Y-76150057D01*
X149566667Y-76054819D02*
X150233333Y-76054819D01*
X150233333Y-76054819D02*
X149804762Y-77054819D01*
X131457142Y-94659580D02*
X131409523Y-94707200D01*
X131409523Y-94707200D02*
X131266666Y-94754819D01*
X131266666Y-94754819D02*
X131171428Y-94754819D01*
X131171428Y-94754819D02*
X131028571Y-94707200D01*
X131028571Y-94707200D02*
X130933333Y-94611961D01*
X130933333Y-94611961D02*
X130885714Y-94516723D01*
X130885714Y-94516723D02*
X130838095Y-94326247D01*
X130838095Y-94326247D02*
X130838095Y-94183390D01*
X130838095Y-94183390D02*
X130885714Y-93992914D01*
X130885714Y-93992914D02*
X130933333Y-93897676D01*
X130933333Y-93897676D02*
X131028571Y-93802438D01*
X131028571Y-93802438D02*
X131171428Y-93754819D01*
X131171428Y-93754819D02*
X131266666Y-93754819D01*
X131266666Y-93754819D02*
X131409523Y-93802438D01*
X131409523Y-93802438D02*
X131457142Y-93850057D01*
X132409523Y-94754819D02*
X131838095Y-94754819D01*
X132123809Y-94754819D02*
X132123809Y-93754819D01*
X132123809Y-93754819D02*
X132028571Y-93897676D01*
X132028571Y-93897676D02*
X131933333Y-93992914D01*
X131933333Y-93992914D02*
X131838095Y-94040533D01*
X133266666Y-93754819D02*
X133076190Y-93754819D01*
X133076190Y-93754819D02*
X132980952Y-93802438D01*
X132980952Y-93802438D02*
X132933333Y-93850057D01*
X132933333Y-93850057D02*
X132838095Y-93992914D01*
X132838095Y-93992914D02*
X132790476Y-94183390D01*
X132790476Y-94183390D02*
X132790476Y-94564342D01*
X132790476Y-94564342D02*
X132838095Y-94659580D01*
X132838095Y-94659580D02*
X132885714Y-94707200D01*
X132885714Y-94707200D02*
X132980952Y-94754819D01*
X132980952Y-94754819D02*
X133171428Y-94754819D01*
X133171428Y-94754819D02*
X133266666Y-94707200D01*
X133266666Y-94707200D02*
X133314285Y-94659580D01*
X133314285Y-94659580D02*
X133361904Y-94564342D01*
X133361904Y-94564342D02*
X133361904Y-94326247D01*
X133361904Y-94326247D02*
X133314285Y-94231009D01*
X133314285Y-94231009D02*
X133266666Y-94183390D01*
X133266666Y-94183390D02*
X133171428Y-94135771D01*
X133171428Y-94135771D02*
X132980952Y-94135771D01*
X132980952Y-94135771D02*
X132885714Y-94183390D01*
X132885714Y-94183390D02*
X132838095Y-94231009D01*
X132838095Y-94231009D02*
X132790476Y-94326247D01*
X143461905Y-99054819D02*
X143461905Y-98054819D01*
X143461905Y-98054819D02*
X143700000Y-98054819D01*
X143700000Y-98054819D02*
X143842857Y-98102438D01*
X143842857Y-98102438D02*
X143938095Y-98197676D01*
X143938095Y-98197676D02*
X143985714Y-98292914D01*
X143985714Y-98292914D02*
X144033333Y-98483390D01*
X144033333Y-98483390D02*
X144033333Y-98626247D01*
X144033333Y-98626247D02*
X143985714Y-98816723D01*
X143985714Y-98816723D02*
X143938095Y-98911961D01*
X143938095Y-98911961D02*
X143842857Y-99007200D01*
X143842857Y-99007200D02*
X143700000Y-99054819D01*
X143700000Y-99054819D02*
X143461905Y-99054819D01*
X144604762Y-98483390D02*
X144509524Y-98435771D01*
X144509524Y-98435771D02*
X144461905Y-98388152D01*
X144461905Y-98388152D02*
X144414286Y-98292914D01*
X144414286Y-98292914D02*
X144414286Y-98245295D01*
X144414286Y-98245295D02*
X144461905Y-98150057D01*
X144461905Y-98150057D02*
X144509524Y-98102438D01*
X144509524Y-98102438D02*
X144604762Y-98054819D01*
X144604762Y-98054819D02*
X144795238Y-98054819D01*
X144795238Y-98054819D02*
X144890476Y-98102438D01*
X144890476Y-98102438D02*
X144938095Y-98150057D01*
X144938095Y-98150057D02*
X144985714Y-98245295D01*
X144985714Y-98245295D02*
X144985714Y-98292914D01*
X144985714Y-98292914D02*
X144938095Y-98388152D01*
X144938095Y-98388152D02*
X144890476Y-98435771D01*
X144890476Y-98435771D02*
X144795238Y-98483390D01*
X144795238Y-98483390D02*
X144604762Y-98483390D01*
X144604762Y-98483390D02*
X144509524Y-98531009D01*
X144509524Y-98531009D02*
X144461905Y-98578628D01*
X144461905Y-98578628D02*
X144414286Y-98673866D01*
X144414286Y-98673866D02*
X144414286Y-98864342D01*
X144414286Y-98864342D02*
X144461905Y-98959580D01*
X144461905Y-98959580D02*
X144509524Y-99007200D01*
X144509524Y-99007200D02*
X144604762Y-99054819D01*
X144604762Y-99054819D02*
X144795238Y-99054819D01*
X144795238Y-99054819D02*
X144890476Y-99007200D01*
X144890476Y-99007200D02*
X144938095Y-98959580D01*
X144938095Y-98959580D02*
X144985714Y-98864342D01*
X144985714Y-98864342D02*
X144985714Y-98673866D01*
X144985714Y-98673866D02*
X144938095Y-98578628D01*
X144938095Y-98578628D02*
X144890476Y-98531009D01*
X144890476Y-98531009D02*
X144795238Y-98483390D01*
X136333333Y-80454819D02*
X136000000Y-79978628D01*
X135761905Y-80454819D02*
X135761905Y-79454819D01*
X135761905Y-79454819D02*
X136142857Y-79454819D01*
X136142857Y-79454819D02*
X136238095Y-79502438D01*
X136238095Y-79502438D02*
X136285714Y-79550057D01*
X136285714Y-79550057D02*
X136333333Y-79645295D01*
X136333333Y-79645295D02*
X136333333Y-79788152D01*
X136333333Y-79788152D02*
X136285714Y-79883390D01*
X136285714Y-79883390D02*
X136238095Y-79931009D01*
X136238095Y-79931009D02*
X136142857Y-79978628D01*
X136142857Y-79978628D02*
X135761905Y-79978628D01*
X137238095Y-79454819D02*
X136761905Y-79454819D01*
X136761905Y-79454819D02*
X136714286Y-79931009D01*
X136714286Y-79931009D02*
X136761905Y-79883390D01*
X136761905Y-79883390D02*
X136857143Y-79835771D01*
X136857143Y-79835771D02*
X137095238Y-79835771D01*
X137095238Y-79835771D02*
X137190476Y-79883390D01*
X137190476Y-79883390D02*
X137238095Y-79931009D01*
X137238095Y-79931009D02*
X137285714Y-80026247D01*
X137285714Y-80026247D02*
X137285714Y-80264342D01*
X137285714Y-80264342D02*
X137238095Y-80359580D01*
X137238095Y-80359580D02*
X137190476Y-80407200D01*
X137190476Y-80407200D02*
X137095238Y-80454819D01*
X137095238Y-80454819D02*
X136857143Y-80454819D01*
X136857143Y-80454819D02*
X136761905Y-80407200D01*
X136761905Y-80407200D02*
X136714286Y-80359580D01*
X146857142Y-82454819D02*
X146523809Y-81978628D01*
X146285714Y-82454819D02*
X146285714Y-81454819D01*
X146285714Y-81454819D02*
X146666666Y-81454819D01*
X146666666Y-81454819D02*
X146761904Y-81502438D01*
X146761904Y-81502438D02*
X146809523Y-81550057D01*
X146809523Y-81550057D02*
X146857142Y-81645295D01*
X146857142Y-81645295D02*
X146857142Y-81788152D01*
X146857142Y-81788152D02*
X146809523Y-81883390D01*
X146809523Y-81883390D02*
X146761904Y-81931009D01*
X146761904Y-81931009D02*
X146666666Y-81978628D01*
X146666666Y-81978628D02*
X146285714Y-81978628D01*
X147238095Y-81550057D02*
X147285714Y-81502438D01*
X147285714Y-81502438D02*
X147380952Y-81454819D01*
X147380952Y-81454819D02*
X147619047Y-81454819D01*
X147619047Y-81454819D02*
X147714285Y-81502438D01*
X147714285Y-81502438D02*
X147761904Y-81550057D01*
X147761904Y-81550057D02*
X147809523Y-81645295D01*
X147809523Y-81645295D02*
X147809523Y-81740533D01*
X147809523Y-81740533D02*
X147761904Y-81883390D01*
X147761904Y-81883390D02*
X147190476Y-82454819D01*
X147190476Y-82454819D02*
X147809523Y-82454819D01*
X148428571Y-81454819D02*
X148523809Y-81454819D01*
X148523809Y-81454819D02*
X148619047Y-81502438D01*
X148619047Y-81502438D02*
X148666666Y-81550057D01*
X148666666Y-81550057D02*
X148714285Y-81645295D01*
X148714285Y-81645295D02*
X148761904Y-81835771D01*
X148761904Y-81835771D02*
X148761904Y-82073866D01*
X148761904Y-82073866D02*
X148714285Y-82264342D01*
X148714285Y-82264342D02*
X148666666Y-82359580D01*
X148666666Y-82359580D02*
X148619047Y-82407200D01*
X148619047Y-82407200D02*
X148523809Y-82454819D01*
X148523809Y-82454819D02*
X148428571Y-82454819D01*
X148428571Y-82454819D02*
X148333333Y-82407200D01*
X148333333Y-82407200D02*
X148285714Y-82359580D01*
X148285714Y-82359580D02*
X148238095Y-82264342D01*
X148238095Y-82264342D02*
X148190476Y-82073866D01*
X148190476Y-82073866D02*
X148190476Y-81835771D01*
X148190476Y-81835771D02*
X148238095Y-81645295D01*
X148238095Y-81645295D02*
X148285714Y-81550057D01*
X148285714Y-81550057D02*
X148333333Y-81502438D01*
X148333333Y-81502438D02*
X148428571Y-81454819D01*
X143457142Y-86859580D02*
X143409523Y-86907200D01*
X143409523Y-86907200D02*
X143266666Y-86954819D01*
X143266666Y-86954819D02*
X143171428Y-86954819D01*
X143171428Y-86954819D02*
X143028571Y-86907200D01*
X143028571Y-86907200D02*
X142933333Y-86811961D01*
X142933333Y-86811961D02*
X142885714Y-86716723D01*
X142885714Y-86716723D02*
X142838095Y-86526247D01*
X142838095Y-86526247D02*
X142838095Y-86383390D01*
X142838095Y-86383390D02*
X142885714Y-86192914D01*
X142885714Y-86192914D02*
X142933333Y-86097676D01*
X142933333Y-86097676D02*
X143028571Y-86002438D01*
X143028571Y-86002438D02*
X143171428Y-85954819D01*
X143171428Y-85954819D02*
X143266666Y-85954819D01*
X143266666Y-85954819D02*
X143409523Y-86002438D01*
X143409523Y-86002438D02*
X143457142Y-86050057D01*
X143838095Y-86050057D02*
X143885714Y-86002438D01*
X143885714Y-86002438D02*
X143980952Y-85954819D01*
X143980952Y-85954819D02*
X144219047Y-85954819D01*
X144219047Y-85954819D02*
X144314285Y-86002438D01*
X144314285Y-86002438D02*
X144361904Y-86050057D01*
X144361904Y-86050057D02*
X144409523Y-86145295D01*
X144409523Y-86145295D02*
X144409523Y-86240533D01*
X144409523Y-86240533D02*
X144361904Y-86383390D01*
X144361904Y-86383390D02*
X143790476Y-86954819D01*
X143790476Y-86954819D02*
X144409523Y-86954819D01*
X144885714Y-86954819D02*
X145076190Y-86954819D01*
X145076190Y-86954819D02*
X145171428Y-86907200D01*
X145171428Y-86907200D02*
X145219047Y-86859580D01*
X145219047Y-86859580D02*
X145314285Y-86716723D01*
X145314285Y-86716723D02*
X145361904Y-86526247D01*
X145361904Y-86526247D02*
X145361904Y-86145295D01*
X145361904Y-86145295D02*
X145314285Y-86050057D01*
X145314285Y-86050057D02*
X145266666Y-86002438D01*
X145266666Y-86002438D02*
X145171428Y-85954819D01*
X145171428Y-85954819D02*
X144980952Y-85954819D01*
X144980952Y-85954819D02*
X144885714Y-86002438D01*
X144885714Y-86002438D02*
X144838095Y-86050057D01*
X144838095Y-86050057D02*
X144790476Y-86145295D01*
X144790476Y-86145295D02*
X144790476Y-86383390D01*
X144790476Y-86383390D02*
X144838095Y-86478628D01*
X144838095Y-86478628D02*
X144885714Y-86526247D01*
X144885714Y-86526247D02*
X144980952Y-86573866D01*
X144980952Y-86573866D02*
X145171428Y-86573866D01*
X145171428Y-86573866D02*
X145266666Y-86526247D01*
X145266666Y-86526247D02*
X145314285Y-86478628D01*
X145314285Y-86478628D02*
X145361904Y-86383390D01*
X140461905Y-99954819D02*
X140461905Y-98954819D01*
X140461905Y-98954819D02*
X140700000Y-98954819D01*
X140700000Y-98954819D02*
X140842857Y-99002438D01*
X140842857Y-99002438D02*
X140938095Y-99097676D01*
X140938095Y-99097676D02*
X140985714Y-99192914D01*
X140985714Y-99192914D02*
X141033333Y-99383390D01*
X141033333Y-99383390D02*
X141033333Y-99526247D01*
X141033333Y-99526247D02*
X140985714Y-99716723D01*
X140985714Y-99716723D02*
X140938095Y-99811961D01*
X140938095Y-99811961D02*
X140842857Y-99907200D01*
X140842857Y-99907200D02*
X140700000Y-99954819D01*
X140700000Y-99954819D02*
X140461905Y-99954819D01*
X141509524Y-99954819D02*
X141700000Y-99954819D01*
X141700000Y-99954819D02*
X141795238Y-99907200D01*
X141795238Y-99907200D02*
X141842857Y-99859580D01*
X141842857Y-99859580D02*
X141938095Y-99716723D01*
X141938095Y-99716723D02*
X141985714Y-99526247D01*
X141985714Y-99526247D02*
X141985714Y-99145295D01*
X141985714Y-99145295D02*
X141938095Y-99050057D01*
X141938095Y-99050057D02*
X141890476Y-99002438D01*
X141890476Y-99002438D02*
X141795238Y-98954819D01*
X141795238Y-98954819D02*
X141604762Y-98954819D01*
X141604762Y-98954819D02*
X141509524Y-99002438D01*
X141509524Y-99002438D02*
X141461905Y-99050057D01*
X141461905Y-99050057D02*
X141414286Y-99145295D01*
X141414286Y-99145295D02*
X141414286Y-99383390D01*
X141414286Y-99383390D02*
X141461905Y-99478628D01*
X141461905Y-99478628D02*
X141509524Y-99526247D01*
X141509524Y-99526247D02*
X141604762Y-99573866D01*
X141604762Y-99573866D02*
X141795238Y-99573866D01*
X141795238Y-99573866D02*
X141890476Y-99526247D01*
X141890476Y-99526247D02*
X141938095Y-99478628D01*
X141938095Y-99478628D02*
X141985714Y-99383390D01*
X170157142Y-87654819D02*
X169823809Y-87178628D01*
X169585714Y-87654819D02*
X169585714Y-86654819D01*
X169585714Y-86654819D02*
X169966666Y-86654819D01*
X169966666Y-86654819D02*
X170061904Y-86702438D01*
X170061904Y-86702438D02*
X170109523Y-86750057D01*
X170109523Y-86750057D02*
X170157142Y-86845295D01*
X170157142Y-86845295D02*
X170157142Y-86988152D01*
X170157142Y-86988152D02*
X170109523Y-87083390D01*
X170109523Y-87083390D02*
X170061904Y-87131009D01*
X170061904Y-87131009D02*
X169966666Y-87178628D01*
X169966666Y-87178628D02*
X169585714Y-87178628D01*
X171109523Y-87654819D02*
X170538095Y-87654819D01*
X170823809Y-87654819D02*
X170823809Y-86654819D01*
X170823809Y-86654819D02*
X170728571Y-86797676D01*
X170728571Y-86797676D02*
X170633333Y-86892914D01*
X170633333Y-86892914D02*
X170538095Y-86940533D01*
X172014285Y-86654819D02*
X171538095Y-86654819D01*
X171538095Y-86654819D02*
X171490476Y-87131009D01*
X171490476Y-87131009D02*
X171538095Y-87083390D01*
X171538095Y-87083390D02*
X171633333Y-87035771D01*
X171633333Y-87035771D02*
X171871428Y-87035771D01*
X171871428Y-87035771D02*
X171966666Y-87083390D01*
X171966666Y-87083390D02*
X172014285Y-87131009D01*
X172014285Y-87131009D02*
X172061904Y-87226247D01*
X172061904Y-87226247D02*
X172061904Y-87464342D01*
X172061904Y-87464342D02*
X172014285Y-87559580D01*
X172014285Y-87559580D02*
X171966666Y-87607200D01*
X171966666Y-87607200D02*
X171871428Y-87654819D01*
X171871428Y-87654819D02*
X171633333Y-87654819D01*
X171633333Y-87654819D02*
X171538095Y-87607200D01*
X171538095Y-87607200D02*
X171490476Y-87559580D01*
X167833333Y-86359580D02*
X167785714Y-86407200D01*
X167785714Y-86407200D02*
X167642857Y-86454819D01*
X167642857Y-86454819D02*
X167547619Y-86454819D01*
X167547619Y-86454819D02*
X167404762Y-86407200D01*
X167404762Y-86407200D02*
X167309524Y-86311961D01*
X167309524Y-86311961D02*
X167261905Y-86216723D01*
X167261905Y-86216723D02*
X167214286Y-86026247D01*
X167214286Y-86026247D02*
X167214286Y-85883390D01*
X167214286Y-85883390D02*
X167261905Y-85692914D01*
X167261905Y-85692914D02*
X167309524Y-85597676D01*
X167309524Y-85597676D02*
X167404762Y-85502438D01*
X167404762Y-85502438D02*
X167547619Y-85454819D01*
X167547619Y-85454819D02*
X167642857Y-85454819D01*
X167642857Y-85454819D02*
X167785714Y-85502438D01*
X167785714Y-85502438D02*
X167833333Y-85550057D01*
X168214286Y-85550057D02*
X168261905Y-85502438D01*
X168261905Y-85502438D02*
X168357143Y-85454819D01*
X168357143Y-85454819D02*
X168595238Y-85454819D01*
X168595238Y-85454819D02*
X168690476Y-85502438D01*
X168690476Y-85502438D02*
X168738095Y-85550057D01*
X168738095Y-85550057D02*
X168785714Y-85645295D01*
X168785714Y-85645295D02*
X168785714Y-85740533D01*
X168785714Y-85740533D02*
X168738095Y-85883390D01*
X168738095Y-85883390D02*
X168166667Y-86454819D01*
X168166667Y-86454819D02*
X168785714Y-86454819D01*
X148333333Y-100199580D02*
X148285714Y-100247200D01*
X148285714Y-100247200D02*
X148142857Y-100294819D01*
X148142857Y-100294819D02*
X148047619Y-100294819D01*
X148047619Y-100294819D02*
X147904762Y-100247200D01*
X147904762Y-100247200D02*
X147809524Y-100151961D01*
X147809524Y-100151961D02*
X147761905Y-100056723D01*
X147761905Y-100056723D02*
X147714286Y-99866247D01*
X147714286Y-99866247D02*
X147714286Y-99723390D01*
X147714286Y-99723390D02*
X147761905Y-99532914D01*
X147761905Y-99532914D02*
X147809524Y-99437676D01*
X147809524Y-99437676D02*
X147904762Y-99342438D01*
X147904762Y-99342438D02*
X148047619Y-99294819D01*
X148047619Y-99294819D02*
X148142857Y-99294819D01*
X148142857Y-99294819D02*
X148285714Y-99342438D01*
X148285714Y-99342438D02*
X148333333Y-99390057D01*
X148666667Y-99294819D02*
X149285714Y-99294819D01*
X149285714Y-99294819D02*
X148952381Y-99675771D01*
X148952381Y-99675771D02*
X149095238Y-99675771D01*
X149095238Y-99675771D02*
X149190476Y-99723390D01*
X149190476Y-99723390D02*
X149238095Y-99771009D01*
X149238095Y-99771009D02*
X149285714Y-99866247D01*
X149285714Y-99866247D02*
X149285714Y-100104342D01*
X149285714Y-100104342D02*
X149238095Y-100199580D01*
X149238095Y-100199580D02*
X149190476Y-100247200D01*
X149190476Y-100247200D02*
X149095238Y-100294819D01*
X149095238Y-100294819D02*
X148809524Y-100294819D01*
X148809524Y-100294819D02*
X148714286Y-100247200D01*
X148714286Y-100247200D02*
X148666667Y-100199580D01*
X171638095Y-90054819D02*
X171638095Y-90864342D01*
X171638095Y-90864342D02*
X171685714Y-90959580D01*
X171685714Y-90959580D02*
X171733333Y-91007200D01*
X171733333Y-91007200D02*
X171828571Y-91054819D01*
X171828571Y-91054819D02*
X172019047Y-91054819D01*
X172019047Y-91054819D02*
X172114285Y-91007200D01*
X172114285Y-91007200D02*
X172161904Y-90959580D01*
X172161904Y-90959580D02*
X172209523Y-90864342D01*
X172209523Y-90864342D02*
X172209523Y-90054819D01*
X173209523Y-91054819D02*
X172638095Y-91054819D01*
X172923809Y-91054819D02*
X172923809Y-90054819D01*
X172923809Y-90054819D02*
X172828571Y-90197676D01*
X172828571Y-90197676D02*
X172733333Y-90292914D01*
X172733333Y-90292914D02*
X172638095Y-90340533D01*
X170733333Y-89759580D02*
X170685714Y-89807200D01*
X170685714Y-89807200D02*
X170542857Y-89854819D01*
X170542857Y-89854819D02*
X170447619Y-89854819D01*
X170447619Y-89854819D02*
X170304762Y-89807200D01*
X170304762Y-89807200D02*
X170209524Y-89711961D01*
X170209524Y-89711961D02*
X170161905Y-89616723D01*
X170161905Y-89616723D02*
X170114286Y-89426247D01*
X170114286Y-89426247D02*
X170114286Y-89283390D01*
X170114286Y-89283390D02*
X170161905Y-89092914D01*
X170161905Y-89092914D02*
X170209524Y-88997676D01*
X170209524Y-88997676D02*
X170304762Y-88902438D01*
X170304762Y-88902438D02*
X170447619Y-88854819D01*
X170447619Y-88854819D02*
X170542857Y-88854819D01*
X170542857Y-88854819D02*
X170685714Y-88902438D01*
X170685714Y-88902438D02*
X170733333Y-88950057D01*
X171685714Y-89854819D02*
X171114286Y-89854819D01*
X171400000Y-89854819D02*
X171400000Y-88854819D01*
X171400000Y-88854819D02*
X171304762Y-88997676D01*
X171304762Y-88997676D02*
X171209524Y-89092914D01*
X171209524Y-89092914D02*
X171114286Y-89140533D01*
D11*
%TO.C,C34*%
X125465000Y-84538748D02*
X125465000Y-85061252D01*
X126935000Y-84538748D02*
X126935000Y-85061252D01*
%TO.C,C10*%
X153392164Y-80390000D02*
X153607836Y-80390000D01*
X153392164Y-81110000D02*
X153607836Y-81110000D01*
%TO.C,C12*%
X155642164Y-79390000D02*
X155857836Y-79390000D01*
X155642164Y-80110000D02*
X155857836Y-80110000D01*
%TO.C,TP5*%
X133555000Y-82165000D02*
X134300000Y-82165000D01*
X133555000Y-82900000D02*
X133555000Y-82165000D01*
X133555000Y-83635000D02*
X133555000Y-83510000D01*
X133555000Y-83635000D02*
X133614435Y-83635000D01*
X133555000Y-83635000D02*
X135045000Y-83635000D01*
X134985565Y-83635000D02*
X135045000Y-83635000D01*
X135045000Y-83635000D02*
X135045000Y-83510000D01*
%TO.C,TP13*%
X161965000Y-93045000D02*
X161965000Y-92300000D01*
X162700000Y-93045000D02*
X161965000Y-93045000D01*
X163435000Y-91555000D02*
X163310000Y-91555000D01*
X163435000Y-91614435D02*
X163435000Y-91555000D01*
X163435000Y-93045000D02*
X163310000Y-93045000D01*
X163435000Y-93045000D02*
X163435000Y-91555000D01*
X163435000Y-93045000D02*
X163435000Y-92985565D01*
%TO.C,C21*%
X159890000Y-79857836D02*
X159890000Y-79642164D01*
X160610000Y-79857836D02*
X160610000Y-79642164D01*
%TO.C,C46*%
X168590000Y-104461252D02*
X168590000Y-103038748D01*
X170410000Y-104461252D02*
X170410000Y-103038748D01*
%TO.C,C25*%
X140592164Y-94640000D02*
X140807836Y-94640000D01*
X140592164Y-95360000D02*
X140807836Y-95360000D01*
%TO.C,C18*%
X138540000Y-85792164D02*
X138540000Y-86007836D01*
X139260000Y-85792164D02*
X139260000Y-86007836D01*
%TO.C,C55*%
X124340000Y-100461252D02*
X124340000Y-99038748D01*
X126160000Y-100461252D02*
X126160000Y-99038748D01*
%TO.C,R34*%
X166153641Y-82120000D02*
X165846359Y-82120000D01*
X166153641Y-82880000D02*
X165846359Y-82880000D01*
%TO.C,C27*%
X142040000Y-93192164D02*
X142040000Y-93407836D01*
X142760000Y-93192164D02*
X142760000Y-93407836D01*
%TO.C,D12*%
X165150000Y-101050000D02*
X165150000Y-103010000D01*
X165150000Y-103010000D02*
X166350000Y-103010000D01*
X166350000Y-101050000D02*
X166350000Y-103010000D01*
%TO.C,U2*%
X153390000Y-83640000D02*
X153390000Y-84090000D01*
X153390000Y-90860000D02*
X153390000Y-90410000D01*
X153840000Y-83640000D02*
X153390000Y-83640000D01*
X153840000Y-90860000D02*
X153390000Y-90860000D01*
X160160000Y-83640000D02*
X160610000Y-83640000D01*
X160160000Y-90860000D02*
X160610000Y-90860000D01*
X160610000Y-83640000D02*
X160610000Y-84090000D01*
X160610000Y-90860000D02*
X160610000Y-90410000D01*
X161540000Y-90880000D02*
X160860000Y-90880000D01*
X161200000Y-90410000D01*
X161540000Y-90880000D01*
G36*
X161540000Y-90880000D02*
G01*
X160860000Y-90880000D01*
X161200000Y-90410000D01*
X161540000Y-90880000D01*
G37*
%TO.C,C5*%
X166890000Y-88802164D02*
X166890000Y-89017836D01*
X167610000Y-88802164D02*
X167610000Y-89017836D01*
%TO.C,R31*%
X163846359Y-81120000D02*
X164153641Y-81120000D01*
X163846359Y-81880000D02*
X164153641Y-81880000D01*
D12*
%TO.C,Q4*%
X142519500Y-109269500D02*
X142519500Y-111540260D01*
X142519500Y-112459740D02*
X142519500Y-114730500D01*
X142519500Y-114730500D02*
X142783660Y-114730500D01*
X142783660Y-109269500D02*
X142519500Y-109269500D01*
X147716340Y-114730500D02*
X147980500Y-114730500D01*
X147980500Y-109269500D02*
X147716340Y-109269500D01*
X147980500Y-111540260D02*
X147980500Y-109269500D01*
X147980500Y-114730500D02*
X147980500Y-112459740D01*
X147231200Y-107809000D02*
G75*
G02*
X147078800Y-107809000I-76200J0D01*
G01*
X147078800Y-107809000D02*
G75*
G02*
X147231200Y-107809000I76200J0D01*
G01*
D11*
%TO.C,J10*%
X163485000Y-74840000D02*
X163485000Y-75682077D01*
X163485000Y-76317923D02*
X163485000Y-77160000D01*
X164690000Y-74840000D02*
X163485000Y-74840000D01*
X164690000Y-74840000D02*
X164690000Y-75333292D01*
X164690000Y-76666708D02*
X164690000Y-77160000D01*
X164690000Y-77160000D02*
X163485000Y-77160000D01*
X165500000Y-74840000D02*
X166310000Y-74840000D01*
X166310000Y-74840000D02*
X166310000Y-76000000D01*
D12*
%TO.C,Q2*%
X136019500Y-109269500D02*
X136019500Y-111540260D01*
X136019500Y-112459740D02*
X136019500Y-114730500D01*
X136019500Y-114730500D02*
X136283660Y-114730500D01*
X136283660Y-109269500D02*
X136019500Y-109269500D01*
X141216340Y-114730500D02*
X141480500Y-114730500D01*
X141480500Y-109269500D02*
X141216340Y-109269500D01*
X141480500Y-111540260D02*
X141480500Y-109269500D01*
X141480500Y-114730500D02*
X141480500Y-112459740D01*
X140731200Y-107809000D02*
G75*
G02*
X140578800Y-107809000I-76200J0D01*
G01*
X140578800Y-107809000D02*
G75*
G02*
X140731200Y-107809000I76200J0D01*
G01*
%TO.C,Q5*%
X155519500Y-109269500D02*
X155519500Y-111540260D01*
X155519500Y-112459740D02*
X155519500Y-114730500D01*
X155519500Y-114730500D02*
X155783660Y-114730500D01*
X155783660Y-109269500D02*
X155519500Y-109269500D01*
X160716340Y-114730500D02*
X160980500Y-114730500D01*
X160980500Y-109269500D02*
X160716340Y-109269500D01*
X160980500Y-111540260D02*
X160980500Y-109269500D01*
X160980500Y-114730500D02*
X160980500Y-112459740D01*
X156421200Y-116191000D02*
G75*
G02*
X156268800Y-116191000I-76200J0D01*
G01*
X156268800Y-116191000D02*
G75*
G02*
X156421200Y-116191000I76200J0D01*
G01*
D11*
%TO.C,C51*%
X163892164Y-84140000D02*
X164107836Y-84140000D01*
X163892164Y-84860000D02*
X164107836Y-84860000D01*
%TO.C,C39*%
X157490000Y-106211252D02*
X157490000Y-104788748D01*
X159310000Y-106211252D02*
X159310000Y-104788748D01*
D12*
%TO.C,L3*%
X127527500Y-83277500D02*
X127527500Y-87722500D01*
X131972500Y-87722500D02*
X131972500Y-83277500D01*
D11*
%TO.C,C47*%
X126840000Y-105211252D02*
X126840000Y-103788748D01*
X128660000Y-105211252D02*
X128660000Y-103788748D01*
D12*
%TO.C,U4*%
X134825000Y-87325000D02*
X134825000Y-87802393D01*
X134825000Y-93197607D02*
X134825000Y-93675000D01*
X134825000Y-93675000D02*
X135302393Y-93675000D01*
X135302393Y-87325000D02*
X134825000Y-87325000D01*
X140697607Y-93675000D02*
X141175000Y-93675000D01*
X141175000Y-87325000D02*
X140697607Y-87325000D01*
X141175000Y-87802393D02*
X141175000Y-87325000D01*
X141175000Y-93675000D02*
X141175000Y-93197607D01*
D13*
G36*
X134393200Y-92941067D02*
G01*
X134139200Y-92941067D01*
X134139200Y-92560067D01*
X134393200Y-92560067D01*
X134393200Y-92941067D01*
G37*
G36*
X135939933Y-86893200D02*
G01*
X135558933Y-86893200D01*
X135558933Y-86639200D01*
X135939933Y-86639200D01*
X135939933Y-86893200D01*
G37*
G36*
X140441067Y-94360800D02*
G01*
X140060067Y-94360800D01*
X140060067Y-94106800D01*
X140441067Y-94106800D01*
X140441067Y-94360800D01*
G37*
G36*
X141860800Y-88439933D02*
G01*
X141606800Y-88439933D01*
X141606800Y-88058933D01*
X141860800Y-88058933D01*
X141860800Y-88439933D01*
G37*
D11*
%TO.C,C42*%
X155090000Y-106211252D02*
X155090000Y-104788748D01*
X156910000Y-106211252D02*
X156910000Y-104788748D01*
%TO.C,C44*%
X124340000Y-108538748D02*
X124340000Y-109961252D01*
X126160000Y-108538748D02*
X126160000Y-109961252D01*
%TO.C,R19*%
X146120000Y-79553641D02*
X146120000Y-79246359D01*
X146880000Y-79553641D02*
X146880000Y-79246359D01*
%TO.C,TP1*%
X161255000Y-81715000D02*
X162000000Y-81715000D01*
X161255000Y-82450000D02*
X161255000Y-81715000D01*
X161255000Y-83185000D02*
X161255000Y-83060000D01*
X161255000Y-83185000D02*
X161314435Y-83185000D01*
X161255000Y-83185000D02*
X162745000Y-83185000D01*
X162685565Y-83185000D02*
X162745000Y-83185000D01*
X162745000Y-83185000D02*
X162745000Y-83060000D01*
%TO.C,TP12*%
X156955000Y-77065000D02*
X157700000Y-77065000D01*
X156955000Y-77800000D02*
X156955000Y-77065000D01*
X156955000Y-78535000D02*
X156955000Y-78410000D01*
X156955000Y-78535000D02*
X157014435Y-78535000D01*
X156955000Y-78535000D02*
X158445000Y-78535000D01*
X158385565Y-78535000D02*
X158445000Y-78535000D01*
X158445000Y-78535000D02*
X158445000Y-78410000D01*
%TO.C,C45*%
X129340000Y-100461252D02*
X129340000Y-99038748D01*
X131160000Y-100461252D02*
X131160000Y-99038748D01*
%TO.C,C37*%
X126540580Y-92290000D02*
X126259420Y-92290000D01*
X126540580Y-93310000D02*
X126259420Y-93310000D01*
%TO.C,C33*%
X123890000Y-86159420D02*
X123890000Y-86440580D01*
X124910000Y-86159420D02*
X124910000Y-86440580D01*
%TO.C,C48*%
X124340000Y-105211252D02*
X124340000Y-103788748D01*
X126160000Y-105211252D02*
X126160000Y-103788748D01*
%TO.C,Y1*%
X166710000Y-87450000D02*
X163290000Y-87450000D01*
X166710000Y-90370000D02*
X166710000Y-87450000D01*
%TO.C,C40*%
X152290000Y-106211252D02*
X152290000Y-104788748D01*
X154110000Y-106211252D02*
X154110000Y-104788748D01*
%TO.C,R26*%
X143322936Y-103790000D02*
X147677064Y-103790000D01*
X143322936Y-107210000D02*
X147677064Y-107210000D01*
%TO.C,L1*%
X150515000Y-79727064D02*
X150515000Y-79272936D01*
X151985000Y-79727064D02*
X151985000Y-79272936D01*
D14*
%TO.C,C4*%
X151850000Y-127430000D02*
X151850000Y-136150000D01*
X151850000Y-136150000D02*
X155600000Y-136150000D01*
X153430000Y-125850000D02*
X151850000Y-127430000D01*
X155600000Y-125850000D02*
X153430000Y-125850000D01*
X158400000Y-136150000D02*
X162150000Y-136150000D01*
X160570000Y-125850000D02*
X158400000Y-125850000D01*
X162150000Y-127430000D02*
X160570000Y-125850000D01*
X162150000Y-136150000D02*
X162150000Y-127430000D01*
D15*
X158900000Y-124190000D02*
G75*
G02*
X158700000Y-124190000I-100000J0D01*
G01*
X158700000Y-124190000D02*
G75*
G02*
X158900000Y-124190000I100000J0D01*
G01*
D11*
%TO.C,R3*%
X140620000Y-79553641D02*
X140620000Y-79246359D01*
X141380000Y-79553641D02*
X141380000Y-79246359D01*
%TO.C,C53*%
X168590000Y-114461252D02*
X168590000Y-113038748D01*
X170410000Y-114461252D02*
X170410000Y-113038748D01*
%TO.C,D10*%
X160300000Y-102450000D02*
X160300000Y-100490000D01*
X161500000Y-100490000D02*
X160300000Y-100490000D01*
X161500000Y-102450000D02*
X161500000Y-100490000D01*
%TO.C,C32*%
X163892164Y-82140000D02*
X164107836Y-82140000D01*
X163892164Y-82860000D02*
X164107836Y-82860000D01*
%TO.C,J8*%
X136440000Y-133215000D02*
X135850000Y-133215000D01*
X136440000Y-133215000D02*
X136440000Y-128315000D01*
X136440000Y-135435000D02*
X135850000Y-135435000D01*
X136440000Y-137535000D02*
X136440000Y-135435000D01*
X146560000Y-128315000D02*
X136440000Y-128315000D01*
X146560000Y-133215000D02*
X146560000Y-128315000D01*
X146560000Y-137535000D02*
X136440000Y-137535000D01*
X146560000Y-137535000D02*
X146560000Y-135435000D01*
X147150000Y-133215000D02*
X146560000Y-133215000D01*
X147150000Y-135435000D02*
X146560000Y-135435000D01*
X135850000Y-135435000D02*
G75*
G02*
X135850000Y-133215000I0J1110000D01*
G01*
X147150000Y-133215000D02*
G75*
G02*
X147150000Y-135435000I0J-1110000D01*
G01*
%TO.C,C17*%
X133107836Y-90940000D02*
X132892164Y-90940000D01*
X133107836Y-91660000D02*
X132892164Y-91660000D01*
%TO.C,R9*%
X157120000Y-94653641D02*
X157120000Y-94346359D01*
X157880000Y-94653641D02*
X157880000Y-94346359D01*
D12*
%TO.C,Q3*%
X149019500Y-109269500D02*
X149019500Y-111540260D01*
X149019500Y-112459740D02*
X149019500Y-114730500D01*
X149019500Y-114730500D02*
X149283660Y-114730500D01*
X149283660Y-109269500D02*
X149019500Y-109269500D01*
X154216340Y-114730500D02*
X154480500Y-114730500D01*
X154480500Y-109269500D02*
X154216340Y-109269500D01*
X154480500Y-111540260D02*
X154480500Y-109269500D01*
X154480500Y-114730500D02*
X154480500Y-112459740D01*
X149921200Y-116191000D02*
G75*
G02*
X149768800Y-116191000I-76200J0D01*
G01*
X149768800Y-116191000D02*
G75*
G02*
X149921200Y-116191000I76200J0D01*
G01*
D11*
%TO.C,J9*%
X131540000Y-77630000D02*
X131540000Y-76250000D01*
X132920000Y-77630000D02*
X131540000Y-77630000D01*
X134190000Y-74870000D02*
X144460000Y-74870000D01*
X134190000Y-77630000D02*
X134190000Y-74870000D01*
X134190000Y-77630000D02*
X144460000Y-77630000D01*
X144460000Y-77630000D02*
X144460000Y-74870000D01*
%TO.C,R1*%
X165403641Y-93620000D02*
X165096359Y-93620000D01*
X165403641Y-94380000D02*
X165096359Y-94380000D01*
%TO.C,R23*%
X136177064Y-103790000D02*
X131822936Y-103790000D01*
X136177064Y-107210000D02*
X131822936Y-107210000D01*
%TO.C,C15*%
X136740000Y-96140580D02*
X136740000Y-95859420D01*
X137760000Y-96140580D02*
X137760000Y-95859420D01*
%TO.C,R4*%
X139620000Y-79553641D02*
X139620000Y-79246359D01*
X140380000Y-79553641D02*
X140380000Y-79246359D01*
%TO.C,C6*%
X164892164Y-90550000D02*
X165107836Y-90550000D01*
X164892164Y-91270000D02*
X165107836Y-91270000D01*
%TO.C,R10*%
X156120000Y-94653641D02*
X156120000Y-94346359D01*
X156880000Y-94653641D02*
X156880000Y-94346359D01*
D12*
%TO.C,Q1*%
X129519500Y-109269500D02*
X129519500Y-111540260D01*
X129519500Y-112459740D02*
X129519500Y-114730500D01*
X129519500Y-114730500D02*
X129783660Y-114730500D01*
X129783660Y-109269500D02*
X129519500Y-109269500D01*
X134716340Y-114730500D02*
X134980500Y-114730500D01*
X134980500Y-109269500D02*
X134716340Y-109269500D01*
X134980500Y-111540260D02*
X134980500Y-109269500D01*
X134980500Y-114730500D02*
X134980500Y-112459740D01*
X130421200Y-116191000D02*
G75*
G02*
X130268800Y-116191000I-76200J0D01*
G01*
X130268800Y-116191000D02*
G75*
G02*
X130421200Y-116191000I76200J0D01*
G01*
D11*
%TO.C,R11*%
X155120000Y-94653641D02*
X155120000Y-94346359D01*
X155880000Y-94653641D02*
X155880000Y-94346359D01*
%TO.C,R29*%
X165977064Y-103790000D02*
X161622936Y-103790000D01*
X165977064Y-107210000D02*
X161622936Y-107210000D01*
%TO.C,D7*%
X152900000Y-102495000D02*
X152900000Y-100535000D01*
X154100000Y-100535000D02*
X152900000Y-100535000D01*
X154100000Y-102495000D02*
X154100000Y-100535000D01*
D14*
%TO.C,C31*%
X162850000Y-127430000D02*
X162850000Y-136150000D01*
X162850000Y-136150000D02*
X166600000Y-136150000D01*
X164430000Y-125850000D02*
X162850000Y-127430000D01*
X166600000Y-125850000D02*
X164430000Y-125850000D01*
X169400000Y-136150000D02*
X173150000Y-136150000D01*
X171570000Y-125850000D02*
X169400000Y-125850000D01*
X173150000Y-127430000D02*
X171570000Y-125850000D01*
X173150000Y-136150000D02*
X173150000Y-127430000D01*
D15*
X169900000Y-124190000D02*
G75*
G02*
X169700000Y-124190000I-100000J0D01*
G01*
X169700000Y-124190000D02*
G75*
G02*
X169900000Y-124190000I100000J0D01*
G01*
D11*
%TO.C,R6*%
X137620000Y-79553641D02*
X137620000Y-79246359D01*
X138380000Y-79553641D02*
X138380000Y-79246359D01*
%TO.C,C28*%
X166740000Y-101609420D02*
X166740000Y-101890580D01*
X167760000Y-101609420D02*
X167760000Y-101890580D01*
%TO.C,D5*%
X136900000Y-102200000D02*
X136900000Y-100240000D01*
X138100000Y-100240000D02*
X136900000Y-100240000D01*
X138100000Y-102200000D02*
X138100000Y-100240000D01*
%TO.C,TP7*%
X138755000Y-82165000D02*
X139500000Y-82165000D01*
X138755000Y-82900000D02*
X138755000Y-82165000D01*
X138755000Y-83635000D02*
X138755000Y-83510000D01*
X138755000Y-83635000D02*
X138814435Y-83635000D01*
X138755000Y-83635000D02*
X140245000Y-83635000D01*
X140185565Y-83635000D02*
X140245000Y-83635000D01*
X140245000Y-83635000D02*
X140245000Y-83510000D01*
%TO.C,R30*%
X164153641Y-80120000D02*
X163846359Y-80120000D01*
X164153641Y-80880000D02*
X163846359Y-80880000D01*
%TO.C,R13*%
X165153641Y-86530000D02*
X164846359Y-86530000D01*
X165153641Y-87290000D02*
X164846359Y-87290000D01*
%TO.C,TP9*%
X141355000Y-82165000D02*
X142100000Y-82165000D01*
X141355000Y-82900000D02*
X141355000Y-82165000D01*
X141355000Y-83635000D02*
X141355000Y-83510000D01*
X141355000Y-83635000D02*
X141414435Y-83635000D01*
X141355000Y-83635000D02*
X142845000Y-83635000D01*
X142785565Y-83635000D02*
X142845000Y-83635000D01*
X142845000Y-83635000D02*
X142845000Y-83510000D01*
%TO.C,R32*%
X166153641Y-83120000D02*
X165846359Y-83120000D01*
X166153641Y-83880000D02*
X165846359Y-83880000D01*
D12*
%TO.C,Q6*%
X162019500Y-109269500D02*
X162019500Y-111540260D01*
X162019500Y-112459740D02*
X162019500Y-114730500D01*
X162019500Y-114730500D02*
X162283660Y-114730500D01*
X162283660Y-109269500D02*
X162019500Y-109269500D01*
X167216340Y-114730500D02*
X167480500Y-114730500D01*
X167480500Y-109269500D02*
X167216340Y-109269500D01*
X167480500Y-111540260D02*
X167480500Y-109269500D01*
X167480500Y-114730500D02*
X167480500Y-112459740D01*
X166731200Y-107809000D02*
G75*
G02*
X166578800Y-107809000I-76200J0D01*
G01*
X166578800Y-107809000D02*
G75*
G02*
X166731200Y-107809000I76200J0D01*
G01*
D11*
%TO.C,C11*%
X155642164Y-80390000D02*
X155857836Y-80390000D01*
X155642164Y-81110000D02*
X155857836Y-81110000D01*
%TO.C,TP2*%
X161255000Y-80515000D02*
X162000000Y-80515000D01*
X161255000Y-81250000D02*
X161255000Y-80515000D01*
X161255000Y-81985000D02*
X161255000Y-81860000D01*
X161255000Y-81985000D02*
X161314435Y-81985000D01*
X161255000Y-81985000D02*
X162745000Y-81985000D01*
X162685565Y-81985000D02*
X162745000Y-81985000D01*
X162745000Y-81985000D02*
X162745000Y-81860000D01*
%TO.C,C38*%
X126840000Y-114711252D02*
X126840000Y-113288748D01*
X128660000Y-114711252D02*
X128660000Y-113288748D01*
%TO.C,D11*%
X163650000Y-102450000D02*
X163650000Y-100490000D01*
X164850000Y-100490000D02*
X163650000Y-100490000D01*
X164850000Y-102450000D02*
X164850000Y-100490000D01*
%TO.C,TP8*%
X140055000Y-82165000D02*
X140800000Y-82165000D01*
X140055000Y-82900000D02*
X140055000Y-82165000D01*
X140055000Y-83635000D02*
X140055000Y-83510000D01*
X140055000Y-83635000D02*
X140114435Y-83635000D01*
X140055000Y-83635000D02*
X141545000Y-83635000D01*
X141485565Y-83635000D02*
X141545000Y-83635000D01*
X141545000Y-83635000D02*
X141545000Y-83510000D01*
%TO.C,R25*%
X144620000Y-101346359D02*
X144620000Y-101653641D01*
X145380000Y-101346359D02*
X145380000Y-101653641D01*
%TO.C,C36*%
X127111252Y-94090000D02*
X125688748Y-94090000D01*
X127111252Y-95910000D02*
X125688748Y-95910000D01*
%TO.C,TP3*%
X136155000Y-82165000D02*
X136900000Y-82165000D01*
X136155000Y-82900000D02*
X136155000Y-82165000D01*
X136155000Y-83635000D02*
X136155000Y-83510000D01*
X136155000Y-83635000D02*
X136214435Y-83635000D01*
X136155000Y-83635000D02*
X137645000Y-83635000D01*
X137585565Y-83635000D02*
X137645000Y-83635000D01*
X137645000Y-83635000D02*
X137645000Y-83510000D01*
%TO.C,C20*%
X133640000Y-94392164D02*
X133640000Y-94607836D01*
X134360000Y-94392164D02*
X134360000Y-94607836D01*
%TO.C,R2*%
X165403641Y-94620000D02*
X165096359Y-94620000D01*
X165403641Y-95380000D02*
X165096359Y-95380000D01*
%TO.C,TP6*%
X137455000Y-82165000D02*
X138200000Y-82165000D01*
X137455000Y-82900000D02*
X137455000Y-82165000D01*
X137455000Y-83635000D02*
X137455000Y-83510000D01*
X137455000Y-83635000D02*
X137514435Y-83635000D01*
X137455000Y-83635000D02*
X138945000Y-83635000D01*
X138885565Y-83635000D02*
X138945000Y-83635000D01*
X138945000Y-83635000D02*
X138945000Y-83510000D01*
%TO.C,R35*%
X153765000Y-118227064D02*
X153765000Y-117772936D01*
X155235000Y-118227064D02*
X155235000Y-117772936D01*
%TO.C,D4*%
X132900000Y-102200000D02*
X132900000Y-100240000D01*
X134100000Y-100240000D02*
X132900000Y-100240000D01*
X134100000Y-102200000D02*
X134100000Y-100240000D01*
%TO.C,C22*%
X158590000Y-79857836D02*
X158590000Y-79642164D01*
X159310000Y-79857836D02*
X159310000Y-79642164D01*
%TO.C,R27*%
X159270000Y-101546359D02*
X159270000Y-101853641D01*
X160030000Y-101546359D02*
X160030000Y-101853641D01*
%TO.C,C14*%
X154488748Y-77265000D02*
X155011252Y-77265000D01*
X154488748Y-78735000D02*
X155011252Y-78735000D01*
%TO.C,C19*%
X135240000Y-95859420D02*
X135240000Y-96140580D01*
X136260000Y-95859420D02*
X136260000Y-96140580D01*
%TO.C,D1*%
X147640000Y-126000000D02*
X147640000Y-125200000D01*
X147640000Y-126000000D02*
X147640000Y-126800000D01*
X150760000Y-126000000D02*
X150760000Y-125200000D01*
X150760000Y-126000000D02*
X150760000Y-126800000D01*
X147690000Y-127300000D02*
X147360000Y-127540000D01*
X147360000Y-127060000D01*
X147690000Y-127300000D01*
G36*
X147690000Y-127300000D02*
G01*
X147360000Y-127540000D01*
X147360000Y-127060000D01*
X147690000Y-127300000D01*
G37*
%TO.C,C23*%
X157340000Y-79857836D02*
X157340000Y-79642164D01*
X158060000Y-79857836D02*
X158060000Y-79642164D01*
%TO.C,C52*%
X168590000Y-109461252D02*
X168590000Y-108038748D01*
X170410000Y-109461252D02*
X170410000Y-108038748D01*
%TO.C,TP10*%
X159455000Y-77065000D02*
X160200000Y-77065000D01*
X159455000Y-77800000D02*
X159455000Y-77065000D01*
X159455000Y-78535000D02*
X159455000Y-78410000D01*
X159455000Y-78535000D02*
X159514435Y-78535000D01*
X159455000Y-78535000D02*
X160945000Y-78535000D01*
X160885565Y-78535000D02*
X160945000Y-78535000D01*
X160945000Y-78535000D02*
X160945000Y-78410000D01*
%TO.C,R14*%
X170746359Y-83120000D02*
X171053641Y-83120000D01*
X170746359Y-83880000D02*
X171053641Y-83880000D01*
%TO.C,C49*%
X126840000Y-108538748D02*
X126840000Y-109961252D01*
X128660000Y-108538748D02*
X128660000Y-109961252D01*
%TO.C,R22*%
X138370000Y-101346359D02*
X138370000Y-101653641D01*
X139130000Y-101346359D02*
X139130000Y-101653641D01*
%TO.C,C43*%
X124340000Y-114711252D02*
X124340000Y-113288748D01*
X126160000Y-114711252D02*
X126160000Y-113288748D01*
%TO.C,R28*%
X162620000Y-101596359D02*
X162620000Y-101903641D01*
X163380000Y-101596359D02*
X163380000Y-101903641D01*
D14*
%TO.C,C30*%
X123850000Y-127430000D02*
X123850000Y-136150000D01*
X123850000Y-136150000D02*
X127600000Y-136150000D01*
X125430000Y-125850000D02*
X123850000Y-127430000D01*
X127600000Y-125850000D02*
X125430000Y-125850000D01*
X130400000Y-136150000D02*
X134150000Y-136150000D01*
X132570000Y-125850000D02*
X130400000Y-125850000D01*
X134150000Y-127430000D02*
X132570000Y-125850000D01*
X134150000Y-136150000D02*
X134150000Y-127430000D01*
D15*
X130900000Y-124190000D02*
G75*
G02*
X130700000Y-124190000I-100000J0D01*
G01*
X130700000Y-124190000D02*
G75*
G02*
X130900000Y-124190000I100000J0D01*
G01*
D11*
%TO.C,C24*%
X138240000Y-105140580D02*
X138240000Y-104859420D01*
X139260000Y-105140580D02*
X139260000Y-104859420D01*
%TO.C,C9*%
X160107836Y-92890000D02*
X159892164Y-92890000D01*
X160107836Y-93610000D02*
X159892164Y-93610000D01*
%TO.C,C50*%
X166107836Y-84140000D02*
X165892164Y-84140000D01*
X166107836Y-84860000D02*
X165892164Y-84860000D01*
%TO.C,R24*%
X151870000Y-101596359D02*
X151870000Y-101903641D01*
X152630000Y-101596359D02*
X152630000Y-101903641D01*
%TO.C,R21*%
X131870000Y-101346359D02*
X131870000Y-101653641D01*
X132630000Y-101346359D02*
X132630000Y-101653641D01*
%TO.C,TP4*%
X134855000Y-82165000D02*
X135600000Y-82165000D01*
X134855000Y-82900000D02*
X134855000Y-82165000D01*
X134855000Y-83635000D02*
X134855000Y-83510000D01*
X134855000Y-83635000D02*
X134914435Y-83635000D01*
X134855000Y-83635000D02*
X136345000Y-83635000D01*
X136285565Y-83635000D02*
X136345000Y-83635000D01*
X136345000Y-83635000D02*
X136345000Y-83510000D01*
%TO.C,D6*%
X135400000Y-100800000D02*
X135400000Y-102760000D01*
X135400000Y-102760000D02*
X136600000Y-102760000D01*
X136600000Y-100800000D02*
X136600000Y-102760000D01*
%TO.C,R12*%
X154100000Y-94653641D02*
X154100000Y-94346359D01*
X154860000Y-94653641D02*
X154860000Y-94346359D01*
%TO.C,C26*%
X140240000Y-105140580D02*
X140240000Y-104859420D01*
X141260000Y-105140580D02*
X141260000Y-104859420D01*
%TO.C,R16*%
X145120000Y-79553641D02*
X145120000Y-79246359D01*
X145880000Y-79553641D02*
X145880000Y-79246359D01*
%TO.C,C8*%
X150390000Y-90107836D02*
X150390000Y-89892164D01*
X151110000Y-90107836D02*
X151110000Y-89892164D01*
%TO.C,R17*%
X149646359Y-85120000D02*
X149953641Y-85120000D01*
X149646359Y-85880000D02*
X149953641Y-85880000D01*
%TO.C,TP11*%
X158205000Y-77065000D02*
X158950000Y-77065000D01*
X158205000Y-77800000D02*
X158205000Y-77065000D01*
X158205000Y-78535000D02*
X158205000Y-78410000D01*
X158205000Y-78535000D02*
X158264435Y-78535000D01*
X158205000Y-78535000D02*
X159695000Y-78535000D01*
X159635565Y-78535000D02*
X159695000Y-78535000D01*
X159695000Y-78535000D02*
X159695000Y-78410000D01*
D15*
%TO.C,U5*%
X124650000Y-88400000D02*
X125850000Y-88400000D01*
X126200000Y-88550000D02*
X126800000Y-88550000D01*
X126200000Y-91450000D02*
X126200000Y-88550000D01*
X126800000Y-88550000D02*
X126800000Y-91450000D01*
X126800000Y-91450000D02*
X126200000Y-91450000D01*
D11*
%TO.C,C7*%
X148515000Y-79761252D02*
X148515000Y-79238748D01*
X149985000Y-79761252D02*
X149985000Y-79238748D01*
%TO.C,C16*%
X132359420Y-91990000D02*
X132640580Y-91990000D01*
X132359420Y-93010000D02*
X132640580Y-93010000D01*
%TO.C,D8*%
X143150000Y-102200000D02*
X143150000Y-100240000D01*
X144350000Y-100240000D02*
X143150000Y-100240000D01*
X144350000Y-102200000D02*
X144350000Y-100240000D01*
%TO.C,R5*%
X138620000Y-79553641D02*
X138620000Y-79246359D01*
X139380000Y-79553641D02*
X139380000Y-79246359D01*
%TO.C,R20*%
X147120000Y-79553641D02*
X147120000Y-79246359D01*
X147880000Y-79553641D02*
X147880000Y-79246359D01*
%TO.C,C29*%
X142340000Y-88207836D02*
X142340000Y-87992164D01*
X143060000Y-88207836D02*
X143060000Y-87992164D01*
%TO.C,D9*%
X141675000Y-100800000D02*
X141675000Y-102760000D01*
X141675000Y-102760000D02*
X142875000Y-102760000D01*
X142875000Y-100800000D02*
X142875000Y-102760000D01*
%TO.C,R15*%
X170746359Y-84120000D02*
X171053641Y-84120000D01*
X170746359Y-84880000D02*
X171053641Y-84880000D01*
%TO.C,C2*%
X164892164Y-85550000D02*
X165107836Y-85550000D01*
X164892164Y-86270000D02*
X165107836Y-86270000D01*
%TO.C,C3*%
X148392164Y-100640000D02*
X148607836Y-100640000D01*
X148392164Y-101360000D02*
X148607836Y-101360000D01*
%TO.C,U1*%
X167690000Y-95250000D02*
X167690000Y-93300000D01*
X167690000Y-95250000D02*
X167690000Y-97200000D01*
X172810000Y-95250000D02*
X172810000Y-93300000D01*
X172810000Y-95250000D02*
X172810000Y-97200000D01*
X173045000Y-92790000D02*
X172715000Y-92550000D01*
X173045000Y-92310000D01*
X173045000Y-92790000D01*
G36*
X173045000Y-92790000D02*
G01*
X172715000Y-92550000D01*
X173045000Y-92310000D01*
X173045000Y-92790000D01*
G37*
%TO.C,R33*%
X163846359Y-83120000D02*
X164153641Y-83120000D01*
X163846359Y-83880000D02*
X164153641Y-83880000D01*
%TO.C,C54*%
X126840000Y-100461252D02*
X126840000Y-99038748D01*
X128660000Y-100461252D02*
X128660000Y-99038748D01*
%TO.C,C1*%
X170142164Y-90440000D02*
X170357836Y-90440000D01*
X170142164Y-91160000D02*
X170357836Y-91160000D01*
%TO.C,C41*%
X149840000Y-106211252D02*
X149840000Y-104788748D01*
X151660000Y-106211252D02*
X151660000Y-104788748D01*
%TD*%
M02*
